<svg width="95" height="83" viewBox="0 0 95 83" fill="none" xmlns="http://www.w3.org/2000/svg">
<path d="M5.50273 82.8018C34.1367 74.4062 61.8294 61.2659 91.3411 56.2413C96.9763 55.2745 94.5976 46.6881 88.9751 47.6549C59.4634 52.7431 31.7325 65.8198 3.1367 74.2027C-2.37131 75.8055 -0.0180016 84.4046 5.50273 82.8018Z" fill="#231F20"/>
<path d="M5.89698 18.905C7.56546 22.0759 10.4401 24.4416 13.8728 25.4688C15.6523 26.005 17.5826 25.5706 18.961 24.324C20.3302 22.6956 20.8064 20.4959 20.2331 18.4471C19.4793 15.2218 17.6542 12.3473 15.0558 10.2932C13.7977 9.0415 12.1215 8.29858 10.3492 8.20703C8.09978 8.35297 6.28889 10.11 6.07507 12.3539C5.675 14.0416 6.64661 15.7516 8.30117 16.2719C9.78948 16.6789 11.9774 15.763 12.2064 14.0458C12.2797 13.81 12.3267 13.5668 12.3463 13.3207C12.4226 13.079 12.3463 13.1426 12.2573 13.5369L11.494 14.2875C11.1262 14.4918 10.7037 14.5763 10.2856 14.5292C10.0566 14.5292 10.2093 14.72 9.89124 14.4274C10.0312 14.5419 11.0234 15.2033 10.5654 14.8217C10.9568 15.1538 11.3305 15.5062 11.6848 15.8775C12.0537 16.2592 12.3972 16.6535 12.7279 17.0605C13.364 17.8365 12.4226 16.6026 12.9696 17.3786L13.3004 17.8365C13.5166 18.1545 13.682 18.5489 13.9109 18.8541C14.1399 19.1594 13.7583 18.2817 13.8473 18.6888C13.9364 19.0958 14.0509 19.4011 14.1145 19.7573C14.229 20.4315 14.1145 19.1467 14.1145 20.1516C14.1145 20.4188 14.2798 20.7622 14.1145 20.546C14.1145 20.3425 14.1145 20.317 14.1145 20.4824C14.1145 20.6477 14.1145 20.6223 14.229 20.1898C14.435 19.8708 14.7257 19.6153 15.0685 19.452C15.5265 19.223 14.6233 19.452 15.5646 19.3375C15.0176 19.3375 16.048 19.4775 15.6664 19.3375L15.1067 19.1976C14.5342 19.0322 15.3611 19.3375 15.0176 19.1976C13.4401 18.4888 12.1552 17.2578 11.3795 15.7122C9.50962 12.0741 4.01434 15.2924 5.89698 18.9305V18.905Z" fill="#231F20"/>
<path d="M51.3733 7.35569C51.533 9.14652 51.0849 10.9389 50.1012 12.4439C50.3175 12.1768 49.8087 12.7365 49.7832 12.7874C49.974 12.4439 49.7832 12.7111 49.9868 12.6729C50.6991 12.5202 50.9535 12.8255 51.5896 12.9273L51.6913 13.0927C51.5859 12.9389 51.4923 12.7773 51.4115 12.6093C51.3242 12.4598 51.2518 12.3022 51.1952 12.1386C51.0807 11.8588 51.0553 11.5153 50.9154 11.2482C50.7754 10.9811 50.9154 11.8842 50.9154 11.528C50.9917 10.803 50.9154 10.0525 50.9154 9.32738L51.0553 8.64047C51.0553 8.86944 51.0553 8.9712 51.0553 8.64047C51.1443 8.15709 51.2334 7.67371 51.3606 7.19032C51.4584 6.78859 51.5816 6.39346 51.7295 6.00731C51.5514 6.52885 51.8694 5.61297 51.7295 6.00731C51.7295 5.88011 51.9076 5.76562 51.9584 5.63842C51.8058 6.10908 51.8567 5.84194 51.6532 5.98187C51.1045 6.36226 50.4202 6.49173 49.7705 6.33805C49.3762 6.33805 49.0709 5.8165 49.6433 6.50341C50.8972 7.72165 52.8925 7.72165 54.1464 6.50341C55.3514 5.24424 55.3514 3.25951 54.1464 2.00033C53.0305 0.43599 51.085 -0.306114 49.2108 0.117689C47.5275 0.7797 46.2516 2.19214 45.7635 3.93386C44.6139 6.75233 44.2575 9.83171 44.7332 12.8383C45.5346 16.7689 49.1854 20.8649 53.3323 18.1427C56.5379 16.0438 58.0516 11.0955 57.7336 7.44474C57.6997 5.7026 56.2956 4.29843 54.5534 4.26459C52.8029 4.27843 51.3871 5.69416 51.3733 7.44474V7.35569Z" fill="#231F20"/>
</svg>
