<svg fill="none" height="26" viewBox="0 0 47 26" width="47" xmlns="http://www.w3.org/2000/svg" xmlns:xlink="http://www.w3.org/1999/xlink"><linearGradient id="a"><stop offset="0" stop-color="#1e1e1e"/><stop offset="1" stop-color="#324084"/></linearGradient><linearGradient id="b" gradientUnits="userSpaceOnUse" x1="45.2751" x2="18.7826" xlink:href="#a" y1="4.81416" y2="13.627"/><linearGradient id="c" gradientUnits="userSpaceOnUse" x1="10.4424" x2="2.86784" xlink:href="#a" y1="1.30595" y2="2.78265"/><clipPath id="d"><path d="m0 0h47v26h-47z" transform="matrix(-1 0 0 1 47 0)"/></clipPath><g clip-path="url(#d)"><path d="m6.19677 5.00312c5.68753-1.90675 11.96223-.60599 16.97073 2.509 2.4636-6.17856 9.6707-6.983499 14.8091-3.53428 4.1269 2.5698 6.9711 6.86916 8.0843 11.54026.7021 2.5309 1.0569 5.1504.904 7.7762-.0899.3244.2046 1.076-.3297 1.0504-.6642-.2162-.1389-1.7204-.2666-2.3225.0454-2.2857-.4283-4.5441-1.053-6.7335-1.1406-4.2656-3.8082-8.16259-7.6155-10.50484-4.8559-3.19212-11.3221-2.48846-13.5798 3.35828 5.1148 3.14766 11.7164 14.44626 3.72 17.80006-8.7312 1.041-7.0933-12.2624-5.1155-17.39074-4.9022-3.0184-10.8248-4.04945-16.52803-3.54834zm20.01863 19.80278c2.5076.0984 4.2989-2.6899 4.0086-4.9884-.5315-4.2494-3.0096-8.1718-6.5359-10.62041-1.3152 4.02741-3.3327 14.47711 2.5273 15.60881z" fill="url(#b)"/><path d="m10.0379.191264c.1996-.306958.8247-.2402804.8654.168196-.175.70955-2.11092.93709-2.78488 1.24333-2.46416.63494-4.85585 1.53779-6.80684 3.20582 1.98952 1.84535 3.85327 3.83091 5.26408 6.15509l.00036.0004.00013.0005-.00013.0006-.00036.0003c-1.44195-1.35033-2.8799-2.70767-4.40413-3.9683-.73563-.75436-1.999332-1.33127-2.17127559-2.44401 2.15819559-3.09853 6.72311559-3.12244 10.03764559-4.361926z" fill="url(#c)"/></g></svg>