<svg width="47" height="26" viewBox="0 0 47 26" fill="none" xmlns="http://www.w3.org/2000/svg">
<g clip-path="url(#clip0_197_2879)">
<path d="M6.19677 5.00312C11.8843 3.09637 18.159 4.39713 23.1675 7.51212C25.6311 1.33356 32.8382 0.528621 37.9766 3.97784C42.1035 6.54764 44.9477 10.847 46.0609 15.5181C46.763 18.049 47.1178 20.6685 46.9649 23.2943C46.875 23.6187 47.1695 24.3703 46.6352 24.3447C45.971 24.1285 46.4963 22.6243 46.3686 22.0222C46.414 19.7365 45.9403 17.4781 45.3156 15.2887C44.175 11.0231 41.5074 7.12611 37.7001 4.78386C32.8442 1.59174 26.378 2.2954 24.1203 8.14214C29.2351 11.2898 35.8367 22.5884 27.8403 25.9422C19.1091 26.9832 20.747 13.6798 22.7248 8.55146C17.8226 5.53306 11.9 4.50201 6.19677 5.00312ZM26.2154 24.8059C28.723 24.9043 30.5143 22.116 30.224 19.8175C29.6925 15.5681 27.2144 11.6457 23.6881 9.19709C22.3729 13.2245 20.3554 23.6742 26.2154 24.8059Z" fill="url(#paint0_linear_197_2879)"/>
<path d="M10.0379 0.191264C10.2375 -0.115694 10.8626 -0.0490164 10.9033 0.35946C10.7283 1.06901 8.79238 1.29655 8.11842 1.60279C5.65426 2.23773 3.26257 3.14058 1.31158 4.80861C3.3011 6.65396 5.16485 8.63952 6.57566 10.9637L6.57602 10.9641L6.57615 10.9646L6.57602 10.9652L6.57566 10.9655C5.13371 9.61517 3.69576 8.25783 2.17153 6.9972C1.4359 6.24284 0.172198 5.66593 0.000254412 4.55319C2.15845 1.45466 6.72337 1.43075 10.0379 0.191264Z" fill="url(#paint1_linear_197_2879)"/>
</g>
<defs>
<linearGradient id="paint0_linear_197_2879" x1="45.2751" y1="4.81416" x2="18.7826" y2="13.627" gradientUnits="userSpaceOnUse">
<stop stop-color="#1E1E1E"/>
<stop offset="1" stop-color="#324084"/>
</linearGradient>
<linearGradient id="paint1_linear_197_2879" x1="10.4424" y1="1.30595" x2="2.86784" y2="2.78265" gradientUnits="userSpaceOnUse">
<stop stop-color="#1E1E1E"/>
<stop offset="1" stop-color="#324084"/>
</linearGradient>
<clipPath id="clip0_197_2879">
<rect width="47" height="26" fill="white" transform="matrix(-1 0 0 1 47 0)"/>
</clipPath>
</defs>
</svg>
