<svg viewBox="0 0 108.3 118.84" xmlns="http://www.w3.org/2000/svg"><path d="m6.71 17.45c3.37-.46 12.73-.42 16.14 0 2.53.32 4.31 1.59 4.95 4.12l.06 75.29c-.44 2.85-2.53 4.26-5.28 4.58-2.98.35-14.36.46-16.94-.26-2.14-.6-3.72-2.44-3.86-4.67l-.07-73.95c.22-2.78 2.27-4.75 5-5.13z"/><path d="m38.21 17.45c3.42-.46 12.69-.42 16.14 0 2.45.31 4.17 1.78 4.95 4.11l.07 75.3c-.46 2.09-1.88 3.78-3.95 4.31-2.5.65-15.8.67-18.27 0-1.96-.53-3.42-2.15-3.88-4.12l-.06-74.76c.27-2.68 2.41-4.51 5-4.86z"/><path d="m82.51 17.71c2.89-.42 5.08.51 6.22 3.25l17.87 71.11c-.15 2.19-1.14 3.88-3.14 4.86-1.87.91-13.37 4.15-15.41 4.33-2.16.18-3.7-.47-5.05-2.14-6.67-23.61-12.13-47.68-18.3-71.48-.28-2.41.7-4.55 2.92-5.6s12.34-3.95 14.89-4.32z"/></svg>