<?xml version="1.0" encoding="UTF-8"?>
<svg id="Layer_9" data-name="Layer 9" xmlns="http://www.w3.org/2000/svg" viewBox="0 0 112.24 101.4">
  <path d="M6.17,43.26l99.51-.06c8.78,1.74,8.68,13.86-.48,15H7.31c-9.22-.83-9.64-12.77-1.14-14.94Z"/>
  <path d="M6.9,21.37l98.07-.06c9.3.83,9.76,13.13.72,14.76H6.83c-9.04-1.31-9.03-13.45.06-14.69h.01Z"/>
  <path d="M5.61.06l79.43-.06c7.53.83,7.91,13.13.58,14.76H5.56C-1.76,13.45-1.75,1.31,5.61.07h0Z"/>
  <path d="M108.76,77.83c-1.22.83-1.94,1.2-3.55,1.34H7.54c-8.65-.69-10.49-11.31-1.79-13.71,32.93-.8,66-.12,98.98-.34,7.15.54,10.56,8.26,4.03,12.71h0Z"/>
  <path d="M84.48.35c2.57.35,5.41,2.51,6.15,5.04,1.45,4.98-3.08,9.02-7.82,9H8.02c-3.78-.06-7.34-2.62-7.98-6.42h30.61l.36-.36V.35h53.48-.01Z"/>
  <path d="M6.66,87.31l49.21-.04c9.62,1.4,9.26,12.97-.69,13.77-15.35-.84-31.95,1.14-47.16,0-9.97-.75-10.9-11.82-1.37-13.74h.01Z"/>
</svg>