<?xml version="1.0" encoding="UTF-8"?>
<svg id="Layer_9" data-name="Layer 9" xmlns="http://www.w3.org/2000/svg" viewBox="0 0 149.37 140.64">
  <defs>
    <style>
      .cls-1 {
        fill: #fff;
      }
    </style>
  </defs>
  <path class="cls-1" d="M147.45,10.6v128.79H1.91V10.6h145.54ZM103.98,26.55h-53.48v7.26l-.36.36h-30.61c.64,3.8,4.21,6.36,7.98,6.42h74.79c4.74.02,9.27-4.02,7.82-9-.74-2.53-3.58-4.7-6.15-5.04ZM31.69,27.75h-.48v4.05h.48v-4.05ZM25.49,27.98c-.73-.17-.32.31-.55.64-.08.12-.37.06-.39.09-.36.5.41.43.47.62.15.57-.23,1.77.1,2.24l1.09.22c-.82-.47-.95-1.57-.72-2.46.06-.23.45-.13.47-.16.33-.41-.83-.6-.47-1.18ZM21.86,29c-.86-1-3.55.84-.42.18v.71c-.88-.15-1.93.21-1.63,1.26s1.61.29,2.35.65l-.29-2.79ZM24.3,28.7h-1.43s0,3.09,0,3.09c1.02.13.15-1.81.58-2.4.24-.35,1.07.06.85-.69ZM27.4,28.7c-.29-.39-.43,0-.48.35-.11.85.08,1.87,0,2.74.29.39.43,0,.48-.35.11-.85-.08-1.87,0-2.74ZM30.19,29c-2.16-1.82-3.3,3.3-.53,2.8.55-.1.83-.68.84-1.2-.64-.23-.45.44-.7.6-1.4.87-1.59-1.76-.82-2.01l1.52.46s-.24-.59-.3-.64ZM34.79,30.36c.16-1.31-1.1-2.21-2.16-1.27-.92,1.97.57,3.9,2.16,1.99l-1.51.22-.39-.93h1.91ZM37.4,28.7c-.29-.39-.43,0-.48.35-.11.85.08,1.87,0,2.74.29.39.43,0,.48-.35.11-.85-.08-1.87,0-2.74ZM40.5,29.65c.08-.4-.31-.81-.65-.91-2.27-.68-2.21,3.66,0,3.01.95-.28.72-1.64.17-1.15-.14.13-.1,1.13-.97.6-.67-.41-.65-1.96.37-2.04l1.07.48ZM42.11,28.74c-1.49.26-1.4,3.68.84,3.01,1-.3,1.21-3.36-.84-3.01ZM46.69,31.79c-.09-.84.38-2.79-.65-3.06-.46-.12-1.16.3-1.73-.03v3.09c.64.85.41-2.39.69-2.48,1.57-.74,1.11,1.24,1.22,2.13.04.36.19.73.48.35ZM26.4,47.57c-9.1,1.24-9.11,13.38-.06,14.69h98.85c9.04-1.62,8.58-13.92-.72-14.75l-98.07.06ZM25.67,69.46c-8.51,2.17-8.09,14.11,1.14,14.94h97.89c9.16-1.14,9.26-13.26.48-15l-99.51.06ZM128.26,104.03c6.53-4.45,3.12-12.18-4.03-12.71-32.98.22-66.05-.46-98.98.34-8.7,2.4-6.87,13.02,1.79,13.71h97.68c1.61-.14,2.33-.51,3.55-1.34ZM26.16,113.51c-9.53,1.92-8.6,12.99,1.37,13.74,15.21,1.14,31.8-.84,47.16,0,9.94-.81,10.31-12.37.69-13.77l-49.21.04Z"/>
  <path d="M25.67,69.46l99.51-.06c8.78,1.74,8.68,13.86-.48,15H26.81c-9.22-.83-9.64-12.77-1.14-14.94Z"/>
  <path d="M26.4,47.57l98.07-.06c9.3.83,9.76,13.13.72,14.76H26.33c-9.04-1.31-9.03-13.45.06-14.69Z"/>
  <path d="M25.11,26.26l79.43-.06c7.53.83,7.91,13.13.58,14.76H25.06c-7.32-1.31-7.31-13.45.05-14.69Z"/>
  <path d="M128.26,104.03c-1.22.83-1.94,1.2-3.55,1.34H27.04c-8.65-.69-10.49-11.31-1.79-13.71,32.93-.8,66-.12,98.98-.34,7.15.54,10.56,8.26,4.03,12.71Z"/>
  <path d="M103.98,26.55c2.57.35,5.41,2.51,6.15,5.04,1.45,4.98-3.08,9.02-7.82,9H27.52c-3.78-.06-7.34-2.62-7.98-6.42h30.61l.36-.36v-7.26h53.48Z"/>
  <path d="M26.16,113.51l49.21-.04c9.62,1.4,9.26,12.97-.69,13.77-15.35-.84-31.95,1.14-47.16,0-9.97-.75-10.9-11.82-1.37-13.74Z"/>
</svg>