<svg viewBox="0 0 112.24 101.4" xmlns="http://www.w3.org/2000/svg"><path d="m6.17 43.26 99.51-.06c8.78 1.74 8.68 13.86-.48 15h-97.89c-9.22-.83-9.64-12.77-1.14-14.94z"/><path d="m6.9 21.37 98.07-.06c9.3.83 9.76 13.13.72 14.76h-98.86c-9.04-1.31-9.03-13.45.06-14.69h.01z"/><path d="m5.61.06 79.43-.06c7.53.83 7.91 13.13.58 14.76h-80.06c-7.32-1.31-7.31-13.45.05-14.69z"/><path d="m108.76 77.83c-1.22.83-1.94 1.2-3.55 1.34h-97.67c-8.65-.69-10.49-11.31-1.79-13.71 32.93-.8 66-.12 98.98-.34 7.15.54 10.56 8.26 4.03 12.71z"/><path d="m84.48.35c2.57.35 5.41 2.51 6.15 5.04 1.45 4.98-3.08 9.02-7.82 9h-74.79c-3.78-.06-7.34-2.62-7.98-6.42h30.61l.36-.36v-7.26h53.48z"/><path d="m6.66 87.31 49.21-.04c9.62 1.4 9.26 12.97-.69 13.77-15.35-.84-31.95 1.14-47.16 0-9.97-.75-10.9-11.82-1.37-13.74h.01z"/></svg>