<svg viewBox="0 0 191.4 192.17" xmlns="http://www.w3.org/2000/svg"><path d="m16.94.22c9.38.14 18.75.29 28.12.45 6.96.11 13.92.23 20.88.36 3.73.07 7.3 1.57 9.94 4.22s4.12 6.23 4.12 9.96-1.48 7.31-4.12 9.96-6.21 4.16-9.94 4.22c-6.96.12-13.92.24-20.88.36-4.31.07-8.62.14-12.92.21.62 42.61 1.11 85.21 1.47 127.82 41.03-.28 82.07-.45 123.1-.5.24-4.56.65-9.12 1.24-13.69.91-6.96 2.24-13.92 3.98-20.88.71-2.81 2.1-5.5 4.27-7.49s4.91-3.1 7.73-3.1 5.56 1.12 7.73 3.1c2.17 1.99 3.56 4.68 4.27 7.49 1.74 6.96 3.07 13.92 3.98 20.88.98 7.54 1.48 15.08 1.48 22.61v8.51 17.46s-17.45 0-17.45 0c-52.33-.02-104.67-.23-157-.64l-16.94-.13.13-16.68c.41-53.18 1.02-106.35 1.83-159.51l.23-15.21zm164 75.49c0 6.63-5.37 12-12 12s-12-5.37-12-12v-28.03l-55.97 50.44c-4.92 4.44-12.51 4.04-16.95-.88s-4.04-12.51.88-16.95l52.8-47.59h-23.26c-6.63 0-12-5.37-12-12s5.37-12 12-12h66.5v67z"/></svg>