<?xml version="1.0" encoding="UTF-8"?>
<svg id="seed" xmlns="http://www.w3.org/2000/svg" viewBox="0 0 149.37 140.64">
  <defs>
    <style>
      .cls-1 {
        fill: #0d0d0d;
      }

      .cls-1, .cls-2 {
        stroke: #fff;
        stroke-miterlimit: 10;
      }

      .cls-3 {
        fill: #fff;
      }
    </style>
  </defs>
  <path class="cls-1" d="M36.02,93.47c-.33,1.54-2.99,1.94-3.25-.86-.42-4.52.37-9.64-.04-14.22-7.07-5.96-8.53-16.4-2.33-23.59.43-.5,2.15-1.86,2.26-2.06.41-.78.38-3.15.65-4.32,1.26-5.41,6.48-10.47,11.77-11.78.77-.19,1.55-.32,2.35-.35,1.2-5.72,5.11-10.02,10.56-12.02,1.6-.59,3.65-1.05,5.35-1.13.4-.02.85.33,1.26.2,6.23-8.6,19.27-8.57,25.56,0,.4.13.86-.22,1.26-.2,2.15.1,4.71.81,6.73,1.69,4.74,2.08,8.03,6.45,9.17,11.46.79.03,1.58.16,2.35.35,5.18,1.28,10.15,6.06,11.6,11.3.37,1.34.33,3.79.76,4.64.25.51,1.64,1.49,2.2,2.12,6.14,6.94,5.11,17.88-2.25,23.47l-.09,18.22c-.44,2.32-3.14,1.4-3.14.31v-16.31c-2.1.68-4.23,1.38-6.48,1.3l-.05,11.95c-.35,1.57-2.98,1-2.98.05v-11.99h-6.48v15.02c0,1.42-3.02,1.41-3.02.22v-15.23h-6.48v11.78c0,1.4-3.24,1.66-3.24-.22v-11.56h-3.02v29.92c0,.73,1.45,2.19,2.28,2.26,6.3.33,12.97-.4,19.22,0,4.1.26,6.74,2.17,7.01,6.49H39.26c.2-4.32,2.94-6.23,7.01-6.49,6.25-.4,12.92.33,19.22,0,3.62-.6,1.88-7.18,2.28-9.71-8.68.11-16.05-5.74-18.25-14.04-.21-.8-.76-2.64-.76-3.35v-5.08h-3.24v15.02c0,1.19-2.69,1.75-3.02,0v-15.01c-2.26.09-4.39-.61-6.49-1.3v13.07ZM67.77,83.16h-9.5v4.21c0,.33.59,2.27.76,2.7,1.26,3.17,5.2,6.26,8.75,6.05v-12.96Z"/>
  <rect class="cls-3" x="43.75" y="77.89" width="8.51" height="17.8"/>
  <path class="cls-2" d="M27.96,121.51c.02-1.28.64-2.45,1.73-3.2.73-.5,1.67-.78,2.56-.83,3.09-.18,6.82.34,9.78,0,.85-.1,1.52-1.02,1.52-1.82-.25-5.17.31-10.6,0-15.74-.2-3.32-1.43-6.35-3.51-8.99-.48.36-.85.76-1.34,1.11-2.35,1.68-6.3,2.79-9.19,2.03-.33-.09-1.37-.51-1.81-.69-11.54-4.65-9.45-21.27,3.89-22.58,1.46-.14,1.87.37,2.58-1.2.91-2,1.17-3.54,2.64-5.41,6.08-7.7,18.32-6.3,22.7,2.28.48.94,1.1,3.43,1.73,4.02.48.45,2.52.33,3.36.45,7.32.99,11.64,8.53,9.56,15.11-2.4,7.56-12.17,10.93-18.58,5.56-.2-.17-.5-.74-.73-.68-1.95,2.47-3.29,5.49-3.51,8.62-.37,5.23.29,10.85,0,16.12,0,.8.67,1.73,1.52,1.82,2.97.33,6.7-.18,9.78,0,.29.02,1.05.08,1.29.14.1.02.1.2.2.24,1.85.72,2.61,1.73,2.8,3.66H27.96ZM51.83,86.43c-.21-.19-.65-.28-.95-.3-.97-.06-2.36.36-3.44.36s-2.75-.48-3.69-.34c-.74.11-1.18.72-1.13,1.42s1.74,2.67,2.22,3.44c.79,1.26.95,2.93,2.98,2.67,1.3-.16,1.65-1.77,2.22-2.67.53-.84,2.28-2.84,2.22-3.66-.02-.22-.27-.77-.43-.92Z"/>
  <path class="cls-2" d="M95.87,121.51c.11-1.45.88-2.18,2.07-2.28,1.55-.13,3.21.11,4.78,0,.52-.14.7-.66.74-1.24l.18-1.05-4.82-5.85,2.64-3.08,2.39,2.73.53-7.01,9.35-3.35.29,6.05,2.99-3.57c-.09-1.27.25-2.63,1.42-2.94.37-.1,1.09-.18,1.42.02v1.29c0,.09-.14.58-.18.7-.37.96-1.26,1.41-2.11,1.32l2.17,2.77c-.08.11-.21.16-.29.26-1.57,1.99-3.22,3.9-4.84,5.85-.14.16-.37.24-.41.49-.06.37-.03-5.31-.02-4.88.06,3.23.23,6.48.32,9.7.06,1.92-.03-1.27.13.61.02.22.48,1.29.57,1.48.16.33.09-.46,0,0l6.05.03c.58.44.89,1.13.95,1.94h-26.3Z"/>
</svg>