<svg width="77" height="126" viewBox="0 0 77 126" fill="none" xmlns="http://www.w3.org/2000/svg">
<path d="M63.7039 41.0069C49.1946 43.3594 40.498 26.8922 40.498 26.8922L44.5655 21.5498C46.4521 26.4602 49.8821 30.6252 54.3396 33.4183C61.3363 37.3948 64.6297 36.2413 64.6297 36.2413L63.7039 41.0069Z" fill="#231F20"/>
<path d="M5.77266 93.4449C6.03067 92.2459 8.1403 90.7737 9.08128 90.197C12.4973 88.5274 16.5739 89.0081 19.508 91.4263C28.8723 99.8041 10.083 101.853 14.3174 109.639C15.3646 111.582 6.65293 119.352 6.65293 119.352C6.65293 119.352 3.20772 103.204 4.67991 97.4213C6.15209 91.6388 5.77266 93.4297 5.77266 93.4449Z" fill="#231F20"/>
<path d="M66.3144 25.4358C67.2661 23.2296 68.0722 20.9633 68.7275 18.6516C69.3293 16.5702 69.6308 14.4135 69.623 12.2469C69.623 11.746 69.5167 11.3666 69.5016 10.9264C69.42 10.5703 69.3135 10.2204 69.1828 9.87922C69.0848 9.59953 68.9413 9.33799 68.7579 9.10519C68.5671 8.8213 68.3372 8.56582 68.0749 8.34633C66.967 7.39712 65.4617 7.05631 64.053 7.4357C61.4577 7.95172 58.574 10.031 55.8876 12.2013C50.9705 16.3817 46.5549 21.1183 42.7291 26.3161C38.942 31.6158 35.7794 37.335 33.304 43.36C31.0171 48.7955 29.0805 54.3719 27.5064 60.0549C26.444 63.667 25.6851 67.3703 24.6986 71.028L21.6632 81.9403C21.0713 84.1714 20.1455 83.8223 19.3562 81.6368C18.2202 78.2179 17.832 74.5948 18.218 71.0128C20.7981 55.3955 25.3512 39.8389 34.5637 25.9974C37.4626 21.854 40.407 18.0142 43.7156 14.2654C46.9335 10.2386 50.6808 6.66493 54.8556 3.64141C57.4265 1.84961 60.3586 0.642573 63.4459 0.105135C65.2717 -0.134449 67.128 0.0366627 68.8793 0.605981C70.592 1.16593 72.1508 2.11682 73.4324 3.3834C74.0953 4.04729 74.6854 4.77993 75.193 5.56891C75.6524 6.34479 76.0241 7.16944 76.3009 8.02761L76.6652 9.27213L76.8473 10.4863C76.9568 11.2757 77.0076 12.0722 76.9991 12.8691C76.9431 15.7858 76.4886 18.681 75.6483 21.4746C73.6868 27.9315 70.9016 34.1089 67.3616 39.8541C62.171 48.5202 55.7359 56.1999 49.4525 63.7581C44.52 69.6165 39.724 75.3838 34.5637 80.9235C33.4406 82.1376 32.3631 83.367 31.1641 84.5508C29.583 86.085 27.8488 87.453 25.9887 88.6335C25.0296 89.1809 23.9626 89.5124 22.8622 89.6048C22.4835 89.6392 22.1025 89.6392 21.7239 89.6048C21.2534 89.6048 21.3596 88.9522 21.8757 87.8746C22.6153 86.2509 23.5478 84.7222 24.6531 83.3215C25.7155 82.001 26.6413 80.5744 27.7644 79.3147L31.0427 75.4142L37.6447 67.6283C42.0309 62.2859 46.4019 56.8525 50.4998 51.2521C53.5352 47.1239 56.3885 42.8288 59.1204 38.564C61.8697 34.397 64.2224 29.9813 66.1474 25.3751L66.3144 25.4358Z" fill="#231F20"/>
<path d="M0.658062 109.882C0.658062 109.654 0.658062 109.335 0.491113 109.199V108.789L0.384873 107.969L0.217924 106.3C0.126862 105.192 0.0509758 104.069 0.0206215 102.946C-0.053764 100.602 0.0731781 98.2561 0.40005 95.934C0.559057 94.0558 0.988449 92.2104 1.67493 90.455C2.47506 88.7428 3.59261 87.1978 4.96837 85.9019C5.66705 85.2044 6.44662 84.593 7.29048 84.0806C8.05652 83.6769 8.84731 83.3221 9.65811 83.0182C12.9452 81.6971 16.6156 81.6971 19.9027 83.0182C22.6928 84.1426 25.0858 86.0708 26.7779 88.5579C27.834 90.0627 28.5062 91.803 28.7358 93.627C28.7358 94.0672 28.7358 94.5225 28.7358 94.9626C28.7026 95.3952 28.6468 95.8259 28.5688 96.2527C28.4505 97.0971 28.2261 97.9232 27.901 98.7114C27.5216 99.6979 26.9601 99.4247 26.1253 98.5748C25.7004 98.1498 25.245 97.5883 24.6835 97.0571C24.1195 96.5114 23.5874 95.9337 23.0899 95.3269C22.5241 94.4533 21.8897 93.6261 21.1927 92.853C20.5508 92.2985 19.8295 91.8432 19.0528 91.5022C18.3068 91.2617 17.5393 91.094 16.761 91.0014C16.5644 91.0241 16.3658 91.0241 16.1691 91.0014C15.9639 90.9209 15.75 90.8649 15.5317 90.8344C15.0685 90.7286 14.5953 90.6727 14.1202 90.6675C13.8137 90.6458 13.5057 90.6766 13.2096 90.7586C12.8925 90.796 12.5843 90.8884 12.2989 91.0317C12.0409 91.1683 11.616 91.3201 11.4794 91.4263C11.2852 91.5452 11.1067 91.688 10.9482 91.8513C10.1672 92.7911 9.5653 93.8663 9.17244 95.0233C7.94491 98.5828 7.39411 102.341 7.54849 106.103V107.954V109.093C7.54849 109.745 7.65473 110.428 7.76097 111.126L7.98863 112.523L8.12522 113.266V113.357L8.23146 113.251L8.42876 113.023L10.9178 110.322L12.0409 109.047L13.6345 107.332C14.7991 106.033 16.0905 104.853 17.4895 103.811C18.0994 103.349 18.7496 102.942 19.4322 102.597C20.5368 101.983 21.8324 101.81 23.0595 102.111C23.9006 102.373 24.4689 103.158 24.4558 104.039C24.5172 104.446 24.5172 104.86 24.4558 105.268C24.2518 105.824 23.9484 106.338 23.5604 106.786C23.3304 107.188 23.0205 107.539 22.6498 107.818C20.8783 109.024 19.2175 110.385 17.6868 111.885L16.3209 113.19L15.9718 113.524C15.8504 113.631 15.7897 113.722 15.4558 114.01L13.9381 115.528C12.9819 116.545 12.0257 117.501 11.0848 118.563L8.30735 122.023L4.96837 125.939C4.34611 123.344 3.70867 120.733 3.07123 118.138C1.74002 115.555 0.862172 112.762 0.475936 109.882H0.658062Z" fill="#231F20"/>
<path d="M54.3391 36.121C52.7225 35.1668 51.1982 34.0642 49.786 32.8275C49.3003 32.357 48.7236 32.0231 48.2683 31.5375C46.7212 29.7659 45.4427 27.7767 44.474 25.6335C44.2615 25.1631 44.0794 24.6926 43.8517 24.2372C43.591 23.8048 43.3869 23.3406 43.2446 22.8561C43.0424 22.2387 42.8752 21.6104 42.7438 20.9742C42.6756 20.3207 42.7063 19.6606 42.8348 19.0163C42.9259 18.6065 43.6696 18.5913 44.5347 18.7735C45.3626 18.8634 46.1421 19.2081 46.7657 19.76C47.9341 21.3977 48.8451 23.2044 49.4673 25.1175C50.0913 26.2553 50.9884 27.2201 52.0777 27.9253C53.1702 28.8801 54.3547 29.724 55.614 30.4447C56.4004 30.8962 57.2228 31.282 58.0727 31.5982C59.3592 32.0821 60.7086 32.3785 62.0795 32.4784C63.1208 32.4722 64.1513 32.2661 65.1149 31.8714C65.3184 31.7958 65.5358 31.7647 65.7523 31.7803C66.5264 31.7803 66.8754 32.1597 67.3763 33.298C67.4825 33.556 67.6191 33.814 67.7102 34.072C68.061 34.9058 67.8412 35.8705 67.1638 36.47C66.1935 37.4546 64.9113 38.0715 63.5365 38.2154C62.231 38.443 60.8959 38.443 59.5904 38.2154C57.7227 37.7694 55.9215 37.0806 54.2329 36.1665L54.3391 36.121Z" fill="#231F20"/>
</svg>
