<svg width="96" height="111" viewBox="0 0 96 111" fill="none" xmlns="http://www.w3.org/2000/svg">
<path d="M48.5669 106.309C48.9047 106.572 48.3167 106.897 47.1909 107.085C46.6552 107.154 46.1128 107.154 45.5771 107.085C45.2769 106.959 44.9767 106.847 44.764 106.734C44.5514 106.622 44.026 105.346 43.7507 104.883C43.519 104.459 43.3823 103.989 43.3504 103.507C43.2379 102.556 43.0627 101.593 42.9376 100.63C42.9136 100.41 42.9393 100.188 43.0127 99.9791C43.2317 99.2445 43.2317 98.462 43.0127 97.7274C43.0127 97.6148 43.0127 97.4772 42.8125 97.3771C42.6124 97.2771 42.3622 95.188 42.4748 94.8752C42.5874 94.5625 42.725 94.1872 42.8376 93.8494L43.2128 92.8112C43.2128 92.7111 43.2128 92.611 43.388 92.5109C43.8258 92.2732 43.7257 92.0731 43.8133 91.8604C43.9115 91.5497 44.0371 91.2483 44.1886 90.9597C44.3173 90.7854 44.4736 90.6333 44.6514 90.5094C44.8015 90.3718 45.2519 90.5094 45.3144 90.5094C45.377 90.5094 45.6897 90.5094 45.8899 90.5094H46.09C46.09 90.5094 46.4653 90.8597 46.8906 91.2475L47.5036 91.7729C47.5985 91.8673 47.6825 91.9723 47.7538 92.0856L47.8914 92.4609C47.979 92.6736 48.0916 92.9613 48.2167 93.249C48.4293 93.8494 48.6295 94.4999 48.692 94.5875C48.7546 94.6751 48.692 94.8752 48.692 95.0128C48.692 95.1504 49.355 96.8642 49.33 96.9518C49.33 97.3396 49.5552 97.7024 49.1674 98.1277C49.1249 98.2012 49.1249 98.2919 49.1674 98.3654C49.2613 99.0293 49.2613 99.703 49.1674 100.367C49.1836 100.707 49.2254 101.046 49.2925 101.38C49.2925 101.38 49.2925 101.518 49.2174 101.58C49.1793 101.654 49.158 101.735 49.1549 101.818C49.1815 102.658 49.2735 103.494 49.4301 104.32C49.5051 104.495 49.0673 105.458 49.1674 105.671C49.2675 105.884 48.4418 106.171 48.5669 106.309Z" fill="#231F20"/>
<path d="M14.416 90.3094C18.07 94.6904 22.6672 98.1885 27.8638 100.542C29.785 101.36 31.7676 102.025 33.7933 102.531C37.3852 103.455 41.1004 103.805 44.8017 103.57C48.5576 103.387 52.2684 102.671 55.8226 101.443C58.9763 100.341 61.955 98.7904 64.6668 96.8394C68.1206 94.3031 71.2394 91.3398 73.9489 88.0202C74.8371 87.0194 75.1123 87.4072 74.7995 88.6206C74.5818 89.4377 74.28 90.2301 73.8989 90.9849C73.3349 92.0226 72.6596 92.9957 71.8848 93.8871C70.3391 95.6252 68.6438 97.2242 66.8185 98.6658C64.967 100.098 62.9861 101.354 60.9014 102.419C56.7016 104.491 52.1715 105.812 47.5162 106.322C44.7056 106.644 41.8744 106.753 39.0473 106.647C36.1608 106.523 33.3 106.049 30.5283 105.233C24.4733 103.413 18.912 100.239 14.2659 95.9512C11.4131 93.3414 8.95252 90.3331 6.96032 87.0194C3.9893 81.9686 2.20153 76.3102 1.73133 70.4693C1.31962 66.007 1.71369 61.507 2.89472 57.1842C3.19494 56.2585 3.44514 55.3327 3.77038 54.3945C5.13392 50.9794 6.0221 50.1163 6.99784 49.7535C7.21563 49.6579 7.44176 49.5825 7.67336 49.5283C8.31135 49.5283 8.13621 51.0044 7.41066 53.4063C6.33992 57.0025 5.75513 60.7259 5.67183 64.4772C5.01026 73.906 8.16556 83.2052 14.4285 90.2844L14.416 90.3094Z" fill="#231F20"/>
<path d="M39.1223 25.61C38.8471 25.4474 39.2974 25.2473 40.1731 24.9595C40.581 24.85 41.0017 24.7953 41.4241 24.7969C41.6634 24.8827 41.8939 24.9917 42.1121 25.1222C42.4233 25.7054 42.699 26.307 42.9377 26.9235C43.1045 27.3194 43.1896 27.7449 43.1879 28.1745L43.2755 30.6764C43.2744 30.8628 43.2316 31.0466 43.1504 31.2143C42.8934 31.7954 42.8108 32.4386 42.9127 33.0657C42.9127 33.1658 42.9127 33.2659 43.0378 33.3659C43.2646 34.0179 43.2994 34.7213 43.1379 35.3925C42.842 35.8943 42.5828 36.4169 42.3623 36.9562C42.3623 37.0312 42.3623 37.1063 42.2122 37.1688C41.8244 37.344 41.8869 37.4941 41.8619 37.6567C41.8236 37.8869 41.752 38.1102 41.6492 38.3197C41.5247 38.4525 41.3814 38.5663 41.2239 38.6575C40.9911 38.7566 40.7338 38.7827 40.4859 38.7325C40.3107 38.645 40.0605 38.7325 39.8354 38.7325H39.5977C39.1036 38.2922 38.6815 37.7772 38.3467 37.2064C38.3467 37.2064 38.2216 36.681 38.109 36.1431C37.9965 35.6052 37.8463 35.0672 37.8088 34.8921C37.7713 34.717 37.8088 34.6544 37.9214 34.5418C38.034 34.4293 37.6462 32.9156 37.6587 32.8531C37.6587 32.5403 37.5711 32.2151 37.9339 31.9023C38.009 31.8398 37.9339 31.7772 37.9339 31.7147C37.9264 31.1619 37.9937 30.6107 38.1341 30.0759C38.1528 29.801 38.1528 29.5252 38.1341 29.2503C38.1341 29.2503 38.1341 29.1502 38.2091 29.1002C38.2448 29.0424 38.2702 28.979 38.2842 28.9125C38.3468 28.2719 38.3468 27.6267 38.2842 26.9861C38.2842 26.861 38.6344 26.1479 38.5594 25.9978C38.4843 25.8477 39.2224 25.6851 39.1223 25.61Z" fill="#231F20"/>
<path d="M3.15735 70.8953C2.74454 71.158 2.49435 70.3699 2.86963 69.2065C3.08686 68.6639 3.34185 68.1372 3.63272 67.6303C3.80436 67.3979 3.93936 67.1405 4.03302 66.8672C4.03302 66.8672 4.2707 66.6545 4.47086 66.5169L5.27147 66.0916C5.59408 65.9056 5.96267 65.8146 6.33478 65.8289C7.08535 65.8289 7.88596 65.7038 8.68657 65.6287C8.88075 65.6176 9.07456 65.6563 9.2495 65.7413C9.85775 66.0094 10.5432 66.045 11.176 65.8414C11.2886 65.8414 11.4011 65.8414 11.4762 65.6538C11.5513 65.4661 13.3651 65.1659 13.6278 65.2785C13.9251 65.4095 14.2301 65.5223 14.541 65.6162C14.8538 65.7288 15.154 65.8789 15.4792 66.0165C15.5668 66.0165 15.6544 66.0165 15.742 66.1917C15.9796 66.642 16.1423 66.567 16.3424 66.6045C16.6248 66.6584 16.8984 66.751 17.1555 66.8797C17.3206 67.017 17.4603 67.1821 17.5683 67.3676C17.6431 67.6335 17.6431 67.9148 17.5683 68.1807C17.4683 68.3683 17.5683 68.6435 17.5683 68.8937C17.5746 68.977 17.5746 69.0606 17.5683 69.1439C17.1697 69.6927 16.7262 70.2073 16.2423 70.6826L15.2416 71.1955C14.7287 71.3706 14.1783 71.5833 14.0657 71.6458C13.9531 71.7084 13.828 71.6458 13.6904 71.5583C13.5528 71.4707 12.0516 72.1963 11.9766 72.1963C11.6263 72.1963 11.3011 72.4214 10.9008 72.0461C10.8257 71.9711 10.7632 72.0461 10.6881 72.0461C10.0834 72.1465 9.46637 72.1465 8.8617 72.0461C8.54686 72.0553 8.23319 72.0888 7.92349 72.1462C7.86094 72.1462 7.79839 72.1462 7.74835 72.0712C7.68164 72.0259 7.60372 71.9999 7.52318 71.9961C6.73343 71.9963 5.94424 72.0381 5.15888 72.1212C4.98375 72.1963 4.03302 71.5833 3.78283 71.6333C3.53264 71.6834 3.29496 70.7827 3.15735 70.8953Z" fill="#231F20"/>
<path d="M9.58725 94.5002C5.76781 89.7521 2.989 84.2541 1.43103 78.3629C-0.0859133 72.52 -0.400842 66.43 0.505323 60.4618C1.09154 56.1535 2.2615 51.945 3.98298 47.9522C8.72211 37.4054 17.2822 29.0465 27.9387 24.5594C29.6848 23.8321 31.4726 23.2097 33.2928 22.6955L36.0324 22.0325L38.8846 21.5946C45.5833 20.8719 52.3573 21.7863 58.6246 24.2592C62.6594 25.7965 66.3874 28.0417 69.633 30.8892C72.8166 33.8477 75.2262 37.5416 76.6509 41.6474C77.489 44.1493 76.2506 44.1493 74.2616 42.7858C73.3234 42.0728 71.9723 41.1846 70.6588 40.0963C69.898 39.5838 69.1671 39.0283 68.4697 38.4325C67.6667 37.8692 66.8942 37.2638 66.1554 36.6186C60.7295 31.7603 53.8814 28.7815 46.628 28.1246C45.7271 28.0185 44.8205 27.9684 43.9134 27.9745H42.5624L41.2114 28.0621C40.7735 28.0621 40.3107 28.0621 39.8728 28.1622L38.5468 28.3748C37.6712 28.4749 36.7705 28.7001 35.8573 28.9002C32.1888 29.7372 28.6559 31.0847 25.3618 32.9033C21.2917 35.1951 17.7363 38.2991 14.9163 42.0227C12.0557 45.7982 9.84842 50.0267 8.38633 54.5323C6.76312 59.4816 6.10489 64.6965 6.44735 69.894C6.82349 75.0987 8.28963 80.1663 10.7506 84.7678C11.5056 86.1862 12.3409 87.5603 13.2525 88.8835L14.7537 90.7724L15.5168 91.7231L16.3549 92.5988C18.581 94.969 21.1037 97.0418 23.8606 98.766C28.0767 101.382 32.7431 103.189 37.6211 104.095C42.4619 104.954 47.4354 104.689 52.1572 103.319C55.7514 102.228 59.1351 100.536 62.1648 98.3157C65.1869 96.154 67.8686 93.5524 70.1209 90.5973C71.1717 89.3463 71.9723 87.9828 72.9606 86.6818C73.7362 85.4308 74.4367 84.3425 74.9996 83.4418C75.4144 82.6647 75.9001 81.9277 76.4507 81.2401C77.113 80.299 78.022 79.5588 79.0777 79.101C79.5081 78.9185 79.9513 78.768 80.4038 78.6507C81.0543 78.5256 81.367 79.151 81.4045 80.4896C81.4168 81.327 81.3582 82.1639 81.2294 82.9915C80.9701 84.1012 80.6357 85.192 80.2286 86.2565C79.8909 87.1571 79.4405 87.9953 78.9777 88.8835L78.3522 90.1344L77.6141 91.3854C77.1012 92.211 76.6259 93.0867 76.063 93.8873C75.5 94.6879 74.812 95.4385 74.2491 96.2266C71.6566 99.3167 68.6363 102.021 65.2797 104.258C61.8093 106.551 58.0141 108.309 54.0211 109.474C53.0178 109.772 51.9988 110.014 50.9688 110.2L49.4176 110.525C48.9047 110.625 48.3793 110.65 47.8539 110.713C46.8031 110.813 45.7648 110.963 44.7015 111H41.6242C40.8415 110.992 40.0601 110.933 39.2849 110.825L36.9581 110.537C35.4069 110.312 33.9058 109.874 32.3796 109.537C30.8535 109.199 29.4649 108.561 28.0013 108.073C26.5377 107.585 25.1866 106.822 23.7981 106.159C18.2898 103.322 13.4165 99.3933 9.47466 94.6128L9.58725 94.5002Z" fill="#231F20"/>
<path d="M44.0134 68.5548C43.9599 68.6539 43.9179 68.7588 43.8883 68.8675C43.9381 68.9286 44.0027 68.976 44.0759 69.0051C44.1881 69.0556 44.3056 69.0933 44.4262 69.1177H44.7139H45.1517C45.4535 69.1176 45.7548 69.0925 46.0524 69.0427C46.9281 68.9676 47.7912 68.6924 48.7044 68.5548C51.9069 68.0794 55.2469 67.3038 58.7121 66.841C60.255 66.5664 61.8132 66.3867 63.3781 66.3031C65.4232 66.0438 67.5002 66.351 69.3827 67.1912C69.9707 67.4665 69.6579 68.167 68.9824 68.8425C68.3197 69.5698 67.444 70.0689 66.4805 70.2686C64.7722 70.3797 63.0745 70.618 61.4016 70.9816L55.9224 71.7948C53.6332 72.095 51.3565 73.0457 48.9171 73.6337C48.2541 73.7838 47.5536 73.8964 46.878 74.0215C46.5403 74.0215 46.1775 74.1215 45.8272 74.1716L44.5763 74.3342C43.5255 74.4218 42.4997 74.4092 41.4864 74.4468L40.0478 74.3092H39.3473C39.1346 74.3092 38.7719 74.3092 38.8594 74.0215L38.6468 70.3562C38.6468 69.7807 38.5467 69.1052 38.5592 68.6173V67.3664C38.4967 64.8645 38.7093 62.3626 38.6843 59.9357C38.6662 58.9896 38.5911 58.0455 38.4591 57.1086L38.2715 55.7075C38.2715 55.2446 38.2715 54.7818 38.1964 54.3189C38.1214 53.8561 38.1214 53.5058 38.1964 53.068C38.4216 51.5418 38.8719 51.0664 40.0604 50.7412C40.3227 50.6544 40.5901 50.5834 40.861 50.5285C41.7241 50.3784 42.5122 51.0164 43.0501 52.1548C44.6889 55.5449 44.5137 59.1226 44.5638 62.5377C44.5638 63.7886 44.5638 65.0396 44.4512 66.2906L44.3761 68.192V68.3922L44.0134 68.5548Z" fill="#231F20"/>
<path d="M65.58 16.1031C65.8678 16.2907 65.58 16.6285 64.7919 17.0788C64.4355 17.258 64.05 17.3724 63.6536 17.4166C63.4124 17.3404 63.1781 17.2441 62.953 17.1289C62.4951 16.5012 62.0773 15.8452 61.7021 15.1649C61.4271 14.705 61.2325 14.2016 61.1266 13.6763C60.8764 12.638 60.6137 11.5872 60.4386 10.5239C60.3855 10.3029 60.3686 10.0747 60.3886 9.84834C60.534 9.0207 60.534 8.17406 60.3886 7.34643C60.3886 7.20882 60.3886 7.07122 60.2385 6.93361C60.0883 6.79601 60.0383 4.43171 60.2385 4.09395C60.6012 3.3684 60.8639 2.64284 61.2392 1.9298C61.2392 1.82972 61.2392 1.70463 61.4394 1.64208C61.8897 1.51698 61.9272 1.29181 62.0398 1.07915C62.1769 0.759945 62.3973 0.483438 62.6778 0.278539C62.8689 0.171499 63.07 0.0835089 63.2783 0.0158391C63.4534 -0.0592182 63.7661 0.153444 63.8037 0.215992C63.8412 0.278539 64.1039 0.366106 64.2665 0.416144H64.4292C64.4292 0.516221 65.3048 2.28007 65.3173 2.40516C65.2633 3.21879 65.2884 4.03575 65.3924 4.84452C65.3924 4.96962 65.3924 5.09471 65.2673 5.21981C65.1422 5.3449 65.5675 7.02118 65.555 7.09624C65.555 7.45901 65.6801 7.82179 65.3424 8.20959C65.2798 8.28464 65.3424 8.3597 65.3424 8.43476C65.3925 9.08011 65.3925 9.72838 65.3424 10.3737C65.3593 10.7058 65.4012 11.0362 65.4674 11.362C65.4674 11.362 65.4674 11.4871 65.4674 11.5496C65.4554 11.6284 65.4554 11.7085 65.4674 11.7873C65.5474 12.5749 65.6981 13.3536 65.9178 14.1141C65.9928 14.2892 65.8177 15.2274 65.9178 15.4276C66.0179 15.6277 65.4549 16.1031 65.58 16.1031Z" fill="#231F20"/>
<path d="M84.2814 29.6379C84.369 29.9632 83.8686 29.7755 83.0305 29.3377C82.6228 29.1155 82.2481 28.8376 81.9171 28.512C81.7947 28.2685 81.6983 28.0127 81.6294 27.749C81.7965 27.0295 82.0485 26.3324 82.38 25.6724C82.5821 25.1896 82.895 24.7611 83.2932 24.4214C84.036 23.723 84.8351 23.087 85.6825 22.52C85.8788 22.3931 86.1011 22.3119 86.333 22.2823C87.0961 22.1678 87.8281 21.8997 88.4846 21.4942C88.5972 21.4316 88.7223 21.4191 88.7849 21.219C88.8474 21.0188 90.8739 20.1932 91.1867 20.3308C91.4994 20.4684 91.8997 20.4684 92.25 20.5935L93.2883 20.9563C93.3759 20.9563 93.4759 20.9563 93.576 21.1189C93.669 21.3662 93.9128 21.5236 94.1765 21.5067C94.6973 21.5164 95.1737 21.8023 95.4274 22.2573C95.5028 22.4676 95.5028 22.6975 95.4274 22.9078C95.3148 23.0704 95.4274 23.2956 95.4274 23.4832C95.433 23.554 95.433 23.6251 95.4274 23.6959C95.4274 23.7834 94.1765 25.0719 94.0764 25.1345L93.8012 25.2846L93.2257 25.6599C92.8129 25.9476 92.3751 26.1102 92.3 26.2103C92.225 26.3104 92.0999 26.2103 91.9748 26.2103C91.5414 26.4273 91.1234 26.6739 90.7238 26.9484C90.4361 26.9484 90.2735 27.2486 89.8482 26.9484C89.7606 26.9484 89.7231 26.9484 89.673 26.9484C89.239 27.1695 88.7817 27.3416 88.3095 27.4612C88.088 27.5664 87.8818 27.7011 87.6965 27.8616C87.6965 27.8616 87.5839 27.8616 87.5339 27.8616C87.4839 27.8616 87.3963 27.8616 87.3463 27.8616C86.9084 28.2493 86.2955 28.462 86.0077 28.9999C85.9327 29.1125 85.1571 29.2876 85.0945 29.4503C85.032 29.6129 84.2564 29.4878 84.2814 29.6379Z" fill="#231F20"/>
</svg>
