<svg width="36" height="22" viewBox="0 0 36 22" fill="none" xmlns="http://www.w3.org/2000/svg">
<path fill-rule="evenodd" clip-rule="evenodd" d="M31.5899 0.0142169L31.96 0.0464435L32.3292 0.07867C32.6182 0.103984 32.943 0.206907 33.2149 0.457576C33.4174 0.644296 33.5399 0.866673 33.6104 1.08355L33.6651 1.29644L33.7344 1.66949L33.8038 2.04156C33.8636 2.36229 33.8878 2.68737 33.876 3.01324L33.8614 3.39117L33.8487 3.7691C33.8423 3.94495 33.8554 4.11787 33.8887 4.28863L33.961 4.65875L34.0342 5.02887C34.0909 5.31875 34.1281 5.61153 34.1456 5.90582L34.1671 6.28082L34.1895 6.65484C34.2013 6.85321 34.2283 7.05047 34.2706 7.24664L34.3507 7.61578L34.4298 7.98394C34.495 8.28651 34.5333 8.5932 34.545 8.90191L34.5596 9.27691L34.5743 9.65289C34.5841 9.91095 34.5911 10.1696 34.5948 10.4283L34.6046 11.1812C34.6079 11.4195 34.6157 11.6578 34.628 11.8951L34.6475 12.2691L34.6661 12.6441C34.6788 12.8907 34.6939 13.1379 34.7091 13.3843L34.7315 13.7584L34.755 14.1334C34.7657 14.3078 34.7961 14.4817 34.8467 14.6558L34.9542 15.0211L35.0606 15.3882C35.1601 15.73 35.2056 16.0809 35.1964 16.4361L35.1768 17.188C35.1688 17.4959 35.1066 17.7928 34.9952 18.0748C35.2451 18.2887 35.3859 18.6203 35.338 18.9703C35.2629 19.5172 34.7579 19.8994 34.211 19.8248C34.0452 19.802 33.8802 19.7763 33.7169 19.7486C33.4623 19.8491 33.2036 19.872 32.9688 19.8511L32.1778 19.7808C31.8419 19.751 31.5138 19.6855 31.1973 19.5826L30.835 19.4634L30.4717 19.3462C30.374 19.3145 30.2774 19.3055 30.171 19.3199L29.7891 19.3716L29.4092 19.4224C29.1906 19.4519 28.9756 19.4927 28.7657 19.5445L28.3966 19.6353L28.0294 19.7261C27.6943 19.8089 27.3526 19.8447 27.0079 19.8326L26.252 19.8052C26.0459 19.798 25.8413 19.806 25.6387 19.8267L24.8926 19.9029C24.639 19.9289 24.3849 19.9532 24.1309 19.9752L23.3839 20.0396C23.1004 20.0641 22.8149 20.0737 22.5294 20.0689L22.1514 20.063L21.7755 20.0562C21.5871 20.053 21.4006 20.0681 21.2159 20.1002L20.8448 20.1646L20.4747 20.2281C20.1842 20.2785 19.891 20.3102 19.5967 20.3218L18.8458 20.3511C18.6496 20.3589 18.454 20.383 18.2598 20.4224L17.5206 20.5728C17.1906 20.6398 16.8562 20.6643 16.5196 20.6461L16.1407 20.6246L15.7628 20.605C15.5599 20.594 15.3589 20.5978 15.1602 20.6168L14.7872 20.6519L14.4132 20.688C14.2325 20.7053 14.0517 20.7412 13.8702 20.7964L13.503 20.9078L13.1368 21.0181C12.7852 21.1251 12.4236 21.1723 12.0567 21.1558L11.6778 21.1392L11.3008 21.1216C11.1453 21.1147 10.9922 21.1297 10.8399 21.1675L10.4717 21.2593L10.1036 21.3502C9.79318 21.4272 9.47758 21.473 9.15925 21.4859L8.78425 21.5015L8.40925 21.5162C8.14896 21.5267 7.88797 21.5341 7.62702 21.5367L7.25104 21.5396L6.87507 21.5435C6.62031 21.546 6.36657 21.5462 6.1153 21.5455H5.74519L5.37409 21.5445C5.03787 21.5436 4.7071 21.497 4.38483 21.4058L4.0362 21.3082L3.68659 21.2095C3.29805 21.0996 2.95196 20.9014 2.65729 20.6285L2.1114 20.1236C1.79584 19.8313 1.57422 19.4697 1.45319 19.0582L1.34577 18.6978L1.2403 18.3375C1.16239 18.0725 1.09547 17.8039 1.03815 17.5328L0.960029 17.1636L0.881904 16.7955C0.804317 16.4285 0.795694 16.0561 0.852607 15.6851L0.911201 15.3013L0.969795 14.9195C0.986673 14.8095 0.979043 14.7102 0.949287 14.6109L0.838935 14.2437L0.72956 13.8785C0.625261 13.5313 0.578327 13.1741 0.590888 12.8121L0.603584 12.4341L0.617256 12.0552C0.622321 11.9086 0.6047 11.7649 0.563545 11.6207L0.459052 11.2535L0.353584 10.8873C0.248462 10.5191 0.216648 10.141 0.256904 9.76031L0.336982 8.99859C0.355591 8.82272 0.353734 8.65177 0.331123 8.48492L0.280341 8.11285L0.230537 7.74176C0.194238 7.47386 0.165496 7.20466 0.145576 6.93512L0.0899118 6.18707C0.070991 5.93103 0.0550225 5.67917 0.0420602 5.43219L0.0244821 5.07183L0.00495084 4.71344C-0.00256979 4.5701 -0.0043996 4.39762 0.0205758 4.23199C0.0328867 4.15045 0.058893 4.02112 0.122138 3.88336C0.182648 3.75192 0.325345 3.51026 0.626045 3.36383L0.70417 3.32476L0.784248 3.28668L0.901435 3.23687C1.0175 3.19491 1.12512 3.17373 1.17487 3.16363C1.277 3.14291 1.39786 3.12297 1.53034 3.10406L1.90144 3.05035L2.27351 2.99762C2.43781 2.97417 2.60281 2.95558 2.76765 2.93609L2.88581 2.64703C3.06309 2.71894 3.25141 2.78751 3.44929 2.85894L3.80085 2.82281C4.05787 2.79578 4.31562 2.772 4.57331 2.75152L5.32038 2.69195C5.60059 2.66968 5.88282 2.66089 6.16511 2.66461L6.54206 2.66851L6.91999 2.67437C7.11126 2.67687 7.30042 2.66211 7.48737 2.63043L7.85749 2.56695L8.22858 2.50445C8.48184 2.46152 8.73553 2.4212 8.98933 2.38336L9.73249 2.27203C9.98028 2.23509 10.2288 2.19838 10.4766 2.16168L10.8467 2.10699L11.2188 2.0523C11.4626 2.0162 11.7068 1.97784 11.9503 1.93902L12.3204 1.88043L12.6915 1.82086C12.9845 1.77415 13.2803 1.74838 13.5772 1.74273L14.3301 1.72906C14.576 1.7244 14.8219 1.71759 15.0675 1.70953L15.4444 1.69683L15.8194 1.68414C16.0317 1.67716 16.2426 1.65855 16.4522 1.6275L17.1954 1.51812C17.442 1.48158 17.6891 1.44395 17.9356 1.4068L18.6778 1.29547C18.9195 1.25904 19.1621 1.2208 19.4034 1.18023L20.1436 1.05523C20.4617 1.00176 20.7834 0.982362 21.1065 0.997615L21.4844 1.01519L21.8643 1.03375C22.0303 1.04154 22.1923 1.02831 22.3526 0.993709L23.0909 0.833553C23.434 0.759427 23.7825 0.737222 24.1329 0.76617L24.5137 0.798397L24.8936 0.82867C25.0855 0.84454 25.274 0.843331 25.4591 0.823787L25.8321 0.784725L26.2051 0.743709C26.3775 0.725451 26.5507 0.688789 26.7247 0.629451L27.0889 0.504451L27.4532 0.380428C27.8073 0.259701 28.1742 0.20315 28.5479 0.214412L28.9268 0.226131L29.3048 0.23785C29.4867 0.243358 29.6659 0.229114 29.8428 0.196834L30.2139 0.130428L30.5831 0.0620685C30.9165 0.00120592 31.2532 -0.0152176 31.5899 0.0142169ZM20.0723 11.9302C19.6324 11.7273 19.3116 11.7662 18.8087 11.9205C18.778 11.9299 18.746 11.941 18.713 11.9517C18.1647 12.2554 17.6065 12.5376 17.0948 12.817C16.0101 13.4091 14.9801 14.06 14.1075 15.0298C13.0305 16.2271 11.4994 17.353 9.98737 18.3326C9.34082 18.7515 8.68206 19.1494 8.04987 19.524C8.14266 19.5213 8.23551 19.5219 8.32819 19.5181L8.70319 19.5035L9.07819 19.4869C9.25979 19.4795 9.44078 19.4545 9.62116 19.4097L9.98933 19.3179L10.3585 19.2271C10.697 19.1431 11.0424 19.108 11.3907 19.1236L11.7676 19.1412L12.1466 19.1578C12.2835 19.1639 12.4189 19.1476 12.5557 19.106L12.921 18.9937L13.2872 18.8824C13.5941 18.789 13.9078 18.727 14.2247 18.6968L14.5977 18.6607L14.9708 18.6255C15.2696 18.5971 15.5708 18.5906 15.8721 18.607L16.2491 18.6285L16.628 18.648C16.7957 18.6571 16.9603 18.6459 17.1231 18.6129L17.8624 18.4625C18.161 18.4018 18.4629 18.3651 18.7667 18.3531L19.5176 18.3238C19.7232 18.3156 19.9275 18.2937 20.1309 18.2584L20.8731 18.1295C21.1822 18.0758 21.4947 18.0519 21.8087 18.0572L22.1866 18.063L22.5626 18.0689C22.7797 18.0726 22.9964 18.065 23.211 18.0464L23.9581 17.982C24.2018 17.9609 24.4461 17.9376 24.6895 17.9127L25.4356 17.8365C25.73 17.8064 26.0263 17.7977 26.3233 17.8082L26.7003 17.8209L27.0782 17.8345C27.237 17.8401 27.393 17.8232 27.5489 17.7847L27.9171 17.6939L28.0284 17.6656C25.4852 16.2468 22.9813 14.2572 20.0723 11.9302ZM2.55573 4.97808L2.18464 5.03082L2.02546 5.0523L2.03913 5.32672C2.05132 5.55902 2.06711 5.79706 2.08503 6.03961L2.14069 6.78765C2.1576 7.01647 2.18118 7.24478 2.21198 7.47222L2.26276 7.8443L2.31257 8.21637C2.35713 8.54518 2.36132 8.87674 2.32624 9.20855L2.2862 9.58941L2.24616 9.97125C2.23283 10.0979 2.2432 10.2175 2.27741 10.3375L2.4864 11.0709C2.58466 11.4149 2.62871 11.7682 2.61628 12.1255L2.58991 12.8814C2.58502 13.0231 2.60254 13.1621 2.6446 13.3023L2.75495 13.6685L2.86433 14.0347C2.98092 14.4229 3.00777 14.8232 2.94636 15.2232L2.88776 15.605L2.82917 15.9888C2.80793 16.1276 2.81166 16.2567 2.83796 16.3814L2.99421 17.1197C3.04089 17.3405 3.09696 17.5588 3.16022 17.774L3.26569 18.1334L3.37116 18.4947C3.39138 18.5632 3.42239 18.611 3.47077 18.6558L4.01667 19.1617C4.08597 19.2258 4.15493 19.2631 4.23151 19.2847L4.46198 19.3502C4.53073 19.2735 4.61312 19.2062 4.7071 19.1519C5.92003 18.4522 7.43557 17.6029 8.90046 16.6539C10.3738 15.6993 11.7241 14.6881 12.6202 13.692C13.1902 13.0583 13.8052 12.5442 14.4249 12.108C13.8306 11.8621 13.2939 11.5053 12.7608 11.0845C12.2638 10.6922 11.7377 10.2188 11.1729 9.71832C10.599 9.2098 9.95746 8.64876 9.1905 8.04156C6.72604 6.09056 4.85381 5.48227 3.20124 4.89801C2.98592 4.92134 2.77019 4.94749 2.55573 4.97808ZM31.2354 2.00152C27.6972 3.54029 25.1485 5.97109 21.0479 10.1783C21.0488 10.1787 21.0499 10.1798 21.0508 10.1802L21.1436 10.2271L21.2237 10.2916C25.9485 14.0714 29.2117 16.612 33.0235 17.5611L33.1046 17.4087C33.1529 17.3173 33.1754 17.2293 33.1778 17.1353L33.1973 16.3843C33.2011 16.2385 33.1833 16.0932 33.1407 15.9468L33.0333 15.5816L32.9268 15.2154C32.8354 14.9014 32.7789 14.5802 32.7589 14.2554L32.7364 13.8814L32.713 13.5074C32.6974 13.2545 32.6821 13.0008 32.669 12.7476L32.6505 12.3726L32.6309 11.9986C32.6174 11.7361 32.6092 11.4719 32.6055 11.2086L32.5938 10.4566C32.5904 10.2139 32.5845 9.97117 32.5753 9.72906L32.5616 9.35308L32.5469 8.97808C32.5397 8.78622 32.5155 8.59512 32.4747 8.40582L32.3946 8.03668L32.3155 7.66851C32.2518 7.373 32.2113 7.07396 32.1934 6.77301L32.17 6.39801L32.1485 6.02398C32.1364 5.81911 32.111 5.61526 32.0714 5.41265L31.9981 5.04254L31.9258 4.67242C31.863 4.35071 31.8378 4.02489 31.8497 3.69683L31.8633 3.3189L31.877 2.94C31.8834 2.76172 31.8708 2.58482 31.838 2.40875L31.7676 2.03668L31.4161 2.0064C31.3561 2.00116 31.2958 2.00047 31.2354 2.00152ZM23.9688 2.75933C23.8126 2.74641 23.6611 2.75657 23.5128 2.78863L23.1436 2.86871L22.7755 2.94781C22.4445 3.01933 22.1082 3.04678 21.7696 3.03082L21.3907 3.01422L21.0118 2.99566C20.8301 2.9871 20.6515 2.99835 20.4757 3.02789L20.1055 3.08941L19.7344 3.15191C19.4819 3.19436 19.2286 3.23391 18.9757 3.27203L18.6046 3.32867L18.2335 3.38433C17.9852 3.42174 17.7366 3.45985 17.4883 3.49664L16.7452 3.60601C16.4601 3.64824 16.1731 3.67467 15.8848 3.68414L15.1339 3.70758C14.8788 3.71596 14.6227 3.72325 14.3673 3.72808L13.6153 3.74273C13.411 3.74661 13.2081 3.76439 13.0069 3.79644L12.6358 3.85601L12.2647 3.91461C12.0139 3.95459 11.7619 3.99363 11.5108 4.03082L11.1407 4.08551L10.7696 4.14019C10.5224 4.1768 10.2746 4.2137 10.0274 4.25055L9.28425 4.36187C9.04349 4.39777 8.80285 4.43539 8.56257 4.47613L8.19147 4.53961L7.82136 4.60211C7.76919 4.61095 7.71647 4.61734 7.66413 4.62457C8.51816 5.09433 9.4434 5.69002 10.4327 6.4732C11.2439 7.11546 11.918 7.70632 12.4991 8.22125C13.0893 8.74421 13.5599 9.1667 14.0001 9.51422C14.8499 10.1851 15.4566 10.4673 16.2579 10.4673C16.876 10.4672 17.3074 10.3062 17.8995 10.1119C18.3091 9.88155 18.681 9.65379 19.0186 9.3941C21.7226 6.61092 23.8554 4.44487 26.0538 2.77105L26.0421 2.77301L25.669 2.81207C25.3572 2.84501 25.0433 2.84885 24.7286 2.82281L24.3487 2.79156L23.9688 2.75933Z" fill="white"/>
</svg>
