<?xml version="1.0" encoding="UTF-8"?>
<svg id="uuid-0841812c-9e57-4270-9cac-22fd44afb579" data-name="Layer 2" xmlns="http://www.w3.org/2000/svg" viewBox="0 0 77 127">
  <g id="uuid-3c382e06-a677-44b5-9fb3-8d8220e2124f" data-name="Layer 1">
    <g>
      <path d="M77,0v127H0V0h77ZM41.99,15l1.51,5.98c5.63-5.67,4.42-15.37-2.86-18.9-6.44,4.6-7.22,13.69-1.14,18.92l2.48-5.99ZM76,10c-15.27-1.67-27.71,9.48-27,25l9.5-6.99-5.5,9.99c15.16.63,24.64-13.9,23-28ZM38.99,37c.07-11.36-9.34-21.39-21-20-1.52,12.53,5.31,21.88,18,23l-5.5-9.99,8.5,6.99ZM21,38.99c-.12-7.18-17.77-9.42-18.92-4.39,2.78,8.23,10.97,11.1,18.92,8.39l-5.99-4.99,5.99.99ZM49.13,113.86c-1.67-14.64-1.34-29.62-1.18-44.4.06-5.75,1.5-11.58,1.08-18-.15-2.32-1.15-12.45-3.54-12.44-3.29,3.49-2.44,8.63-2.51,12.97l-9.99-5.99c1.77,3.06,6.03,7.13,7.22,10.27,2.46,6.46-1.85,23.24-2.26,31.18-.45,8.57-.2,18.12,1.04,26.54-5.75-1.7-7.7,1.94-11.09,3.42-4,1.75-9.62,1.67-9.91,7.58,7.79-2.98,15.45,1.17,22.44,1.03,3.07-.06,6.78-1.75,10.07-2.01s17.47,1.27,17.47-2.52c-4.63-6.26-12.17-5.42-18.85-7.64ZM55,51.98c5.39,2.33,10.86,3.72,14.98-1.48-4.44-5.75-9.53-6.82-15.98-3.49l4.99,2c-.24,2.5-5-.89-3.99,2.97ZM30,48.01c-3.86-4.1-21.16.67-19.94,8.93,8.06,4.37,17.36,3.22,20.94-5.94-.23-.28-6.32,2.92-6.98.01.84-.06,8.09-.77,5.99-3Z" style="fill: #fff;"/>
      <path d="M49.13,113.86c6.68,2.22,14.22,1.38,18.85,7.64,0,3.78-14.32,2.27-17.47,2.52s-7,1.95-10.07,2.01c-7,.14-14.66-4.01-22.44-1.03.29-5.92,5.91-5.83,9.91-7.58,3.38-1.48,5.33-5.12,11.09-3.42-1.24-8.42-1.49-17.97-1.04-26.54.42-7.94,4.72-24.72,2.26-31.18-1.2-3.14-5.45-7.21-7.22-10.27l9.99,5.99c.07-4.35-.79-9.49,2.51-12.97,2.4-.01,3.39,10.11,3.54,12.44.42,6.42-1.02,12.25-1.08,18-.16,14.78-.49,29.76,1.18,44.4Z" style="fill: #6b6b6b;"/>
      <path d="M76,10c1.64,14.09-7.84,28.63-23,28l5.5-9.99-9.5,6.99c-.72-15.52,11.73-26.66,27-25Z" style="fill: #009245;"/>
      <path d="M38.99,37l-8.5-6.99,5.5,9.99c-12.69-1.12-19.52-10.47-18-23,11.66-1.39,21.07,8.64,21,20Z" style="fill: #009245;"/>
      <path d="M30,48.01c2.1,2.23-5.15,2.94-5.99,3,.66,2.91,6.75-.29,6.98-.01-3.58,9.16-12.88,10.32-20.94,5.94-1.21-8.26,16.09-13.03,19.94-8.93Z" style="fill: #009245;"/>
      <path d="M21,38.99l-5.99-.99,5.99,4.99c-7.95,2.71-16.14-.15-18.92-8.39,1.15-5.03,18.8-2.79,18.92,4.39Z" style="fill: #8cc63f;"/>
      <path d="M41.99,15l-2.48,5.99c-6.09-5.22-5.31-14.32,1.14-18.92,7.28,3.53,8.49,13.24,2.86,18.9l-1.51-5.98Z" style="fill: #8cc63f;"/>
      <path d="M55,51.98c-1.02-3.86,3.75-.47,3.99-2.97l-4.99-2c6.45-3.33,11.53-2.27,15.98,3.49-4.12,5.2-9.59,3.81-14.98,1.48Z" style="fill: #8cc63f;"/>
    </g>
  </g>
</svg>