<svg viewBox="0 0 101.75 118.84" xmlns="http://www.w3.org/2000/svg"><path d="m15.56 118.84c.04-2.44 1.17-4.67 3.14-6.09 1.33-.96 3.03-1.49 4.64-1.59 5.6-.33 12.36.65 17.75.02 1.55-.18 2.75-1.95 2.76-3.47-.45-9.86.57-20.2 0-30-.37-6.33-2.59-12.11-6.36-17.14-.86.68-1.54 1.44-2.44 2.11-4.26 3.2-11.43 5.32-16.66 3.86-.61-.17-2.48-.96-3.29-1.31-20.95-8.86-17.15-40.52 7.05-43.03 2.64-.27 3.39.71 4.67-2.28 1.64-3.81 2.11-6.74 4.79-10.31 11.03-14.67 33.23-12.01 41.18 4.34.87 1.8 2 6.54 3.13 7.66.88.87 4.58.64 6.1.85 13.27 1.88 21.12 16.25 17.33 28.8-4.34 14.4-22.07 20.83-33.7 10.6-.36-.32-.91-1.41-1.33-1.3-3.54 4.71-5.96 10.47-6.36 16.42-.67 9.97.53 20.67 0 30.72.01 1.53 1.21 3.29 2.76 3.47 5.39.64 12.15-.35 17.75-.02.53.03 1.91.15 2.33.26.18.05.18.38.36.45 3.35 1.37 4.73 3.3 5.08 6.98zm43.29-66.83c-.39-.36-1.18-.54-1.71-.57-1.76-.11-4.28.69-6.24.69s-4.99-.92-6.69-.65c-1.34.21-2.14 1.38-2.04 2.71s3.15 5.09 4.02 6.55c1.43 2.39 1.71 5.58 5.41 5.09 2.35-.31 2.99-3.38 4.02-5.09.95-1.59 4.14-5.41 4.02-6.97-.03-.42-.48-1.47-.78-1.75z"/></svg>