<?xml version="1.0" encoding="UTF-8"?>
<svg id="Layer_4" data-name="Layer 4" xmlns="http://www.w3.org/2000/svg" viewBox="0 0 108.3 118.84">
  <path d="M0,96.9c.44-5,3.64-7.54,8.51-7.88,6.37-.44,13.24.37,19.66,0,2.14-.48,2.87-2.3,3.04-4.3l.72-3.64-19.86-20.21,10.86-10.65,9.83,9.44,2.2-24.22,38.51-11.57,1.2,20.93,12.32-12.33c-.35-4.39,1.05-9.08,5.84-10.16,1.53-.35,4.48-.63,5.84.07v4.46c0,.3-.56,2.01-.74,2.41-1.51,3.3-5.18,4.89-8.7,4.55l8.92,9.56c-.34.38-.85.54-1.19.91-6.48,6.88-13.27,13.47-19.91,20.21-.56.57-1.54.85-1.7,1.71-.24,1.29-.13-18.35-.1-16.86.23,11.16.93,22.39,1.33,33.54.24,6.63-.13-4.37.52,2.12.08.77,1.96,4.45,2.36,5.12.67,1.15.36-1.58,0,0l24.93.12c2.39,1.53,3.67,3.91,3.92,6.7H0Z"/>
</svg>