<svg viewBox="0 0 149.37 140.64" xmlns="http://www.w3.org/2000/svg"><g fill="#252525"><path d="m37.18 111.88s.11-.43-.17-.5c-6.68-1.81-9.57-5.28-10.72-12.26v-64.68c.67-6.33 5.16-12.16 11.78-12.74l58.5.03c6.55.45 11.81 7.44 11.81 13.74v43.58h-17.86c-5.47 0-12.04 6.9-12.04 12.25v20.59h-41.3zm55.68-70.29c1.12-1.04.43-3.54-1.32-3.48h-48.16c-3.21-.15-2.74 4.28.25 4.06h47.15c.52-.04 1.72-.25 2.08-.58zm0 16.42c1.12-1.04.43-3.54-1.32-3.48h-48.16c-3.21-.15-2.74 4.28.25 4.06h47.15c.52-.04 1.72-.25 2.08-.58zm-50.17 13.01c-2.48.45-1.71 4.1.7 3.98h30.4c2.8 0 3.1-3.95.25-4.04l-31.36.06z"/><path d="m111.93 36.09c.57-.59 4.36 3.05 4.81 3.66 1.3 1.76 2.35 4.96 2.75 7.11l7.39 61.35c.37 4.87-1.12 9.6-4.81 12.88-4.74 4.22-8.34 2.68-13.77 3.92-6.04 1.37-13.33 1.91-19.35 3.28s-12.89 1.45-18.75 2.78c-2.33.53-10.34 1.42-12.63 1.28-3.62-.23-7.26-2.42-9.34-5.34-2.36-3.3-2.99-7.09-3.19-11.09h36.36c1.5 0 3.78-2.7 4.82-3.79 7.43-7.85 15.57-16.56 22.55-24.76.84-.99 3.16-3.72 3.16-4.93v-46.36z"/><path d="m107.12 83.08-24.83 27.28v-19.33c0-.93 1.71-3.89 2.4-4.68.99-1.15 4.08-3.28 5.58-3.28h16.85z"/></g></svg>