<?xml version="1.0" encoding="UTF-8"?>
<svg id="uuid-5a959d5f-7fc4-49c5-be84-ce24b3a4c1b5" data-name="Layer 1" xmlns="http://www.w3.org/2000/svg" viewBox="0 0 205.6 219.91">
  <path d="M171.38,23.41c-3.41-.46-6.98.47-10.23.53-7.14.12-25.85-3.15-29.8,3.7-.93,1.61-.04,3.17-2.5,4.1l.5,1.96c1.38.99,15.2-3.93,17.92-4.64,17.96-4.71,27.68-7.44,41.12,7.59,6.22,6.95,11.27,16.93,11.98,26.26-7.51-4.95-16.06-7.73-24.9-9.34-10.24-1.87-34.27-3.81-42.75,2.43-5.65,4.16-1.7,8.52,3.96,9.35,15.27,2.24,31.57-5.48,46.88-3.88,25.76,2.69,22.53,33.21,21.06,51.94-10.3-9.07-20.85-17.61-33.76-22.74-5.57-2.21-20.75-7.17-24.69-.73-4.06,6.64,10.23,8.45,14.2,9.22,12.71,2.49,26.37,3.56,37.47,11.03.94.63,5.69,4.32,6.08,4.92.81,1.23.52,4.87.46,6.53-.27,7.24-1.52,14.81-2.51,22-.1.72.46,1.46-.73,1.26-7.77-13.4-29.04-28.62-45-27-5.11.52-9.1,4.41-4.96,8.94,5.11,5.59,19.11,6.12,26.34,8.66,12.49,4.39,25.66,14.7,22.8,29.57l-2.93,13.31c-3.79-11.28-18.03-20.69-29.1-23.66-2.76-.74-15.68-1.89-14.34,3.3.9,3.5,12.78,5.69,16.06,6.97,8.61,3.37,22.06,14.33,23.67,23.87.42,2.47-3.07,7.37-4.6,9.47-4,5.5-9.3,10.58-13.41,16.09-.66.89-2.99,5.03-3.28,5.21-1.46.91-6.66-1.06-8.77-1.25-4.68-.42-16.53,1.39-19.48-2.52-3.76-4.98-.22-21.8-1.29-28.71-.52-3.35-3.62-6.19-6.47-3.03-7.43,8.27-3.01,24.8,0,34.24h-9.25c-1.27,0-9.94-2.92-11.23-3.77-5.45-3.62-3.57-18.15-2.37-23.82,1.5-7.03,6.16-15.14,6.78-21.72.98-10.42-6.35-7.68-10.2-1.21-7.52,12.62-5.77,31.42-5.24,45.51-6.09-2-11.58-5.39-16.96-8.79-2.52-1.59-9.31-5.64-11-7.5-4.8-5.31-.41-22.62,1.95-28.97,5.37-14.46,15.24-24.78,23.02-37.48,2.41-3.93,6.53-10.73,3.72-15.24-3.56-5.7-11.02.46-14.49,3.46-9.25,8.02-15.65,20.93-18.87,32.63-3.36,12.2-3.56,24.98-5.87,37.38-.55.04-1.08.03-1.63-.12-3.74-1.04-19.14-14.63-21.86-18.14-2.95-3.81-1.26-6.08.25-10.23,4.45-12.25,11.09-24.96,18.03-35.97,2.28-3.61,11.29-15.25,11.69-18.34.23-1.75-.25-3.24-2.23-3.24-4.55-.02-16.45,13.27-19.46,17.09-8.94,11.37-16.4,25.17-20.81,38.95-5.62-4.86-10.65-10.38-14.39-16.85-4.08-7.04-4.8-8.66-1.83-16.63,3.08-8.27,7.51-15.07,13.97-21.03,3.95-3.65,21.82-16.53,22.67-20.35,1-4.5-2.9-5.59-6.61-5.09-9.63,1.3-18.03,14.96-21.3,23.19-2.28,5.74-3.32,8.27-6.25,13.75-1.34,2.5-2.5,5.91-3.85,8.15-1.12,1.87-3.58-1.38-4.6-2.69C.15,111.12-2.51,90.33,2.65,78.44c4.22-9.72,18.04-18.72,27.39-23.11,4.68-2.2,24.16-8.36,26.08-10.92,2.99-4.01-.74-7.28-4.97-7.52-13.25-.73-26.04,15.3-34.5,23.54-4.07,3.96-8.8,7.38-12.76,11.49.22-5.56-.3-11.21-.03-16.77.13-2.69.45-7.36,1.16-9.84,1.54-5.39,6.91-9.73,10.36-13.89,7.67-4.17,15.33-8.33,23-12.5,9.33-4.33,18.67-8.67,28-13,10.71-3.53,36.01-10.2,66-2,17.9,4.9,30.99,13.32,39,19.49ZM50.13,28.92,70.38,38.41c-3.05-2.96-8.22-4.38-12.5-3.99l9.97,3.77,2.52.22ZM138.13,42.92c2.23-.25,5.16,0,7.5,0,1.53,0,.16-1.95-2.01-2.03-1.79-.07-6.76.83-8.85,1.17-10.37,1.67-20.62,4.91-30.14,9.22-1.96-2.51-3.93-5.03-5.89-7.54-5.01-6.83-11.07-14.25-18.35-21.82-5.48-5.7-10.88-10.67-16-15l-8,4c8.93,8.49,16.04,14.75,21,19,0,0,14.98,12.84,15,21,0,.09,0,1,0,1,0,0,0-.27,0-.5-13.17-3.18-27.71-2.35-40.81.94-8.54,2.15-21.78,7.75-28.19,13.81-.92.87-2.24,1.75-1.99,3.25,2.82.03,4.23-2.87,6.33-4.41,9.64-7.1,25.43-12.53,37.39-13.11,6.66-.33,28.46,1.76,32.99,6.56.45.48,2.3,3.21,1.29,3.72-15.83,3.12-30.4,9.27-42.51,19.99-2.78,2.46-12.14,11.92-12.99,15.02-.26.95.32.93,1,.5,2.13-1.36,5.39-6.81,7.48-9.02,11.1-11.71,32.14-23.99,48.79-21.76,2.02.27,3.77,3.69,4.01,5.5.24,1.77-2.69,6.11-3.77,7.79-13.39,20.68-37.05,34.05-46.01,57.73,1.17.07,1.06.28,1.63-.62,2.26-3.61,3.91-7.36,6.46-11.03,8.37-12.06,18.99-20.23,28.92-30.58,3.75-3.91,7.78-9.94,11.73-13.27.78-.65,2.75-2.59,3.79-1.77.54.42,3.32,11.58,3.72,13.28.91,3.84,4.07,17.11,3.64,20.13-1.07,7.46-15.55,24.12-20.3,31.22-2.81,4.2-13.09,22.08-12.06,26.36.18.73,1.03,1.15,1.71.29.62-.79,2.2-7.35,2.88-9.12,6.45-16.77,18.2-27.19,29.13-40.86.73.44.6,1.06.79,1.71,1.97,6.94,4.4,16.65,5.82,23.68.87,4.34.88,6.02-.47,10.23-2.53,7.9-12.85,25.84-10.81,33.55.16.61.73,1.08,1.19.33.91-1.48.55-4.42.88-6.12,2.02-10.43,7.8-19.47,10.85-29.65.21-.71-.31-.88,1-.73,3.66,9.96,8.43,19.38,14.88,27.83-2.24,6.54-3.31,14.46-1.14,21.18.52,1.6,2.45,4.13,2.22,1.28-.14-1.74-1.2-3.8-1.4-5.6-.19-1.66-.11-14.71,1.7-14.69,4.78,4.92,8.7,10.59,11.75,16.74,2.27,1.84,1.11-1.93.44-2.94l-10.43-15.81c5.32,1.02,9.72,3.08,14.15,6.09,1.22.83,4.24,3.76,5.09,3.92,1.77.32-.01-2.01-.5-2.51-4.87-5.03-14.28-8.52-21.01-9.99-6.85-11.13-12.25-23.22-15.24-36.01,9.08,3.55,19.23,2.13,28.61,4.14,2.24.48,4.65,2.17,6.14,2.37,1.12.15.73-.46.76-1.26-3.95-2.03-8.43-3.11-12.82-3.68-6.28-.82-13.72.04-19.53-2.47-2.32-1-3.86-1.96-4.52-4.48-2.35-9.01-2.37-19.48-4.64-28.61,15.07,2.54,30.72-1.68,44.86,5.89,4-.6-1.46-2.78-3.11-3.4-11.27-4.22-23.26-2.53-35-3.5-2.57-.21-6.98-.39-7.63-3.37l-4.63-26.35c.29-1.9,2.69-2.16,4.24-2.3,7.12-.65,19.26-.44,26.51.02,4.39.28,8.79,1.29,13,2.5,1.32-2.22-4.02-2.75-5.83-3.17-11.18-2.56-22.72-.37-32.94-2.56-10.12-2.17-8.69-9.84-12.85-17.55,8.51-6.94,20.11-12.5,31.13-13.73ZM60.27,62.06c-4.98.56-16.62,5.9-15.29,12,.63,2.88,2.84,2.99,5.07,1.78,3.25-1.75,9.99-7.48,12.83-10.16,4.09-3.85,2.52-4.2-2.62-3.62ZM175.38,87.91c1.06-.93-6.29-4.98-6.97-5.27-1.22-.53-2.12-.95-3.52-.72,2.01,1.61,5.9,4.45,8.21,5.53.79.37,1.36.62,2.28.46ZM76.25,83c-2.64.43-7.48,5.77-9.08,7.95-1.08,1.47-5.74,8.35-3.81,9.74,2.37,1.7,13.5-7.69,15.02-10.02,1.62-2.49,1.32-8.22-2.13-7.67ZM50.38,150.92c-.97-.19-1.2.45-1.6,1.15-.99,1.72-3.5,11.21-3.69,13.35-.07.77-.44,1.54.55,2s.84-.96.98-1.5c1.29-4.98,2.65-9.97,3.76-14.99Z" style="fill: #006837;"/>
</svg>