<?xml version="1.0" encoding="UTF-8"?>
<svg id="Layer_1" data-name="Layer 1" xmlns="http://www.w3.org/2000/svg" viewBox="0 0 101.75 109.17">
  <path d="M9.52,76.57c-.33,1.54-2.99,1.94-3.25-.86-.42-4.52.37-9.64-.04-14.22-7.07-5.96-8.53-16.4-2.33-23.59.43-.5,2.15-1.86,2.26-2.06.41-.78.38-3.15.65-4.32,1.26-5.41,6.48-10.47,11.77-11.78.77-.19,1.55-.32,2.35-.35,1.2-5.72,5.11-10.02,10.56-12.02,1.6-.59,3.65-1.05,5.35-1.13.4-.02.85.33,1.26.2,6.23-8.6,19.27-8.57,25.56,0,.4.13.86-.22,1.26-.2,2.15.1,4.71.81,6.73,1.69,4.74,2.08,8.03,6.45,9.17,11.46.79.03,1.58.16,2.35.35,5.18,1.28,10.15,6.06,11.6,11.3.37,1.34.33,3.79.76,4.64.25.51,1.64,1.49,2.2,2.12,6.14,6.94,5.11,17.88-2.25,23.47l-.09,18.22c-.44,2.32-3.14,1.4-3.14.31v-16.31c-2.1.68-4.23,1.38-6.48,1.3l-.05,11.95c-.35,1.57-2.98,1-2.98.05v-11.99h-6.48v15.02c0,1.42-3.02,1.41-3.02.22v-15.23h-6.48v11.78c0,1.4-3.24,1.66-3.24-.22v-11.56h-3.02v29.92c0,.73,1.45,2.19,2.28,2.26,6.3.33,12.97-.4,19.22,0,4.1.26,6.74,2.17,7.01,6.49H12.76c.2-4.32,2.94-6.23,7.01-6.49,6.25-.4,12.92.33,19.22,0,3.62-.6,1.88-7.18,2.28-9.71-8.68.11-16.05-5.74-18.25-14.04-.21-.8-.76-2.64-.76-3.35v-5.08h-3.24v15.02c0,1.19-2.69,1.75-3.02,0v-15.01c-2.26.09-4.39-.61-6.49-1.3v13.07ZM41.27,66.27h-9.5v4.21c0,.33.59,2.27.76,2.7,1.26,3.17,5.2,6.26,8.75,6.05v-12.96Z"/>
</svg>