<svg width="98" height="125" viewBox="0 0 98 125" fill="none" xmlns="http://www.w3.org/2000/svg">
<path d="M8.19436 75.0848C10.9851 77.8756 13.7758 80.5826 16.5665 83.3175C17.5852 84.3082 18.6735 85.2291 19.6922 86.2338C23.2643 89.792 26.8225 93.3641 30.2411 97.0758L34.8737 101.946C36.942 103.98 38.6668 106.336 39.9808 108.922C40.3436 109.802 39.9808 109.788 39.2831 109.327C38.2144 108.642 37.2061 107.867 36.2691 107.011C35.7807 106.508 35.2365 106.02 34.7342 105.532L33.9388 104.82L33.1574 104.15L30.1155 101.094C28.0923 99.0572 26.0132 97.0339 24.0317 94.8851C21.6736 92.3176 18.8968 89.9455 16.3014 87.4896L7.7618 79.3128C6.01759 77.6105 4.28734 75.9221 2.585 74.136C2.26406 73.8011 1.92918 73.4662 1.62219 73.1034C1.31521 72.7406 1.30126 72.7546 1.14777 72.5592C0.994281 72.3639 0.826837 72.1964 0.617533 71.8895C0.188737 71.3909 -0.0311852 70.7461 0.00357235 70.0894C0.0558353 69.7671 0.14964 69.4528 0.282645 69.1545C0.408228 68.8476 0.575672 68.5266 0.673347 68.3452C1.62219 66.6429 2.69663 65.1638 3.68733 63.615C5.25014 61.2428 6.67341 58.8428 8.09669 56.4707C8.41762 55.9404 8.68274 55.4102 9.03158 54.9079C9.46442 54.2387 9.95464 53.6084 10.4967 53.0241C10.8309 52.7428 11.2283 52.5465 11.6549 52.452C11.819 52.3944 11.9868 52.3478 12.1572 52.3125C12.3944 52.3125 12.52 52.5218 12.5339 53.0381C12.5426 53.7439 12.3998 54.4433 12.1153 55.0893C10.1758 59.9451 6.74318 64.0894 4.27339 68.5545C4.06408 68.9592 3.84082 69.3639 3.65943 69.7406L3.53384 70.0197C3.53384 70.0197 3.53384 70.1034 3.53384 70.0197L3.81292 70.3685L4.25943 70.8848C5.48735 72.2802 6.89667 73.6755 8.27808 75.0709L8.19436 75.0848Z" fill="#231F20"/>
<path d="M51.3945 81.8242C51.3945 81.8242 54.6178 81.6149 55.1202 79.787C55.6225 77.9591 55.1202 85.2568 55.1202 85.2568L51.3945 81.8242Z" fill="#231F20"/>
<path d="M56.1253 66.6988L47.6136 67.0895L44.5298 67.3128L39.06 67.6058C37.232 67.6058 35.4041 67.7314 33.5762 67.843C31.9576 67.9547 30.3389 68.0942 28.7482 68.2337L22.5668 68.7779C21.9249 68.7779 22.0086 68.7779 22.5668 68.6942C23.1249 68.6105 24.0877 68.3454 25.2598 68.15C29.4459 67.4384 33.632 66.7547 37.8181 66.2942L45.5763 65.4709L54.1299 64.7314L59.3904 64.3407C62.0556 64.1314 64.7207 63.9639 67.358 63.6848C69.4091 63.4895 71.3906 63.1267 73.4138 62.8476C73.8604 62.8476 74.2929 62.7081 74.8092 62.6662C76.4697 62.4988 77.0139 62.6662 77.4325 63.2383C77.5356 63.368 77.6245 63.5083 77.6976 63.6569C77.9069 64.1453 77.265 64.6058 76.0511 64.8709C72.3417 65.6126 68.5826 66.079 64.8044 66.2663L56.1253 66.7407V66.6988Z" fill="#231F20"/>
<path d="M30.6175 61.969L28.8175 59.6946C28.5942 59.4155 28.343 59.1643 28.1337 58.8853C27.4221 57.8527 26.7384 56.8062 26.0546 55.7457L25.1337 54.3503C24.7196 53.7949 24.3947 53.1781 24.1709 52.5224C24.0453 52.0898 24.8825 52.3689 25.343 52.941C26.1244 54.0434 27.0593 55.0759 27.8826 56.2201C28.4268 56.8772 29.0043 57.5059 29.6128 58.1039L31.5105 60.2527L32.6966 61.5644C33.3105 62.2202 33.9105 62.89 34.5664 63.49C35.1035 63.9272 35.6624 64.337 36.2408 64.7179C36.3716 64.7935 36.4975 64.8774 36.6175 64.9691C37.0501 65.3319 37.078 65.5551 36.7571 66.0574C36.6909 66.1788 36.6163 66.2953 36.5338 66.4063C36.2923 66.7601 35.8226 66.8745 35.4454 66.6714C34.3318 66.0256 33.3324 65.2006 32.4873 64.2295C31.8314 63.5179 31.2035 62.8341 30.5617 62.0388L30.6175 61.969Z" fill="#231F20"/>
<path d="M12.2969 75.168C15.6597 79.0332 19.1481 82.7867 22.6365 86.5402C23.9342 87.9356 25.4272 89.1496 26.6552 90.5449C31.1901 95.4566 35.6274 100.48 40.0367 105.573C41.9484 107.861 43.9716 110.094 45.9252 112.368L47.8228 114.587C48.381 115.41 48.9252 116.206 49.4136 117.099C50.5357 118.926 51.2364 120.981 51.4647 123.113C51.4647 124.801 50.5299 124.201 49.4136 123.559C47.8388 122.878 46.3457 122.021 44.9624 121.006C44.3205 120.406 43.6368 119.82 42.9251 119.234C42.2752 118.598 41.6604 117.927 41.0832 117.224L37.3437 113.038L35.4599 110.945L33.6599 108.727C32.4599 107.233 31.2738 105.726 30.1017 104.192C27.0397 100.585 23.7788 97.1513 20.3342 93.9077C16.7341 90.1403 13.1341 86.3309 9.58987 82.4379C7.38519 80.0797 5.22238 77.6378 3.10142 74.9866L2.51537 74.1773C2.27816 73.8424 2.04095 73.4378 1.80373 73.061C1.37337 72.3233 1.09355 71.5075 0.980469 70.661C1.05769 69.7869 1.25489 68.9277 1.56652 68.1075C1.95722 67.2423 2.19444 66.7121 2.50142 66.14C3.65957 63.8795 4.88749 61.7725 6.01773 59.6376C6.89681 57.9632 7.69217 56.2887 8.44567 54.6003C9.19916 52.9119 9.84103 51.1817 10.7201 49.6049C11.1108 48.8933 11.3899 48.2096 11.7806 47.4979C12.2317 46.5661 12.8041 45.6981 13.4829 44.9165C13.9839 44.4993 14.577 44.2076 15.2132 44.0653C15.5062 44.0653 15.8132 43.87 16.0644 43.8281C16.3155 43.7863 16.7899 44.0793 17.0272 44.777C17.3251 45.745 17.3684 46.7735 17.1527 47.7631C16.8179 49.5352 16.3992 51.2933 15.9388 53.0096C15.7168 53.8628 15.4179 54.6942 15.0457 55.4934C14.7109 56.3027 14.3481 57.098 13.9853 57.8934C12.5201 61.0748 10.8876 64.1865 9.47824 67.2144L8.68288 68.8191C8.55547 69.0725 8.44363 69.3335 8.34799 69.6005L8.22241 69.9075C8.20082 69.895 8.17423 69.895 8.15264 69.9075C8.0131 69.74 8.50148 70.3819 8.79451 70.7726L9.9108 72.168C10.7062 73.1029 11.5434 74.0378 12.3945 74.9587L12.2969 75.168Z" fill="#231F20"/>
<path d="M83.0833 37.1727C84.5258 40.8004 86.2424 44.3129 88.2182 47.6798C90.2136 51.1124 92.4043 54.4334 94.8183 57.8799L97.2741 61.4102L97.6927 62.5126L97.8881 63.0707L97.9997 63.3358V63.4754H97.7765C97.8387 63.8495 97.8387 64.2314 97.7765 64.6056C97.6704 64.9979 97.5206 65.377 97.33 65.7358C96.9061 66.496 96.4402 67.2321 95.9346 67.9405L95.2927 68.8336L94.8323 69.4475C88.2043 77.9034 81.4647 86.0384 75.1158 94.5641C72.325 98.3455 69.5343 102.211 67.0366 106.076C65.3901 108.56 63.8412 111.113 62.3063 113.639C60.7714 116.164 58.9853 118.564 57.59 121.104C56.7528 122.667 56.1946 122.318 55.8597 120.476C55.5847 117.564 56.0006 114.629 57.0737 111.908C59.905 106.341 63.0786 100.953 66.5761 95.778C70.1762 90.7129 73.9716 85.8151 77.9623 81.029C80.3344 78.2383 82.6228 75.1546 84.8554 72.0848L90.5345 64.187C90.5345 64.0754 90.7578 63.9358 90.6741 63.8102L90.4508 63.4614C90.4508 63.3219 90.2834 63.1823 90.1857 63.0288L89.9066 62.6102L89.502 62.0381L87.8833 59.7497C86.8229 58.2427 85.7066 56.7078 84.66 55.0753C82.5104 51.8737 80.5534 48.5468 78.7995 45.1124C78.1716 43.8844 77.5856 42.6286 77.0274 41.3588C76.7344 40.7309 76.4832 40.0891 76.2181 39.4472L75.9251 38.7356L75.7716 38.2611C75.6869 37.9699 75.5699 37.6891 75.4227 37.4239C75.1288 37.3631 74.8298 37.3304 74.5297 37.3262H74.0692H71.6273C69.7017 37.2286 67.7761 37.703 65.8366 37.6193L60.0319 37.7448L54.2272 37.9681C52.3016 37.9681 50.376 38.0937 48.4503 38.1914C42.4782 38.5123 36.6456 39.3774 30.7571 40.0332C29.4594 40.1728 28.2036 40.41 26.892 40.5077C25.5803 40.6053 24.6733 40.6332 23.8222 40.6193C23.0857 40.5108 22.3704 40.2896 21.7012 39.9635C20.7138 39.4716 19.8756 38.7249 19.2733 37.8007C19.0003 37.4486 18.7487 37.0805 18.5198 36.6983C18.2547 36.0983 18.6035 35.5262 19.4407 34.8006C20.5904 33.7875 21.9338 33.0185 23.3896 32.5401C28.7399 31.4739 34.1429 30.6914 39.5758 30.1959C42.3666 29.9168 45.1573 29.6889 47.948 29.5122C50.7387 29.3448 53.5295 29.1075 56.3202 29.1494H61.9017H64.6924C65.6248 29.1286 66.5574 29.1752 67.4831 29.2889C68.432 29.4424 69.3808 29.6378 70.2738 29.7494H73.1483C73.4413 29.7494 74.6553 29.7494 75.4925 29.8192C75.9596 29.825 76.4258 29.8623 76.8879 29.9308H77.5576C77.7612 29.9745 77.955 30.0549 78.1297 30.168C78.4982 30.3202 78.8274 30.554 79.0925 30.8517L79.5251 31.2285C79.6646 31.0331 79.246 31.6471 79.8321 30.8099L79.9158 30.9215L80.0972 31.1727L81.5623 33.0983L82.7205 35.7774L83.2368 37.0472L83.0833 37.1727Z" fill="#231F20"/>
<path d="M55.3161 68.262C51.4649 68.4294 47.5998 68.6387 43.7486 68.9457C42.3532 69.0434 40.9578 69.3643 39.5625 69.4341C34.5671 69.6294 29.5717 69.8527 24.5902 70.2574C23.4739 70.3411 22.3855 70.5085 21.2692 70.5922L17.9622 70.8992C16.5669 71.0388 15.1715 71.2062 13.7761 71.2899H12.7017L11.6133 71.1643C10.8738 71.0806 10.1482 70.9969 9.39469 70.8434C8.92027 70.7597 8.65515 70.5783 8.72491 70.5085C8.79468 70.4387 9.01794 70.3829 9.36678 70.1597C9.84895 69.8692 10.3148 69.5525 10.7621 69.2108L11.697 68.5411C11.8645 68.4015 12.0459 68.3178 12.2273 68.1643L12.7854 67.9829C15.5762 67.1736 18.3669 66.3224 21.1576 65.6387C23.9483 65.2201 26.8926 64.8992 29.8228 64.7457C33.3112 64.5922 36.7996 63.7131 40.4136 63.3503C44.3207 62.9596 48.2416 62.6526 52.1626 62.3875L59.4324 61.927C63.0883 61.6898 66.786 61.6061 70.4279 61.3549C71.8233 61.2573 73.2186 61.0898 74.614 60.9224L76.735 60.6712C77.0838 60.6712 77.4466 60.5735 77.7954 60.5596H78.8699C79.5117 60.5596 80.1257 60.5596 80.7676 60.5596C83.1257 60.8386 83.8653 61.3828 84.2002 62.7642C84.2974 63.051 84.372 63.3449 84.4234 63.6433C84.535 64.5224 83.5025 65.4433 81.8839 65.7643C80.6699 66.0573 79.4559 66.3503 78.2141 66.6713C76.9895 66.9109 75.7489 67.0602 74.5024 67.1178C72.0047 67.3131 69.4372 67.4806 66.8697 67.6201C63.0464 67.8573 59.1673 68.0248 55.3022 68.3317L55.3161 68.262Z" fill="#231F20"/>
<path d="M56.2781 52.619C54.8828 54.0144 53.4874 55.4098 52.092 56.8051L47.7525 61.0331C46.692 62.0657 45.771 63.2238 44.6548 64.2424L43.1059 65.6378C42.3214 66.3557 41.4764 67.0047 40.5803 67.5773C40.1279 67.7859 39.6617 67.9631 39.1849 68.1076C38.7183 68.1526 38.2475 68.1244 37.7896 68.0239C36.8094 67.7308 35.9175 67.1986 35.1942 66.475C34.7895 66.1401 34.4128 65.7773 34.036 65.4145L33.2686 64.5773C32.8081 64.0889 32.3755 63.5727 31.9569 63.0703L29.4871 60.0424C28.0918 58.2703 26.5011 56.5819 24.9522 54.9633C23.8936 53.9862 22.9138 52.9271 22.0219 51.7958C21.1568 50.6516 20.3336 49.4516 19.4405 48.3074C18.8963 47.5957 19.1475 47.4143 20.0963 47.4701C21.5906 47.5699 23.053 47.9486 24.408 48.5864L25.4406 49.1585C25.791 49.3246 26.1153 49.5408 26.4034 49.8004L28.0778 51.3353C29.1802 52.3679 30.2546 53.4144 31.2872 54.4749C33.3523 56.5958 35.3616 58.7866 37.1756 60.9354C37.338 61.0914 37.4704 61.2758 37.5663 61.4796C37.651 61.5979 37.7442 61.7099 37.8454 61.8145C37.9468 61.9267 38.0771 62.0087 38.2221 62.0517C38.3617 62.0517 38.4733 61.9401 38.5989 61.8564C38.7127 61.7664 38.8199 61.6685 38.9198 61.5633L39.5477 60.8936L41.3617 58.94L49.5385 50.1353L52.1618 47.4701L55.0502 44.6794C55.9531 43.7304 56.9812 42.9089 58.1061 42.2375C58.6299 41.9946 59.1916 41.8436 59.7665 41.791C60.3104 41.9951 60.8118 42.2978 61.2456 42.684C62.2379 43.5502 63.1702 44.4826 64.0364 45.4748L65.962 47.5539C67.9573 49.6609 70.1481 51.4888 72.2969 53.4563C72.7713 53.8888 73.2737 54.2656 73.6923 54.726C73.9016 54.9353 74.083 55.1447 74.2504 55.326C74.4179 55.5074 74.4876 55.7447 74.5853 55.9261C74.75 56.2606 74.8629 56.6181 74.9202 56.9865C74.9618 57.3051 74.9332 57.629 74.8365 57.9354C74.6961 58.2971 74.5184 58.6431 74.3062 58.9679C74.1109 59.2889 73.9714 59.6098 73.79 59.847C73.3016 60.5587 71.5016 60.8238 69.9946 59.847C69.4123 59.5354 68.869 59.156 68.3759 58.7168C67.8597 58.3121 67.3573 57.8796 66.869 57.447C65.8782 56.5819 64.9294 55.6749 63.9945 54.74C63.0596 53.8051 62.1387 52.8423 61.2038 51.9493L59.8084 50.4841L59.2642 49.8841C59.2642 49.8841 59.2642 49.8841 59.2642 49.8004C59.2642 49.7167 59.2642 49.8004 59.1665 49.8004L58.9293 50.0655L58.427 50.5818L56.4037 52.7307L56.2781 52.619Z" fill="#231F20"/>
<path d="M31.0084 80.4291C31.6223 79.9686 32.2363 79.536 32.8084 79.0337C33.0177 78.8663 33.1293 78.6151 33.3526 78.4616C34.1201 77.8895 34.9433 77.3732 35.6689 76.7872C35.973 76.5148 36.2237 76.1884 36.4084 75.8244C36.6596 75.3639 36.7433 74.7778 37.4131 74.6383C37.8317 74.5406 40.8318 77.2616 40.5108 77.8337C39.9155 78.8226 39.0283 79.6026 37.9713 80.0663C37.2875 80.3593 37.0085 81.0151 36.5759 81.4616C36.1433 81.9082 35.4736 82.4523 34.9294 82.9407C34.3852 83.4291 34.2456 83.5407 33.9247 83.8617C33.4368 84.3034 32.9711 84.7691 32.5293 85.257C32.2224 85.6617 32.1107 86.2198 31.7758 86.6524C31.732 86.7552 31.6707 86.8497 31.5944 86.9315C31.2735 87.2245 30.9805 87.1687 30.2968 86.764L29.8223 86.4849C29.3768 86.2286 29.0658 85.7901 28.9712 85.2849C28.8872 84.6738 28.8872 84.0541 28.9712 83.4431C29.1179 82.959 29.3143 82.4914 29.5572 82.0477C29.8502 81.3221 30.534 80.9174 31.0503 80.3872L31.0084 80.4291Z" fill="#231F20"/>
<path d="M59.7947 85.5075C59.7351 85.9006 59.6026 86.2792 59.404 86.6237L58.9575 87.5586L58.0366 89.4842C57.7994 89.7215 57.6598 90.1261 57.3808 90.3633C57.3272 90.3459 57.2757 90.3225 57.2273 90.2936C54.9529 88.9657 52.837 87.3834 50.9202 85.5772L49.6505 84.3772L49.0086 83.8051L48.5063 83.0377C48.0737 82.4377 47.4876 82.0469 47.2783 81.7539C46.9748 81.4149 46.7466 81.0154 46.6086 80.5818C46.5248 80.2748 47.1109 79.6609 47.8783 79.1865C48.6458 78.712 49.6784 78.2376 50.1667 78.4748L50.7807 78.7818H50.8644C50.8644 78.7818 50.8644 78.7818 50.8644 78.9074C50.9243 79.3029 51.0517 79.6853 51.2412 80.0376C51.3536 80.2976 51.5201 80.5307 51.7295 80.7214C51.883 80.8609 51.9668 80.833 52.1621 81.0283C52.2071 81.0513 52.2492 81.0794 52.2877 81.1121C52.3993 81.1121 52.5668 81.3632 52.6784 81.3772C52.7556 81.3491 52.8266 81.3065 52.8877 81.2516C53.0181 81.135 53.1226 80.9924 53.1947 80.833C53.317 80.564 53.3925 80.2762 53.4179 79.9818C53.5535 79.3424 53.5535 78.6817 53.4179 78.0423C53.2986 77.6038 53.1152 77.1853 52.8737 76.8004C52.6784 76.3818 52.4551 75.9632 52.2877 75.5166C52.204 75.3213 52.0644 75.1259 52.1063 74.9166C52.19 74.0934 52.6923 73.6887 54.1435 73.5213C54.467 73.4726 54.7932 73.4447 55.1203 73.4376C56.0256 73.3883 56.9285 73.5708 57.7436 73.9678L58.3994 74.3864C58.5662 74.5266 58.7161 74.6858 58.8459 74.8608C59.1004 75.1908 59.3202 75.5462 59.5017 75.9213C59.6288 76.2993 59.7268 76.6865 59.7947 77.0795V77.3725L59.8785 77.9585L60.018 79.1167C60.2292 81.2697 60.2292 83.4382 60.018 85.5912L59.7947 85.5075Z" fill="#231F20"/>
<path d="M27.5617 21.9351C27.9942 21.9351 27.6733 22.4793 26.9477 23.4421C26.5853 23.873 26.1623 24.249 25.6919 24.5584C25.3786 24.6568 25.056 24.7223 24.7291 24.7537C23.973 24.4147 23.2369 24.0327 22.5244 23.6095C22.0461 23.3448 21.628 22.9837 21.2965 22.549C20.5988 21.7118 19.9011 20.9025 19.2035 20.0653C19.0571 19.865 18.9526 19.6372 18.8965 19.3955C18.6993 18.5763 18.2791 17.8277 17.6825 17.2327C17.5988 17.1211 17.543 16.9815 17.3197 16.9815C17.0965 16.9815 15.743 15.042 15.729 14.7071C15.6207 13.8831 15.5555 13.0541 15.5336 12.2233C15.5336 12.1117 15.436 12.028 15.5336 11.8466C15.7349 11.6149 15.7788 11.2857 15.6453 11.0094C15.5646 10.676 15.5271 10.3337 15.5336 9.99077C15.59 9.76266 15.6843 9.54567 15.8127 9.3489C15.9104 9.1675 16.4685 9.02797 16.5383 9.04192C16.6081 9.05587 16.9709 8.88843 17.1941 8.79075L17.4174 8.70703C17.769 8.81512 18.11 8.95524 18.436 9.12564C18.8068 9.2699 19.1701 9.4329 19.5244 9.61402C19.5244 9.61402 19.9849 10.0326 20.529 10.4373C21.0732 10.8419 21.4639 11.3582 21.5895 11.428C21.7151 11.4978 21.7012 11.7071 21.7151 11.8606C21.7291 12.014 23.2081 13.2559 23.25 13.2559C23.4314 13.6048 23.8221 13.828 23.6686 14.4141C23.6686 14.5397 23.6686 14.5815 23.7523 14.6513C24.1717 15.2049 24.5187 15.8098 24.7849 16.4513C24.9703 16.7519 25.1803 17.0366 25.4128 17.3025C25.4128 17.3025 25.4128 17.442 25.4128 17.5118C25.4128 17.5815 25.4128 17.7071 25.4826 17.7629C25.9233 18.4712 26.4378 19.1307 27.0175 19.7304C27.1849 19.842 27.3384 20.9025 27.5338 21.0141C27.7291 21.1258 27.3942 21.9351 27.5617 21.9351Z" fill="#231F20"/>
<path d="M67.5811 17.7351C67.7066 18.1676 67.0508 18.1118 65.9345 17.7351C65.4326 17.5226 64.9629 17.2408 64.5392 16.8979C64.3548 16.6369 64.1914 16.3616 64.0508 16.0746C64.0508 15.9351 64.2322 14.2467 64.2601 13.6467C64.2843 13.0959 64.4171 12.5553 64.6508 12.0559C65.0973 11.0513 65.488 10.0187 65.9206 9.01405C66.0173 8.77975 66.165 8.56999 66.3531 8.40009C66.984 7.80947 67.43 7.04845 67.6369 6.20937C67.6369 6.06983 67.7764 5.9582 67.6369 5.7489C67.7408 4.79861 68.0762 3.8883 68.6136 3.09771L70.4136 1.46513C70.4974 1.39536 70.4136 1.25583 70.7346 1.26978C71.0393 1.336 71.3485 1.17847 71.4741 0.893033C71.6709 0.614599 71.9112 0.36961 72.1858 0.167444C72.4243 0.0650862 72.6798 0.00829312 72.9393 0C73.2781 0.0633862 73.5951 0.212282 73.8602 0.432563C74.0137 0.669775 74.3765 0.711636 74.6695 0.837219L74.9625 0.976755C75.2594 1.78063 75.4471 2.62068 75.5207 3.47446C75.5207 3.47446 75.3672 4.15819 75.2137 4.86982C75.0602 5.58146 74.823 6.26518 74.823 6.44658C74.823 6.62798 74.6137 6.69775 74.4881 6.80938C74.3625 6.92101 73.9021 8.98615 73.8602 9.05591C73.609 9.43266 73.5951 9.90709 72.9951 10.1164C72.8695 10.1164 72.8555 10.2559 72.8276 10.3396C72.5105 11.0395 72.1124 11.6999 71.6416 12.3071C71.4499 12.6508 71.2776 13.0048 71.1253 13.3676C71.1253 13.4374 70.9997 13.4653 70.9439 13.5211C70.8881 13.5769 70.7764 13.6327 70.7485 13.7164C70.2778 14.527 69.8673 15.3712 69.5206 16.242C69.5206 16.4653 68.5159 17.1351 68.4601 17.4002C68.4043 17.6653 67.5252 17.6374 67.5811 17.7351Z" fill="#231F20"/>
<path d="M53.3338 54.1689L50.3198 57.1829C49.957 57.5597 49.6501 57.9922 49.2873 58.355C47.9896 59.6667 46.664 60.9643 45.4082 62.3039C44.85 62.9039 44.3337 63.5458 43.8314 64.1876C43.2299 65.1201 42.4233 65.9028 41.4732 66.476C41.0965 66.6714 40.9709 66.2388 40.8732 65.7086C40.6725 65.1637 40.6725 64.5651 40.8732 64.0202C41.3863 63.1127 41.9994 62.2655 42.7012 61.4946C43.4132 60.6698 44.1677 59.8827 44.9616 59.1364C45.8488 58.1772 46.6782 57.1661 47.4454 56.1085C48.3663 54.9922 49.3152 53.9038 50.2361 52.8294L52.064 50.8759C52.985 49.8852 53.9478 48.9224 54.8548 47.9037C55.5385 47.1084 56.0966 46.2153 56.8222 45.3642C56.9897 45.1828 57.1292 44.9735 57.2967 44.806C57.549 44.5681 57.8886 44.4451 58.2348 44.4662C58.581 44.4873 58.9031 44.6507 59.1246 44.9177L59.4595 45.2525C59.6076 45.46 59.6858 45.7093 59.6827 45.9642C59.7058 46.2674 59.663 46.5721 59.5572 46.8572C59.4137 47.2741 59.1962 47.6617 58.9153 48.0014C58.6502 48.3223 58.385 48.713 58.092 49.0479C57.5199 49.7177 56.892 50.4433 56.2501 51.1131L53.3617 54.2247L53.3338 54.1689Z" fill="#231F20"/>
</svg>
