<svg fill="none" height="38" viewBox="0 0 104 38" width="104" xmlns="http://www.w3.org/2000/svg" xmlns:xlink="http://www.w3.org/1999/xlink"><clipPath id="a"><path d="m0 0h103.258v37.1497h-103.258z"/></clipPath><g clip-path="url(#a)"><path d="m86.0004 2.00819c.1857-.05673.208-.05501.1375.11345-1.9372 2.82421-3.4499 5.84783-4.6136 9.07946l.7306 2.2999c.1065.3352.189.6738.2612 1.0159l.2132 1.0039.2217 1.2428c.1272.7167.1908 1.4146.2613 2.1349l.1135 1.1465c.0395.4091.024.7735.1444 1.1551l.2355-1.0863c.6205-2.8535 1.614-5.5574 3.0115-8.1392.3782-.6979-.6446-1.0056-.7408-1.5058.5019.1685.7391.3627 1.1534.624.2544-.3043.4435-.6326.6669-.9764.899-1.38373 1.8599-2.7159 3.0718-3.84353.8972-.8354 1.6845-1.80488 2.874-2.34807-1.9785 2.70217-3.6751 5.36653-4.7786 8.5036 1.9544 1.7808 3.1903 3.2832 4.2269 5.7051.2836-.1117.4813-.2526.7305-.4073 1.4525-.899 2.9635-1.7757 4.7168-2.2484-1.1981.9557-2.3705 1.6811-3.3451 2.7503l-1.5281 1.6777.1839.8577.2063 1.4456.098 1.2738c1.4198-.8767 2.8328-1.3855 4.4056-1.7172.4521-.0963.8938-.1307 1.3653-.1891l1.119-.1393c.701-.0876 1.394-.0704 2.117.0465-1.765.6394-3.3912 1.229-4.8832 2.2466-.8199.5604-1.5986 1.1345-2.2656 1.8547-1.7052 1.841-2.2329 3.9931-1.7224 6.422.4109 1.9527 1.2291 3.3571 2.3241 4.9557.0464.0687-.1977.1891-.3284.1891h-88.0371l-.23378-.0035c-.055 0-.08422-.2183-.05844-.2733.60506-1.2582 1.14825-2.7795 1.32358-4.1873.0997-.8028.2269-1.5814.11001-2.379-.07391-.5071-.11345-1.0125-.2183-1.4938-.99527-4.5792-5.00727-7.125-9.124125-8.6101l-.14267227-.0516c-.03781663-.0138.11001227-.1083.16329927-.1117.63085-.043 1.411248.0275 2.048978.1444l1.39062.2544c.26471.0481.50193.1203.77524.189 1.68112.4212 3.43787 1.1534 4.77693 2.135.07735.0567.25784.1014.31972.0979.07735-.0051.07735-.2406.09626-.3317.19252-.9334.49338-1.798.89898-2.6901-.9282-1.7138-2.10224-3.254-3.40519-4.7306-.69101-.7821-1.33218-1.5178-2.10914-2.2054l-1.2978-1.1517c.11517-.0911.25784-.1082.35239-.0636l1.83066.8681c2.29135 1.0864 4.28878 2.6076 6.04208 4.4486.1255.1324.3902-.0069.4865-.1203.9815-1.1758 2.0799-2.1384 3.3416-3.0356l-.3799-1.1655c-.7993-2.4564-1.8341-4.82849-3.4671-6.83449l-1.3838-1.70003c.7839.263 1.3236.72024 1.9665 1.10528.3541.21315.6498.47443.9626.75805 1.0829.97636 2.0593 1.99913 2.8655 3.22989 1.963 2.9927 2.9153 5.8891 3.584 9.4817.3334-.1702.3541-1.2927.5311-2.1418l.196-.9386c.2613-1.2514.6583-2.3945 1.1654-3.6149-.8973-2.67467-2.0971-5.17057-3.5977-7.63553.6394.23722 1.0296.7168 1.4834 1.14825 1.1809 1.12419 2.1796 2.36011 3.0546 3.73869l.1169.18393c.0343.05501.2544-.01547.3008-.07907l.9162-1.29436c.5139-.72711 1.0812-1.38031 1.8564-1.9149-.4211 1.03824-2.1469 4.82159-1.8066 5.57449l.6738 1.4955c.8028 1.7791 1.4336 4.0945 1.829 5.8753.0155.0654.153.1186.1616.0963.679-2.2724 1.4783-4.4933 2.5406-6.6489-.624-1.7034-1.5161-3.23328-2.8139-4.4245l.1083-.11861c.0189-.02063.1203.0361.1495.05844 1.1001.82509 2.1521 1.81692 3.0322 2.84137.0688.0808.2957.1015.3507.0155l2.073-3.19378c.11-.17017-.055-.49162-.0962-.65148-.6343-2.49246-1.5935-4.76661-2.8707-7.09233375.5518.03094085 2.7366 3.48085375 2.8947 3.78510375l1.2617 2.42026c.7873-.70648 1.456-1.72237 2.1453-2.22087.0206-.01547.0515.19081.0326.22003l-1.7035 2.82421c-.0446.07392-.0429.33348-.0085.42114.581 1.51439 1.1396 3.32272 1.4421 4.93332l.1427.7632.251 1.4594.177 1.2875c.153 1.1087.196 2.1693.2458 3.2883l.0499 1.1208.0739 1.2806c.0258.4349-.0275.7873.1427 1.2445l.1839-.789.2802-1.2617c.7769-3.5015 1.8358-6.8654 3.2333-10.1727-.4125-1.67593-1.021-3.18516-1.8427-4.65313-.6137-1.09496-1.382-1.93896-2.202-2.95657 1.4697.84056 2.4684 2.08163 3.474 3.31583.5002.61366.9214 1.33217 1.327 1.9974.0258.04126.074.20799.1066.18565.043-.02922.1805-.12033.2097-.17361.8578-1.54361 1.7344-3.19895 2.8225-4.61191 1.0262-1.33046 2.0284-2.59044 3.4224-3.6149311-1.4387 2.2724311-2.6643 4.4245511-3.608 6.8602811-.5535 1.425-1.2033 2.81218-1.4972 4.34199.3042 1.2549.8199 2.532 1.052 3.8333l.2595 1.4525c.031.1736.0791.3867.098.5552l.2682 2.3893c.0343.3129.0429.6188.1529.8578.6962-3.0511 1.7052-5.92 3.1749-8.6274.1702-.3128.2682-.4778-.0309-.7701l-1.1345-1.10868c.2011.19598-.196-.22518-.0997-.20455.0309.00688.1753.04297.2166.06704l1.4989.89729c.1203-.043.3094-.1822.3782-.2974.9643-1.58312 2.0885-2.94968 3.4069-4.26982-.5604-1.06918-1.0795-2.05929-1.8427-2.89298l-.9557-1.04511c1.0537.12548 3.3278 1.95959 3.883 2.75718.306.1908.9197-.80962 1.5265-.90417l-.9747 1.44735 1.0778 1.60893c1.2806 1.90974 2.0558 4.11862 2.6987 6.32222.0327.11.3799.0482.4934-.0103l1.2445-.6411.1873.1598-1.5659 1.1414c-.1943.1409-.0911.385-.0499.5758l.2733 1.2617.1823.9489.2767 1.6983.251 2.0541c.0567.4659.0275.887.1598 1.3099l.2682-2.3498.1341-1.3494c.2028-2.0352.7632-3.9467 1.5384-5.8719l-.7924-2.1315c-.7529-2.02488-1.7705-3.83492-2.8947-5.7842 1.9716 1.41297 3.3915 3.25567 4.746 5.12416l.0945.13064c.0275.03781.1719-.04813.2046-.09455l.5518-.7993c.5242-.76149 1.4886-1.97162 2.3326-2.55434-.7718 1.82379-1.511 3.47569-1.9339 5.36999 1.5024 2.819 2.5131 5.779 3.1612 9.0038.2819-.318.33-.7323.4383-1.1363.6119-2.2861 1.4284-4.4451 2.4443-6.5869-.507-1.8891-1.5762-3.31929-2.9084-4.79242 1.1242.26128 3.4379 3.06482 3.6304 3.17662.0653.0395.177-.2166.1513-.3026l-.5759-1.92861c-.6996-2.34119-1.7206-4.40048-2.8809-6.70557 1.4267 1.28061 2.4942 2.79671 3.3897 4.37641l1.3305 2.34463c1.2875-1.87536 2.6162-3.46709 4.1821-4.97116.1496-.05329.1926-.02579.129.12204-1.3941 2.1418-2.5612 4.30078-3.5153 6.71076.9489 2.367 1.6984 4.7494 2.2278 7.247l.153.7185c.098.4659.1891.9506.2664 1.4388l.165 1.0485.1461 1.0623.3644 3.5015c.0035.0396.0155.1049.0241.1461l.0825.4126c-.0103.0017.055-.0121.0928-.0224l.2596-1.9217.1822-1.1208.2647-1.3751.165-.8011c.7254-3.5238 1.8393-6.9101 3.4121-10.1778-.3712-1.70519-.9437-3.27974-1.7378-4.80443-.6205-1.19295-1.4852-2.07304-2.2931-3.21957 2.0782 1.36483 3.5462 3.31583 4.7735 5.3648.1152.19252.2235.34207.3851.50365 1.0382-1.93037 2.4529-3.749 3.9174-5.41465.4521-.51569.9833-.96949 1.5368-1.43876zm-32.8489 14.24831c.3524-.2802.7306-.6051.9523-.8956l-.2114-1.1947-.2733-1.4301c-.3576-1.8719-.8595-3.66308-1.6141-5.47484-.911 1.38031-1.5488 2.75374-2.1985 4.17874-.1272.2768-.2905.5982-.0378.8217 1.2066 1.0571 2.1968 2.2483 3.0201 3.608.0877.1444.2304.275.361.3868zm-19.7695-.251-.0395-1.205c-.0189-.5707-.0653-1.0984-.1375-1.6605l-.2751-2.1297c-.0601-.4727-.0636-.9008-.3627-1.31502l-1.1345 2.78292c-.1736.4281-.1736.6807.0447 1.0847.9609 1.7808 1.6055 4.3609 1.6829 6.4151.0051.1203.0619.263.1306.3386.1736-1.4181.1375-2.8895.0911-4.3111zm13.2427 7.981c-.0344.2218-.3936 2.8792-.0292 2.8689.8835-3.0975 2.3343-5.9423 4.4056-8.3729.2458-.2888.2235-.4899.1152-.8303-.3902-1.2238-1.1311-3.2023-2.0335-4.2904-.1753.4125-.3369.7666-.4538 1.174l-.8165 2.8225-.2836 1.1672-.2132 1.0004-.1959 1.0107-.2699 1.6193c-.1667 1.0055-.0911.9591-.2235 1.8306zm39.4428.7409-.0825 1.0709-.0808.8079c.098-.0739.2509-.1719.3111-.3008.9317-1.9992 2.6042-4.3438 4.4142-5.994.2768-.2526.294-.4967.2441-.801-.3524-2.0851-1.009-3.8607-2.1246-5.6003-.0636-.0997-.2888-.1959-.3369-.1513l-.7838 2.4959c-.1083.3456-.1891.667-.2682 1.0108l-.2011.8526-.2372 1.0502-.2355 1.1208c-.086.4057-.1427.7976-.2011 1.2084l-.2665 1.8771c-.0618.44-.1117.8577-.1495 1.3528zm-69.012-3.0958c-.0206-.349-.0412-.6807-.0773-.9781l-.1994-1.6278c-.0688-.5673-.1599-1.138-.2664-1.6983l-.1633-.8561-.251-1.131-.2475-1.0228c-.0757.0155-.3112.1341-.3988.2355-1.0194 1.2067-1.7912 2.5475-2.214 4.0447 1.6639 2.1589 2.8534 4.5019 3.651 7.0579.0774.2475.1702.4521.3352.734.055-.7323.0602-1.3528.0086-2.0438l-.0825-1.1208-.0946-1.5951zm61.679 9.5504.1873-.9832.1737-.9369.2561-1.4593.1598-1.0434.2012-1.4714.1598-1.3167.1685-2.0679c.0292-.361.0928-.7478.1048-1.1053.0499-1.4714.0447-2.8655 0-4.4245-.2252.428-.3248.8405-.4056 1.272l-.2166 1.1499-.1702.9197-.2544 1.7292-.196 1.4491c-.0378.275-.0464.5775-.0739.8595l-.1684 1.7412-.0774 2.41-.0447 2.6403c-.0034.2166.0585.3988.1994.6411zm-39.0285.1719.2922-1.5608.1599-.9609.1873-1.1448.1599-1.2239.2767-2.2982.0894-1.4473.0825-.8801c.1272-1.3614.1565-3.8195.0138-5.2514-.11.33-.2389.6635-.3008.9901l-.2441 1.2944-.2114 1.2617-.2321 1.5487-.2355 1.8255-.2217 1.9476-.1186 1.5505c-.0774 1.0176-.1548 1.975-.1874 2.9858l-.0705 2.226c-.0086.263-.1822.5604.2596.6927l.3025-1.5539zm-15.5427-.6841.074-1.0022c.0962-1.2961.0859-2.5612.0051-3.859l-.0911-1.4577-.0791-1.2926c-.0326-.5346-.0842-1.0331-.1547-1.5591l-.2561-1.9011-.1942-1.1964c-.0877-.5415-.1582-1.0021-.4435-1.4938-.0464.4435-.0877.777-.0877 1.1655l.0121 5.7533.22 2.403c.0395.4332.0808.8251.1375 1.248l.1736 1.3184.1839 1.1964.2888 1.6502c.1461-.3112.1839-.6034.2114-.9729zm4.0894.8044.3713-1.2857.275-1.0984.1994-.8303.2407-1.119.2544-1.3219.1667-.954.2579-1.884c.0945-.691.1684-1.3545.177-2.0541l.0395-2.8586c.0052-.3799-.0086-.7013-.1736-1.0932l-.2698 1.0795-.2098.8973-.2561 1.2049-.1598.7839-.2269 1.327-.2115 1.3528-.1547 1.1465-.2716 2.6506c-.0962.9334-.1547 1.8221-.153 2.7692 0 .4366-.1736.8543.1083 1.2841zm26.2705-11.7747c.1461-.4847-.1959-1.4714-.1804-2.3051-.4865.2647-.4796.7752-.2562 1.2153l.2888.5724zm13.4954 10.1366.2321-.9231.2097-.9128.2355-1.1465.2509-1.2857.1823-1.1174.2423-1.9114c.1135-.8973.1599-1.7585.1736-2.6678.0103-.7804.1272-1.5092-.0928-2.2724-.1427.44-.251.8027-.33 1.1912l-.1719.8388-.2544 1.303-.1599.8801-.1856 1.1379-.1771 1.1981-.263 2.3085c-.1547 1.3597-.2647 2.6661-.1736 4.0189.2286-.1891.2218-.3919.2836-.6377zm-5.5865.6738c.2269-.2871.2973-.4538.2956-.6755l-.0154-4.459-.098-.8646-.0843-1.4663c-.0464-.8044-.1375-1.5951-.2595-2.403l-.2579-1.7121c-.0618-.4074-.1547-.7632-.2664-1.2411-.1014.3249-.1427.6309-.1409.9816l.0206 4.9849c0 .3902.0481.8096.0877 1.1946l.1908 1.8909.2647 2.1177.1289.8921c.0395.2751.0567.4521.1358.7598zm-12.5672 1.021c-.0275.2768-.0051.5192.1324.71.6136-1.7276 1.1242-3.4018 1.4198-5.1826l.1839-1.107c.098-.5862.2716-2.74.2046-3.4688-.3438.5913-.5157 1.1551-.6704 1.7877l-.5896 2.4151c-.0619.2509-.1169.5363-.1547.7855l-.2544 1.7086-.1839 1.4611-.0877.8922zm-35.2331-.4348c-.3214-2.0009-1.0296-4.4555-1.7963-6.3962-.2217.3455-.122.6772-.0704 1.0279.342 2.3429 1.0107 4.5775 1.9149 6.8431.3283-.4727.0292-.9935-.0482-1.4766zm73.758 1.669c.966-1.9974 1.8066-4.2578 2.2329-6.4649.11-.569.3558-1.0193.1117-1.5745-1.1276 2.2157-1.908 4.4486-2.5251 6.7898l-.3077 1.1654c-.0224.0842.122.2922.2028.2733.0653-.0154.2407-.0945.2854-.1891zm-28.9057.086-.1702-1.0812-.2492-1.48c-.0757-.4487-.1393-.8801-.153-1.3391-.0103-.342-.0602-.6068-.306-.8612-.0395.251-.0842.4659-.0877.6481l-.0464 2.654-.0412 1.5127c.3971.0584.7374.0636 1.052-.0533zm-5.8925-.0103c.3833.1512.8147.165 1.0004-.0378l.0877-2.1384c.0223-.5483.0756-1.04.0532-1.6261-.1168.2458-.2372.4847-.2853.679l-.2235.8955-.6325 2.2295zm17.8907-.3524.0722-1.0211c.0309-.428.0928-.8165-.0774-1.3115l-.8027 2.5354c-.0585.1857.3627.306.5122.2613.1496-.0447.2819-.2424.2974-.4641zm-51.202-1.81-.1066 2.1022c-.0086.1633.4452.2166.5397.1083.1616-.1856-.1323-1.963-.4331-2.2105zm11.5426 1.4318c.141-.416.2768-.7701.0688-1.1585l-.526 1.6433c-.0241.0756.0086.2509.0361.3094.2097.4246.5122-1.0623.4211-.7942z" fill="#00300e"/></g></svg>