<?xml version="1.0" encoding="UTF-8"?>
<svg id="Layer_2" xmlns="http://www.w3.org/2000/svg" version="1.1" viewBox="0 0 24 24">
  <!-- Generator: Adobe Illustrator 30.2.1, SVG Export Plug-In . SVG Version: 2.1.1 Build 1)  -->
  <path d="M19.4,21.6c-.3.5-.8.8-1.2,1.2-1.5,1.2-3.5,1.3-5.3,1s-1.7-.5-2.5-1-1-.7-1.3-1.2c-.7-.8-1.1-1.4-1.6-2.4s-.6-.8-.9-1.2l-1.1-1.2-1.1-1.2-1.1-1.2c-.3-.4-.6-.8-.5-1.3s.3-.8.7-1.1.8-.3,1.1,0c.6.3,1,.9,1.4,1.4l1,1.1c.3.3.9.4,1.2,0s.3-.4.3-.6V1.3c0-.7,1-1.7,1.8-1.2s.9.7.9,1.3v10.2c0,.2.2.3.3.3.2,0,.3-.1.3-.3v-3.4c0-.3.1-.6.3-.9.5-.7,1.5-.7,2,0s.4.5.4.8v3.6c0,.1.2.3.3.3s.3-.1.3-.3v-2.8c0-.7.7-1.3,1.3-1.3s1.3.6,1.3,1.3v2.8c0,.1.2.3.3.3s.3-.1.3-.3v-1.7c0-.7.6-1.3,1.3-1.3s1.3.6,1.3,1.3v7.7c0,1-.4,2-.8,2.9s-.5.8-.7,1.2Z"/>
</svg>