<?xml version="1.0" encoding="UTF-8"?>
<svg id="uuid-c19ef4ff-a896-409d-b014-35129738db13" data-name="Layer 1" xmlns="http://www.w3.org/2000/svg" viewBox="0 0 193.93 238">
  <path d="M193.93,0v238H0V0h193.93ZM87.47,2.92c-15.1,3.38-22.56,19.76-16,33.57l5.83-11.66c4.2,2.29-3.01,9.98-.76,13.12,13.91-7.88,17.19-20.46,10.93-35.03ZM71.43,71.55c2.19-25.57-16.58-44.79-42.28-42.35-3.84,26,11.81,45.37,37.92,46.72-3.01-5.32-7.46-9.58-10.93-14.59-.82-1.18-3.92-2.84-1.47-4.37l16.76,14.59ZM88.95,84.68c23.15-6.49,31.04-37.03,16.61-55.29-24.4,5.97-32.47,31.7-23.89,53.83l13.09-21.9-5.81,23.35ZM123.94,77.37c21.21-3.05,31.93-28.95,20.94-46.6-21.31,2.76-32.36,23.39-26.76,43.7,3.38.83,2.4-.68,3.33-1.85,3.44-4.36,5.41-10.74,9.77-14.21l-7.28,18.97ZM157.47,67.15c11.59,4.46,21.7-17.74,8.7-15.44-7.21,1.27-9.66,5.28-10.15,12.53l4.35-.74-2.91,3.64ZM23.34,68.65l5.79-3.67c-.09-6.18-35.05-5.48-20.3,7.22,7.94,6.83,15.61,5.8,24.7,2.25l-10.19-5.8ZM185.18,73c-17.47-1.14-29.92,8.96-32.08,26.27,2.07,2.08,11.91-10.75,14.57-8.02l-10.2,10.94c17.72,2.38,29.64-12.26,27.71-29.19ZM110.76,81.8c-12.58.68-18.23,12.06-14.51,23.33,2.68,2.9,5.77-7.78,5.84-8.75,3.99.85-1.86,9.82-1.48,10.2,12.31-3.11,13.86-14.03,10.15-24.77ZM123.94,132.86c19.4-5.67,27.95-27.23,20.1-45.67-2.17-5.1-2.35-6.41-8.02-4.32-19.14,7.06-25.11,30.71-17.89,48.54l11.63-18.98-5.82,20.43ZM91.87,160.61c1.47-22.36,5.39-48.89-8.42-68.22-1.03-1.44-7.18-9.67-9.07-7.69,4.83,12.47,8.82,24.24,7.28,37.95l-21.86-13.13c-2.12,1.95,19.68,20.2,20.44,25.62,1,7.13-10.55,35.89-12.73,45.62-2.5,11.15-4.02,21.43-3.53,32.97-5.42,7.06-23.52,9.19-25.43,16.92.36,5.72,7.79,1.32,11.75,1.41,17.35.37,36.46,2.43,54.04.18,8.55-1.09,7.61-6.26,1.17-10.07-4.83-2.86-10.76-2.37-15.21-5.56-1.91-2.96-1.96-24.46-1.25-28.89,1.81-11.26,25.93-30.31,33.46-39.5,1.35-1.65,3.54-2.35,2.91-5.11l-6.87,1.13-26.65,16.37ZM71.45,97.84l-43.74-7.31c7.2,16.8,31.5,22.06,43.74,7.31ZM33.54,108.03c-7.97-9.44-25.32-6.19-29.15,5.83,9.35,5.62,22.79,8.04,29.15-2.88l-10.2-1.46,10.2-1.49ZM153.1,125.59c6.52,14.22,42.5,2.95,39.29-7.86-2.78-9.33-37.5-9.8-39.27,4.93,2.17-1.14,4.01-1.45,6.47-1.54,2.06-.07,9.06-1.08,9.54,1.52l-16.03,2.95ZM58.32,125.59c-15.97-5.19-31.62,3.98-35,20.41,15.36,6.49,33.28.94,37.9-16.04l-13.85,5.83c-2.89-4.29,9.25-5.05,10.95-10.19ZM110.8,124.11c-9.71,1.97-13.57,9.82-10.17,18.98l5.09-5.83-.72,7.29c10.19-3.76,9.33-11.84,5.8-20.44ZM189.56,151.85c.75-9.89-6.84-14.46-16.04-13.13l4.37,5.82-7.29-1.43c3.45,9.7,9.83,9.43,18.96,8.74ZM170.6,166.45c-.49-18.67-19.24-29.52-36.44-23.34l14.56,9.48-16.02-5.11c4.77,17.63,21.06,23.56,37.9,18.97ZM62.7,150.41c-10.37-1.5-14.62,3.29-16.04,13.11,8.72,3.8,17.34-.33,17.49-10.2l-5.8,2.92v-2.89s4.36-2.93,4.36-2.93Z" style="fill: #fff;"/>
  <path d="M91.87,160.61l26.65-16.37,6.87-1.13c.63,2.75-1.56,3.46-2.91,5.11-7.53,9.19-31.65,28.24-33.46,39.5-.71,4.43-.66,25.93,1.25,28.89,4.46,3.19,10.38,2.7,15.21,5.56,6.44,3.81,7.38,8.98-1.17,10.07-17.58,2.25-36.69.19-54.04-.18-3.96-.08-11.39,4.32-11.75-1.41,1.91-7.73,20.01-9.87,25.43-16.92-.49-11.53,1.03-21.82,3.53-32.97,2.18-9.73,13.73-38.49,12.73-45.62-.76-5.41-22.56-23.67-20.44-25.62l21.86,13.13c1.54-13.71-2.45-25.48-7.28-37.95,1.89-1.98,8.05,6.25,9.07,7.69,13.81,19.33,9.89,45.86,8.42,68.22Z" style="fill: #333;"/>
  <path d="M71.43,71.55l-16.76-14.59c-2.45,1.54.65,3.19,1.47,4.37,3.47,5.01,7.92,9.26,10.93,14.59-26.11-1.34-41.75-20.72-37.92-46.72,25.7-2.44,44.47,16.78,42.28,42.35Z" style="fill: #006837;"/>
  <path d="M88.95,84.68l5.81-23.35-13.09,21.9c-8.58-22.13-.51-47.86,23.89-53.83,14.43,18.26,6.53,48.79-16.61,55.29Z" style="fill: #006837;"/>
  <path d="M123.94,132.86l5.82-20.43-11.63,18.98c-7.22-17.82-1.24-41.47,17.89-48.54,5.68-2.09,5.85-.78,8.02,4.32,7.85,18.44-.7,40-20.1,45.67Z" style="fill: #006837;"/>
  <path d="M123.94,77.37l7.28-18.97c-4.37,3.48-6.33,9.86-9.77,14.21-.93,1.17.05,2.68-3.33,1.85-5.6-20.31,5.45-40.94,26.76-43.7,10.99,17.65.27,43.54-20.94,46.6Z" style="fill: #006837;"/>
  <path d="M170.6,166.45c-16.85,4.59-33.13-1.34-37.9-18.97l16.02,5.11-14.56-9.48c17.2-6.18,35.95,4.67,36.44,23.34Z" style="fill: #009245;"/>
  <path d="M185.18,73c1.93,16.93-9.99,31.57-27.71,29.19l10.2-10.94c-2.66-2.72-12.5,10.1-14.57,8.02,2.16-17.31,14.61-27.41,32.08-26.27Z" style="fill: #009245;"/>
  <path d="M58.32,125.59c-1.7,5.14-13.84,5.9-10.95,10.19l13.85-5.83c-4.62,16.98-22.54,22.53-37.9,16.04,3.38-16.43,19.03-25.6,35-20.41Z" style="fill: #009245;"/>
  <path d="M153.1,125.59l16.03-2.95c-.48-2.6-7.49-1.59-9.54-1.52-2.46.08-4.3.4-6.47,1.54,1.77-14.73,36.5-14.26,39.27-4.93,3.22,10.81-32.76,22.08-39.29,7.86Z" style="fill: #009245;"/>
  <path d="M87.47,2.92c6.27,14.57,2.98,27.15-10.93,35.03-2.26-3.14,4.96-10.83.76-13.12l-5.83,11.66c-6.56-13.82.91-30.2,16-33.57Z" style="fill: #009245;"/>
  <path d="M71.45,97.84c-12.23,14.75-36.53,9.49-43.74-7.31l43.74,7.31Z" style="fill: #006837;"/>
  <path d="M27.69,90.51c11.99-14.95,36.37-10.08,43.85,6.59l-43.85-6.59Z" style="fill: #006837;"/>
  <path d="M33.54,108.03l-10.2,1.49,10.2,1.46c-6.36,10.92-19.8,8.5-29.15,2.88,3.83-12.01,21.18-15.27,29.15-5.83Z" style="fill: #39b54a;"/>
  <path d="M23.34,68.65l10.19,5.8c-9.09,3.55-16.76,4.58-24.7-2.25-14.75-12.7,20.21-13.4,20.3-7.22l-5.79,3.67Z" style="fill: #39b54a;"/>
  <path d="M110.76,81.8c3.71,10.74,2.16,21.66-10.15,24.77-.38-.38,5.46-9.34,1.48-10.2-.07.97-3.16,11.65-5.84,8.75-3.71-11.26,1.94-22.65,14.51-23.33Z" style="fill: #39b54a;"/>
  <path d="M110.8,124.11c3.53,8.6,4.39,16.68-5.8,20.44l.72-7.29-5.09,5.83c-3.4-9.16.46-17.01,10.17-18.98Z" style="fill: #39b54a;"/>
  <path d="M157.47,67.15l2.91-3.64-4.35.74c.49-7.25,2.94-11.26,10.15-12.53,12.99-2.3,2.88,19.9-8.7,15.44Z" style="fill: #39b54a;"/>
  <path d="M62.7,150.41l-4.36,2.93v2.89s5.81-2.92,5.81-2.92c-.15,9.88-8.77,14.01-17.49,10.2,1.43-9.82,5.68-14.61,16.04-13.11Z" style="fill: #39b54a;"/>
  <path d="M189.56,151.85c-9.13.69-15.51.95-18.96-8.74l7.29,1.43-4.37-5.82c9.2-1.33,16.79,3.23,16.04,13.13Z" style="fill: #39b54a;"/>
</svg>