<svg viewBox="0 0 27.78 32.26" xmlns="http://www.w3.org/2000/svg"><path d="m13.71 31.92c.07.01.14.03.21.05.15.11.22.28.49.29.23 0 .49-.03.71-.07.32-.05.64-.15.92-.31.06-.03.11-.08.15-.13.06.01.11 0 .15-.04.06-.07.01-.19-.04-.29.13.04.27.08.41.1.22-.05.44-.12.66-.17.14-.01.27-.03.4-.05.72-.1.16-.35-.16-.56-.4-.27-.68-.57-.85-.99-.17-.43-.18-.89-.21-1.34-.07-.88-.08-1.77-.16-2.65-.04-.48-.11-.96-.2-1.43-.08-.42-.06-.84-.06-1.26 0-.45.02-.82.29-1.23.21-.31.38-.47.75-.66.83-.43 1.74-.32 2.61-.57.2.17.45.24.7.21s.37-.3.57-.15c.22.17.5.19.73.02.22-.15.16 0 .34.19.11.12.24.22.38.27.19.07.41.07.6 0 .53-.21.42-.87.7-1.27.35.66 1.39.94 1.64.02.05-.21 0-.46-.1-.63.1-.1.24-.15.33-.26.26-.11.46-.44.46-.79.44.14.98-.05 1.24-.56.2-.4.04-.71-.09-1.03.16-.02.3-.12.41-.35.18-.38.1-.71-.1-.94.03-.05.06-.1.07-.16.14-.49-.21-.86-.46-1.15.84-.6.48-1.73-.24-2.09.06-.41-.08-.85-.51-.68.21-.19.33-.59.25-.87 0-.33-.12-.67-.32-.88-.05-.05-.11-.09-.17-.12.07-.11.13-.23.16-.38.17-.75-.28-1.39-.89-1.1-.17.08-.33.33-.49.24.08-.17.13-.38.1-.58-.04-.35-.3-.6-.57-.65-.12-.02-.24 0-.35.06-.06-.17-.15-.32-.27-.44-.25-.25-.58-.27-.87-.12-.01-.02-.02-.05-.03-.07.2-.56.22-1.4-.28-1.72-.55-.35-1.01.17-1.28.74-.04-.02-.07-.04-.11-.06.26-.38.15-1.07-.24-1.26.38-.62-.17-1.37-.7-1.11.1-.56-.4-.96-.79-.89-.26.04-.48.26-.64.51-.15-.12-.38-.12-.49-.25-.15-.16-.17-.05-.18-.31 0-.12-.03-.23-.08-.33-.11-.2-.27-.34-.46-.38-.24-.05-.49.06-.65.29-.07.1-.12.21-.14.34-.11 0-.21.04-.3.1-.02-.66-.42-1.12-.94-1.13-.21 0-.29.13-.44-.06-.06-.08-.14-.16-.21-.23-.15-.15-.32-.26-.5-.35-.12-.06-.23-.1-.35-.14-.04-.02-.07-.04-.11-.06-.11-.04-.2-.04-.27 0-.67-.03-1.3.37-1.67 1.19-.41-.52-1.14-.57-1.65-.27-.25.15-.46.4-.58.71-.27-.22-.61-.29-.93-.23-.17.03-.33.09-.49.18-.18.1-.13.18-.27-.01-.2-.27-.51-.39-.79-.32-.53.12-.77.74-.72 1.37-.09.04-.37-.13-.51-.11-.23.04-.35.3-.56.21-.31-.13-.66-.21-.98-.09-.7.27-.98 1.32-.84 2.14-.39-.06-.74.27-.82.75-.28-.21-.69-.26-.96.02-.35.38-.2 1.03 0 1.46-.17 0-.34.06-.49.19-.17.15-.24.35-.33.58-.08.2-.07.39-.05.61-.12.02-.23.06-.34.11-.48.22-1.04.9-.79 1.6.11.32.35.51.61.57.21.05.21.53.35.77-.13.08-.26.18-.38.29.01-.01.02-.02 0 0-.43.41-.09.09 0 0-.63.6-.77 1.65-.1 2.3.07.07.15.13.23.18-.06.14-.06.28 0 .43.07.19.2.32.34.41-.06.44 0 .92.19 1.3.19.36.5.59.84.66.18.04.34-.08.48.02.15.11.08.21.1.42.1.96 1.08 1.4 1.72.9-.07.88.51 1.6 1.19 1.56.21.13.43.25.6.35.36.21.75.33 1.16.47.41.13.7.36 1.07.55.17.09.39.18.59.14.18.09.37.15.56.21.33.1.9.16 1.1.41.24.31.54.57.68.93.12.3.18.61.2.93.12 1.47-.27 2.94-.34 4.4-.02.6 0 1.46-.44 1.97-.27.3-.61.56-.85.87-.26.33.43.37.63.39-.3.35.23.41.52.44.37.03.75.1 1.13.07h.04s-.01.01-.02.02v.03c.07 0 .15-.02.22-.02.15-.02.41-.01.53-.12.03-.05.06-.1.08-.16h.04c0 .04 0 .08-.01.12h.02c.02-.01.04-.02.06-.04.08-.05.14-.06.19-.05 0 0 0 0 0-.01.04 0 .08 0 .11.01v.05h.15.05c0-.01 0-.02 0-.03v.03zm1.23-10.99c0-.46-.02-.93-.08-1.39.15.21.35.33.58.26.08-.02.16-.07.24-.13-.07.24-.1.48-.23.71-.13.21-.33.38-.51.56zm-1.18-.47s-.02.09-.04.14c-.04-.04-.07-.08-.11-.12.05 0 .1 0 .15-.02zm-3.19-.55c.21.11.45.16.66.09.15-.05.28-.18.35-.35.04-.1.07-.22.08-.34.21.27.42.55.65.82s.55.63.35.98c-.56-.46-1.51-.48-2-1.05-.04-.05-.08-.1-.11-.15zm6.07-.6c.09-.07.19-.13.29-.18.23.21.45.81.69.97.09.06.18.1.27.12-.56.23-1.21.28-1.8.42.19-.37.19-1.04.55-1.33zm2.44.65c.12.02.24-.01.34-.1 0 .08.02.15.04.22-.17.03-.35.06-.53.07.05-.06.1-.13.14-.19zm-12.55-.71c.18.13.19.51.3.82-.23-.08-.46-.19-.67-.31.16-.12.3-.29.37-.51zm2.42 1.31c.36.14.73.06.98-.23.25.22.43.49.71.69.25.18.67.29.79.57-.34-.05-.72-.26-1.05-.36-.26-.08-.52-.15-.78-.24-.29-.1-.5-.26-.66-.44z"/></svg>