<svg viewBox="0 0 29.03 32.26" xmlns="http://www.w3.org/2000/svg"><path d="m1.88 19.75c.11.4.5.28.77.12.04-.02.07-.05.1-.07v.25c0 .05.04.09.09.09.22 0 .36-.13.52-.24-.12.25-.22.51-.22.8 0 .06.06.09.11.08.26-.07.52-.21.77-.32.13-.06.25-.12.36-.19.06-.04.12-.07.17-.11.06-.03.11-.07.16-.11.11-.08.23-.16.35-.26.09.15.19.29.31.44.19.25.49.33.69.04.16-.22.2-.49.26-.75.1.09.22.17.33.22.36.17.83.21 1.22.1.35-.1.48-.37.36-.7-.06-.15-.13-.29-.21-.43h.07c.37.03.81-.05 1.13-.27.11.07.21.14.3.2 0 0 .02.01.03.02.08.05.15.1.22.15.29.15.59.29.89.41.23.09.46.16.68.27.19.09.36.2.51.34.24.14.47.31.68.5.21.16.4.35.56.56.03.04.06.08.09.13 0 .01.01.02.02.03.02.04.05.07.07.11 0 .02.02.03.03.05.02.03.04.07.05.1 0 .02.01.04.02.06.01.04.03.09.03.14v.1c.03.48.05.96.07 1.43v.2c.1.5.04 1.05-.01 1.53-.1 1.08.05 2.18-.17 3.25-.1.49-.16.98-.21 1.47-.04.45-.15.85-.49 1.17-.86.8-2.17.61-3.21 1-.04 0-.08 0-.11 0-.02 0-.05.05-.03.06-.02.03-.03.07.01.06.05-.01.1-.02.14-.04.1.01.19.02.28.04h.09.11.03.13.06c.08 0 .15 0 .23-.02.16-.02.33-.04.49-.05h.18.37c-.09.04-.19.08-.28.12-.16.06-.34.13-.51.13-.03 0-.08.04-.1.07v.03.01c0 .01 0 .02.02.03s0 0 0 0c0 .02 0 .03.01.04h.1c.07.02.14.04.21.04h.05.17.04c.07 0 .14 0 .21-.02h.01c.07-.01.14-.02.21-.04h.03c.07-.01.15-.03.22-.04.23-.05.45-.09.68-.07.35.03.69.1 1.05.08.18-.01.36-.04.54-.07.16-.03.32-.06.47-.1-.04.05-.1.09-.14.13 0 0-.01.01-.01.02-.03.04-.05.12.02.12h.19.02c.06 0 .11-.02.16-.03.02 0 .04 0 .06-.01.06-.02.12-.04.18-.06.08-.03.15-.04.22-.06h.03.03c.03-.01.07-.02.1-.04 0 0 .02-.01.03-.02.03-.02.06-.04.1-.07.09-.1.38.12.48.17.04.02.09.03.14.04h.03.11.01t0 0h.19c.04 0 .09-.06.08-.1-.01-.05-.03-.1-.04-.15.03.02.07.03.1.05s.03.02.05.02c.12.05.24.06.37.07.29.03.59-.03.88-.08.33-.06.67-.07 1.01-.08h.37.03c.13 0 .25 0 .38.02.06 0 .12.01.18.02.02 0 .04 0 .06-.01s.05-.05.06-.07 0 0 0-.01 0-.04-.01-.05c-.29-.29-.64-.41-1.04-.51-.49-.12-.96-.37-1.42-.58-.35-.16-.72-.39-.91-.73-.04-.07-.07-.15-.09-.24-.08-.15-.13-.32-.16-.47-.11-.49-.12-.99-.12-1.49 0-.94-.12-1.87-.2-2.81-.07-.84-.13-1.69-.11-2.53.19-.41.48-.77.79-1.1.53-.59.99-.95 1.46-1.27.11-.12.25-.21.39-.3.12-.08.24-.16.37-.24.07-.01.14-.02.22-.02.08 0 .15 0 .23.01l.84.12c.31.04.62.03.93.03.23 0 .46 0 .68-.02.02.14.09.26.22.35.21.14.51-.08.65-.21.07-.07.15-.14.21-.21.01.06.03.12.04.18.09.29.34.66.65.74.27.08.41-.12.49-.34.09.2.23.37.46.35.18-.01.34-.14.43-.28.03-.04.05-.09.07-.13.05.09.11.17.18.25.26.26.65.4.99.21.3-.18.22-.62.19-.9 0-.1-.01-.19-.01-.29.34.08.73.13 1.06.01.57-.2.21-.92-.08-1.21-.05-.04-.18-.15-.33-.23.3-.14.57-.35.78-.61.04-.05.09-.14.02-.19-.11-.07-.24-.13-.39-.17.33-.15.63-.37.85-.64.04-.05.04-.12-.01-.17-.09-.08-.18-.14-.28-.2.13-.02.25-.06.37-.13.21-.12.25-.35.09-.52-.06-.06-.13-.12-.2-.16.32-.1.61-.32.78-.6.03-.05.05-.13-.01-.16-.26-.16-.56-.26-.86-.27.17-.13.28-.29.26-.55-.04-.42-.53-.47-.91-.43.06-.1.12-.19.18-.29.04-.06.08-.14.12-.23.21-.07.4-.18.55-.32.47-.45-.2-1.01-.62-1.16-.07-.02-.25-.06-.43-.08.23-.27.41-.6.51-.95.02-.07.03-.17-.07-.19-.14-.03-.3-.02-.46 0 .26-.29.47-.65.56-1.01.02-.07-.02-.14-.09-.16-.12-.04-.24-.06-.37-.07.12-.08.22-.17.31-.29.15-.21.1-.46-.14-.56-.09-.04-.18-.06-.27-.07.26-.24.46-.58.5-.94 0-.06 0-.15-.08-.16-.33-.04-.67-.01-.97.11.11-.2.15-.42.02-.66-.22-.4-.73-.23-1.09-.02.02-.12.04-.25.05-.37.02-.21.06-.56-.12-.72-.02-.02-.04-.03-.06-.04 0 0 0 0-.01 0-.02 0-.03-.01-.05-.01 0 0-.01 0-.02 0s-.03 0-.04 0c0 0-.01 0-.02 0s-.03 0-.04.02h-.01s0 0-.01 0c-.03.02-.05.03-.08.05 0 0-.01 0-.01.01-.03.02-.05.05-.08.07-.02 0-.05 0-.07 0-.01 0-.03 0-.04 0 0 0-.01 0-.02 0s-.02 0-.03 0 0 0 0 0c-.05.02-.1.05-.14.08-.08.06-.14.13-.21.2.04-.18.05-.36-.15-.41-.15-.04-.3 0-.42.09-.08.06-.14.14-.22.21.01-.23.01-.47-.06-.69-.11-.31-.46-.44-.75-.28-.2.11-.29.29-.31.5-.04-.02-.08-.05-.12-.06-.24-.07-.44.13-.53.34-.06-.09-.12-.19-.2-.27.12-.59-.7-.72-1.13-.64-.07.01-.25.07-.42.15.06-.35.05-.73-.04-1.07-.02-.07-.07-.16-.15-.13-.14.05-.27.13-.39.23.08-.38.08-.79-.03-1.16-.02-.07-.08-.12-.16-.1-.12.03-.24.07-.35.13.06-.13.1-.26.12-.4.02-.26-.15-.45-.41-.41-.09.01-.18.04-.27.07.11-.35.1-.74-.04-1.07-.03-.06-.08-.13-.15-.1-.3.13-.58.33-.78.59 0-.23-.08-.44-.32-.57-.4-.23-.75.17-.96.53-.04-.12-.09-.23-.15-.35-.09-.19-.23-.51-.47-.56-.02 0-.05 0-.07 0-.01 0-.02 0-.03 0s-.02 0-.03 0c0 0-.02.01-.03.02 0 0-.02 0-.02.02 0 0-.02.02-.02.02s-.01.02-.02.02 0 .01-.01.02 0 0 0 0c-.01.03-.03.05-.04.08v.02c-.01.03-.02.06-.03.1-.04.01-.07.04-.11.07s-.01.02-.02.02 0 0 0 0c-.03.04-.06.09-.08.14-.04.09-.06.18-.08.28-.06-.17-.14-.33-.34-.27-.14.04-.26.15-.32.29-.04.09-.06.19-.08.29-.11-.21-.22-.41-.4-.56-.25-.22-.62-.15-.79.14-.12.2-.1.4-.01.59-.05 0-.09 0-.14.01-.25.06-.32.34-.29.57-.18-.1-.42-.21-.62-.14-.07.03-.1.12-.1.18 0 .27.12.52.25.75-.21-.12-.45-.2-.64-.08-.24.15-.11.53-.01.73.05.1.1.19.15.29-.08-.07-.17-.13-.26-.18-.22-.11-.36.09-.4.27 0 0-.01-.02-.02-.02-.13-.18-.34-.43-.59-.38-.03 0-.05.01-.07.02-.1.06-.16.19-.19.34-.18-.23-.4-.41-.55-.18-.1.15-.05.35 0 .51-.55-.28-1.59-.42-1.48.31.04.26.24.48.44.66-.05.02-.1.04-.15.06-.06.03-.12.07-.17.12-.01-.15-.08-.29-.21-.4-.26-.21-.63-.15-.79.15-.11.21-.15.43-.18.66-.06-.08-.11-.17-.18-.24-.1-.11-.25-.18-.4-.16-.21.01-.22.19-.22.37-.05-.08-.1-.16-.17-.24-.04-.04-.08-.07-.12-.1 0 0 0 0-.01-.01t0 0s-.02 0-.03-.01 0 0-.01 0c-.04-.02-.08-.03-.12-.03-.02-.03-.04-.06-.07-.09-.02-.03-.05-.05-.07-.07s-.01 0-.02-.01 0 0 0 0c-.01 0-.02-.01-.03-.02 0 0-.02 0-.03-.01 0 0-.02 0-.03 0s-.02 0-.03 0c0 0-.02 0-.03 0s-.02 0-.03 0c-.02 0-.04.01-.06.03-.21.12-.23.47-.24.68-.01.13-.01.25-.02.38-.32-.26-.79-.52-1.08-.17-.17.21-.17.43-.1.65-.28-.18-.61-.27-.94-.28-.08 0-.11.07-.11.14-.02.36.11.73.33 1.02-.09 0-.18 0-.28.02-.25.06-.35.29-.24.53.06.13.15.24.25.34-.12-.01-.25-.01-.38 0-.07 0-.12.07-.11.15.03.38.17.77.38 1.1-.15-.05-.31-.08-.45-.08-.1 0-.1.11-.1.18.03.35.15.71.33 1.02-.19-.02-.37 0-.44 0-.44.08-1.2.51-.81 1.04.22.31.6.5.96.64-.06.08-.12.17-.19.25-.04.05-.09.11-.14.17-.11.08-.17.18-.19.29-.04.09-.07.18-.07.27-.06-.06-.13-.11-.19-.18-.1-.09-.24.07-.24.16 0 .24-.04.51.07.73.02.04.04.1.08.16-.4.08-.8.23-1.1.49-.04.04-.09.14-.04.19.19.17.41.35.65.46-.09.07-.18.14-.26.22-.34.3-.7.65-.81 1.1-.01.05 0 .11.06.13.3.11.63.1.94.06-.1.14-.19.29-.21.47 0 .04 0 .11.06.13.11.03.22.03.32 0s.01 0 .02 0c-.17.3-.28.63-.3 1 0 .05.04.08.09.09.28.06.6-.15.87-.27-.01.08-.03.16-.03.24-.05.38-.04.84.06 1.22zm8.52-1.28s-.09-.05-.14-.07c-.07-.03-.14-.07-.21-.11-.02-.01-.04-.02-.07-.03-.08-.04-.17-.09-.25-.13 0 0-.01 0-.02-.01-.08-.05-.17-.1-.25-.15-.01 0-.02-.01-.04-.02-.08-.05-.17-.11-.25-.16 0 0-.02-.01-.03-.02-.03-.02-.05-.04-.07-.05-.08-.09-.16-.18-.25-.27.02 0 .03-.01.05-.02.27-.09.65-.28.79-.55s-.28-.44-.48-.51c-.09-.04-.19-.06-.3-.07.06-.04.12-.1.18-.15 0 0 .01-.01.02-.02.04.08.11.15.21.17.11.02.2-.03.28-.11.08.24.26.43.38.66.16.3.23.63.34.94v.02c.06.25.14.5.24.74-.05-.02-.09-.04-.14-.07zm4.78-.35s-.13-.45-.15-.51c-.06-.24 0-.51-.04-.75-.03-.19-.04-.39-.04-.58 0-.1 0-.2 0-.31 0-.05 0-.1 0-.15 0-.13.01-.26.02-.39 0-.15.02-.28.03-.42.04-.48.13-.92.25-1.37.06.13.13.26.22.37.1.12.21.23.33.34.08.08.19.19.31.16.32-.06.35-.5.39-.75.02-.14.03-.28.03-.41.07.1.17.2.26.29v.13c-.03.42.14.64-.12 1.03-.2.29-.49.51-.67.82-.24.4-.38.84-.5 1.29-.1.38-.12.87-.31 1.21zm1.45-2.67c.11-.24.28-.39.45-.58.19-.21.36-.44.54-.66.17-.22.34-.44.52-.65.03.01.06.03.08.04-.12.11-.24.23-.36.35-.15.17-.6.6-.28.8.16.1.37.13.58.14-.04.06-.08.12-.11.19-.02.02-.03.04-.04.06-.08.07-.15.14-.23.21-.22.21-.45.38-.71.54-.24.15-.51.24-.75.39 0-.03.02-.05.03-.08.08-.26.17-.51.28-.75zm-2.54-.88c-.08-.21-.15-.43-.22-.64.07-.12.15-.24.23-.35.03.12.06.24.1.35.09.24.29.24.46.16-.03.13-.05.27-.06.41-.02.45-.12.77-.26 1.46-.1-.19-.09-.43-.1-.64-.01-.25-.06-.49-.15-.74zm3.05-.61c.06.04.13.06.19.07-.05.07-.09.13-.14.2h-.03c-.04-.1-.07-.21-.09-.31.03.02.05.04.07.05zm-4.31 2.14c-.22-.21-.45-.42-.68-.62-.08-.07-.16-.14-.24-.21-.06-.05-.11-.1-.17-.15-.15-.12-.29-.25-.44-.37-.02-.02-.03-.04-.04-.06.16-.01.32-.04.44-.13.3-.21.09-.55-.06-.78 0-.04.01-.07.01-.11h.11c.35-.02.69-.15 1.02-.25.05.02.09.04.14.05.02.25.09.55.23.74.13.18.28.17.41.08.02.06.04.12.06.18 0 .02.01.05.02.08.04.16.08.33.12.49v.01c.08.41.11.84.16 1.26v.02c.02.15.07.29.1.44.01.05.02.1.03.16.01.13-.01.28-.02.4 0 0 0 0-.01-.01-.15-.18-.32-.33-.48-.51-.23-.25-.47-.49-.72-.73zm-1.72-.81c-.01-.08-.03-.16-.06-.24.02.02.04.05.06.07.14.14.3.27.42.43-.13-.1-.27-.18-.42-.25zm8.36.53c.13-.04.26-.08.39-.11h.04s0 .01-.01.02c-.07.13-.16.35-.16.53-.06.21-.12.41-.17.62 0 .03-.02.07-.03.1 0 .01-.03 0-.03-.01 0-.2-.06-.4-.1-.59-.03-.17-.04-.34-.04-.51.04-.01.08-.03.11-.04zm.1 2.63c.04-.09.08-.19.12-.28.09-.24.12-.5.16-.75.05-.27.11-.53.22-.79.01-.03.02-.06.04-.09.19-.03.41-.14.54-.21.06-.03.11-.06.17-.09-.06.13-.11.26-.15.39-.02.07 0 .12.06.14.05.02.11.03.16.02-.08.1-.15.2-.21.32-.03.07 0 .13.07.15.12.05.27.03.42 0-.19.18-.4.46-.37.73 0 .02.01.04.02.07-.05.01-.11.03-.2.05-.16.05-.33.09-.49.15-.21.08-.39.2-.59.29.02-.04.03-.07.04-.11zm-8.3.29c-.07-.07-.13-.14-.19-.21-.12-.16-.2-.38-.27-.57-.15-.38-.34-.74-.52-1.11-.15-.3-.29-.65-.58-.85.04-.08.07-.15.08-.21.03-.09.04-.17.06-.26.15.1.33.17.5.22.21.07.45.12.61 0 .32.22.69.49.8.58.53.41.93.86 1.24 1.47.23.45.31.67.3 1.16 0 .42.04 1-.05 1.39-.07-.02-.12-.05-.17-.1-.04-.03-.07-.07-.1-.1 0-.01-.02-.02-.03-.03-.02-.03-.04-.05-.06-.08-.04-.05-.07-.1-.11-.15 0 0 0 0-.01-.01-.03-.04-.07-.08-.11-.11-.26-.22-.53-.41-.82-.58-.1-.06-.2-.11-.3-.16-.01 0-.02 0-.03-.01-.02-.02-.04-.05-.07-.07-.06-.06-.12-.13-.18-.19zm7.45-.24c-.18.23-.43.38-.67.54-.56.38-1.09.76-1.56 1.24-.2.21-.42.4-.6.63-.03.05-.06.09-.09.14 0-.21.01-.41.04-.62 0-.08.02-.16.03-.25-.02-.33-.03-.67 0-1 .03-.41.08-.84.18-1.24.01-.23.04-.47.08-.7.01-.04.03-.08.04-.12.09-.24.23-.41.44-.55.39-.27.85-.42 1.24-.7.35-.24.62-.59.86-.93 0 0 .01-.02.02-.02h.03c-.05.06-.09.12-.13.19-.06.08-.03.19.08.19.1 0 .19-.01.28-.03-.02.02-.04.04-.07.06-.15.16-.37.34-.35.58 0 .03.04.05.06.06.16.02.33 0 .49-.03 0 .34.14.64.16.98.01.26-.16.58-.22.84-.07.27-.14.54-.32.77zm1.3.45s.01 0 .02 0c.18-.07.35-.14.53-.2.31-.11.62-.21.94-.31v.13c.01.16.14.26.29.27.04 0 .09 0 .13-.02-.06.15-.12.31-.15.47-.22 0-.44 0-.66 0-.54 0-1.08-.08-1.62-.1.17-.08.35-.16.52-.23z"/></svg>