<svg viewBox="0 0 31.56 32.26" xmlns="http://www.w3.org/2000/svg"><path d="m27.95 32.22c.21-.02.42-.09.62-.15.23-.07.46-.13.69-.2.04-.01.08-.02.12-.03l.15.25s.01 0 .02 0c.12.06.25.1.38.14h.01.02s0 0 0 0l1.19-.09s.1 0 .1 0l.06-.05s.02-.02.03-.02l.03-.02s.14-.09.16-.14c.02-.04.06-.26.05-.34v-.02s-.43-.38-.43-.38c-.06-.06-.16-.18-.25-.23l-.02-.02h-.02s0 0 0 0-.06 0-.06 0l-.16-.02c-.14-.27-.24-.55-.39-.81-.04-.07-.08-.13-.13-.19-.02-.02-.04-.04-.06-.06-.03-.04-.06-.07-.09-.1s-.01-.02-.02-.02c-.09-.08-.19-.14-.29-.21 0 0 0 0-.01-.01s0 0 0 0-.04-.02-.06-.04-.04-.02-.07-.04c0 0 0 0-.01 0-.15-.09-.3-.18-.45-.26-.04-.02-.08-.05-.13-.07-.03-.02-.06-.03-.09-.05-.17-.12-.35-.24-.53-.34-.05-.02-.1-.05-.14-.07-.08-.04-.15-.08-.23-.11-.06-.03-.12-.05-.18-.07 0 0-.01-.01-.02-.02-.05-.02-.09-.05-.14-.07-.01 0-.02 0-.02 0-.06-.02-.11-.05-.17-.06-.1 0-.21 0-.31 0-.03 0-.05 0-.07 0-.11-1.25-.43-2.48-.88-3.55-.09-.21-.18-.41-.28-.61s-.01-.03-.02-.05c-1.13-2.35-2.88-4.33-4.9-5.96 0 0-.02-.02-.03-.02-.19-.15-.38-.3-.57-.44-.48-.35-.96-.69-1.46-1.03-.02-.02-.04-.03-.06-.04-.54-.36-1.09-.73-1.63-1.1 0-.02 0-.03 0-.04 0-.02 0-.05 0-.07 0-.09 0-.18 0-.27 0-.04 0-.09 0-.13 0-.08 0-.16-.01-.24 0-.05 0-.1-.01-.15 0-.04 0-.08-.01-.12-.04-.34-.09-.7-.18-1.07l-.24-.1.09-.17s-.2-1.16-.82-2.01l-.3-.02.1-.27s-.04-.06-.11-.16c-.23-.34-.75-1.12-.9-1.33l-.38.08.03-.22s-.09-.08-.28-.19c0 0 0 0-.01 0-.04-.02-.09-.05-.14-.07-.01 0-.03-.01-.04-.02 0 0-.01 0-.02 0 .23-.21.6-.48 1.05-.56v-.49s.27.38.27.38.01 0 .02-.01c.12-.06.85-.46 1.24-.49l-.03-.44.25.25s.73-.17 1.15-.17l.15-.41.06.25s.12-.04.33-.07c.05 0 .11-.02.18-.03h.01c.06 0 .13-.02.2-.02.07 0 .15-.01.23-.01h.01.22.05c.07 0 .15 0 .23.01h.02c.08.01.17.02.25.04.02 0 .04 0 .06.01.07.02.14.03.2.05.02 0 .05.01.07.02.08.03.17.06.25.09 0 0 0 0 0-.01 0 0 0 0 0-.01 0 0 0-.02-.01-.03v-.02c0-.01-.01-.02-.02-.04 0-.01-.01-.02-.02-.03-.01-.02-.03-.05-.04-.08 0-.02-.02-.03-.03-.05s-.02-.04-.04-.06c-.01-.02-.03-.04-.04-.06s-.03-.04-.04-.06-.03-.05-.05-.07c-.02-.03-.05-.06-.07-.09-.03-.04-.06-.07-.09-.11-.02-.03-.05-.05-.08-.08-.02-.03-.05-.05-.08-.08s-.06-.05-.09-.08-.06-.05-.09-.08c-.04-.03-.08-.06-.12-.09s-.08-.07-.13-.1c-.06-.04-.11-.08-.17-.12-.04-.02-.07-.05-.11-.07-.05-.03-.1-.06-.16-.09-.04-.02-.08-.05-.13-.07-.02-.01-.04-.02-.06-.03-.42-.21-.93-.42-1.57-.58-.4.13-.48.24-.48.24l.08-.11s-.85-.04-1.54.14-.02 0-.03 0c-.07.02-.14.04-.21.07 0 0-.01 0-.02 0-.07.03-.14.06-.2.1-.02 0-.03.02-.04.03-.04.03-.09.06-.12.09-.01.01-.03.02-.04.04-.04.05-.08.09-.11.15l-.07-.19-.83.39.11-.24-.34-.08.36-.07.77-1.58-.32-.2.49.14s.02-.03.07-.09c.18-.24.73-.92 1.3-1.32l-.2-.25.28.21s.89-.9 1.31-1.06l-.11-.34.22.26s.86-1.26 1.52-1.3c0 0-.92-.19-2.84-.1l-.02.24-.14-.13s-1.41.41-1.9.85c-.04.07-.07.13-.11.18 0 .01-.01.02-.01.03s-.01.02-.02.04c-.02.04-.04.08-.06.11 0 .01-.01.02-.02.03-.01.03-.03.05-.03.07v.02c0 .02-.01.03-.01.03l-.1-.34s-.7.41-1.28 1.31c.08.34.04.44.04.44l-.21-.32s-.14.12-.31.43c0 0 0 .02-.01.03-.01.03-.03.06-.04.09 0 .02-.02.04-.03.05-.01.03-.03.06-.04.09 0 .02-.02.04-.02.06-.02.05-.04.1-.06.15 0 .02-.01.04-.02.06-.01.04-.03.08-.04.12 0 .02-.02.05-.02.08-.01.05-.03.1-.04.15 0 .02-.01.04-.02.07-.01.07-.03.14-.05.22 0 .03-.01.06-.02.09 0 .03-.01.06-.02.1-.31-.81-.78-1.69-.78-1.69l-.53-.04.17-.16c-.19-.46-.46-.7-.46-.7l-.33.04.26-.29c-.88-.85-1.56-1.05-1.56-1.05l-.4.27s.03-.1.18-.39c-2-.54-3.46-.06-4.25.55h-.02.02c-.12.09-.23.19-.32.29 1.02-.08 2.04.54 2.04.54l.53-.11-.22.21 1.08.83.75-.18s-.1.09-.41.29c.25.2 1.06 1.22 1.06 1.22l.85-.23s0 .12-.47.43c.04.01.08.03.11.04s.06.03.08.04c0 0 .01 0 .02.01.02.01.04.02.06.04 0 0 .01 0 .02.01.02.01.03.02.04.04 0 0 .01.01.02.02l.03.03s0 .01.01.02c0 .01.01.02.02.03v.02s0 .01.01.02v.01.01l.42-.08-.38.25c.36.3.76 1.23.87 1.48v.02.03.02h.34s0 0-.18.19c.33.24.72.98.98 1.53-.02-.03-.05-.05-.07-.08 0 0-.01-.01-.02-.02-.04-.05-.1-.1-.15-.15 0-.01-.02-.02-.03-.03-.11-.1-.24-.2-.38-.3-.01-.01-.03-.02-.04-.03-.07-.05-.15-.1-.23-.15 0 0-.02-.01-.03-.02-.08-.05-.16-.09-.25-.14-.01 0-.03-.01-.04-.02-.1-.05-.19-.09-.3-.14 0 0-.01 0-.02-.01-.5-.21-1.11-.39-1.88-.52l-.04.32-.22-.28s-.76-.07-2.34.53l.19.44-.46-.39s-1.44.53-1.94.75l.03.41-.27-.2s-.3.13-.69.42c-.09.07-.19.14-.29.23 0 0 0 0-.01.02-.1.08-.2.17-.3.27 0 0-.01.01-.02.02-.1.1-.2.21-.3.33 0 0 0 .01-.01.02-.1.12-.2.26-.29.4.06.16.05.25.02.31-.01.02-.03.04-.04.05-.01 0-.03.01-.04.02 0 0 0 0-.01 0s-.02 0-.03 0-.01 0-.01 0-1.4 1.69-.45 4c.68-1.18 1.59-1.68 1.59-1.68l-.14-.45.24.2.55-.54.38-.38-.13-.36.28.12 1.48-.97.06-.04-.09-.61.29.44s.37-.26.64-.33l.04-.28.18.2s1.22-.62 1.82-.68l.11-.38.12.22s.54-.15 1.18-.09h.08c.08.01.17.02.26.04l.19-.29.06.24s.21.02.5.07c0 0-.01 0-.02 0-.08 0-.17.02-.26.04-.02 0-.03 0-.05 0-.5.12-1.06.43-1.59 1.1l.23.06-.42.17.05.18s-.78 1.05-1.01 1.74l.32.12-.34.15.15.05s-.06.02-.15.11c-.02.02-.03.04-.05.06v.01c-.02.02-.04.05-.06.09 0 .01-.01.02-.02.04s-.02.05-.04.08c0 .02-.01.03-.02.05-.01.03-.02.06-.03.09 0 .02-.01.04-.02.06-.01.05-.03.11-.04.17v.06c0 .05-.02.1-.02.15v.09c0 .05 0 .11-.01.17v.09.26s0 .02 0 .03l.17.05-.29.36.19.1s-.12 1.72.35 3.19c.72-1.76 1.18-2.02 1.18-2.02l-.12-.24.22.11.62-1.19-.19-.13.47-.16.37-.55-.24-.27.44.21 1.17-1.77-.2-.46.37.35.51-.68c.1.81.34 1.59.71 2.25.03.05.06.1.09.14.31.52.66 1.01 1.04 1.46s.02.03.03.04c.2.23.4.46.62.68l.15.15c.34.34.69.67 1.06.98.04.03.08.07.12.1t0 0c.28.23.56.46.84.69.05.04.11.09.16.13.13.11.27.21.4.31v.11s0 0 0-.02c0 0 0 0 0-.01s0-.02.01-.04c.04.03.08.06.12.09.09.07.18.14.28.21.01 0 .02.02.04.03.61.46 1.22.94 1.82 1.45.07.06.14.12.21.18.56.49 1.1 1 1.6 1.54 0 .01.02.02.03.03.12.12.23.25.34.38.08.09.17.18.25.28.27.32.53.66.77 1 .06.09.12.17.18.26.02.03.04.06.06.09.1.16.21.32.31.48.04.07.09.14.13.21.14.24.28.51.41.78.06.12.12.24.17.37.14.32.27.65.39.98v.02c.22.62.39 1.27.5 1.92.02.12.04.24.06.35.04.35.06.69.06 1.02-.15.13-.31.26-.48.35-.21.11-.44.18-.66.25h-.01c-.14 0-.28.02-.42.05-.05.01-.1.03-.15.04h.01c-.02 0-.04.02-.06.02s-.02 0-.03.01c-.08.03-.16.06-.25.09-.15.05-.31.12-.46.17-.05.02-.1.04-.15.06-.03.02-.07.02-.1.05v.01c-.19.2-.43.31-.65.48 0 0-.01 0-.01.01v.02c-.03.06-.06.14-.05.21.02.15.13.26.25.35.1.08.2.17.31.25.06.05.12.1.18.14.17.12.34.24.55.29s.42.05.63.05c.49 0 .98-.03 1.47-.06h.12l1.32-.09c.21.02.43.04.64.07.22.02.44.05.66.07s.46.05.69.03zm-14.71-20.55s-.04-.06-.05-.09c-.06-.1-.11-.21-.16-.32-.02-.04-.04-.07-.05-.11-.04-.08-.07-.17-.1-.26.23-.28.23-.29.23-.29l-.11.54.35.45.4-.31-.22.42s.58.85.91 1.51c-.35-.37-.7-.79-1-1.24-.07-.11-.14-.21-.2-.32zm-1.84-2.89s-.01 0-.03-.01c0 0 0 0-.02 0 .06.02.12.03.17.04 0 .02-.01.05-.02.08-.03-.03-.07-.06-.11-.09zm.34-.25s-.01.05-.02.08 0-.01 0-.02c-.01-.03-.03-.07-.05-.11 0 0 0-.01 0-.02.01-.06.03-.12.05-.17.02.11.04.19.05.24zm3.07 5.06c.11-.04.16-.05.16-.05l-.07.14s-.06-.05-.08-.08zm-3.28-8.97s0 .06 0 .09h-.08s0-.01.09-.09z"/></svg>