<svg viewBox="0 0 21.7 32.26" xmlns="http://www.w3.org/2000/svg"><path d="m21.61 5.88c.13-.31.13-.7-.12-.92-.04-.2-.21-.23-.38-.18-.05-.04-.1-.08-.15-.12-.06-.05-.12-.1-.19-.13 0-.02-.01-.03-.02-.05-.03-.11-.07-.19-.13-.28 0 0 0 0 0-.01.2-.24.23-.54.03-.8-.02-.03-.05-.06-.08-.08 0 0-.02-.01-.03-.02-.02-.01-.04-.03-.07-.04-.01 0-.03-.01-.04-.02-.02 0-.04-.01-.07-.02-.02 0-.04 0-.06-.01 0 0-.01 0-.02 0-.19-.02-.41.04-.55.12-.18.11-.33.26-.47.41-.02-.08-.06-.15-.15-.21-.02-.07-.05-.15-.07-.22.01-.02.02-.04.04-.06 0-.01.01-.03.02-.04 0-.01.01-.02.02-.04 0 0 0-.02.01-.03 0-.02.01-.03.02-.05 0-.01 0-.02 0-.03 0-.02 0-.03 0-.05 0-.01 0-.02 0-.03 0-.02 0-.03 0-.05 0-.01 0-.02 0-.03 0-.02 0-.03-.01-.05 0-.01 0-.02 0-.03 0-.02-.02-.03-.02-.05 0-.01 0-.02-.02-.03-.02-.02-.04-.05-.06-.07-.17-.16-.47-.23-.7-.27-.08-.02-.16-.02-.23-.02-.22.02-.41.13-.52.36-.02.04-.03.08-.04.13-.03-.01-.07-.02-.1-.04.01-.04.03-.09.04-.13.04-.18 0-.37-.11-.51-.19-.23-.51-.13-.68-.32-.08-.09-.12-.24-.17-.34-.08-.15-.19-.25-.33-.34-.03-.02-.07-.03-.1-.04 0 0-.02 0-.03 0-.02 0-.05 0-.08 0 0 0-.02 0-.03 0-.03 0-.07 0-.1.01-.18.04-.35.16-.48.28s-.02.03-.04.04c-.06.07-.12.15-.17.23-.04.05-.07.1-.1.15 0 .01-.01.02-.02.04-.02-.02-.05-.04-.07-.05s-.04-.02-.05-.02c-.03-.02-.06-.03-.09-.04-.04-.02-.08-.04-.13-.06-.07-.03-.15-.05-.23-.07-.16-.05-.32-.1-.49-.1-.16 0-.29-.08-.46-.05-.11.02-.26.13-.35.04-.07-.07-.1-.2-.13-.28-.05-.12-.12-.21-.18-.32-.05-.07-.1-.11-.1-.2 0-.07 0-.14-.04-.2-.15-.32-.43-.18-.69-.23-.14-.03-.28-.14-.41-.2-.15-.07-.3-.08-.46-.08-.32.01-.69.33-.87.58-.05.06-.08.13-.11.2-.02 0-.04 0-.06 0-.25-.04-.49 0-.66.2-.1.12-.15.23-.15.38v.04c-.04-.07-.1-.12-.17-.17-.1-.05-.2-.09-.32-.11-.14-.03-.29 0-.43-.05.03.01-.04-.1-.06-.14-.04-.11-.11-.2-.19-.28-.19-.19-.48-.22-.73-.21-.1 0-.21.05-.31.05-.12 0-.23-.02-.35-.03-.25-.01-.55.05-.73.24-.13.15-.18.28-.4.21-.26-.09-.48-.11-.76-.04-.21.05-.46.24-.62.39-.1.09-.16.21-.18.34-.04.04-.07.07-.1.11-.04.07-.02.2.09.17.01 0 .03 0 .04-.01-.04.02-.08.05-.13.07-.19-.06-.37-.12-.57-.14-.05 0-.09 0-.13.01-.16-.06-.34-.06-.52.04s-.31.28-.37.47c-.01.04-.02.08-.03.12-.05.01-.09.03-.14.06-.18.11-.29.31-.36.51-.04.13 0 .15-.12.2-.14.06-.28.07-.44.08-.26.02-.57.03-.81.15-.15.08-.26.19-.32.36-.02.05-.02.1 0 .14-.15.09-.26.27-.17.39.02.02.04.04.08.06 0 .02-.01.04-.02.06h.05s0 .04 0 .05v.04s0 .02.01.03c0 .01.02.02.04.04 0 0 .01.01.02.02.03.02.06.03.11.04.08.01.18.03.27.02-.1.09-.16.2-.18.35 0 .09.02.21.12.24.1.04.2.07.31.08-.04.14-.02.3.13.35.09.03.16.06.26.06.09 0 .18-.03.27-.03.12 0 .23.04.34.03.01.09.05.18.12.26.09.1.2.16.32.2-.05.13-.04.27.08.38.16.15.39.17.62.13.09.22.35.25.6.2.17-.03.34-.08.5-.16.02 0 .03.02.05.02.18.07.37.02.54-.06.05.02.1.05.16.06s.1.03.15.04h.06c.03 0 .07 0 .1.01h.07.04c.05.04.09.09.14.12.28.2.56.27.9.31.31.03.63 0 .94.07.35.08.64.3 1.01.33.14.01.28.01.42.01.16 0 .32.07.47.11.17.04.24.06.36.19.06.07.14.1.23.12 0 .1.01.19.02.29 0 .14 0 .24.05.33-.01.12-.02.24-.02.37 0 .68 0 6.48.05 7.16.05.67-.11 7.42-.12 8.09 0 .61 0 3.45-.05 4.06-.05.6.06 1.2.12 1.79.02.21.02.41.03.62v.26c0 .18.08.58-.1.7-.19.13-.44.26-.59.45.27-.04.55-.07.82-.11.08-.06.15-.12.2-.2.02.06.05.11.08.17.11-.02.23-.03.34-.04.05-.07.07-.14.03-.21-.08-.14-.05-.39-.04-.54 0-.25.01-.5.04-.75.06-.5-.1-.97-.12-1.48s0-1.02-.02-1.52c-.02-.54-.19-3.3-.13-3.84.05-.48.24-7.07.35-7.53.05-.21.11-5.52.09-5.74s-.14-.43-.17-.64c-.07-.45-.03-.94 0-1.39.01-.27.21-.46.44-.62.04-.01.08-.02.11-.04.14-.05.29-.11.4-.19.11.02.19 0 .3-.07.23-.13.47.02.68.15.18.11.37.24.59.26.04 0 .08 0 .12-.02.18.02.4-.01.57-.05.16-.03.28-.03.44.01.09.02.16.02.24-.01h.01c.09.03.19.06.28.07.21.02.39-.09.61-.06.25.03.51.05.75-.05.02-.01.04-.03.06-.05.1.02.2.08.31.04.26-.1.53-.25.77-.41.23-.15.51-.15.76-.22 0 .01-.02.02-.02.03-.06.11-.1.23-.04.35.05.1.17.17.28.14.25-.05.47-.12.69-.23.13-.07.22-.19.23-.34.22 0 .44-.01.66-.02h.11c.08.05.17.05.26.03.12.02.24.02.38-.02.22-.07.43-.44.35-.65.08 0 .15-.03.23-.06.24-.1.42-.31.52-.54zm-12.19-.15c.08.21.07.33.02.54-.04.15-.06.33 0 .47.02.04.04.08.07.12v.02c-.21-.2-.44-.37-.62-.59-.12-.23-.18-.56-.19-.82.13-.04.25-.08.38-.12 0 0 0 .01.01.02.08.12.18.18.29.22.01.05.02.1.04.14zm-.86.06c0 .07 0 .17.01.27 0 0-.01 0-.02-.01-.18-.16-.35-.21-.55-.26 0-.02 0-.03-.01-.05.05-.08.05-.15.04-.23.14.08.33.04.48 0 .02 0 .03 0 .05-.01zm-.74-.19s-.07.07-.1.11c-.17-.07-.28-.21-.37-.36.17-.09.29-.19.42-.34h.04.05c-.02.07-.04.14-.03.22-.04.01-.07.05-.06.08.02.09.09.21.05.3zm7.41 1.03s-.09.01-.13 0c-.01 0-.02-.01-.03-.01 0-.04 0-.07-.02-.1 0-.02.01-.04.02-.06.07.03.13.08.2.12 0 .02-.01.03-.02.05 0 0 0 0-.01 0zm-4.2-1.73s-.06-.02-.1-.02c0 0-.01 0-.02 0 .04-.01.08-.02.13-.03v.03.01zm-5.92 1.24s.04-.03.06-.04c.03.02.06.04.09.06-.05 0-.1 0-.15-.02zm5.4-1.13s0 .05 0 .08c0 .01-.02.02-.03.04-.04-.02-.09-.04-.13-.06.05-.02.11-.03.16-.05zm-.62.69.24.12c-.07.09-.14.18-.2.29.01-.14.02-.27-.04-.4zm3.11-.25c-.02.07-.02.13-.01.2-.01.01-.03.02-.04.03 0-.08.01-.15.02-.23h.04zm-.07.35s.05-.03.08-.05c.02.04.05.08.09.12.07.08.18.1.28.1-.16.07-.31.07-.48.13.01-.1.03-.2.04-.3zm5.32-2.73s.06.02.09.02c.04.01.09.02.13.04.02 0 .03.01.04.02-.02.03-.03.06-.04.09-.07-.06-.15-.1-.23-.13 0-.01 0-.03 0-.04zm-8.78-1.4s.01.07.01.08c0 0 0-.02-.01-.01 0 0 0 0 0-.06 0-.04-.02-.07-.03-.11.02.03.03.07.04.1zm-8.75 2.19s.07-.02.1-.03c.04-.02.09-.02.15-.03-.08.04-.17.07-.25.09 0-.02-.02-.05-.03-.07 0 .01.01.02.03.04zm5.31 3.02s-.04 0-.06 0c-.09-.01-.18-.03-.26-.06 0-.02-.02-.05-.03-.07 0 0 .02-.01.02-.02.02-.01.03-.02.05-.03.04-.03.08-.06.12-.1.16-.17.23-.34.23-.5.02 0 .03-.02.05-.02v.04c.04.18-.17.35-.19.52-.01.09.02.17.06.25zm2.83.31c-.12.01-.24.03-.36.05-.23.03-.4-.03-.61-.11-.31-.13-.62-.21-.96-.22-.21 0-.43 0-.65 0-.09-.17-.13-.29-.03-.49.06-.12.1-.22.07-.35 0-.02-.01-.05-.02-.08.02-.02.04-.03.06-.05.09-.11.16-.23.21-.34.18-.01.37-.06.54-.13.07.16.16.32.29.45.22.22.59.19.85.33.18.1.34.19.49.33.12.11.22.21.37.27h.04c.13.13.26.27.37.42-.22-.06-.48-.09-.67-.07zm2.98-.34c-.14.03-.28.08-.4.19-.18.16-.26.35-.49.47-.2.1-.43.2-.57.38 0 0-.01.02-.02.02 0 0-.01-.02-.02-.02 0 0 0 0-.01-.01-.05-.16-.13-.31-.19-.43 0 0 0 0 0-.01 0-.28.03-.57-.14-.81 0 0 0-.01 0-.02 0-.02.02-.04.03-.06.08-.15.15-.31.23-.46.04-.07.09-.13.14-.18.05 0 .11 0 .17-.02.12-.04.23-.12.3-.22.13 0 .27-.07.33-.19.05-.09.07-.2.05-.29.16-.02.3-.11.41-.24.02.02.05.04.08.06.04.02.09.04.13.05-.15.28-.27.59-.24.9v.1c0 .18.1.37.17.54.04.1.04.19.03.28zm.21-.04c-.02-.18-.09-.36-.16-.54-.03-.06-.05-.12-.06-.17 0-.08 0-.16-.01-.24 0-.07 0-.14.02-.2 0 0 0-.02 0-.03s0-.02 0-.03v-.02c.02-.08.06-.16.09-.25.02-.06.03-.1.04-.15.02-.05.03-.09.04-.14s.04 0 .06 0h.07c.02 0 .04-.01.06-.02.02 0 .04 0 .07-.02h.01c-.01.02-.03.05-.04.08-.08.18.02.35.19.4.06.02.12.02.18.02-.04.28-.06.56-.15.83-.02.06-.04.12-.06.18-.03.05-.06.09-.08.14-.06.08-.13.14-.23.16-.02 0-.04 0-.06 0zm1.73.69s-.08.05-.15.07c-.07-.05-.16-.05-.27-.02-.13.04-.18.15-.33.08-.14-.05-.27-.14-.4-.22-.14-.08-.28-.14-.43-.17.33-.13.51-.4.61-.72.15-.17.38-.09.56-.21.07-.05.13-.1.19-.16.04.12.12.22.26.27.11.05.23.06.35.07.02.17.13.28.28.37 0 .07.02.14.05.2-.02.02-.04.03-.06.04-.12.08-.29.09-.41.18-.09.07-.17.13-.25.22zm1.85-.03c-.2-.01-.39.02-.56.06-.18.05-.27.16-.47.13-.15-.02-.33-.07-.47-.15.23-.12.54-.15.78-.19.06-.01.12-.02.19-.04.19-.01.38-.07.54-.17.08-.02.16-.06.23-.1.04.07.1.12.18.16-.07.03-.13.06-.18.1-.08.07-.15.13-.23.18zm1 .05c-.21.11-.34.05-.56.04-.02 0-.04 0-.06 0-.05-.02-.1-.04-.15-.05.14-.11.29-.17.45-.24.01 0 .02-.01.03-.02.24 0 .49-.09.7-.17.14-.05.28-.11.42-.16.05-.02.1-.04.15-.05h.02c.08.06.15.12.24.16-.19.05-.38.08-.56.15-.24.08-.46.24-.68.35z"/></svg>