<svg viewBox="0 0 31.07 32.26" xmlns="http://www.w3.org/2000/svg"><path d="m20.62 31.34c.13-.01.27-.03.4-.05.73-.1.16-.35-.16-.56-.41-.27-.69-.57-.85-.99-.17-.43-.18-.9-.22-1.34-.07-.89-.08-1.77-.16-2.66-.04-.48-.11-.96-.2-1.44-.08-.42-.06-.84-.06-1.26 0-.45.02-.83.29-1.23.21-.31.38-.47.75-.66.87-.44 1.82-.31 2.73-.6.09-.03.18-.07.26-.11.17.26.47.4.78.17-.3.43-.02 1.4.47.95.07.33.39.72.67.53.15-.1.2-.28.23-.47 0-.08 0-.41.07-.45.2.28.3.61.62.72.37.13.68-.47.39-.82.12 0 .01-.45-.02-.52.17.06.38 0 .46-.2.17.44.62.65.95.32.11-.11.05-.18.19-.09.09.05.19.07.28.02.15-.06.27-.23.29-.43.04-.38.76-.33.49-.96-.08-.2-.29-.29-.46-.29-.2 0-.17-.18-.26-.37.33 0 .75.38 1.02-.04.12-.19.1-.47-.03-.65-.11-.15-.19-.08-.15-.29.03-.18.04-.12.14-.24.25-.28.24-.75-.1-.89-.18-.07-.37.03-.54-.06-.1-.05-.17-.11-.25-.15.09-.04.18-.08.28-.06.11.02.22.01.32-.01.19-.05.4-.2.47-.45.05-.21-.15-.49-.06-.58.17-.17.33.12.48.2.2.11.45 0 .5-.28.19 0 .35-.15.41-.37.19-.63-.37-.82-.5-1.31.36 0 .67-.51.37-.9-.01-.02-.02-.03-.04-.04 0-.01.02-.02.02-.03.23-.47-.38-.65-.53-.38-.04-.05-.07-.1-.11-.15.02-.07.03-.13.02-.21.02-.03.04-.06.05-.1.08.2.38.27.52.08.14-.2.08-.57-.17-.57-.07 0-.17.07-.23.11.1-.16.09-.29.02-.39-.04-.2-.16-.39-.3-.48-.11-.08-.21-.06-.31-.04-.01 0-.02-.02-.04-.03.02 0 .04-.01.06-.02.13-.06.24-.2.24-.38 0-.15-.06-.29-.19-.31-.04 0-.13.01-.23.03-.02-.01-.04-.03-.06-.04s-.05-.02-.08-.02c.1-.13.15-.33 0-.46.18-.21.12-.52-.11-.64-.27-.14-.39.19-.6.19.03-.72-.55-.74-.75-.31-.11 0-.21.02-.33-.02-.04-.04-.08-.08-.14-.09 0-.07-.01-.1-.03-.17.23.33.74.24.8-.23.03-.23-.03-.46-.16-.62-.1-.12-.03-.26-.1-.42.33.08.66-.47.37-.79-.12-.49-.48-.28-.75-.3.09-.21 0-.47-.16-.59.47-.51-.02-1.18-.52-1.04.04-.31.06-.71-.24-.81-.27-.1-.34.25-.53.25-.12.02-.23.07-.29.23-.01 0-.02 0-.03 0-.04-.14-.09-.29-.17-.36 0-.03-.02-.05-.03-.08 0-.21-.06-.41-.19-.55-.07-.07-.15-.12-.24-.13-.04-.06-.08-.1-.12-.13-.02-.11-.08-.2-.19-.2-.14 0-.11.15-.21-.01-.15-.23-.34-.23-.5-.1-.09 0-.17.04-.23.15-.08-.23-.4-.69-.59-.41-.02-.12-.06-.22-.17-.29-.12-.08-.24-.04-.35.04-.17.1-.15.13-.31.11 0-.03 0-.07 0-.1.11-.37.15-.9-.12-1.16-.28-.28-.65.09-.8.4-.09-.14-.21-.26-.34-.32-.07-.15-.19-.3-.33-.29-.19 0-.3.22-.33.44-.02.14-.04.28-.01.42.02.12.01.14-.01.18-.06-.08-.13-.15-.21-.18.02-.16-.03-.32-.11-.44-.15-.24-.35-.26-.53-.17-.01-.06-.02-.12-.05-.18-.22-.53-.54-.26-.66.13-.06 0-.12 0-.18.03-.03-.02-.05-.03-.08-.04-.08-.21-.22-.37-.41-.38-.25-.01-.45.27-.48.57-.02.19.09.34-.04.43-.07.05-.12.11-.16.2-.25-.3-.67-.26-.81.16-.06.17-.06.36-.05.54.03.32-.01.18-.17.38 0-.39-.22-.68-.54-.52-.15.08-.27.24-.35.43-.02.06-.21-.01-.28.03-.18.11-.13.44-.31.47-.14.02-.24.13-.31.28-.1.21-.08.45 0 .66.09.28.05.22-.01.51-.11-.07-.15 0-.12-.18.01-.07.01-.15 0-.22-.03-.16-.16-.26-.29-.27-.14 0-.11.11-.19-.05-.03-.06-.07-.11-.12-.14-.1-.07-.22-.08-.33-.04-.16-.27-.62 0-.72.23-.13.33.05.78.24 1.02-.13.01-.27.06-.37.17 0-.15-.07-.28-.16-.36-.16-.15-.12-.04-.12-.29 0-.41-.37-.43-.61-.37.05-.19.03-.43-.1-.56.07-.16.05-.35-.05-.49-.2-.27-.48-.32-.73-.17.16-.71-.42-1.39-.92-.84-.41-.47-.73-.06-.84.43-.1.08-.16.21-.18.36-.15-.02-.31-.01-.45.07.07-.33.09-.71-.11-.98-.17-.24-.52-.21-.7-.02-.1.11-.17.27-.22.43-.07.24-.06.18-.26.21-.05 0-.1.02-.14.04-.1-.08-.21-.12-.33-.03-.08.05-.12.14-.15.25-.25-.39-.75.17-.76.63-.24-.24-.67-.35-.85.07-.46-.59-.94.22-.84.82-.42.05-.69.59-.44 1.05.06.11.14.2.23.27-.05.11-.08.24-.08.36 0 .21.09.4.21.55-.16-.02-.33 0-.47.1-.05-.33-.24-.57-.5-.67-.16-.06-.33-.08-.45.09-.1.13-.19.09-.31.2-.26.23-.26.76-.14 1.1.06.18.28.35.19.5-.08.14-.11.32-.09.5-.2-.03-.44.05-.44.37 0-.03 0-.06 0 0 0 .07 0 .04 0 0 0 .15.03.3.12.4.05.05.02.14.03.23.06.26.24.26.39.39l.06.06c-.06.05-.12.12-.15.21-.03 0-.05.01-.06.02-.11.08-.19.26-.19.42.01.4.31.66.61.62-.15.29.05.6.29.66.01.2-.21.46-.32.43.05-.25.08-.5-.15-.62-.16-.08-.35-.04-.49.08.13-.31-.04-.81-.34-.81-.19 0-.32.2-.41.38-.11-.05-.15-.01-.21 0-.05-.22-.2-.37-.38-.38-.35-.02-.51.35-.47.71-.05.05-.09.1-.1.15v.05c-.23-.06-.52.02-.46.39.04.22.21.36.36.44.17.09.08.05.18.21.01.02.03.04.05.06-.23.02-.43.06-.54.38 0-.03.02-.06.02-.07 0 0 0 .03-.02.07-.09.08-.1.19-.05.31-.04.46.16.9.59.88-.03 0-.02.04 0 .1-.09-.01-.17 0-.22.02-.42.19.01.66.18.8-.06.07-.1.15-.12.26-.05 0-.1.03-.13.08-.09.1-.12.29-.05.43.13.26.32.32.54.26 0 .1.02.2.06.29-.04.15-.05.32-.03.49.06.5.33.8.74.74-.04.26.05.41.18.51-.04.07-.07.16-.07.24 0-.04 0-.07 0 0-.01.22 0 .08 0 0-.02.35.18.67.42.82-.46.5.33.84.65.69 0 .27.11.37.23.35.11.19.26.35.39.37-.1.4.06 1.05.45 1.08.2.02.31-.21.5-.12.17.09.28.03.45.06.25.04.66.56.85.03.06-.16.02-.36-.08-.48-.09-.11.1-.38 0-.6.22.04.12.21.27.4.15.15.33.24.51.13.05.48.22.55.56.53.28-.01.53.07.65-.37.08-.28.34.38.52.46.26.11.57-.03.66-.36.43.49 1.2-.11.77-.75.12.05.25.06.37 0 .02 0 .05.02.07.03-.06.3-.05.79.21.9s.57-.62.67-.06c.05.34.39.92.71.63.1-.09.17-.25.17-.4 0-.06-.07-.21 0-.26 0 0 .01-.01.02-.01.16.08.37.16.56.13.18.09.37.15.56.21.34.1.9.16 1.1.41.24.31.54.57.69.93.12.3.17.62.2.93.12 1.47-.27 2.94-.34 4.41-.02.6 0 1.47-.45 1.98-.27.3-.61.56-.85.88-.26.33.43.37.63.39-.3.35.23.41.52.44.38.03.75.1 1.13.07h.04s-.01.01-.01.02v.03c.07 0 .15-.02.22-.02.15-.02.42-.01.53-.12.03-.05.06-.1.08-.16h.04c0 .04 0 .08-.01.12h.02c.02-.01.04-.02.06-.04.07-.05.14-.06.19-.05 0 0 0 0 0-.01.04 0 .08 0 .11.01v.05h.15c.02 0 .04 0 .05.01 0-.01 0-.02 0-.03v.03c.07.01.14.03.22.05.15.11.22.28.49.29.23 0 .49-.03.72-.07.33-.05.64-.15.92-.31.06-.03.11-.08.15-.13.06.01.11 0 .15-.04.06-.07 0-.19-.04-.29.13.04.27.07.41.1.22-.05.44-.12.67-.17zm2.63-11.44c-.33.14-.69.2-1.07.23.12-.15.22-.31.31-.47.16-.03.32-.22.37-.44.26.23.47-.1.71.08-.21.15-.3.37-.31.59zm-5.06 1.01c0-.68-.04-1.35-.16-2.02-.06-.32-.15-.66-.02-.98.02-.04.04-.08.06-.12.11.03.24.02.34-.07.18-.14.23-.39.17-.6.09-.05.13-.13.14-.22.12.27.21.57.51.58.1 0 .49-.34.48-.35.02.01.03.06.04.11-.15.27-.31.55-.36.84-.05.28.05.53-.11.8-.13.22-.24.43-.32.66-.09.27-.11.54-.26.8-.13.21-.33.38-.51.56zm1.84-2.33c0-.1-.02-.21-.04-.3.05.08.12.15.18.21-.05.03-.09.07-.15.09zm1.17-.86c-.15.09-.27.19-.4.29-.01-.09-.04-.18-.07-.25-.07-.16-.27-.21-.28-.43.16.27.49.36.65.03.09-.19-.02-.48.11-.56.08-.05.11-.01.18.05-.21.18-.23.54-.1.8v.01c-.05.02-.08.04-.1.05zm-4.24 2.85c-.27-.25-.46-.57-.7-.84-.24-.26-.53-.52-.7-.83-.03-.06-.05-.12-.06-.18.19-.12.3-.37.2-.73.31.16.77-.2.6-.65.09.02.18 0 .26-.02-.03.33.17.7.43.79.02.31.04.62.1.91.11.57.04 1-.13 1.56zm-3.42-1.61c-.03-.09-.07-.18-.11-.26.17-.18.29.28.36.41.23.43.68.25.89-.11.06.06.11.12.17.19.24.3.46.62.72.91.23.27.56.64.35.98-.56-.46-1.51-.48-2.01-1.05-.27-.31-.24-.71-.37-1.07zm6.35.32c.24-.19.55-.29.79-.49.2-.16.35-.36.52-.55.03-.04.07-.07.1-.11-.03.05-.06.11-.07.17-.04.24.17.55.36.56.21.01.4-.27.57-.38-.08.21-.11.49-.06.73-.21.36-.43.73-.8.9-.6.29-1.31.33-1.96.49.19-.37.19-1.05.55-1.33zm-7.38 1.26c.15.04.26-.14.34-.26.06-.08.14-.05.22-.07.3.23.5.55.81.78.25.18.67.29.79.57-.34-.05-.72-.26-1.05-.36-.26-.08-.52-.15-.78-.24-.14-.05-.25-.11-.35-.18.03-.06.04-.15.02-.25zm17.82-9.22s0 0 0 0zm-.79-1.13s.03 0 .04 0c-.01 0-.03 0-.04 0z"/></svg>