<svg viewBox="0 0 33.22 32.26" xmlns="http://www.w3.org/2000/svg"><path d="m33.17 8.81c.01-.93-.3-1.77-.92-2.5-.43-.5-.93-.9-1.51-1.17h.08c.12.08.25.16.38.23.16.08.35.13.51.21.06.03.13.08.2.06 0 0 0 0 0-.01 0-.1-.14-.27-.25-.4.14.07.28.15.4.24.18.14.29.31.42.48.02.02.04.01.05-.01.05-.14-.07-.34-.12-.47-.02-.05-.04-.11-.07-.16.09.11.18.24.25.36.13.24.2.47.28.72 0 .01 0 .02.01.02.06-.23.08-.46.04-.69-.04-.24-.15-.45-.24-.67 0 0 0-.01-.01-.02-.07-.14-.15-.27-.25-.4-.36-.72-.93-1.24-1.69-1.56-.46-.19-.93-.3-1.41-.31.28-.08.57-.15.85-.22.03 0 .04-.05.02-.06-.12-.1-.33-.13-.52-.13.23-.07.45-.15.69-.19.4-.08.78 0 1.18.05.02 0 .03-.03.02-.05-.11-.2-.32-.28-.54-.33.44-.05.93-.2 1.31-.04.08.02.14.06.21.11.05.04.1.09.15.14.11.11.2.23.28.34 0 0 0 0 0-.01 0-.02 0-.04 0-.05 0 0 0-.02-.01-.03 0 0 .01.02.01.02-.01-.08-.03-.16-.04-.24 0-.01 0-.02 0-.04-.1-.48-.31-.92-.67-1.28-.26-.25-.61-.44-.95-.53-.09-.02-.18-.03-.26-.02 0 0 0-.02-.01-.02-.37-.12-.77-.19-1.16-.14-.21.03-.42.07-.63.13-.14.04-.26.11-.39.17.05-.04.11-.07.16-.1.02-.02.04-.08 0-.08-.46.05-.95.27-1.34.52-.35.21-.78.45-1.01.81 0-.09.03-.16.06-.26.01-.05-.03-.08-.07-.04-.07.09-.16.21-.23.34-.47.35-.81.9-1.05 1.43-.14.3-.23.62-.27.94 0-.04 0-.09 0-.13 0-.05.02-.1.03-.15 0-.02-.02-.02-.02-.01-.16.3-.17.75-.18 1.08v.12c-.06-.34-.16-.71-.28-1.05-.06-.1-.12-.21-.17-.31 0 0 0 .01-.01.02-.05.15-.07.35-.07.55-.15-.47-.36-.92-.62-1.36-.16-.24-.32-.47-.5-.7-.13-.17-.26-.38-.42-.52-.03-.02-.06-.05-.08-.07-.01.01-.02.03-.02.05.03.15.09.3.14.45-.27-.4-.63-.72-1.04-1.01-.52-.35-1.06-.63-1.68-.73-.02 0-.04.03-.03.05.08.15.23.26.36.38-.35-.17-.65-.34-1.06-.4-.45-.06-.92 0-1.36.11-.89.23-1.61.76-2.06 1.56-.01.02 0 .03 0 .03v.01c.11-.04.21-.12.32-.17.19-.08.4-.11.6-.15.17-.03.34-.02.5-.02.03 0 .07.01.1.02-.17.06-.33.16-.5.26-.16.1-.41.25-.48.44 0 .02 0 .05.03.03.35-.24.78-.23 1.19-.18-.2.06-.4.13-.6.25-.28.16-.61.4-.78.69 0 .02 0 .03.01.03s0 0 0 0 .03 0 .04-.01h.01c.14-.05.28-.1.42-.15h.02s0 0 0-.01c.62-.23 1.29-.19 1.96-.09-.12.04-.24.09-.35.15-.24.14-.67.35-.78.62-.01.02 0 .08.04.06.53-.27 1.07-.24 1.65-.17-.09.04-.18.08-.26.12-.18.09-.42.22-.52.4-.01.02 0 .04.01.05.07.02.15.05.22.09-.25.03-.49.09-.72.17-.74.27-1.33.75-1.78 1.39-.48.68-.69 1.42-.61 2.22-.01.16-.01.32 0 .47v.02c.05.23.06.47.16.7.09.22.23.41.4.56 0 0 0-.01 0-.02-.06-.26-.12-.49-.14-.76-.01-.14 0-.3.01-.44 0 .06.01.11.02.17.03.13.04.37.15.46.02.02.05.01.05-.02.02-.22.03-.42.11-.63.06-.15.13-.29.21-.42-.03.17-.06.39 0 .47h.01c.07-.02.1-.1.14-.16.09-.16.22-.29.32-.45.08-.13.15-.26.21-.39.2-.1.38-.25.55-.4.07-.07.15-.14.21-.21-.01.05-.03.1-.03.17 0 .12 0 .25.02.37 0 .01.02.02.03.02.07-.02.12-.11.17-.17.16-.11.33-.19.5-.28-.08.09-.15.19-.22.28-.47.7-.77 1.68-.73 2.53 0 .04.05.03.06 0 .05-.21.11-.39.2-.57-.04.19-.05.39-.06.57-.02.39-.02.79.04 1.17.04.25.09.59.25.8.03.04.07-.02.08-.05.01-.14.02-.29.03-.43v.29c.02.19.06.37.1.56.08.31.23.68.43.94 0 .01.01.03.02.04 0 .02.02.02.03.01.02.01.06-.03.06-.05 0-.2-.08-.41-.09-.61-.02-.24 0-.49.01-.74.04-.58.26-1.1.5-1.62v.3c.01.3.07.58.1.88.01.12.06.25.16.33.03.03.07-.01.07-.04.02-.39.07-.77.18-1.14 0 0 0-.01.01-.02-.1.67.01 1.47.32 2.06.01.03.05 0 .04-.02-.04-.17-.05-.33-.05-.49.04.15.09.31.15.45.11.3.25.6.43.86.04.06.08.12.13.19 0 0-.01.01-.02.02-.47.45-1 .84-1.5 1.17-.04.03-.09.06-.13.08-.06.04-.11.07-.17.11t0 0c-.21.13-.43.26-.65.38-.16.09-.33.18-.49.26-.32.16-.64.31-.97.46s-.1.04-.15.07c-.33.14-.66.28-.98.41-.1.04-.2.08-.29.12-1.43.56-2.89 1.07-4.25 1.73 0 0-.01 0-.02.01 0 0-.02.01-.03.01-.12.06-.24.13-.36.19-.1.05-.21.1-.31.16-.37.19-.73.39-1.08.61s-.06.04-.09.05c-.83.5-1.63 1.06-2.38 1.67-.11.09-.22.17-.32.27-.27.23-.53.46-.78.71-.01.01-.02.02-.04.03-.38.37-.75.76-1.1 1.17s-.01.02-.02.02c-.05.06-.09.11-.14.17-.07.08-.13.15-.19.23-.15.2-.31.39-.45.59-1.18 1.66-2.1 3.8-2.34 5.93v.09c-.06.01-.11.02-.17.04-.05.01-.09.02-.13.04h.01c-.02 0-.04.01-.06.02s-.02 0-.03.01 0 0 0 0c-.07.03-.15.05-.22.08-.14.05-.27.1-.41.15-.04.02-.09.03-.13.05-.03.01-.07.02-.09.05v.01c-.17.18-.39.28-.58.43 0 0 0 0-.01.01s0 0 0 0v.01c-.03.06-.05.12-.04.18.02.14.12.23.22.31.07.06.15.12.22.18.02.02.04.03.06.04.05.04.1.09.16.13.15.11.31.22.49.26.18.05.38.05.57.05.44 0 .88-.02 1.32-.05h.08c.4-.02.8-.05 1.2-.08.18.02.37.04.55.06.2.02.41.05.61.06.21.02.42.05.63.02.19-.02.38-.08.56-.14.2-.06.41-.12.62-.18.03-.01.07-.02.1-.03l.13.23s0 0 0 0 .01 0 .02 0c.11.05.22.09.33.13h.02.02s0 0 0 0l1.07-.08s.09 0 .09 0l.05-.04s.03-.02.05-.04c.04-.04.12-.08.15-.13.02-.04.06-.23.04-.31v-.02s0-.01 0-.01c-.01-.01-.02-.02-.04-.03l-.11-.1-.22-.2c-.05-.05-.15-.16-.23-.2h-.02s-.02-.02-.02-.02l-.2-.02c-.12-.24-.22-.49-.35-.72-.03-.06-.07-.12-.11-.17-.02-.02-.04-.04-.06-.07s-.05-.06-.07-.08-.01-.01-.02-.02c-.08-.07-.17-.13-.27-.19-.02-.01-.04-.02-.05-.04-.02-.01-.04-.02-.06-.04-.04-.02-.08-.05-.12-.07-.1-.06-.19-.11-.29-.17-.04-.02-.07-.04-.11-.06-.03-.02-.06-.03-.09-.05-.15-.11-.31-.22-.48-.31-.04-.02-.09-.04-.13-.06t0 0c-.07-.04-.14-.07-.21-.1-.05-.02-.11-.05-.16-.07-.01 0-.01-.01-.02-.02-.04-.02-.08-.04-.13-.06h-.02c-.05-.02-.1-.05-.15-.05-.09 0-.19 0-.28 0-.1 0-.2 0-.3 0-.04 0-.08 0-.11.01.04-.13.09-.26.13-.38.04-.12.1-.25.15-.37.28-.68.63-1.34 1.02-1.96s.01-.02.02-.02c.21-.34.44-.66.67-.97.09-.12.18-.24.28-.35.21-.27.42-.51.64-.74.06-.07.12-.13.19-.19.15-.15.3-.3.45-.45.03-.03.06-.06.09-.08.09-.08.18-.16.26-.24.35-.31.71-.61 1.08-.89l.33-.24c.15-.11.31-.22.47-.33.01 0 .02-.02.04-.02.68-.46 1.39-.88 2.12-1.27.09-.05.19-.1.28-.14.77-.41 1.55-.78 2.33-1.13.02 0 .03-.02.05-.02 2.4-1.07 4.79-2.23 6.59-4.2.08-.09.15-.18.23-.27.04.03.08.05.12.08 0 0 .02.02.02.02 0 .01.02 0 .02 0 .02 0 .03-.04.02-.06-.02-.05-.06-.11-.1-.16.34-.45.63-.96.86-1.5.01.04.03.08.05.12.21.53.49 1.08.9 1.48.02.02.06 0 .05-.04-.09-.29-.1-.55-.09-.85 0-.26.04-.01.06.1.03.15.07.3.12.45.06.19.14.36.24.53.07.16.15.32.24.47.12.2.24.44.44.56h.02c0-.02 0-.05 0-.07v-.01c-.05-.37.14-.68.19-1.03.03-.23-.03-.48-.01-.7.21.32.22.85.31 1.2.09-.13.18-.27.25-.41.16-.4.28-.85.33-1.26.03-.29-.01-.55-.07-.83.02.13.13.29.18.42.07.19.13.38.18.57 0 .02.02.02.03.03.02-.03.04-.06.05-.1.09-.55.19-1.08.09-1.63-.02-.13-.06-.26-.08-.4 0 0-.09-.26-.03-.15.14.3.28.58.38.9.01.04.05.02.05-.01 0-.45.06-.9.03-1.34-.03-.35-.15-.73-.3-1.07.1.14.18.3.26.43.09.16.15.31.21.47v.19c0 .02.02.01.02 0 0-.03 0-.06 0-.09 0 .02.01.05.02.08h.01c0-.04-.02-.08-.03-.12.01-.38-.07-.8-.17-1.15 0-.03-.02-.06-.02-.09s0-.06 0-.1c.08.09.15.19.22.29.02.04.05.07.07.11.04.07.08.13.12.2.09.16.19.32.28.48.01.02.04.02.05 0 .02-.08.03-.16.03-.25.16.27.33.53.38.84.05.34.05.69.02 1.04 0 .03.02.07.06.05.1-.06.15-.16.18-.27.06-.26.15-.51.19-.77.01-.09.03-.18.04-.27.15.49.28.98.25 1.5-.01.22-.03.44-.08.66-.04.18-.13.36-.16.53 0 .02.02.06.04.05h.02c0-.01.01-.02.02-.03.21-.21.39-.51.5-.78.06-.16.12-.32.16-.48.02-.08.03-.17.04-.26 0 .13-.02.25-.03.38 0 .02.03.08.06.05.17-.17.26-.46.32-.68.08-.28.13-.58.16-.87v.03c0-.07.01-.13.02-.2.01-.17.02-.35.01-.52.06.17.09.34.11.53 0 .03.04.05.05.01.14-.74 0-1.66-.34-2.34-.03-.06-.06-.11-.1-.17.07.03.14.06.21.1.06.07.13.16.21.18.02 0 .03-.01.04-.03.02-.14 0-.29 0-.43 0-.07-.03-.14-.05-.19.08.08.17.15.26.23.21.16.42.32.67.41.08.15.18.3.28.44.12.17.29.31.41.49.04.06.09.15.17.17h.01c.06-.1 0-.36-.04-.55.11.15.21.3.29.47.12.23.14.47.19.71 0 .04.04.04.06.02.12-.12.11-.39.13-.55 0-.06.01-.13.01-.2.04.17.06.34.06.51 0 .31-.04.59-.08.89v.03c.18-.2.33-.43.41-.69.09-.27.08-.54.12-.82v-.02c0-.18-.01-.37-.04-.55zm-7.83-2.36s-.03 0-.04.01c0-.04-.01-.08-.02-.12.02.04.04.07.06.11zm-3.05 5.42c0-.09.02-.18.04-.26.02-.09.04-.18.07-.27.01.04.03.07.05.11-.03.11-.07.23-.11.34-.01.03-.03.06-.05.09zm-.44.78s-.02.02-.03.04c-.01-.19-.02-.39-.02-.59.03.08.07.15.11.23.02.04.05.08.07.12-.03.05-.06.1-.09.14-.01.02-.03.04-.04.06z"/></svg>