<svg viewBox="0 0 27.73 32.26" xmlns="http://www.w3.org/2000/svg"><path d="m5.66 31.77s-.01.02 0 .04c.02.05.04.05.09.09.04.02.08-.02.06-.05.03.02.06.03.09.05.03.04.05.08.08.12.02.03.06.06.1.05.02 0 .04 0 .06-.02.04-.03.07-.08.05-.13-.09-.19-.29-.33-.46-.43-.04-.02-.07.02-.05.06.04.07.08.13.13.2-.03 0-.06-.02-.09-.02-.03-.01-.05.03-.04.05z"/><path d="m27.32 15.33c.08-.13.13-.25.04-.42s-.26-.21-.43-.23c.01-.04.02-.08.02-.14 0-.1-.05-.19-.11-.26-.07-.09-.15-.12-.24-.13.01-.06 0-.13-.06-.2-.03-.05-.08-.08-.12-.1-.01 0-.03-.01-.04-.02-.04-.02-.07-.03-.11-.04 0 0 0 0-.01 0s-.08-.02-.12-.02-.08-.01-.12-.02c-.09-.01-.17 0-.23-.06-.07-.06-.17-.09-.26-.07-.16.04-.22.17-.23.31-.06 0-.1 0-.15.03-.02-.05-.06-.1-.1-.15 0 0-.02-.02-.03-.03.01.01.02.02.03.02 0-.05 0-.08.03-.13.04-.12.02-.22-.05-.33-.03-.04-.07-.08-.11-.12.29 0 .47-.19.44-.48s0-.07-.02-.1c.19-.13.25-.36.11-.56-.02-.03-.04-.06-.07-.09-.1-.11-.32-.18-.46-.12-.1.04-.07.03-.16-.01 0-.04-.01-.07-.03-.1 0 0 0-.02-.01-.02-.01-.02-.02-.04-.04-.05-.02-.02-.03-.05-.06-.07 0 0-.01 0-.02 0s-.03-.02-.04-.02c.1-.03.17-.09.22-.18.21-.07.5-.23.47-.48-.03-.17-.12-.26-.23-.31.13-.15.22-.34.12-.52-.03-.06-.06-.1-.1-.13s0 0 0 0c-.03-.03-.07-.05-.1-.06h-.02c-.06-.02-.13-.03-.21-.03h-.13c-.06-.15-.22-.21-.39-.22 0-.18-.04-.36-.24-.44-.18-.07-.36-.04-.51.06-.03-.01-.06-.02-.09-.02.16-.22-.13-.55-.29-.79.08 0 .17-.01.26-.05.08-.04.05-.17.01-.22 0-.02-.02-.03-.03-.04.24-.1.21-.4 0-.6 0-.03 0-.06 0-.08 0 0 0-.02 0-.03 0 0 0-.01 0-.02s0-.02 0-.03 0-.02-.01-.03c0-.02-.01-.03-.02-.04 0-.01-.01-.02-.02-.03 0-.01-.02-.02-.02-.03s-.02-.02-.03-.03c0 0-.02-.02-.02-.02-.01-.01-.03-.02-.05-.03 0 0-.01 0-.02-.01-.02-.01-.04-.02-.06-.03 0 0 0 0-.01 0-.02 0-.05-.02-.07-.02-.01 0-.02 0-.04 0-.02-.11-.07-.21-.17-.27-.07-.05-.15-.07-.22-.08s-.01 0-.02 0c-.04 0-.07 0-.11 0 0 0-.02 0-.03 0-.05 0-.09 0-.14 0h-.07c.06-.03.11-.06.14-.11.06-.09.1-.18.06-.29 0-.01-.01-.02-.01-.04.01-.01.02-.02.03-.04.08-.29-.12-.48-.23-.72-.08-.16-.08-.37-.29-.43-.2-.06-.4-.04-.59.02-.07-.09-.16-.16-.26-.21.08-.12.15-.24.13-.42-.03-.22-.15-.4-.33-.53-.17-.12-.4-.24-.62-.21-.15.02-.24.14-.39.15-.02 0-.03.01-.05.01s-.04.01-.06.02c-.06.02-.12.04-.18.06-.1.03-.08.11-.17.07-.06-.02-.11-.04-.16-.05 0 0-.01 0-.02 0s-.04 0-.06 0c.01-.03.03-.05.04-.08.1-.31-.1-.59-.38-.71-.04-.26-.15-.5-.45-.54-.26-.03-.46.1-.51.32-.09-.02-.17 0-.25.05s-.01 0-.02.02c-.02-.06-.05-.11-.09-.15-.01-.02-.03-.03-.04-.04h.01s.01 0 .01-.01c.02-.01.04-.03.06-.04.01-.01.03-.02.04-.04.01-.01.03-.03.04-.04 0 0 0 0 0-.01.01-.02.02-.04.03-.06.04-.2-.01-.38-.15-.53-.16-.17-.42-.31-.66-.32-.03-.07-.07-.13-.13-.18-.08-.07-.18-.09-.28-.06-.05.01-.09.06-.13.09-.09-.07-.16-.11-.31-.12-.15 0-.29.08-.35.22-.07.16-.07.35-.01.51.03.08.09.14.14.2.03.02.04.04.03.05-.01 0-.02 0-.03 0-.02 0-.04-.01-.06-.02-.03-.02-.06-.04-.1-.05-.02 0-.03-.02-.05-.02-.04-.01-.07-.02-.1-.02v-.02c0-.03 0-.06 0-.1 0-.16-.17-.28-.32-.22-.03.01-.06.02-.1.03.18-.52.07-1.3-.4-1.52-.1-.05-.19-.05-.28.02-.08.07-.16.15-.23.23-.13-.15-.35-.18-.55-.12-.07-.04-.13-.08-.12-.13.01-.11.04-.23.04-.34 0-.1-.09-.2-.2-.21-.13 0-.26 0-.37.09-.1.08-.25.29-.39.18-.1-.07-.19-.1-.31-.09-.01 0-.03.01-.04.02s-.02.02-.03.04c-.03.04-.06.08-.07.07-.03-.01-.06-.03-.09-.05-.15-.09-.32-.21-.48-.23s-.06 0-.1 0c-.25.05-.27.35-.2.54.04.12.02.16-.06.16-.03 0-.07 0-.11 0-.07 0-.14-.02-.21 0-.15.02-.25.07-.34.19-.18.23-.02.56.12.78-.03.02-.06.06-.08.09-.02.04-.03.09-.02.15-.06.07-.11.14-.14.23-.13.08-.24.18-.32.3-.05.01-.1.04-.14.08-.16.13-.27.17-.48.14-.07 0-.19-.18-.29-.22-.06-.02-.12-.03-.18-.02-.04 0-.07.02-.11.03-.02 0-.03.01-.04.02-.07-.06-.15-.09-.25-.09-.19 0-.37.07-.54.16s0 0 0 0c-.06.03-.12.07-.17.11-.24.03-.55.18-.56.45 0 .08 0 .15.03.23v.02c-.01.02-.03.04-.04.06-.06.1-.09.18-.09.28-.12.07-.26.19-.3.32-.03.08 0 .14.04.19-.06.2-.01.38.19.52.12.08.3.08.46.06.01.03.03.06.05.08.01.02.02.02.03.03-.03.02-.06.03-.09.04-.07.02-.15.05-.22.08-.14.07-.17.19-.13.29-.03.03-.06.06-.08.09-.17-.1-.38-.15-.57-.12-.04-.06-.09-.12-.16-.16-.09-.05-.19-.06-.29-.02-.05.02-.08.08-.12.1-.1-.05-.18-.08-.32-.07-.14.02-.27.13-.31.27-.05.17-.02.35.07.5.04.07.11.12.16.17.06.03.05.05-.01.07-.03.04-.06.08-.1.11-.04-.07-.11-.13-.17-.17-.12-.08-.25-.14-.39-.11-.25.05-.33.33-.36.57-.04 0-.08.02-.11.03-.01 0-.02 0-.03.01-.02.01-.05.02-.07.03-.01 0-.02.02-.04.02-.01.01-.03.02-.04.03s-.02.02-.03.03-.02.03-.03.04c0 .01-.01.03-.02.04 0 .02-.01.03-.02.05 0 .02 0 .03-.01.05v.05.05.07.04c.01.04.02.08.04.12.1.24.28.47.49.64-.05.09-.08.18-.09.28-.13-.03-.25-.09-.36.07-.09.14-.08.32-.17.46-.12.21-.07.44.05.64-.12.01-.22.07-.29.23-.04.09-.05.19-.05.3-.02.02-.04.04-.06.07-.01.03-.02.06-.02.09-.03 0-.06 0-.09.02-.1.03-.15.08-.21.15 0 0-.01.02-.02.02-.09-.05-.19-.07-.3-.02-.16-.1-.36-.12-.54-.03-.2.1-.23.28-.22.47-.18.02-.34.09-.39.25-.04 0-.08 0-.11 0 0 0-.01 0-.02 0-.08 0-.15.02-.22.05 0 0-.01 0-.02 0-.04.02-.07.04-.1.07v.01s-.07.08-.1.14c-.09.19.02.38.16.53-.12.06-.21.16-.22.33-.03.25.28.4.51.46.05.09.13.15.24.18-.02 0-.03.02-.04.03 0 0-.01 0-.02 0-.02.02-.04.05-.06.07-.01.02-.03.04-.04.05 0 .01 0 .02-.01.03-.01.03-.02.06-.02.1-.08.05-.05.06-.16.02-.15-.05-.37.04-.47.16-.03.03-.04.06-.06.1-.13.21-.05.45.15.57 0 .04-.01.07-.01.11-.01.29.18.49.47.47-.03.02-.06.04-.08.06-.06.06-.14.07-.22.09-.04 0-.08.02-.12.03s-.07.02-.11.04 0 0-.01 0c-.04.02-.07.04-.1.06-.01 0-.03.01-.04.02-.04.03-.08.07-.11.12-.04.08-.05.14-.04.2-.08.02-.16.06-.22.16-.05.08-.09.17-.08.27 0 .05.02.09.03.13-.17.04-.33.11-.4.28-.07.18 0 .29.09.41-.12.05-.23.11-.31.24-.14.24.07.5.28.61.25.13.56.01.78-.11.12-.07.22-.18.33-.27.05-.04.18.05.21.07.06.04.04.15.05.21 0 .09.11.14.19.12.25-.07.49-.13.63-.36 0-.01.02-.02.02-.04.09.1-.11.24-.17.32-.06.09-.04.2.05.25.07.04.14.05.22.05.15 0 .12.02.07.14-.06.18-.02.35.12.47.21.18.54.08.75-.09.23.08.43-.12.57-.33.04-.05.07-.11.1-.16.08.07-.03.19 0 .28.03.1.08.17.19.21.08.03.17 0 .24-.03.01 0 .03-.02.04-.02.02.3.22.61.51.68.34.09.8-.07 1.01-.37.06.02.11.04.17.05.16.03.3 0 .36-.12.16.01.33.03.46-.08.2-.17.1-.42-.04-.6.04.05.18-.05.22-.05.02 0 .04 0 .05-.01h.01c.09.06.18.14.28.18.19.08.33.08.44-.02.14.1.28.18.44.16.06 0 .12 0 .18.01.12.07.25.1.37.07.07.09.16.15.26.18.04.02.08.04.12.05.03 0 .06 0 .08.01.04.1.08.2.17.27.11.09.21.11.3.07.18.18.44.28.61.11.19.07.38.12.56 0 .13-.09.11-.23.07-.37h.18c.19.1.49.2.68.17.13.54.2 1.09.24 1.64.07 1.04-.16 2.04-.25 3.07-.08.92.08 1.79.19 2.69.11.92.24 1.89-.16 2.76-.33.71-.9 1.33-1.54 1.81-.04-.09-.1-.17-.21-.24-.05-.03-.09 0-.12.03-.07-.04-.16-.03-.18.06 0 .04-.01.08-.02.12-.03-.1-.07-.2-.16-.27-.09-.08-.27-.09-.32.04-.01.02 0 .05 0 .08-.02.02-.04.06-.04.1v.05c-.06-.05-.12-.1-.2-.11-.02-.02-.04-.04-.06-.05 0 0 0 0-.01-.01-.04-.03-.07-.06-.11-.08-.09-.05-.16.06-.11.14 0 0-.01.02-.01.03-.09-.11-.19-.25-.33-.25-.07 0-.14.07-.13.14s.04.11.08.15c-.1-.11-.2-.2-.33-.25-.09-.04-.15.07-.1.14.19.22.38.39.5.65-.04 0-.07.02-.09.05-.1-.29-.25-.53-.53-.54-.09 0-.14.13-.07.18.11.08.22.11.3.23.07.11.13.22.18.33.01.04.03.07.04.11-.02 0-.04-.01-.07-.02-.04-.06-.08-.12-.13-.18-.13-.17-.29-.44-.52-.48-.05 0-.09.02-.1.07-.04 0-.08.03-.09.07-.04-.01-.09-.02-.13 0-.05 0-.05.07-.02.1.08.08.19.1.26.18.04.05.08.1.12.16v.15c-.09-.15-.21-.27-.36-.34-.13-.14-.28-.28-.45-.31-.06-.01-.11.02-.14.06-.01 0-.02 0-.04 0-.04.01-.05.08 0 .1 0 0 .02 0 .02.01 0 .02 0 .03.01.04.02.04.05.07.09.11-.07-.04-.14-.05-.22 0-.05.03-.05.11 0 .15-.04-.02-.08-.04-.13-.04-.08-.01-.16.08-.11.15-.03 0-.06 0-.09.02-.05.02-.05.08-.01.1.09.05.15.1.21.16-.01.01-.02.04 0 .05.04.04.08.08.11.12v.02c-.08-.05-.15-.1-.19-.12-.02-.04-.05-.08-.08-.11-.11-.1-.31-.23-.46-.13-.05.04-.05.1-.01.15-.03 0-.04.03-.03.05 0 0 0 0-.01 0 0 0-.01 0-.02-.01-.04-.02-.07.03-.04.06 0 0 .01.01.02.02v.05c-.02.02-.03.06 0 .09.05.05.11.06.17.06.01.02.03.03.04.05.03.05.04.09.06.14-.09-.12-.23-.2-.34-.3-.04-.03-.09.02-.06.06.03.03.06.07.1.11-.02 0-.04-.02-.06-.02-.04-.01-.07.06-.03.07.08.03.13.09.15.18.01.05.08.06.1.02.01-.01.02-.02.02-.04.01.02.03.03.04.05.04.04.09.01.11-.03 0 .01 0 .02.01.03.03.06.14.06.16 0 .02-.04.02-.08 0-.13.02.06.03.12-.01.17-.05.06-.01.18.08.17.12-.02.18-.07.2-.15.01.01.02.03.04.04.03.03.07.03.1.01.02.02.02.03.02.02.02.04.06.08.11.07.14-.02.14-.11.1-.21.01.01.02.02.04.04.02.04.04.07.07.1.03.05.05.1.06.16 0 .05.07.1.12.06.06-.05.08-.1.08-.15.05.02.1.02.15.03.03.03.08.05.12.02h.06.18.03.05c.07 0 .14-.01.21-.02.08.08.22.06.26-.04.04 0 .08-.01.12-.02.05.05.14.04.18-.03h.06.09c0 .01-.01.03-.02.04-.03.03.02.08.05.05.01-.01.02-.02.03-.03 0 0 .01.02.02.02.08.08.2 0 .2-.1s.07 0 .1 0c.04.04.11.07.14.02s0-.02.01-.03h.2s.01.01.02.01c.02 0 .03 0 .04-.02h.22c.03.04.09.04.12 0 .13.1.34.12.48.11.03 0 .05-.02.06-.04.02 0 .04 0 .06.02.06.03.1-.02.1-.08h.02c.09.06.21.07.31.04.03 0 .07.01.1.02.05 0 .07-.05.03-.08-.01-.01-.03-.02-.05-.03 0 0 0-.02-.02-.02h.06c.02.02.04.04.07.04.03.06.07.11.11.17.06.08.18 0 .13-.08-.03-.05-.05-.1-.08-.14.07.07.14.13.22.18.04.02.08-.04.04-.06-.03-.02-.06-.05-.09-.07.03.01.06.02.08.03h.03c.02.05.07.1.14.07.02 0 .03-.02.04-.03.04.04.08.08.11.12s.1 0 .07-.04c-.03-.05-.07-.09-.11-.13.05-.04.09-.08.13-.12v.01c0 .06.06.09.11.09.09.08.18.14.28.2.03.02.06-.02.04-.05-.01 0-.02-.02-.03-.03 0 0 0 0 .01.01 0 0 .01.01.02.02.05.03.11 0 .14-.05.03-.04.04-.09 0-.12-.02-.02-.04-.04-.06-.05h.06c0 .05.04.1.1.12.07.02.17.03.28.02.01.04.03.07.08.07.17.02.32-.03.48-.09.05-.02.1-.04.16-.06 0 0 0 .01-.01.02 0 .04.01.07.04.09 0 0-.01.01-.02.02-.04.05-.02.13.05.15.13.03.26-.03.38-.09.11-.05.22-.1.33-.16.03-.02.04-.05.04-.08.02-.01.04-.03.04-.06.11.04.23.04.32-.04t0 0s.06.05.1.03c.08-.02.12-.02.18-.09.02-.02.03-.04.03-.07v.02c.06.1.18.08.24 0 .01.09.1.17.19.14.02 0 .04-.02.06-.03.03 0 .07 0 .1-.03s.04 0 .05-.02c.02-.02.04-.04.05-.06.01 0 .02-.02.04-.03.02 0 .03 0 .05-.02v.02c.01.12.18.14.21.02s.04.03.07.02l.06-.03c-.03.05-.01.12.03.15-.1.01-.19.03-.29.06-.05.02-.04.09.01.09.48-.05.98-.04 1.46-.12.04 0 .04-.07 0-.07-.09.01-.18.02-.27.02.11-.01.22-.03.33-.05v.07c-.04.02-.08.05-.12.08s0 .08.04.06.09-.04.14-.07c.02.02.05.02.08.02.23 0 .47-.01.69-.06.14-.02.29-.05.43-.07.36.04.71.07 1.06-.01.15-.03.14-.25.01-.3.01-.04 0-.09-.06-.1-.16-.04-.36 0-.54.03.07-.05.04-.17-.05-.16-.07 0-.14.02-.21.04.02-.04.03-.09-.02-.12-.01-.01-.02-.01-.04-.02-.01-.03-.04-.06-.08-.05-.01 0-.02.01-.02.02-.04 0-.07 0-.11.01.02-.04 0-.1-.06-.11 0 0-.02 0-.03 0 0 0 0 0-.01-.01-.02-.02-.05-.02-.08-.02-.04-.04-.1-.07-.16-.04.03-.05.01-.11-.05-.13-.11-.03-.2-.01-.3.03 0 0-.02 0-.03 0-.02 0-.04 0-.06 0 .04-.04.07-.08.09-.12.05-.1-.04-.2-.15-.17-.06.01-.11.05-.17.1-.02 0-.04 0-.06 0t0 0s-.05-.07-.1-.06c-.11.02-.21.09-.29.18-.05.02-.09.06-.14.08.11-.16.24-.31.35-.48.05-.07-.07-.15-.12-.09-.08.1-.16.21-.23.32 0-.02 0-.05 0-.08.06-.11.12-.22.11-.32 0-.06-.07-.11-.13-.09s-.1.07-.13.12c-.02-.01-.04-.03-.06-.04 0 0 0 0-.01 0-.03-.12-.12-.3-.24-.3-.03-.06-.08-.12-.15-.14-.04-.01-.1.02-.11.05-.06.15.04.37.09.55-.01.02-.03.04-.04.06.01-.17-.03-.34-.17-.48-.03-.03-.07-.04-.1-.03-.03-.05-.06-.1-.1-.14-.03-.03-.1-.05-.14-.03-.21.09 0 .34.06.49 0 .03-.02.07-.03.1-.05-.11-.11-.22-.19-.3-.04-.04-.08-.02-.11 0-.06-.06-.13-.1-.21-.09 0 0-.01-.02-.02-.03-.05-.05-.14.02-.1.08.06.09.11.19.16.29-.07.03-.11.1-.14.18-.08-.06-.15-.12-.22-.18-.01-.02-.03-.04-.04-.05 0 0 0 0-.01 0-.22-.23-.39-.51-.52-.82-.36-.86-.4-1.83-.53-2.75-.3-2.11-.23-4.18-.03-6.29.06-.64.15-1.45.56-1.99.02 0 .03-.02.03-.04.11-.13.24-.23.39-.31.11.02.22 0 .32-.07.04-.03.06-.06.08-.1h.02c.03 0 .06-.01.08-.02.06-.02.12-.03.18-.04.03 0 .06-.01.09-.02.06-.01.12-.02.19-.02h.08.02c.09.02.17.01.23-.01h.07.18.13.36.01c.06.02.11.04.16.05.1.02.22 0 .3-.07h.01c.02.02.04.05.07.07.11.09.21.11.3.08.18.18.44.28.61.11.18.07.38.12.55 0 .13-.09.11-.23.07-.37h.18c.3.16.84.32.86-.04 0-.13-.07-.13 0-.26.02-.04.08-.05.15-.04 0 .02.01.03.02.05.06.09.13.14.22.2.07.04.17.04.25.01.11-.05.1.04.15.15.09.17.28.28.47.28.21 0 .43-.02.52-.23.03-.08 0-.18-.03-.25-.02-.06-.04-.14-.03-.2 0-.04.05-.17.07-.06.04.2.29.38.49.32.07-.02.18-.08.26-.07.06 0 .11.05.16.07.08.02.17.04.24 0 .05-.02.08-.05.1-.09 0 0 0 0 .01-.01 0-.01.01-.03.02-.05 0 0 0-.01.01-.02 0-.02.01-.04.02-.07 0 0 0 0 0-.01.02-.1-.11-.21-.04-.28.04.05.08.1.12.14.16.19.39.36.6.25.23.14.57.21.76 0 .12-.14.15-.31.07-.48-.06-.12-.09-.13.05-.15.08 0 .15-.03.21-.08.09-.06.09-.18.02-.26s-.28-.2-.21-.3c0 .01.02.02.03.03.17.21.41.25.67.28.08.01.18-.06.17-.14 0-.06-.03-.17.02-.21.03-.03.15-.13.2-.1.12.07.23.17.36.23.23.1.56.18.79.02.19-.13.37-.42.2-.64-.1-.12-.21-.16-.34-.2zm-6.17-7.28s0 0 0 .01c-.03-.02-.07-.03-.11-.04h.09c0-.04 0-.03.01.02zm-7.76.21s.03-.01.04-.01c-.01 0-.02.02-.04.02zm-.01.94s0-.02 0-.03c.02.02.04.03.06.05 0 0-.01.02-.02.02-.02-.01-.03-.03-.05-.04zm5.76.74s0 0 0 .01v-.01h.01zm2.58-.35s-.02-.04 0-.05zm-19.43 4.79s0 .03.01.07c0 .02 0 .05-.02.07-.01.02-.02.04-.03.05 0 0-.01.02-.01.02-.01 0-.03 0-.05 0 0-.05-.03-.1-.06-.15.05 0 .11-.04.15-.07zm5.68 16.98s0 0 0 0c-.01-.02-.03-.04-.04-.06.02.02.04.03.06.05 0 0-.01 0-.02 0zm1.71-.99s0 .04 0 .06c-.01-.04-.02-.08-.04-.11.01.02.03.04.04.06zm-.73.7s-.04.01-.07.02c-.01-.05-.02-.11-.04-.16.04.05.07.1.1.14zm-1.54-.17s-.04.02-.06.03c-.03-.05-.06-.1-.1-.14.05.04.11.08.16.11zm-.4.35s.08.09.11.14c-.03 0-.05 0-.08-.01-.02-.05-.04-.11-.07-.16.01.01.02.02.04.03zm11.71.07s.05-.05.08-.07c-.01.02-.02.03-.03.05-.02 0-.03 0-.05.01zm.14-.12s-.01 0-.02.01h.01z"/></svg>