<svg viewBox="0 0 27.7 32.26" xmlns="http://www.w3.org/2000/svg"><path d="m6.68 26.91c-.48.36-1.09.5-1.5.95-.12.13-.19.41.06.45.54.08 1.1.04 1.65-.08 1.56-.15 3.06-.91 3.89-2.26.29.44.62.84.97 1.22.06.07.13.14.2.21-.15 1.49-.21 2.99.22 4.27.14.43 1.01.9 1.26.3.45-1.11.21-2.46.12-3.64-.03-.39-.05-.78-.08-1.17.55.37 1.14.67 1.75.84.97.28 2.23.72 3.21.41.17-.05.18-.25.05-.36-.31-.27-.6-.55-.89-.85.24.1.48.19.72.28 1.27.44 2.77 1.04 4.13.83.24-.04.17-.32.06-.45-.41-.45-1.02-.59-1.51-.95 2.01.65 4.13.88 6.24.66.17-.02.19-.24.1-.35-.28-.36-.42-.3-.83-.58-.98-.69-1.97-1.36-2.88-2.16-.24-.21-.47-.43-.7-.65 1.51.61 3.15.98 4.63.94.27 0 .1-.35 0-.43-.07-.05-.13-.1-.2-.15-.79-.55-1.69-.93-2.46-1.52-1.15-.86-2.24-1.79-3.27-2.8-.23-.22-.46-.44-.67-.67.26.27.56.48.91.61.26.13.62.26.9.35.82.25 1.55.39 2.39.17.03 0 .05-.02.07-.04s.03-.03.03-.05c.02-.05.01-.12-.02-.18-.49-.8-1.57-1.34-2.23-1.97-1.12-1.06-2.24-2.15-3.15-3.4-.43-.6-.87-1.2-1.29-1.8-.01-.02.02-.02.09 0 .11.04.3.12.46.18.01 0 .02.01.03.02.13.06.23.1.18.08.79.36 1.54.72 2.41.72.03 0 .06 0 .08-.02 0 0 0 0 .01-.01s.02-.02.02-.04c0-.01 0-.02 0-.03v-.02c0-.04-.01-.09-.05-.12-1.8-1.62-3.38-3.32-4.9-5.21-.39-.49-.79-.99-1.09-1.55-.29-.53.08-.14.32.06 0 0 0 0 .01.01.02.02.05.04.06.05.57.37 1.03.68 1.68.82h.07.02c.05-.04.05-.14.01-.2-1.47-2.44-2.97-4.77-3.95-7.47-.02-.05-.06-.09-.11-.12-.01 0-.03-.01-.04-.02s-.03 0-.04 0-.03 0-.04 0-.03.01-.05.02c-.05.02-.09.06-.11.12-.51 1.42-1.18 2.74-1.9 4.02-.48.85-.98 1.68-1.49 2.52-.18.31-.37.61-.56.92-.05.08-.04.24.1.21.65-.13 1.12-.44 1.68-.82.23-.15.73-.71.4-.12-.3.55-.7 1.06-1.09 1.55-1.52 1.9-3.1 3.59-4.9 5.21-.1.09-.07.24.07.24.87 0 1.62-.36 2.41-.72-.14.06.84-.39.77-.29-.42.6-.85 1.2-1.29 1.8-.9 1.25-2.03 2.34-3.15 3.4-.66.63-1.75 1.17-2.23 1.97-.06.11-.06.24.08.27.84.22 1.57.08 2.39-.17.28-.08.64-.22.9-.35.35-.13.65-.33.91-.61-.22.23-.44.46-.67.67-1.03 1.01-2.12 1.94-3.27 2.8-.84.63-1.84 1.03-2.67 1.66-.11.08-.27.42 0 .43 1.47.04 3.11-.32 4.63-.94-.23.22-.47.44-.71.65-.91.8-1.9 1.47-2.88 2.16-.41.29-.55.23-.83.58-.09.11-.07.33.1.35 2.11.22 4.23 0 6.24-.66 0 0-.01 0-.01.01z"/></svg>