<svg viewBox="0 0 26.19 32.25" xmlns="http://www.w3.org/2000/svg"><path d="m6.02 18.15c.08.05.15.07.22.07.04.06.09.1.17.09.15 0 .25-.1.31-.21.02.01.03.02.05.04.02.06.06.11.09.17.02.16.08.26.25.27.28.01.43-.21.53-.52.04 0 .08-.01.12-.02.05.09.12.14.23.12.02 0 .05-.02.07-.02v.02c.02.1.13.13.21.1.16-.06.27-.17.36-.3.02.14.08.26.22.28.06.01.1 0 .14 0 .01.1.05.19.1.28-.02.09-.02.18-.02.27 0 .13.1.2.22.19.15-.01.28-.08.39-.18.02.04.04.08.08.11.05.05.14.08.21.04.1-.06.18-.14.25-.23.19.54.39 1.06.62 1.57.6 1.33 1.19 2.49 1.29 4.09.05.7.01 1.41-.01 2.11s.03 1.38.04 2.08c.04 1.47-.49 2.54-1.08 3.68h3.66c-.09-.62-.21-1.23-.28-1.86-.09-.82-.02-1.65-.01-2.47.01-.77.1-1.52.02-2.29-.09-.76-.33-1.64-.02-2.33.26-.57.64-1.06.95-1.59.3-.53.54-1.13.73-1.75.02-.07.04-.13.05-.19.2-.04.34-.26.43-.51 0 0 .02-.01.03-.02.02-.04.04-.08.06-.12h.06c.22-.05.35-.23.43-.45.05 0 .1-.01.17-.04.19-.08.28-.23.33-.41 0-.01.01-.02.02-.03.09 0 .19-.04.28-.11.19-.06.31-.26.39-.52.05 0 .09-.01.13-.03.05.09.12.15.23.13.03 0 .05-.02.07-.02v.02c.02.11.13.14.22.1.17-.06.28-.18.38-.31.03.15.09.27.23.3h.15c.02.12.06.24.15.35.06.08.18.06.23-.02.07-.11.12-.23.16-.35.03.01.07.02.11.02.17 0 .32-.13.45-.3.03.16.12.29.35.3.22 0 .38-.21.46-.46 0 0 .02-.01.02-.02.02-.04.04-.07.05-.11h.06c.19-.04.31-.21.38-.4.05 0 .1-.01.15-.04.17-.07.25-.21.29-.37 0 0 .01-.02.01-.03.1 0 .19-.04.28-.13.08-.07.11-.15.12-.24.05.04.15 0 .12-.07-.03-.1-.07-.19-.11-.27.02-.03.03-.07.05-.11.02-.01.05-.03.06-.06.02-.11.02-.23 0-.35.09-.07.14-.2.14-.35.04 0 .09.02.15.02.11 0 .17-.09.16-.19-.02-.15-.06-.3-.12-.43 0 0 0-.02 0-.03-.04-.35-.19-.63-.42-.85.06-.05.12-.12.18-.2.03.17.13.31.37.32s.4-.23.49-.5c.01 0 .02-.01.03-.02.02-.04.04-.08.06-.12h.06c.21-.04.34-.23.41-.43.05 0 .1-.01.16-.04.18-.08.27-.23.31-.4 0-.01.01-.02.02-.03.1 0 .21-.05.3-.14.08-.08.12-.17.12-.26.05.05.16 0 .13-.07-.03-.1-.08-.2-.12-.3.02-.04.04-.08.05-.12.03-.01.05-.04.06-.06.03-.13.03-.25 0-.37.1-.08.15-.21.15-.38.05 0 .1.02.15.02.11 0 .19-.09.17-.2-.02-.17-.06-.32-.12-.46 0-.01 0-.02 0-.03-.06-.51-.34-.9-.74-1.14.02-.04 0-.09-.04-.1-.03 0-.06 0-.08-.01 0-.01 0-.02 0-.04-.03-.15-.15-.21-.31-.21-.03 0-.05 0-.08-.01 0-.01 0-.02 0-.04-.04-.19-.23-.23-.46-.2.01-.02.03-.04.04-.06.02-.06-.03-.13-.09-.13-.09 0-.17 0-.26.02 0-.07 0-.14-.04-.2-.08-.11-.19-.12-.31-.1 0-.03-.01-.06-.03-.09.06-.09.09-.2.06-.33.1-.01.18-.06.21-.18.03-.11.01-.2-.03-.27-.04-.12-.08-.24-.14-.35-.11-.03-.23-.07-.24-.08-.02-.01-.04-.02-.06-.02-.01-.03-.03-.07-.04-.1-.1-.02-.22-.07-.23-.07-.07-.04-.14-.01-.17.04-.1 0-.16.14-.11.24-.02-.01-.03-.02-.05-.04-.06-.04-.12-.06-.18-.07-.03-.04-.08-.09-.13-.13-.21-.14-.5-.05-.79.14-.03 0-.07 0-.11 0 .12-.09.23-.21.3-.36.02-.04.02-.11-.03-.13-.08-.04-.16-.06-.25-.07 0-.04 0-.08-.04-.1t0 0c.07-.08.12-.17.15-.28.01-.06 0-.15-.09-.17-.06-.01-.13-.02-.19-.02 0-.06-.02-.12-.09-.13-.07-.02-.15-.02-.22-.03.13-.1.25-.2.35-.33.06-.07 0-.17-.07-.19-.06-.02-.12-.04-.19-.04.03-.08-.03-.16-.11-.16-.04 0-.1 0-.15 0 0-.06-.05-.13-.11-.13-.12 0-.3.02-.49.06 0-.06 0-.11 0-.15-.02-.07-.08-.12-.15-.1-.03 0-.05.01-.08.02 0 0 0-.02 0-.03.02-.07.03-.14.03-.21 0-.1-.11-.19-.21-.13 0 0-.02.01-.03.02 0-.08-.07-.14-.14-.13-.09-.07-.2-.12-.32-.16-.1-.06-.22-.11-.35-.13.03-.12-.14-.22-.26-.24 0 0-.01-.01-.02-.02-.02-.02-.03-.04-.06-.07-.02-.03-.05-.04-.08-.07.05-.1.05-.21-.04-.32-.06-.07-.13-.1-.22-.1-.06-.05-.15-.07-.24-.06-.06-.09-.13-.13-.22-.13-.07-.06-.15-.07-.24-.05-.03-.02-.06-.05-.11-.07-.03-.01-.06-.02-.1-.02-.02-.01-.03-.02-.05-.03-.07-.03-.15-.03-.23 0 0-.08-.03-.15-.11-.19-.04-.02-.08-.03-.13-.04-.13-.07-.26-.06-.38-.01-.01 0-.02-.01-.03-.01 0 0-.02 0-.03 0 0 0-.01-.02-.02-.02-.01-.04-.03-.07-.08-.09-.03 0-.05-.02-.08-.02 0 0-.02-.01-.03-.02-.05-.02-.09-.02-.14-.03 0-.07-.03-.14-.15-.19-.02 0-.04-.01-.06-.02.02-.07.04-.14.03-.21 0-.07-.06-.13-.13-.11-.02-.02-.05-.03-.09-.02-.06.01-.13.03-.21.06.1-.3.12-.6-.17-.65-.05 0-.09 0-.14 0-.27-.02-.44.2-.5.46 0 0-.01 0-.02 0-.02-.03-.06-.05-.1-.05-.02-.01-.05-.02-.08-.02-.03-.04-.07-.07-.13-.1-.01 0-.03 0-.04 0s0 0 0 0c-.01 0-.03 0-.05 0-.04-.09-.08-.17-.15-.24-.03-.04-.08-.05-.13-.05s-.11.02-.14.07c-.02.03-.03.07-.05.1-.02 0-.04 0-.08 0-.08 0-.15.04-.22.1 0-.01 0-.02 0-.03-.01-.04-.04-.07-.08-.08-.03-.01-.07-.01-.11.02-.08.07-.14.14-.17.21-.02-.09-.11-.13-.19-.07s-.15.15-.19.23c-.02 0-.03 0-.05 0-.06.02-.11.05-.16.08-.02-.03-.04-.06-.06-.08-.06-.05-.16-.08-.22 0s-.01 0-.02.01c-.07.08-.14.16-.19.26-.02.02-.03.04-.04.06-.04-.01-.08 0-.12 0-.02-.08-.04-.15-.08-.23-.04-.09-.14-.09-.2-.04-.04.01-.08.04-.1.08 0 .02-.02.05-.03.07-.03 0-.05.02-.08.03 0 0 0 0-.02 0-.11-.2-.26-.32-.46-.24-.06.01-.12.04-.19.09s-.11.1-.14.17c-.03.01-.07.03-.11.06-.05.04-.08.07-.1.12-.05-.01-.1-.02-.15-.01-.12-.2-.29-.32-.51-.24-.04 0-.08.01-.12.03-.19.08-.24.23-.22.4-.02 0-.05.02-.07.03-.05 0-.11.02-.16.06-.03.02-.05.04-.07.07-.01 0-.03 0-.04 0-.07 0-.13.03-.17.05-.15.03-.23.09-.25.18-.06 0-.11.02-.15.05-.1 0-.18.05-.23.16-.07.16-.04.29.03.4-.1.03-.17.1-.18.2-.18.05-.33.1-.39.15-.09.03-.16.06-.19.09-.08.07-.06.18.02.24.02.02.05.03.08.05 0 0 0 0-.01 0-.06.02-.11.05-.16.1 0 0 0 0-.01 0-.1.04-.2.11-.26.2-.04-.04-.08-.06-.14-.07-.13-.03-.22.02-.28.1-.13 0-.21.08-.26.2-.08.02-.16.06-.23.12-.06.01-.12.04-.17.08-.14-.19-.33-.28-.59-.11-.01 0-.02.02-.03.03-.07.01-.14.04-.22.09-.09.06-.15.13-.19.22-.09.02-.15.07-.19.13-.12-.04-.25-.03-.39.06-.03.02-.05.04-.08.06-.07 0-.14.03-.21.07-.14.09-.19.19-.19.29-.1-.02-.17.05-.17.13-.01 0-.03.02-.04.03-.03 0-.06-.01-.08-.02-.1-.02-.17.05-.17.13-.01.01-.03.02-.04.04-.07.07-.04.22.08.21h.13c.01.02.02.03.04.04-.02.06 0 .12.02.18-.15 0-.29.04-.41.13-.25.02-.49.11-.7.23-.03.01-.05.04-.06.06-.1.04-.19.08-.28.13-.14.07-.11.26.02.32.05.02.09.03.14.04-.17.04-.33.11-.44.23-.3.09-.51.28-.56.66 0 .05.02.1.05.13-.17.12-.31.27-.26.49.04.21.19.29.38.32-.15.1-.28.22-.38.4-.05.09-.03.2.06.25.02.01.05.03.08.04v.12c.03.15.12.23.23.28-.18.08-.34.19-.49.34 0 0 0 .02-.01.02-.14.08-.27.17-.38.29-.05.05-.04.12.01.17-.08.04-.14.09-.18.18-.02.05-.02.1-.01.14-.03-.02-.07-.04-.12-.02-.14.04-.22.09-.28.22-.05.09-.01.18.06.23 0 0-.02 0-.03 0-.15.04-.23.1-.3.23-.06.11 0 .23.1.26 0 .07.03.15.09.18-.04.08-.04.17.05.27.05.06.14.09.23.1-.07.1.02.23.13.23h.05c.05.07.14.11.22.06h.01c-.02.08 0 .14.04.19-.04.06-.08.12-.12.18-.05.1 0 .25.13.25.17 0 .33-.07.48-.15 0 .02 0 .04.01.06-.1.17-.17.36-.19.56-.01.11.1.2.21.18.01 0 .02 0 .04-.01-.08.2-.13.42-.13.63 0 .12.1.2.21.18.14-.02.27-.08.38-.17.02.04.04.08.07.11.05.05.14.07.2.04.11-.07.21-.16.28-.27.02.01.03.02.06.02h.15c.03.15.1.29.23.34.03.01.06.02.08.02v.02c0 .16.06.36.15.48-.02.02-.04.06-.06.09-.05.1 0 .2.09.23 0 .06.02.13.08.16-.04.07-.03.15.04.24.05.05.13.08.2.09-.06.09.02.2.11.21h.05c.04.06.12.1.2.05h.01c-.02.06 0 .12.04.16-.04.05-.07.1-.11.17-.05.09 0 .23.12.22.15 0 .29-.06.42-.13v.06c-.09.15-.15.32-.17.5-.01.1.09.18.19.16.01 0 .02 0 .03-.01-.07.18-.11.37-.11.56 0 .11.09.17.19.16.13-.01.24-.07.34-.15.02.04.04.07.06.1.04.04.12.07.18.03.1-.06.18-.15.25-.24.01 0 .03.01.05.01h.13c.02.13.08.25.2.3.02.01.05.01.07.01v.02c0 .18.08.42.21.49h.01zm6.47 2.55c-.07-.18-.14-.35-.21-.53.33.02.5-.25.62-.6.05 0 .1-.02.15-.03.05.1.13.17.26.15.03 0 .06-.02.08-.03v.03c0 .03.02.06.04.08-.34.63-.61.91-.85.87-.03 0-.05 0-.06.03 0 .01-.01.03-.02.04 0 0 0 0-.01 0zm2.7-1.58c.07-.01.14-.04.21-.09.03-.02.06-.04.09-.06.03.03.05.06.08.09-.06.09-.12.17-.19.25-.1-.01-.16-.03-.2-.06 0-.04 0-.09.01-.13zm-.16 1.81s-.06.09-.09.13c-.11.06-.21.16-.31.26-.06.06-.11.11-.17.16-.12.09-.19.16-.23.21.14-.48.28-.96.42-1.44 0-.02 0-.04.01-.05.07.05.18.03.23-.05.08-.12.13-.26.17-.39.04 0 .08.02.12.02.19.01.36-.14.49-.33.02.09.05.17.11.23-.05.17-.1.34-.16.5-.24.18-.42.47-.61.76zm4.51-4.2s.02.03.03.04v.02c-.04.07-.09.08-.1-.08.03 0 .06 0 .08.02zm-.24-13.56s-.08 0-.12 0c0 0 0 0-.01 0zm3.45 9.65s0-.03 0-.04c.04-.03.07-.07.1-.11.02 0 .04-.01.07-.02.02.06.04.12.08.16-.02.03-.04.06-.07.09-.07 0-.12-.02-.15-.04-.01-.02-.02-.03-.03-.04zm-4.42-10.6s0-.01-.01-.02h.03s0 .02-.01.02zm-2.96-1.98s.02.16-.02.27c-.02 0-.04-.01-.06-.01-.04 0-.08 0-.12.02-.02-.01-.04-.02-.06-.03.05-.11.14-.24.23-.26.01 0 .02 0 .03.02zm-5.31.86s.01.01.02.02c-.02.02-.04.04-.06.07-.03 0-.06-.02-.09-.02 0-.02.03-.04.06-.06h.07zm-1.8 2.02s-.01.02-.01.02c-.02.06-.02.11-.02.16-.08.01-.15.02-.23.02 0 0-.01 0-.02 0-.08-.03-.16-.03-.24-.02-.03-.03-.01-.07.02-.1.15-.05.33-.07.49-.07zm-1.99 14.91c-.17 0-.06-.28.08-.28.18 0 .06.28-.08.28zm2.67-.11s-.04-.06-.04-.18c.01-.02.02-.05.03-.08h.02c.01.02.03.04.04.06-.02.07-.03.13-.05.2zm1.54.9s-.04-.09-.06-.13h.03c.03.15.1.29.23.35.03.01.06.02.09.02v.03c0 .13.04.27.1.39-.14-.21-.27-.42-.39-.66zm.47.77s.04.05.07.07v.05c-.03-.04-.05-.08-.08-.11zm6.34-1.57s0 .02 0 .03c0 .06-.01.11-.03.17-.02.07-.12.17-.2.12-.05-.03-.09-.06-.11-.11.03-.06.07-.12.09-.18.05 0 .1-.01.16-.04.03-.02.06-.04.1-.06v.03.04zm.94-.98s-.05-.02-.07-.04v-.02c.05 0 .09-.01.12-.03.01.03.03.05.05.07-.04.02-.08.04-.12.02zm2.15.22c0-.05 0-.1 0-.15.09 0 .18-.03.26-.1.02.03.05.06.08.08-.05.08-.1.15-.16.23-.09-.01-.15-.03-.18-.06zm5.19-7.42c-.04.06-.09.09-.15.09.01-.05.03-.11.03-.17.04 0 .08.01.14.02 0 .02 0 .05-.02.07zm-19.53-6.01s0 0 0 0c-.03-.05-.06-.09-.09-.13 0 0 .01 0 .02.01.03.03.05.07.08.11zm-4.22 9.16c-.02.07-.03.14-.05.2v-.02c-.04-.06 0-.14.05-.18zm1.3.64s-.02-.02-.03-.04c-.05-.04-.03-.11 0-.16.03.09.09.16.16.21-.04.02-.09.03-.13-.01zm.45.96s.02.03.04.04c-.01.02-.02.04-.02.06 0-.03-.01-.07-.02-.1zm.13.31s0 0 0 0h.01zm2.12 2.15c-.03-.05-.05-.12-.03-.19 0 0 0 0 0-.01.03.08.08.16.16.19h.05c-.06.05-.15.08-.19 0z"/></svg>