<svg viewBox="0 0 28.3 32.26" xmlns="http://www.w3.org/2000/svg"><path d="m.02 13.26s0 0 0 0c.01.02.03.03.05.04v.04s0 .03 0 .03v.03.02s.02.02.03.03c0 0 0 0 .01.01.02.01.04.02.07.02.06 0 .12.02.18.01-.07.06-.11.14-.12.23 0 .06.02.14.08.17.07.03.14.05.21.05-.03.1-.01.2.09.23.06.02.11.04.17.04s.12-.02.18-.02c.08 0 .15.03.23.02 0 .06.03.12.08.17.06.07.14.11.22.13-.03.09-.03.18.06.26.11.1.26.11.42.09.06.15.23.17.41.14.12-.02.23-.06.34-.11.01 0 .02.01.03.02.12.05.25.02.37-.04.04.02.08.03.12.04 0 0-.01 0-.02 0 .02 0 .04 0 .06.01.03 0 .06.01.09.02h.13c.03.03.07.06.1.09.19.14.38.18.61.21.21.02.43 0 .64.05.24.06.44.2.69.23h.29c.11 0 .22.05.32.07.12.03.16.04.24.13.04.04.1.07.16.08 0 .07 0 .13.01.2 0 .09 0 .16.04.23 0 .08-.02.17-.02.25 0 .47 0 4.41.03 4.87.03.45-.08 5.05-.08 5.5 0 .42 0 2.35-.03 2.77-.04.41.04.82.08 1.22.01.14.02.28.02.42v.17c0 .12.05.39-.07.48-.13.09-.3.18-.4.3.19-.02.38-.05.56-.07.05-.04.1-.08.14-.14.01.04.03.08.05.11.08-.01.15-.02.23-.03.03-.04.05-.1.02-.14-.05-.1-.03-.27-.03-.37 0-.17.01-.34.03-.51.04-.34-.07-.66-.08-1-.01-.35 0-.69-.01-1.04-.02-.37-.13-2.24-.09-2.61.03-.32.16-4.81.24-5.13.03-.14.07-3.76.06-3.9-.01-.15-.09-.29-.12-.44-.05-.31-.02-.64 0-.95 0-.18.14-.31.3-.42.03-.01.05-.02.08-.03.1-.03.19-.07.27-.13.07.02.13 0 .2-.05.15-.09.32.01.46.1.13.08.25.17.4.18.03 0 .06 0 .08-.01.12.02.28 0 .39-.03.11-.02.19-.02.3 0 .06.02.11.02.16 0 .06.02.13.04.19.05.14.01.27-.06.41-.04.17.02.35.03.51-.03.02 0 .03-.02.04-.03.07.02.14.06.21.03.08-.03.16-.07.23-.11 0 .83.01 1.55.03 1.73.03.45-.08 5.05-.08 5.5 0 .42 0 2.35-.03 2.77-.04.4.04.82.08 1.22 0 .1.01.19.02.29v.13.17c0 .12.05.39-.07.48-.13.09-.3.18-.4.3.19-.02.37-.05.56-.07.05-.04.1-.08.14-.14.01.04.03.08.05.11.08-.01.15-.02.23-.03.03-.05.05-.1.02-.14-.05-.1-.03-.27-.03-.37 0-.17.01-.34.03-.51.04-.34-.07-.66-.08-1-.01-.35 0-.69-.01-1.04-.02-.37-.13-2.24-.09-2.61.03-.32.16-4.81.24-5.13.02-.07.04-1.02.05-1.96.05-.01.1-.02.15-.03 0 0-.01.02-.02.02-.04.08-.07.15-.03.23.03.07.12.11.19.1.17-.04.32-.08.47-.16.09-.05.15-.13.16-.23.15 0 .3-.01.45-.01h.07c.05.03.12.04.18.02h.14c-.01.71-.03 1.27-.03 1.42 0 .42 0 2.35-.03 2.77-.04.41.04.82.08 1.22v.04c.02.67.01 8.61.02 9.93v.17c0 .12.05.39-.07.48-.13.09-.3.18-.41.3.19-.02.37-.05.56-.07.05-.04.1-.08.14-.14.01.04.03.08.05.11.08-.01.15-.02.23-.03.03-.04.05-.1.02-.14-.05-.09-.03-.26-.03-.37 0-.17.01-.34.03-.51.04-.34-.07-10.22-.08-10.56-.01-.35 0-.69-.01-1.04-.01-.37-.13-2.24-.09-2.61.01-.11.03-.71.06-1.47.02 0 .04 0 .06-.02.16-.07.28-.21.35-.37.09-.21.09-.48-.08-.62-.03-.14-.14-.16-.26-.12-.01-.01-.02-.02-.03-.03 0-.24.02-.48.03-.72.05 0 .11-.02.16-.02.08 0 .15.02.23.02 0 .06.03.12.08.17.06.07.14.11.22.13-.03.09-.02.18.06.26.11.1.26.11.42.09.06.15.23.17.41.14.12-.02.23-.06.34-.11.01 0 .02.01.03.02.12.05.25.02.37-.04.04.02.08.03.13.04 0 0-.01 0-.02 0 .02 0 .04 0 .06.01.03 0 .06.01.09.02h.13c.03.03.07.06.1.09.19.14.38.18.61.21.21.02.43 0 .64.05.24.06.44.2.69.23h.29c.11 0 .22.05.32.07.12.03.16.04.24.13.04.05.1.07.16.08 0 .07 0 .13.01.2 0 .1 0 .16.04.23 0 .08-.01.17-.01.25 0 .47 0 4.41.03 4.88.03.45-.08 5.05-.08 5.5 0 .42 0 2.35-.03 2.76-.04.41.04.82.08 1.22.01.14.02.28.02.42v.18c0 .12.05.39-.07.48-.13.09-.3.18-.4.3.19-.02.37-.05.56-.07.05-.04.1-.08.14-.14.01.04.03.08.05.11.08 0 .16-.02.23-.03.03-.05.05-.1.02-.14-.05-.09-.03-.27-.03-.37 0-.17.01-.34.03-.51.04-.34-.07-.66-.08-1.01s0-.69-.01-1.04c-.01-.37-.13-2.24-.09-2.61.03-.32.16-4.81.24-5.13.03-.14.08-3.76.06-3.9-.01-.15-.09-.29-.12-.44-.05-.31-.02-.64 0-.95 0-.18.14-.31.3-.42.03 0 .05-.02.08-.03.1-.03.19-.07.27-.13.07.02.13 0 .2-.05.16-.09.32.01.46.1.12.08.25.17.4.18.03 0 .06 0 .08-.01.12.02.27 0 .39-.03.11-.02.19-.02.3 0 .06.02.11.02.16 0 .06.02.13.04.19.05.14.01.26-.06.41-.04.17.02.35.03.51-.03.01 0 .03-.02.04-.03.07.02.14.06.21.03.18-.07.36-.17.52-.28.16-.1.34-.11.52-.15 0 0-.01.02-.02.02-.04.07-.07.15-.03.23.03.07.12.11.19.1.17-.04.32-.08.47-.16.09-.05.15-.13.16-.23.15 0 .3-.01.45-.01h.07c.05.03.12.04.18.02.08 0 .17.01.26-.02.15-.05.29-.3.24-.44.05 0 .11-.02.16-.04.16-.07.28-.21.35-.37.09-.21.09-.48-.08-.62-.02-.14-.14-.16-.26-.12-.03-.03-.07-.05-.1-.08-.04-.04-.08-.07-.13-.09 0-.01 0-.02-.01-.04-.02-.07-.04-.13-.09-.19.14-.16.16-.37.02-.55-.03-.04-.06-.06-.1-.08 0 0-.01 0-.02-.01-.04-.02-.08-.03-.12-.03-.13-.01-.28.02-.38.08-.13.08-.22.18-.32.28-.01-.06-.05-.11-.1-.15-.02-.05-.03-.1-.05-.15 0-.01.02-.03.02-.04s.03-.06.04-.09c0 0 0-.01 0-.02.01-.03.02-.05.02-.08 0 0 0-.01 0-.02 0-.03 0-.06-.02-.09-.01-.03-.03-.06-.07-.09-.12-.11-.32-.15-.48-.18-.06-.01-.11-.02-.16-.01-.15.01-.28.09-.35.24-.01.03-.02.06-.02.08-.02-.01-.05-.02-.07-.03.01-.03.02-.06.02-.09.03-.12 0-.25-.07-.35-.13-.16-.35-.09-.46-.22-.05-.06-.08-.16-.12-.23-.06-.1-.13-.17-.23-.23-.03-.02-.06-.03-.1-.04-.01 0-.02 0-.03 0-.03 0-.06 0-.09 0-.12.03-.24.11-.32.19s-.02.02-.03.03c-.07.08-.13.17-.19.26 0 0-.01.02-.02.02-.02-.01-.03-.02-.05-.04-.01 0-.02-.01-.03-.02-.01 0-.03-.01-.05-.02-.03-.02-.07-.03-.1-.05-.05-.02-.1-.04-.15-.05-.11-.03-.22-.07-.33-.07s-.2-.05-.31-.04c-.07.01-.18.09-.24.03-.05-.05-.07-.13-.09-.19-.03-.08-.08-.15-.12-.22-.03-.05-.06-.08-.07-.14 0-.05 0-.1-.03-.14-.1-.22-.29-.12-.47-.15-.1-.02-.19-.1-.28-.14-.1-.05-.2-.06-.31-.05-.22 0-.47.23-.59.4-.03.04-.06.09-.08.14-.01 0-.03 0-.04 0-.17-.03-.33 0-.45.14-.07.08-.1.15-.1.26v.02c-.03-.05-.07-.09-.12-.11-.07-.04-.14-.06-.22-.08-.02 0-.05 0-.07 0-.02-.04-.04-.07-.07-.1-.02-.13-.13-.16-.25-.13-.02-.03-.05-.06-.07-.09-.05-.05-.11-.08-.17-.1 0 0 0-.01 0-.02-.02-.07-.04-.13-.09-.19.14-.16.16-.37.02-.55-.03-.04-.06-.06-.1-.08 0 0-.01 0-.02-.01-.02-.01-.05-.02-.08-.02t0 0s-.02 0-.04 0c0 0 0 0-.01 0s-.07 0-.1 0-.06 0-.09.02c-.03 0-.06.02-.08.02h-.01c-.03.01-.06.02-.08.04-.12.08-.22.18-.32.28-.01-.05-.04-.11-.1-.14 0 0 0-.01 0-.02-.02-.04-.03-.09-.04-.14.02-.03.03-.06.05-.09 0-.01 0-.02.01-.03 0 0 0 0 0-.01 0-.02.01-.04.01-.05v-.02s0 0 0-.01 0 0 0-.01 0-.05-.01-.07 0 0 0 0 0 0 0-.01-.01-.03-.02-.04c-.01-.02-.03-.03-.05-.05-.12-.11-.32-.15-.47-.18-.05-.01-.11-.02-.16-.01s0 0 0 0c-.04 0-.09.01-.13.03-.01 0-.02.01-.03.02-.03.01-.06.03-.08.05-.01 0-.02.02-.03.03-.03.03-.06.07-.08.12-.01.03-.02.06-.02.08-.02 0-.05-.02-.07-.03.01-.03.02-.06.02-.09.03-.12 0-.25-.07-.35-.13-.16-.35-.09-.46-.22-.05-.06-.08-.16-.12-.23-.05-.1-.13-.17-.23-.23-.03-.02-.07-.03-.1-.04 0 0-.02 0-.03 0 0 0-.01 0-.02 0s-.01 0-.02 0-.04 0-.07 0c-.06.01-.12.04-.17.07 0 0 0 0-.01 0-.02.02-.05.03-.07.05-.02.02-.04.04-.06.06 0 0-.02.02-.03.03-.03.04-.07.08-.1.13v.01c-.03.04-.05.08-.08.12 0 .01-.01.02-.02.03-.01-.01-.03-.03-.05-.04-.01 0-.02 0-.03-.02-.01 0-.03-.01-.05-.02-.03-.02-.06-.03-.09-.04-.05-.02-.1-.04-.15-.05-.04-.01-.09-.02-.14-.04 0-.05 0-.08 0-.09-.01-.15-.09-.29-.12-.44-.05-.31-.02-.64 0-.95 0-.18.14-.31.3-.42.03 0 .05-.02.08-.03.1-.03.19-.07.27-.13.07.02.13 0 .2-.05.16-.09.32.01.46.1.12.08.25.17.4.18.03 0 .06 0 .08-.01.12.02.28 0 .39-.03.11-.02.19-.02.3 0 .06.02.11.02.16 0 .06.02.13.04.19.05.14.01.26-.06.41-.04.17.02.35.03.51-.03.01 0 .03-.02.04-.03.07.02.14.06.21.03.18-.07.36-.17.52-.28.04-.03.09-.05.14-.07.02 0 .03-.01.05-.01l.12-.03c.03 0 .05-.01.08-.02.04 0 .07-.01.11-.02h.02s-.01.02-.01.02c-.04.07-.07.15-.03.23.03.07.12.11.19.1.17-.04.32-.08.47-.16.09-.05.15-.13.16-.23.15 0 .3 0 .45-.01h.07c.05.03.12.04.18.02.08 0 .16.01.26-.02.15-.05.29-.3.24-.44.05 0 .11-.02.16-.04.16-.07.28-.21.35-.37.09-.21.09-.48-.08-.62-.03-.14-.14-.16-.26-.12-.03-.03-.07-.05-.1-.08-.04-.04-.08-.07-.12-.09 0-.01 0-.02-.01-.04-.02-.07-.05-.13-.09-.19.14-.16.16-.37.02-.55-.02-.02-.04-.04-.06-.06s-.01 0-.02-.01-.02 0-.02-.01c0 0-.01 0-.02-.01-.01 0-.02 0-.03-.01h-.02c-.02 0-.04-.01-.06-.01s-.01 0-.01 0c-.03 0-.06 0-.09 0s-.06 0-.09.02h-.01c-.03 0-.05.01-.07.02 0 0-.01 0-.02 0-.03.01-.05.02-.08.04-.13.08-.22.18-.32.28-.01-.06-.04-.11-.1-.15s-.03-.1-.05-.15c0-.01.02-.03.02-.04s.01-.02.01-.03c0 0 0-.02.01-.02s0-.01 0-.02 0 0 0-.01c0 0 0-.01 0-.02s0 0 0 0 0-.01 0-.02 0-.02 0-.03 0-.01 0-.02v-.02s0-.02 0-.03 0-.02 0-.03 0-.02 0-.02v-.01s0 0 0 0-.03-.05-.05-.07c-.12-.11-.32-.15-.48-.18-.05-.01-.11-.01-.16-.01s-.09.02-.13.03c-.01 0-.02.01-.03.02-.03.02-.06.03-.08.05-.01 0-.02.02-.03.03-.03.03-.06.07-.08.12-.01.03-.02.06-.02.08-.02 0-.05-.02-.07-.03 0-.03.02-.06.02-.09.03-.12 0-.25-.07-.35-.13-.16-.35-.09-.47-.22-.05-.06-.08-.16-.12-.23-.06-.1-.13-.17-.23-.23-.03-.02-.06-.03-.09-.03s0 0-.01 0c0 0-.02 0-.03 0h-.01-.02s-.05 0-.07 0c-.06.01-.12.04-.18.07-.03.02-.05.03-.07.05-.02.02-.04.04-.06.06s0 0 0 0c-.01 0-.02.02-.03.03-.04.04-.07.08-.1.13-.03.04-.06.09-.09.13 0 0-.01.02-.01.02-.02-.01-.03-.03-.05-.04-.01 0-.02-.01-.03-.02-.01 0-.03-.01-.05-.02-.03-.02-.06-.03-.1-.04s-.1-.04-.15-.05c-.11-.03-.22-.07-.33-.07s-.19-.05-.31-.04c-.07.01-.18.09-.24.03-.05-.04-.07-.13-.09-.19-.03-.08-.08-.15-.12-.22-.03-.05-.06-.07-.06-.14 0-.04 0-.09-.03-.14-.1-.22-.29-.12-.47-.15-.1-.02-.19-.1-.28-.14-.1-.05-.2-.06-.31-.05-.22 0-.47.23-.59.4-.03.04-.06.09-.08.14-.01 0-.03 0-.04 0-.17-.03-.33 0-.45.14-.07.08-.11.15-.1.26v.02c-.03-.05-.07-.08-.12-.11-.07-.04-.14-.06-.22-.08-.09-.02-.2 0-.29-.03.02 0-.03-.07-.04-.1-.03-.07-.08-.14-.13-.19-.13-.13-.33-.15-.5-.14-.07 0-.14.04-.21.03-.08 0-.15-.01-.23-.02-.17 0-.38.03-.5.16-.09.1-.12.19-.27.14-.18-.06-.33-.08-.51-.03-.14.04-.32.16-.43.26-.07.06-.11.14-.12.23-.02.02-.05.05-.07.08-.03.05-.02.13.06.12h.03c-.03.02-.06.03-.09.05-.13-.04-.26-.08-.39-.09-.03 0-.06 0-.09 0-.11-.04-.23-.04-.35.02-.12.07-.21.19-.25.32 0 .03-.02.06-.02.08-.03 0-.06.02-.09.04-.12.08-.2.21-.24.35-.03.09 0 .1-.08.14-.1.04-.19.05-.3.06-.08 0-.17.01-.26.02s0 0 0 0c-.05 0-.09.02-.14.03 0 0 0 0-.01 0-.05.01-.09.03-.13.05-.1.05-.18.13-.22.24-.01.04-.01.07 0 .1-.02.01-.04.03-.06.05 0 0 0 0-.01.01-.02.02-.03.04-.04.06-.02.05-.03.1 0 .14s0 0 0 0 0 0 .01.01.02.02.04.03c0 .01 0 .02-.01.04v.01.02.03.02s0 0 0 0 .01.01.02.02c0 0 0 0 .01.01s0 0 0 0 .04.02.06.02c.06.01.12.02.18.02-.06.06-.11.14-.12.23 0 .06.02.14.08.17.07.03.14.05.21.05-.03.1-.01.2.09.24.06.02.11.04.17.04s.12-.02.18-.02c.08 0 .15.03.23.02 0 .06.03.12.08.18.06.06.14.11.22.13-.03.09-.03.18.06.26.11.1.27.11.42.09.06.15.23.17.41.14.12-.02.23-.06.34-.11 0 0 .02.01.03.02.12.05.25.02.37-.04.03.02.07.03.11.05h.02s.07.02.1.02h.02.02.04.02s.03 0 .05 0h.02s.06.06.1.08c.19.14.38.19.61.21.21.02.43 0 .64.05.24.06.44.2.69.23h.28c.11 0 .22.05.32.07.12.03.16.04.25.13.04.05.1.07.16.08 0 .07 0 .13.01.2 0 .09 0 .16.04.23 0 .08-.01.17-.01.25v.99c-.03 0-.05 0-.07-.02-.05-.05-.07-.13-.09-.19-.03-.08-.08-.15-.12-.22-.03-.05-.06-.08-.07-.14 0-.05 0-.1-.03-.14-.1-.22-.29-.12-.47-.15-.1-.02-.19-.1-.28-.14-.1-.05-.2-.06-.31-.05-.22.01-.47.23-.59.39-.03.04-.06.09-.08.14-.01 0-.02 0-.04 0-.17-.03-.33 0-.45.14-.07.08-.11.15-.1.26v.02c-.03-.05-.06-.08-.12-.11-.07-.03-.14-.06-.22-.08-.1-.02-.2 0-.29-.03.02.01-.03-.07-.04-.1-.03-.07-.08-.14-.13-.19-.13-.13-.32-.15-.5-.14-.07 0-.14.03-.21.03-.08 0-.16-.02-.23-.02-.17 0-.38.03-.5.16-.09.1-.12.19-.27.14-.18-.06-.33-.08-.51-.03-.14.04-.31.17-.43.26-.07.06-.11.14-.12.23-.02.02-.05.05-.06.08-.03.05-.02.14.06.12h.03c-.03.02-.06.03-.09.05-.13-.04-.26-.08-.39-.09-.03 0-.06 0-.09 0-.11-.04-.23-.04-.35.03-.13.07-.21.19-.25.32 0 .03-.01.06-.02.08-.03 0-.06.02-.1.04-.12.08-.2.21-.24.35-.03.09 0 .1-.08.14-.1.04-.19.05-.3.06-.13 0-.28.02-.41.05-.05.01-.09.03-.13.05-.11.05-.18.13-.22.24-.01.04-.01.07 0 .1-.02.01-.04.03-.06.05v.01c-.02.02-.03.04-.05.06-.02.05-.03.1 0 .14s0 0 0 0c.01.02.03.03.05.04 0 .01 0 .02-.01.04v.02.03.02.01h.01s0 0 .01.01c.02.01.04.02.07.02.05.01.12.02.18.02-.06.06-.11.14-.12.23 0 .06.02.14.08.17.07.03.14.05.21.05-.03.1-.01.2.09.24.06.02.11.04.17.04s.12-.02.18-.02c.08 0 .15.02.23.02 0 .06.03.12.08.18.06.07.14.11.22.13-.03.09-.03.18.06.26.11.1.27.11.42.09.01.03.03.06.06.08-.15-.01-.28.02-.38.14-.07.08-.11.15-.1.26v.02c-.03-.05-.06-.09-.12-.11-.07-.03-.14-.06-.22-.08-.1-.02-.2 0-.29-.03.02 0-.03-.07-.04-.1-.03-.07-.08-.14-.13-.19-.13-.13-.33-.15-.5-.14-.07 0-.14.04-.21.03-.08 0-.16-.02-.24-.02-.17 0-.38.03-.5.16-.09.1-.12.19-.27.14-.18-.06-.33-.08-.51-.03-.14.04-.32.16-.43.26-.07.06-.11.14-.12.23-.03.02-.05.05-.07.08-.03.05-.02.14.06.12h.03c-.03.02-.06.03-.09.05-.13-.05-.26-.08-.39-.09-.03 0-.06 0-.09 0-.11-.04-.23-.04-.36.02-.12.07-.21.19-.25.32 0 .03-.01.06-.02.08-.03 0-.06.02-.09.04-.12.08-.2.21-.24.35-.03.09 0 .1-.09.14-.1.04-.19.05-.3.06-.08 0-.17.01-.25.02 0 0 0 0-.02 0-.1.01-.19.04-.28.08-.11.05-.18.13-.22.24-.01.04-.01.07 0 .1-.1.06-.17.18-.11.27t0-.01zm5.25-4.51s.01.02.02.03c.02 0 .05-.01.07-.02.03-.01.06-.02.1-.02-.06.02-.11.05-.17.06 0-.02-.01-.03-.02-.05zm7.98-4.61c-.05-.14-.07-.29-.08-.42.09-.03.17-.06.26-.09 0 0 0 0 .01.01.02.04.06.07.09.09 0 0 .01 0 .02.01.03.02.06.03.09.05 0 .03.02.07.03.1.06.14.05.22.02.36-.02.1-.04.22 0 .32.01.03.03.06.05.08v.02c-.14-.13-.3-.25-.42-.4-.02-.04-.04-.08-.05-.13zm-.7-.58s0 0 0 0c0 .01-.01.02-.01.03.02.06.06.14.03.2-.02.03-.05.05-.07.07-.05-.02-.1-.05-.14-.09-.01-.01-.02-.03-.03-.04-.02-.03-.05-.06-.07-.1 0 0 0 0 0-.01.03-.02.05-.03.07-.05.03-.02.06-.03.08-.05.05-.04.09-.08.14-.14h.03.04c-.02.05-.02.1-.02.15s-.02.01-.03.02zm-4.83-.96s.01.02.02.03c.02 0 .05-.01.07-.02.03-.01.06-.02.1-.02-.06.02-.11.05-.17.06 0-.02-.01-.03-.02-.05zm8.31 1.55s0 0 0 0c.01-.07.02-.14.02-.21.02-.01.03-.02.05-.03.01.03.03.06.06.08.02.02.05.04.08.05h.02c.03 0 .06.01.09.01-.06.02-.12.04-.18.05-.05 0-.09.02-.14.04zm-2.02-.01c.01-.09.01-.18-.03-.27.06.02.11.05.16.08-.05.06-.09.12-.13.19zm2.08-.43s-.01.08 0 .12v.02c-.01 0-.02.02-.03.02 0-.05 0-.1.01-.15h.02zm-1.69-.31s0 .04 0 .05c0 0-.01.02-.02.02-.03-.02-.06-.03-.09-.04.04-.01.08-.02.11-.03zm.35-.07s-.04-.01-.07-.01h-.01s.06-.01.09-.02v.02zm2.86 1.17s-.06 0-.09 0c0 0-.01 0-.02 0 0-.02 0-.05-.01-.07 0-.02 0-.03.01-.04.04.02.09.05.13.08 0 .01 0 .02-.01.03zm-6.85-.36s.04.03.06.04c-.03 0-.07 0-.1-.01.01-.01.03-.02.04-.03zm9.06-1.94s-.1-.07-.16-.09v-.02c.02 0 .04 0 .06.01.03 0 .06.02.09.02.01 0 .02 0 .03.01-.01.02-.02.04-.03.06zm-7.11 1.62s0-.03 0-.04 0-.02 0-.03c.01 0 .02 0 .03.01.02 0 .04.01.06.01h.04.06.04c.03 0 .06-.01.09-.02.01 0 .02 0 .03-.01v.19.19s0 0-.01-.01c-.12-.11-.24-.14-.38-.18 0-.01 0-.02-.01-.03.02-.03.03-.06.03-.08zm13.25 7.14s.04 0 .06.02c.03 0 .06.02.09.02 0 0 .02 0 .03.01-.01.02-.02.04-.03.06-.05-.04-.1-.07-.16-.09v-.02zm-6.01 1.81c.06.14.05.22.02.36-.02.1-.04.22 0 .32.01.03.03.06.05.08v.02c-.14-.13-.3-.25-.42-.4-.08-.16-.12-.39-.13-.56.09-.02.17-.05.26-.08v.01c.05.08.12.12.2.15 0 .03.01.07.03.1zm-.59.04s0 .12 0 .19c0 0 0 0-.01-.01-.12-.11-.24-.14-.38-.18 0-.01 0-.02 0-.03.03-.06.04-.11.02-.16.1.05.23.03.33 0 .01 0 .02 0 .03-.01v.2zm-.5-.13s-.05.05-.07.07c-.12-.05-.19-.14-.25-.25.11-.06.2-.13.29-.23h.03.04c-.02.05-.03.1-.02.15-.02 0-.05.03-.04.06.02.06.06.14.03.21zm-12.45 1.52c.06.14.05.22.02.36-.02.1-.04.22 0 .32.01.03.03.06.05.08v.02c-.14-.13-.3-.25-.42-.4-.08-.16-.12-.39-.13-.56.09-.02.17-.05.26-.08v.01c.05.08.12.12.2.15 0 .03.01.07.03.1zm-.59.04s0 .12 0 .18c0 0 0 0-.01-.01-.12-.11-.24-.14-.38-.18 0-.01 0-.02 0-.03.03-.06.04-.11.02-.16.1.05.23.03.33 0 .01 0 .02 0 .03-.01v.2zm-.49-.13s-.05.04-.07.07c-.12-.05-.19-.14-.25-.25.11-.06.2-.13.28-.23h.03.04c-.02.05-.02.1-.02.15-.03 0-.05.03-.05.06.02.06.06.14.03.21zm18.57-.73s-.06 0-.09 0h-.02c0-.02 0-.05-.01-.07 0-.02.01-.03.01-.04.04.02.09.05.13.08 0 .01 0 .02-.01.03zm-2.86-1.18s-.04-.01-.07-.01h-.01c.03 0 .06-.01.09-.02v.02zm-8.46.3s-.1-.07-.16-.09v-.02c.02 0 .04 0 .06.01.03 0 .06.02.09.02.01 0 .02 0 .03.01-.01.02-.02.04-.03.06zm-2.21 2.31s-.06 0-.09 0c0 0-.01 0-.02 0 0-.02 0-.05-.01-.07 0-.01 0-.03.01-.04.04.02.09.06.13.08 0 .01 0 .02-.01.03zm-2.86-1.18s-.04-.01-.07-.01c0 0 0 0-.02 0 .03 0 .06-.01.09-.02v.02zm-4.03.84s.03-.02.04-.03c.02.01.04.03.06.04-.03 0-.07 0-.1-.02zm10.1-4.17s0 0 0 0c0-.07.02-.14.02-.21.02-.01.03-.02.05-.03.01.03.03.06.06.09.02.02.05.04.08.05h.02c.02 0 .04 0 .05.01s-.1.04-.15.06c-.05 0-.09.02-.14.04zm-2.51-.41s.02 0 .02.01c.02.02.05.03.08.04 0 .03.02.07.03.1.06.14.05.22.02.36-.02.1-.04.22 0 .32.01.03.03.06.05.08v.02c-.14-.13-.3-.25-.42-.4s-.04-.09-.05-.13c0-.02-.01-.03-.01-.05 0-.03-.02-.06-.03-.09 0-.03-.01-.06-.02-.09 0-.02 0-.04-.01-.06 0-.04 0-.08-.01-.11v-.02c.09-.02.17-.05.26-.08v.01c.03.04.06.07.09.09zm-2.08.39s0 .02 0 .02c.03.12-.12.24-.13.36 0 .06.01.11.04.17-.01 0-.02 0-.04 0-.05 0-.1-.02-.15-.03 0 0 0 0 0-.01 0-.02 0-.04 0-.07 0 0 .01 0 .02-.01.03-.02.06-.04.08-.07.11-.11.15-.23.15-.34.01 0 .02-.01.03-.02zm.06.84c.21.02.43 0 .64.05.24.06.44.21.69.23s-.08.1-.11.15-.01.02-.02.02c-.02-.01-.03-.02-.05-.04-.01 0-.02-.01-.03-.02-.02 0-.03-.02-.05-.02-.03-.02-.06-.03-.09-.04-.05-.02-.1-.04-.15-.05-.11-.03-.22-.07-.33-.06-.11 0-.19-.05-.31-.04-.07.01-.18.09-.24.03-.05-.05-.07-.13-.09-.19 0-.02-.01-.03-.02-.04.06.01.11.02.17.02zm1.78-.09c-.08 0-.16.02-.25.04-.15.02-.27-.02-.41-.08-.22-.09-.42-.14-.65-.15-.15 0-.29 0-.44 0-.06-.11-.09-.2-.02-.34.04-.08.07-.15.05-.23 0-.02 0-.04-.01-.05.01-.01.03-.02.04-.04.06-.08.11-.15.14-.23.08 0 .15-.02.23-.04.02 0 .05-.01.07-.02.02 0 .05-.02.07-.02.02.05.04.09.07.14 0 .01.01.02.02.03.03.05.06.1.1.14.15.15.4.13.58.23.12.07.23.13.33.23.08.08.15.14.25.18h.03c.09.09.18.18.25.28-.15-.04-.32-.07-.45-.05zm-.87-1.34s.09-.08.14-.14h.03.04c-.02.05-.03.1-.02.15-.01 0-.02.01-.03.02 0 .01-.01.02-.01.03.02.06.06.14.03.2-.02.03-.05.05-.07.08-.06-.02-.1-.06-.14-.09-.01-.01-.02-.03-.03-.04-.02-.03-.05-.06-.07-.09 0 0 0-.01 0-.02.03-.02.05-.03.07-.05.02-.01.05-.03.07-.05zm-1.69.63s.02-.02.04-.03c.02.01.04.03.06.04-.03 0-.07 0-.1-.02zm2.35-.43v.19.19s0 0-.01 0c-.12-.11-.24-.14-.38-.18 0 0 0-.02 0-.03.02-.03.03-.06.03-.08s0-.03 0-.04 0-.02 0-.03c.01 0 .03.01.04.02.02 0 .03 0 .05.01h.05.06.04c.03 0 .06-.01.09-.02h.03zm.91.13c.06.02.11.05.16.08-.05.06-.09.12-.13.19.01-.09.02-.18-.03-.27zm.71-.55s0 0-.02 0c.03 0 .06-.01.09-.02v.02c-.02 0-.04-.01-.07-.01zm-.4.12s.08-.02.11-.04v.05s-.01.02-.02.02c-.03-.02-.06-.03-.09-.04zm3.23.99s-.02.01-.02.02c0 0 0-.01 0-.02 0-.02 0-.03.01-.04.01 0 .03.02.05.03-.01 0-.02 0-.03.02zm-.58.1c.03.05.08.1.14.13 0 .02 0 .05.01.07 0 .02.01.04.02.06-.01.01-.03.02-.04.03-.05.03-.1.05-.16.07 0 0 0-.01 0-.02 0-.02.01-.15.02-.35zm-.85-.69s-.02.02-.03.02c0-.05 0-.1.01-.15h.02c-.01.05-.02.09 0 .14zm3.37 3.05s.02-.02.04-.03c.02.01.04.03.06.04-.03 0-.07 0-.1-.02zm-9.85.66s0 .04 0 .05c0 0-.01.02-.02.02-.03-.02-.06-.03-.09-.04.04-.01.08-.02.11-.04zm4.7-2.19s0 .01-.01.02c0 0 0-.01-.01-.02 0 0 0 0 0-.01-.03-.11-.09-.21-.13-.29 0-.19.02-.39-.1-.55 0 0 0 0 0-.01s.01-.03.02-.04c.06-.1.1-.21.16-.32.03-.05.06-.09.1-.12s.03 0 .05 0 .04 0 .07-.01c.08-.03.15-.08.21-.15.09 0 .18-.05.22-.13.02-.03.02-.06.03-.09 0 0 0-.01 0-.02 0-.03 0-.06 0-.09h.01.04c.02 0 .04-.01.05-.02.01 0 .02-.01.04-.02s.04-.02.06-.04c.01 0 .02-.02.03-.03l.05-.05c.02.02.03.03.06.04.03.02.06.02.09.03-.02.05-.05.09-.07.14v.02c-.02.04-.03.08-.04.12 0 .01 0 .02-.01.04-.01.04-.02.07-.02.11v.04.14.07c0 .12.07.25.11.37.03.07.02.13.02.19-.1.02-.19.05-.27.13-.12.11-.17.24-.33.32-.14.07-.3.14-.39.26zm.99-1.21c0-.06 0-.11 0-.16s0-.1.01-.14c0 0 0-.01 0-.02 0 0 0-.01 0-.02 0 0 0-.01 0-.02.02-.05.04-.11.06-.17.02-.04.02-.07.02-.1.01-.03.02-.06.03-.1h.05.02.04.04.01s0 0 0 0c-.01.02-.02.04-.03.06-.05.12.01.23.13.27.04.01.08.02.12.01 0 .07-.02.15-.03.22 0 .03 0 .05-.01.08-.01.09-.03.17-.06.26-.01.04-.03.08-.04.12-.02.03-.04.07-.05.1-.04.05-.09.1-.15.11-.01 0-.03 0-.04 0-.01-.13-.06-.25-.11-.36-.02-.04-.03-.08-.04-.12zm.25.77c.23-.08.35-.27.41-.49.1-.11.25-.07.36-.14 0 .31.01.54.02.64v.14c-.06.03-.11.07-.15.12-.02 0-.05 0-.08 0-.1-.04-.18-.1-.27-.15-.1-.05-.19-.09-.29-.12zm7.59 1.21s0 .04 0 .05c0 0-.01.02-.02.02-.03-.02-.06-.03-.09-.04.04-.01.08-.02.11-.04zm-13.96 1.89c.06.02.11.05.16.08-.05.06-.09.12-.13.19.01-.09.01-.18-.03-.27zm2.12-.16s-.02.09 0 .14c-.01 0-.02.02-.03.02 0-.05 0-.1.01-.15h.02zm-.05.24s.03-.02.05-.03c.01.03.03.06.06.08.05.05.12.07.19.07-.11.05-.21.05-.33.09.01-.07.02-.14.02-.2zm4.32-1.42c-.01-.06-.04-.11-.1-.15s-.03-.1-.05-.15c0-.01.02-.03.02-.04.02-.03.03-.06.04-.09 0 0 0-.01 0-.02 0-.03.01-.06.02-.08v-.02s0-.06-.02-.09c0 0 0 0 0-.01-.02-.03-.03-.06-.07-.09-.12-.11-.32-.15-.48-.18-.06-.01-.11-.02-.16-.01-.15.01-.28.09-.35.24-.01.03-.02.06-.02.08 0-.12.01-.24.02-.36 0-.18.14-.31.3-.42.03 0 .05-.02.08-.03.1-.03.19-.07.27-.13.07.02.13 0 .2-.05.15-.09.32.01.46.1.12.07.25.16.39.18v.02c-.1.06-.17.18-.11.27t0 0s0 0 0 0c.01.02.03.03.05.04 0 .01 0 .03-.01.04s0 0 0 0v.02.03.02c0 .01.01.02.02.02 0 0 0 0 .01.01.02.01.04.02.07.02.05 0 .11.02.17.02v.02c-.06.06-.09.13-.1.21 0 .06.02.14.08.17h.02s-.05 0-.07 0c-.13-.01-.28.02-.38.08-.13.08-.23.18-.32.28zm7.15-.09c.06.02.11.05.16.08-.05.06-.09.12-.13.19 0-.09.01-.18-.03-.27zm2.11-.16s-.02.09-.01.14c-.01 0-.02.02-.03.02 0-.05 0-.1.01-.15h.02zm-.04.24s.03-.02.05-.03c.01.03.03.06.06.08.05.05.12.07.19.07-.11.05-.21.05-.33.09.01-.07.02-.14.03-.2zm-4.97-4.47s-.1-.07-.16-.09v-.02c.02 0 .04.01.06.02.03 0 .06.02.09.02.01 0 .02 0 .03.01-.01.02-.02.04-.03.06zm-13.26 6.63s-.02 0-.04 0c-.06 0-.12-.02-.18-.04 0-.02-.01-.04-.02-.05.05-.03.09-.06.13-.1.11-.11.16-.23.16-.34.01 0 .02-.01.03-.02v.02c.03.12-.12.24-.13.36 0 .06.01.12.04.17zm1.92.21c-.08 0-.16.02-.25.03-.15.02-.27-.02-.41-.08-.22-.09-.42-.14-.65-.15-.15 0-.29 0-.44 0-.06-.11-.09-.2-.02-.34.04-.08.07-.15.05-.24 0-.02 0-.04-.01-.05.01-.01.03-.02.04-.04.07-.08.11-.15.14-.23.12 0 .25-.05.37-.09.05.11.11.22.2.31.15.15.4.13.58.23.12.06.23.13.33.23.08.08.15.14.25.18h.03c.09.09.18.18.25.28-.15-.04-.32-.06-.45-.05zm2.03-.23c-.1.02-.19.05-.27.13-.12.11-.17.24-.34.32-.14.07-.29.13-.39.26 0 0 0 .01-.01.02 0 0 0-.01-.01-.02-.03-.11-.09-.21-.13-.29 0-.19.02-.39-.1-.55 0 0 0 0 0-.01s.01-.03.02-.04c.06-.1.1-.21.16-.32.03-.05.06-.09.1-.12.04 0 .08 0 .12-.02.08-.03.15-.08.21-.15.09 0 .18-.05.22-.13.03-.06.05-.14.04-.2.11-.01.21-.08.28-.17.01.02.03.03.05.04.03.02.06.02.09.03-.1.19-.18.4-.17.61v.07c0 .12.07.26.11.37.02.07.02.13.02.19zm.14-.03c-.01-.12-.06-.25-.11-.36-.02-.04-.03-.08-.04-.12 0-.05 0-.11 0-.16s0-.1.01-.14c0 0 0-.01 0-.02 0 0 0-.01 0-.02 0 0 0-.01 0-.02.02-.05.04-.11.06-.17.02-.04.02-.07.02-.1.01-.03.02-.06.03-.1h.03.06.01c.02 0 .05 0 .08-.02s0 0 0 0c0 .02-.02.04-.03.06-.05.12.01.23.13.27.04.01.08.01.12.01-.02.19-.04.38-.1.56-.01.04-.03.08-.04.12-.02.03-.04.06-.05.1-.04.05-.09.09-.16.11-.01 0-.03 0-.04 0zm1.18.47s-.06.03-.1.05c-.05-.03-.11-.04-.18-.02-.09.02-.12.1-.23.06-.1-.04-.18-.1-.27-.15-.1-.05-.19-.09-.29-.12.23-.09.35-.27.41-.49.1-.11.26-.06.38-.14.05-.03.09-.07.13-.11.03.08.09.15.18.19.08.03.16.04.24.05.01.11.09.19.19.25 0 .05.01.1.03.14-.02.01-.03.02-.04.03-.08.05-.2.06-.28.12-.06.05-.12.09-.17.15zm1.26-.02c-.13 0-.27 0-.38.04-.12.03-.19.11-.32.09-.1-.01-.22-.05-.32-.1.15-.08.37-.1.53-.13.04 0 .09-.02.13-.03.13 0 .26-.05.37-.11.05-.02.11-.04.16-.07.02.05.07.08.13.11-.05.02-.09.04-.13.07-.06.05-.1.09-.16.12zm.68.03c-.15.07-.23.03-.38.02-.01 0-.03 0-.04 0-.03-.01-.06-.02-.1-.03.09-.07.19-.11.31-.17 0 0 .01 0 .02-.01.1 0 .19-.02.29-.05v.18c-.03.02-.06.04-.1.05zm.75-.4s.07.04.1.06c-.03.01-.07.02-.1.03 0-.03 0-.06 0-.09zm5.57-1.46s-.02 0-.04 0c-.06 0-.12-.02-.17-.04 0-.02-.01-.04-.02-.05.05-.03.09-.06.13-.1.11-.11.16-.23.16-.34.01 0 .02-.01.03-.02v.02c.03.12-.12.24-.13.36 0 .06.01.11.04.17zm1.92.21c-.08.01-.17.02-.25.03-.15.02-.27-.02-.41-.08-.22-.09-.42-.14-.65-.15-.15 0-.29 0-.44 0-.06-.11-.09-.2-.02-.34.04-.08.07-.15.05-.24 0-.02 0-.03-.01-.05.01-.01.03-.02.04-.04.06-.08.11-.15.14-.23.12 0 .25-.04.37-.09.05.11.11.22.2.31.15.15.4.13.58.23.12.07.23.13.33.23.08.08.15.14.25.18h.02c.09.09.18.18.25.28-.15-.04-.32-.06-.46-.05zm2.03-.23c-.1.02-.19.05-.27.13-.12.11-.17.24-.33.32-.14.07-.3.13-.39.26 0 0 0 .01-.01.02 0 0 0-.01-.01-.02-.03-.11-.09-.21-.13-.29 0-.19.02-.39-.09-.55 0 0 0 0 0-.01s.01-.03.02-.04c.06-.1.1-.21.16-.32.03-.05.06-.09.1-.12.04 0 .08 0 .12-.02.08-.03.15-.08.21-.15.09 0 .18-.05.22-.13.03-.06.05-.14.04-.2.11-.01.21-.08.28-.17.01.02.03.03.05.04.03.02.06.02.09.03-.11.19-.18.4-.17.61v.07c0 .12.07.25.11.36.02.07.02.13.02.19zm.15-.03c-.01-.13-.06-.25-.11-.36-.02-.04-.03-.08-.04-.12 0-.05 0-.11 0-.16s0-.1.01-.14c0 0 0-.01 0-.02 0 0 0-.01 0-.02 0 0 0-.01 0-.02.02-.06.04-.11.06-.17.02-.04.02-.07.02-.1.01-.03.02-.06.03-.1h.02c.05 0 .1-.02.16-.03s0 0 0 0c-.01.02-.02.04-.03.06-.05.12.01.23.13.27.04.01.08.01.12.01-.02.19-.04.38-.1.56-.01.04-.03.08-.04.12-.02.03-.04.06-.05.1-.04.05-.09.1-.16.11-.01 0-.03 0-.04 0zm1.17.48s-.06.03-.1.05c-.05-.03-.11-.04-.18-.02-.09.02-.12.1-.23.06-.1-.04-.18-.1-.27-.15-.1-.05-.19-.09-.29-.12.23-.09.35-.27.41-.49.1-.11.26-.06.38-.14.05-.03.09-.07.13-.11.03.08.08.15.18.19.08.03.16.04.24.04.01.11.09.19.19.25 0 .05.01.1.03.14-.01.01-.03.02-.04.03-.08.05-.2.06-.28.12-.06.04-.12.09-.17.15zm1.26-.03c-.13 0-.27.01-.38.04-.12.04-.19.11-.32.09-.1-.01-.22-.05-.32-.1.15-.08.37-.1.53-.13.04 0 .08-.02.12-.03.13 0 .26-.05.37-.11.05-.02.11-.04.16-.07.03.05.07.08.13.11-.05.02-.09.04-.13.07-.06.05-.11.09-.16.12zm.69.04c-.15.07-.23.03-.38.02-.01 0-.03 0-.04 0-.03-.01-.07-.02-.1-.03.09-.07.19-.11.31-.17 0 0 .01 0 .02-.01.16 0 .33-.06.48-.11.1-.03.19-.07.29-.11.03-.01.07-.02.1-.04h.01c.05.05.11.08.16.11-.13.04-.26.06-.39.1-.16.05-.31.16-.46.24zm-4.88-3.99s0 .05 0 .05 0 0 0-.04c0-.02-.01-.05-.02-.08.01.02.02.05.03.07zm-4.68-5.35c-.1.02-.19.05-.27.13-.12.11-.17.24-.33.32-.14.07-.29.13-.39.26 0 0 0 .01-.01.02 0 0 0-.01-.01-.02 0 0 0 0 0-.01-.03-.11-.09-.21-.13-.29 0-.19.02-.39-.09-.55 0 0 0 0 0-.01s.01-.03.02-.04c.06-.1.1-.21.16-.32.03-.05.06-.09.1-.12h.05c.02 0 .04 0 .07-.02.08-.03.15-.08.2-.15.09 0 .18-.05.22-.13.01-.03.02-.06.03-.09 0 0 0-.01 0-.02 0-.03 0-.06 0-.09.02 0 .03 0 .04-.01.02 0 .03-.01.05-.02.01 0 .03-.01.04-.02.02-.01.04-.02.05-.04 0 0 .02-.01.03-.02.02-.02.04-.04.06-.06.01.02.03.03.05.04.03.02.06.03.09.03s0 0 0 0c-.02.04-.05.09-.06.13 0 .01 0 .02-.01.03-.01.04-.03.07-.04.11 0 .02 0 .03-.01.05 0 .03-.02.07-.02.1v.05.14.07c0 .12.07.25.11.36.03.07.03.13.02.19zm.15-.02c-.01-.12-.06-.25-.11-.36-.02-.04-.03-.08-.04-.12 0-.05 0-.11 0-.16s0-.1.01-.14c0 0 0-.01 0-.02 0 0 0-.01 0-.02 0 0 0-.01 0-.02.01-.05.04-.11.06-.17.02-.04.02-.07.02-.1.01-.03.02-.06.03-.1h.05s.02 0 .03 0 .07-.02.1-.02c-.01.02-.02.04-.03.06-.05.12.01.23.13.27.04.01.08.01.12.01v.03c0 .06-.02.12-.02.19 0 .03 0 .06-.01.09-.01.09-.03.17-.06.26-.01.04-.03.08-.05.12-.02.03-.04.06-.05.1-.04.05-.09.09-.16.11-.01 0-.03 0-.04 0zm1.17.47s-.06.03-.1.05c-.05-.03-.1-.04-.18-.02-.09.02-.12.1-.23.06-.1-.04-.18-.1-.27-.15-.1-.05-.19-.09-.29-.12.23-.09.35-.27.41-.49.11-.11.26-.06.38-.14.05-.03.09-.07.13-.11.01.04.03.07.06.1 0 0 0 .01.01.02.03.03.06.05.1.07.08.03.16.04.24.05.01.11.09.19.19.25v.07c0 .02.01.04.02.06-.01.01-.03.02-.04.03-.08.05-.2.06-.28.12-.06.05-.12.09-.17.15zm1.26-.02c-.13 0-.27.01-.38.04-.12.03-.18.11-.32.09-.1-.01-.22-.05-.32-.1.15-.08.37-.1.53-.13.04 0 .08-.02.12-.03.06 0 .12-.02.18-.03h.02c.06-.02.12-.04.17-.08.06-.02.11-.04.16-.07.02.03.04.05.07.08.01 0 .02.02.03.02 0 0 .01.01.02.01-.05.02-.09.04-.12.07-.06.05-.1.09-.16.12zm.69.03c-.15.07-.23.03-.38.02-.01 0-.03 0-.04 0-.03-.01-.07-.02-.1-.04.09-.07.19-.11.31-.17h.02.02.07c.02 0 .05 0 .07-.01s.05-.01.07-.02c.02 0 .05-.02.08-.02.02 0 .04-.01.06-.02.04-.02.08-.03.12-.04.1-.03.19-.07.29-.11.03-.01.07-.02.1-.04h.01c.05.04.1.07.15.1h.01c-.07.02-.15.04-.22.06-.06.01-.11.03-.17.04-.16.05-.31.16-.47.24zm-4.88-3.98s0 .04.01.05c0 0 0 0-.01 0 0 0 0 0 0-.04 0-.03-.01-.05-.02-.08.01.02.02.04.03.07zm-2.34 3.55s-.02 0-.04 0c-.06 0-.12-.02-.17-.04 0-.02-.01-.03-.02-.05 0 0 .01 0 .02-.01.01 0 .02-.01.03-.02.03-.02.06-.04.08-.07.11-.11.15-.23.15-.34.01 0 .02-.01.03-.02v.02c.03.12-.12.24-.13.36 0 .06.01.12.04.17zm1.93.2c-.08 0-.16.02-.25.03-.15.02-.27-.02-.41-.08-.21-.09-.42-.14-.65-.15-.15 0-.29 0-.44 0-.06-.12-.09-.2-.02-.34.04-.08.07-.15.05-.24 0-.02 0-.04-.01-.05.01-.01.03-.02.04-.04.06-.08.11-.15.14-.23.08 0 .15-.02.23-.04.02 0 .05-.02.07-.02s.05-.01.07-.02.04.09.07.13c0 .01.01.02.02.04.03.05.06.1.1.14.15.15.4.13.58.22.12.07.23.13.33.23.08.08.15.14.25.18h.03c.09.09.17.18.25.28-.15-.04-.32-.06-.45-.05zm-2.04 2.4s0 .05.01.05c0 0 0-.01-.01 0 0 0 0 0 0-.04 0-.02-.01-.05-.02-.08.01.02.02.05.03.07zm-4.79 4.15s0 .04.01.05c0 0 0-.01-.01 0 0 0 0 0 0-.04 0-.03-.01-.05-.02-.08.01.02.02.04.03.07zm-5.96 1.49s.05-.01.07-.02c.03-.01.06-.02.1-.02-.06.02-.11.05-.17.06 0-.02-.01-.03-.02-.05 0 0 0 .02.02.03z"/></svg>