<svg viewBox="0 0 28.28 32.26" xmlns="http://www.w3.org/2000/svg"><path d="m23.27 22.45c.06.08.27.17.34.05.09-.17.17-.34.25-.51.01-.03.03-.06.04-.1.07-.16.12-.32.18-.49.02-.05.03-.1.05-.15.01-.04.02-.07.03-.11v.02c.78-2.83-.3-6.39-2.38-8.31-1.27-1.17-2.89-1.92-4.65-1.76-.33.03-.68.08-1.03.16-.06.02-.13.03-.19.05-.03 0-.06.01-.09.02-.13.03-.25.07-.38.11-.03.01-.07.02-.1.03-.1.04-.2.07-.29.11-.03.01-.06.02-.1.04-.12.05-.24.11-.36.18-.01 0-.03.02-.04.02-.06.03-.12.07-.17.1v-.02t0 0s0-.01 0-.02c-.04-.07-.08-.13-.13-.18.11-.11.21-.23.32-.34 1.22-1.16 2.85-1.84 4.63-1.68.24.02 1.08.41 1.23-.03.05-.15.02-.3-.04-.47.12.18.23.39.31.59.05.11.19.23.3.28.3.15.73.08 1.06.17.24.07.46.17.71.23.83.21.37-1 .12-1.71.46.48.63 1.1.76 1.78.06.28.1.33.33.48.38.24.98.31 1.4.5.23.1.32.14.54.05.05-.02.07-.08.07-.13.03-.38.01-.76-.04-1.13.28.51.38 1.19.37 1.66 0 .14.06.34.19.41.34.17 1.4.61 1.73.29.16-.16 0-.93-.04-1.13-.02-.11-.04-.23-.07-.34-.01-.05-.03-.1-.04-.15-.02-.06-.03-.11-.05-.17-.02-.07-.05-.13-.07-.2-.01-.03-.03-.07-.04-.1-.03-.08-.07-.15-.1-.23-.05-.1-.1-.19-.16-.29-.6-.97-1.44-1.72-2.46-2.23-2.28-1.13-5.03-1.33-7.4-.31-.49.21-.93.48-1.33.79.18-.29.34-.6.53-.87.17-.23.94-.71.87-1.02-.08-.36-.35-.67-.63-.89-.77-.58.48.04.75.11.46.11.51-.14.79-.46.36-.4 1.19-.83 1.29-1.38.03-.15-.05-.29-.16-.42.26.12.52.24.78.18.48-.12.68-.78 1.22-.92.09-.02.14-.12.12-.21-.12-.47-.59-.64-.92-.92.53.05 1.01.38 1.4.69.09.07.19.08.3.09.18.02.35-.16.46-.26.31-.27.71-.49 1.1-.59h.02c.11 0 .12-.18 0-.25s-.22-.14-.33-.21c-.51-.35-.87-.69-1.57-.86-.64-.15-1.39-.07-2.04.02-1.18.17-2.12.76-2.96 1.51s-.01.02-.02.02c-.1.09-.2.19-.3.28-.05.05-.1.09-.14.14-.14.14-.28.28-.42.43-.94 1-1.53 2.18-2 3.43-.33.62-.61 1.25-.84 1.89 0-.03 0-.06-.01-.09 0-.06-.02-.11-.03-.17 0-.03 0-.06-.01-.08v.01c-.51-2.86-2.5-5.56-5.34-6.27-.75-.19-1.99-.34-3-.1s-.07.01-.1.02c-.04.01-.07.02-.11.03-.07.02-.13.04-.2.07-.03.01-.06.02-.08.03-.09.04-.17.08-.25.12-.02.02-.05.03-.07.05-.06.03-.11.07-.16.11-.03.02-.05.04-.08.07-.04.04-.09.08-.13.12-.02.03-.05.05-.07.08-.04.05-.08.1-.11.15-.02.02-.04.05-.05.08-.05.08-.09.17-.12.26-.12.34.66.85.87.96.32.16.7-.03 1.07-.14-.14.13-.22.28-.1.52.2.4.84.74 1.19.99.46.33 1.17.26 1.63-.08-.23.17-.47.32-.5.62 0 .08.05.18.12.23.33.21.68.26.99.52.15.12.38.36.6.31.12-.01.23-.04.34-.09.25-.18.52-.25.82-.22-.1.11-.23.21-.31.33-.12.17-.17.28-.13.48.01.11.13.19.23.22.39.12.56.62.89.84.07.05.15.07.23.08-.09.06-.18.14-.24.29-.08.21.26.51.4.68.02.03.04.05.05.08.33.72.57 1.49.65 2.28-.05-.09-.1-.17-.16-.26-1.06-1.65-3.28-2.71-5.07-2.95-1.09-.14-2.42-.18-3.61.09s0 0 0 0c-.29.07-.58.16-.84.27-.03.01-.05.02-.08.03-.1.04-.19.09-.29.14-.03.02-.07.04-.11.06-.11.06-.23.13-.33.21-1.28.82-2.25 2.12-2.17 3.71.01.18.32.31.37.16h.05c.57-.17 1.12-.47 1.7-.63.76-.21 1.55-.24 2.33-.18.56.04.58-.2.52-.52.19.28.39.58.71.61.3.03.53-.06.81-.12.32-.07.61.03.91-.06.11-.03.14-.12.12-.22-.03-.26-.11-.51-.17-.76.29.34.41.9.85 1.02.32.08.66-.04.99.07.19.06.39.12.59.11.09 0 .17-.05.17-.16.01-.2.11-.49.03-.7.1.27.22.61.17.9-.02.14.06.27.2.3.15.04.33.07.53.11v.09c0 .08.03.16.06.24 0 .02.02.04.03.06.02.05.05.11.08.16.01.02.03.04.04.06.03.05.07.09.11.12.02.02.04.03.05.05.04.04.08.07.13.1.01 0 .02.02.04.03 0 0 0 0 0-.01.19.11.42.16.66.13-.05.07-.09.14-.14.21-.24.38-.48.74-.73 1.11-.24.37-.47.74-.69 1.13-.69 1.25-1.3 2.66-1.81 4.05 0 .02-.01.04-.02.06-.11.29-.21.59-.31.88-.6 1.82-1.21 3.67-1.6 5.55v.02c-.04.18-.08.36-.11.54-.12.64-.26 1.3-.33 1.96-.02.21-.04.41-.05.62-.01.2-.06.49-.1.79 0 .05-.01.1-.02.14 0 .03 0 .07-.01.1 0 .05 0 .1-.01.15v.1.14.09c0 .05 0 .09.01.14 0 .02 0 .04.01.07.01.06.03.12.06.17.06.11.17.21.29.26.48.79 2.17.68 2.88.25.58-.34.77-.74.68-1.4-.04-.26-.06-.52-.08-.77 0-.05 0-.11-.01-.16-.04-.55-.05-1.11-.03-1.66 0-.1 0-.19.01-.29 0-.2.01-.41.02-.62.06-1.06.2-2.12.38-3.17.03-.16.06-.33.09-.49.16-.87.34-1.74.53-2.61s.01-.05.01-.07c.09-.39.18-.78.27-1.17.11-.48.23-.96.36-1.44.05-.18.1-.36.15-.54t0 0c.01-.05.03-.11.05-.16.13-.44.26-.88.4-1.31.04-.12.08-.25.13-.38.01-.04.02-.07.04-.11.08-.25.17-.51.25-.77s.03.02.04.04c.04.03.08.06.13.08 0 0 0 0 0-.01.26.15.57.22.89.16.68-.13.99-.78.75-1.4.58.05 1.17.18 1.68.43.09.04.18.08.27.13.36.17.74.34 1.07.57.19.13.36.28.5.46.08.1.33.22.42.06.09-.17.13-.34.14-.52.02.1.03.2.04.3.04.29-.03.73.06 1.01.16.55.82.71 1.22 1.07.09.09.27.11.36 0 .21-.25.27-.57.27-.92.18.84.24 1.64.05 2.5-.13.59.5 1.24.99 1.53.02.15.23.3.37.21.47-.31.49-.94.56-1.45 0-.07.02-.15.03-.22 0 .83-.17 1.69-.38 2.25-.02.05.01.1.06.14 0 .03.01.07.05.12.33.4.75.66 1.07 1.09z"/></svg>