<svg viewBox="0 0 27.7 32.26" xmlns="http://www.w3.org/2000/svg"><path d="m10.78 25.98c.29.44.61.84.97 1.22.07.07.13.14.21.21-.15 1.49-.21 3 .22 4.27.15.43 1.02.91 1.26.3.45-1.11.21-2.46.12-3.64-.03-.39-.05-.78-.08-1.17.55.37 1.14.67 1.75.84.97.28 2.24.72 3.22.41.17-.05.17-.25.05-.37-.31-.27-.6-.55-.89-.85.24.1.47.19.72.27 1.27.44 2.77 1.04 4.14.83.25-.04.17-.32.06-.45-.41-.45-1.02-.58-1.5-.95 0 0 0 0-.01 0 2.01.65 4.13.88 6.24.66.17-.02.19-.23.1-.35-.28-.36-.42-.3-.83-.58-.99-.69-1.97-1.36-2.88-2.16-.24-.21-.47-.43-.7-.65 1.51.62 3.15.98 4.63.94.27 0 .1-.35 0-.43-.83-.63-1.82-1.03-2.67-1.66-1.15-.86-2.24-1.79-3.27-2.8-.23-.22-.46-.44-.67-.68.26.27.56.48.91.61.26.13.63.26.91.35.82.25 1.55.39 2.39.17.03 0 .06-.02.07-.04.02-.02.02-.03.03-.05.02-.05.01-.12-.03-.18-.49-.8-1.57-1.34-2.24-1.97-1.11-1.06-2.24-2.15-3.14-3.4-.43-.6-.87-1.2-1.29-1.8-.02-.02.03-.01.1 0 .2.07.62.26.68.28.79.36 1.54.72 2.41.72.03 0 .05 0 .07-.02 0 0 .01-.01.02-.02 0 0 .01-.02.02-.03.03-.05.01-.12-.04-.18-1.8-1.62-3.38-3.31-4.9-5.21-.39-.49-.79-.99-1.09-1.55-.2-.37-.08-.29.09-.14.08.07.18.16.26.22.02.01.04.03.05.04.56.37 1.03.68 1.68.82h.07.01c.05-.04.05-.14.01-.2-1.47-2.44-2.97-4.77-3.95-7.47-.02-.06-.06-.09-.11-.12-.01 0-.03-.01-.04-.02s-.02 0-.04 0c-.01 0-.03 0-.04 0s-.03.01-.04.02c-.05.02-.09.06-.11.12-.55 1.51-1.26 2.91-2.04 4.27-.12.2-.23.41-.35.61 0 .02-.02.03-.03.05-.5.85-1.01 1.69-1.53 2.54-.05.08-.03.24.1.21.65-.14 1.12-.45 1.68-.82.23-.15.73-.71.4-.12-.3.55-.7 1.06-1.09 1.55-1.51 1.9-3.1 3.59-4.9 5.21-.1.09-.08.24.07.24.88 0 1.62-.36 2.41-.72-.13.06.84-.39.77-.29-.42.6-.85 1.2-1.28 1.8-.9 1.25-2.03 2.34-3.15 3.4-.66.63-1.75 1.17-2.23 1.97-.07.1-.06.24.08.27.84.22 1.57.08 2.39-.17.28-.08.65-.22.91-.35.35-.13.65-.34.91-.61-.22.23-.44.46-.68.68-1.03 1.01-2.12 1.94-3.27 2.8-.85.63-1.84 1.02-2.67 1.66-.1.08-.27.42 0 .43 1.48.04 3.12-.32 4.63-.94-.23.22-.46.44-.7.65-.9.8-1.9 1.47-2.88 2.16-.41.29-.55.23-.83.58-.09.11-.07.33.1.35 2.11.22 4.23 0 6.24-.66-.48.36-1.1.49-1.51.95-.12.13-.19.41.06.45.54.08 1.1.04 1.65-.07 1.56-.15 3.06-.91 3.89-2.25z"/></svg>