<svg viewBox="0 0 16.61 32.26" xmlns="http://www.w3.org/2000/svg"><path d="m16.24 5.42s-.01 0-.02 0c.02-.02.04-.05.06-.08.13-.22.05-.51-.17-.64-.07-.04-.15-.06-.24-.06s-.06 0-.09 0c-.23-.34-.78-.41-1.19-.23.04-.12.05-.25.01-.37.04-.26-.18-.51-.46-.49-.06 0-.12.02-.17.04-.02 0-.04-.02-.06-.03.05-.09-.02-.2-.1-.22-.07-.02-.13-.03-.2-.02 0-.02-.02-.04-.03-.06.29-.24.03-.79-.37-.68-.09.02-.17.06-.25.1-.04 0-.08 0-.13.01-.05.02-.11.03-.17.05-.02 0-.04.02-.07.02-.06-.06-.12-.11-.19-.15-.23-.13-.48-.02-.59.2-.13-.09-.29-.07-.41.02h-.01c-.02 0-.12-.02-.03 0-.05 0-.09-.01-.14-.02-.07 0-.15 0-.22.02-.14.03-.25.12-.31.24-.03-.03-.08-.05-.12-.05 0 0 0 0-.01 0-.05-.01-.11-.01-.16 0 0-.01 0-.03-.01-.04.18-.06.34-.18.43-.37.03-.06.06-.12.07-.18 0-.03 0-.05.01-.07 0 .08 0 .04 0 0 .03.03.08.06.14.06.28 0 .28-.44 0-.44-.09 0-.15.05-.18.1-.03-.09-.07-.17-.15-.24-.02-.02-.07-.06-.1-.08 0-.01.02-.02.02-.04.04-.05.05-.12.04-.19-.03-.1-.11-.15-.21-.16-.01 0-.02 0-.03 0 0-.02-.01-.05-.02-.07-.02-.05-.07-.06-.11-.05 0-.03-.02-.05-.04-.07-.02-.03-.05-.05-.08-.07.03-.09-.01-.2-.12-.24-.14-.05-.3-.07-.44 0-.04.02-.07.06-.1.09-.06-.06-.16-.08-.26 0 0 0-.02.01-.03.02-.04.04-.06.08-.06.12 0-.07-.05-.12-.11-.15 0-.04-.01-.07-.03-.11s-.06-.07-.1-.09c.01-.08-.02-.17-.09-.21 0-.06 0-.12-.02-.17-.05-.17-.18-.29-.34-.35-.14-.05-.33 0-.42.12-.04.05-.08.11-.1.17-.16-.09-.35-.08-.52 0-.01 0-.03 0-.04 0-.06 0-.12.02-.16.06 0-.02 0-.03-.02-.05-.05-.09-.15-.12-.25-.1-.16.02-.31.08-.4.22-.07.1-.07.21-.02.31v.02c-.05-.02-.11 0-.17.03-.02.02-.04.04-.06.06-.06.06-.06.14-.03.22 0 .01.02.03.03.04-.09.1-.16.21-.19.36-.02.1 0 .19.03.27-.03 0-.07-.01-.1-.02-.01 0-.02 0-.03-.01-.26-.06-.53-.04-.73.16-.06.05-.1.12-.12.18-.11.17-.11.39 0 .56 0 .05 0 .09.03.13-.05.01-.09.02-.14.04-.11.05-.18.18-.19.3-.21.02-.36.24-.37.45 0 .12.04.23.1.33-.17-.09-.37-.08-.54.05-.13.1-.21.2-.21.37s.09.28.21.37c.17.11.38.14.57.06.09-.04.18-.08.24-.14 0 0 .02.01.03.02.03.02.07.03.1.04.01.03.02.05.04.08-.14.1-.26.21-.35.36-.08-.05-.16-.07-.26-.07-.09 0-.17.03-.25.08 0 0-.02 0-.03 0-.08 0-.16 0-.25.01-.04-.09-.12-.15-.22-.11-.09.03-.17.07-.24.13-.07-.07-.16-.13-.26-.17-.03-.06-.09-.11-.17-.11s-.13.04-.16.08c-.04 0-.08 0-.12 0s-.08.03-.11.05c-.1.02-.21.08-.29.15-.14.13-.18.33-.18.52-.04.05-.07.11-.05.18.01.03.02.05.04.08-.04.03-.07.07-.1.11-.06 0-.13 0-.2.02-.11.03-.23.1-.31.19-.12.14-.17.28-.19.45v.16c-.1-.02-.19.04-.22.13-.06.03-.12.07-.18.12-.11.1-.23.27-.29.43-.06 0-.12.01-.18.03-.28.13-.48.43-.48.76 0 .39.34.73.73.71.23 0 .42-.11.59-.26.08-.07.13-.15.16-.25.1 0 .19-.02.27-.06.04.23.17.42.42.48.31.08.62-.07.84-.29.06.25.27.48.51.55.32.09.64-.05.87-.28.12-.13.21-.27.26-.43.28.21.71.21 1.04.06.18.11.36.21.55.32.51.3.79.67.97 1.23.03.1.05.21.07.31v.02c-.08-.04-.16-.07-.25-.07-.07-.05-.15-.08-.23-.1-.01-.03-.02-.05-.03-.08.02-.13-.05-.28-.23-.28-.16-.12-.36-.19-.55-.22-.14-.02-.28.03-.4.11-.11.04-.21.11-.29.19-.01 0-.02 0-.04-.01-.1-.01-.19.03-.26.1-.09 0-.18.02-.26.05-.07.03-.14.07-.2.11-.31.13-.56.38-.65.72 0 0 0 0-.01 0-.31.06-.6.2-.82.4-.15.13-.23.31-.25.49-.04-.04-.09-.07-.15-.07s-.13-.02-.2.01c0 0-.01 0-.02 0-.33-.02-.58.25-.68.54-.1.3.02.68.3.83.4.21.81-.02 1.02-.37 0-.01.01-.02.02-.04.02-.02.05-.05.06-.07.16.12.36.19.56.21.15.01.29-.02.42-.08 0 .04 0 .08.01.13.04.25.25.41.48.5.21.08.45 0 .62-.12-.01.01-.02.02-.03.03.12-.08.23-.16.32-.27.11-.13.17-.23.23-.4.01-.02.02-.05.02-.07.12.06.26.08.4.09.06.09.13.18.2.27.26.35.51.71.68 1.11.1.36.09.73.08 1.14-.01.46-.02.92-.02 1.38-.01.28-.02.55-.04.83-.19-.1-.41-.15-.63-.08-.18.05-.33.17-.44.31-.03-.03-.06-.05-.09-.08.02-.03.03-.06.04-.09.12-.08.14-.29 0-.37-.12-.07-.24-.08-.37-.01-.05.02-.08.06-.11.1 0 0-.01 0-.02 0-.02-.06-.06-.11-.14-.13.01-.08 0-.17-.07-.23-.01-.02-.02-.03-.04-.05 0-.01-.01-.02-.02-.03-.04-.08-.11-.12-.2-.15-.15-.05-.29.03-.38.14-.07-.03-.14-.05-.22-.04-.01 0-.03 0-.04 0 0 0-.01 0-.02 0-.02-.02-.05-.02-.09-.02 0 0-.01 0-.02 0 0-.11-.12-.24-.24-.22-.07 0-.13.03-.18.07-.06-.02-.12-.04-.19-.04-.09 0-.18.03-.24.09-.01-.02-.03-.04-.05-.06-.07-.1-.21-.13-.33-.1-.21.06-.27.26-.26.45-.07.01-.14.03-.21.08-.01 0-.02.02-.03.02.01-.05 0-.1-.02-.14-.05-.08-.13-.1-.21-.08-.23.04-.4.17-.46.4-.04.01-.08.03-.12.05-.03-.01-.06-.02-.09-.02 0 0-.02 0-.03 0-.15-.02-.3.11-.3.27 0 .09.04.15.09.19-.01.03-.02.06-.02.08v.08c-.02.02-.03.04-.04.06-.19-.05-.44-.04-.58.11-.05.05-.07.11-.08.17-.04 0-.08 0-.11 0-.03-.02-.07-.04-.11-.04-.13 0-.19.1-.2.19 0 .01-.02.02-.02.02-.05.09-.07.23 0 .32.09.13.21.19.37.21.09 0 .19-.03.27-.09.19.11.4.14.62.08.02 0 .04-.02.06-.03.01.06.04.11.07.16s-.08.02-.12.04c-.1.04-.18.09-.23.18-.07.12-.07.27 0 .39s.2.19.33.19c.15 0 .25-.08.34-.19.02-.03.04-.07.05-.1.02-.02.03-.04.03-.07.03-.07.07-.13.11-.19.02 0 .04-.01.06-.02.09.11.25.18.4.17.01.06.03.11.06.16-.12-.03-.25-.03-.37 0s-.24.11-.33.2c-.13.14-.18.29-.2.48-.01.09 0 .2.03.28.07.19.17.31.32.42.11.08.3.11.42.1.18-.02.34-.07.49-.16.08-.05.15-.12.2-.2.07.05.14.08.22.09.08.13.2.24.33.32.27.15.64.19.94.1s.5-.31.61-.6c0 0 0 0 0-.01.36.31.71.63.92 1.06.04.08.08.17.11.26.14.47.21.97.25 1.48.01.3.02.59.02.87.02.95 0 1.88-.05 2.82-.03.34-.05.67-.07 1-.02 0-.03.02-.04.05-.09 1.13-.28 2.67-1.33 3.29-.15.07-.32.13-.52.17-.02 0-.04.03-.03.05-.01 0-.02 0-.04.01s0 .02 0 .02c.01 0 .02 0 .04-.01 0 .01.02.02.04.02.21-.02.42-.07.61-.15-.08.06-.15.11-.23.17 0 0 0 0-.01 0-.04.03-.09.06-.13.09-.01 0 0 .02 0 .02.03 0 .06-.02.09-.03 0 .05.03.09.09.09.23-.02.45-.1.65-.21.01.02.02.04.04.07-.15.05-.31.08-.46.11-.06 0-.04.1.01.1.19.02.38 0 .57-.03-.04.06.04.12.09.07.04-.03.07-.07.1-.1h.06c.16-.03.3-.09.44-.17.06-.03.12-.07.17-.1-.03.08-.07.16-.1.24-.04.08.03.15.1.15-.02.08-.04.16-.06.24-.01.06.05.13.12.09.26-.17.41-.44.53-.72.12.32.58.38.84.16.07.03.14.04.19.02.03 0 .05-.02.06-.05.21.08.46 0 .52-.2.02.01.04.01.05 0 .15.07.3.09.46.01.04-.02.04-.07.03-.1 0 0-.01-.01-.02-.02.14.02.27.02.4 0 .12.04.23.07.34.09.04 0 .07-.05.03-.07s-.08-.05-.12-.07c.01 0 .03 0 .04-.01.04-.02.05-.08 0-.1-.29-.05-.55-.13-.8-.25-.16-.09-.3-.2-.41-.36-.04-.07-.08-.14-.11-.22-.04-.27-.08-.55-.13-.82 0-.15-.02-.29-.04-.42-.19-1.32-.26-2.64-.21-3.97.02-.6.05-1.19.21-1.77.14-.5.38-.97.62-1.42.36-.69.75-1.38.93-2.13.12.11.28.17.45.18-.02.32.13.67.42.87.47.33 1.11.06 1.42-.36.06-.07.1-.16.13-.25.08.03.18.05.25.04.15-.02.17-.02.3-.08.06-.03.11-.08.16-.12.14-.13.18-.31.2-.49 0-.01 0-.03 0-.04.02.01.05.02.07.04.2.09.37.1.58.07s.39-.2.48-.4c.05-.05.07-.12.07-.19.29.08.62.07.9-.01.3-.09.46-.38.39-.68-.07-.28-.26-.6-.54-.72-.2-.09-.36-.1-.58-.07-.05 0-.1.02-.15.05-.11-.04-.23-.05-.36-.02-.09.02-.15.06-.22.11-.01-.15-.06-.29-.15-.43-.13-.2-.32-.34-.52-.43.01-.04.01-.08.01-.13-.02-.17-.05-.36-.2-.48-.01-.01-.03-.02-.04-.03-.02-.05-.06-.1-.11-.11 0 0-.01 0-.02 0-.08-.09-.19-.15-.32-.16-.26-.02-.52.04-.73.21 0 0-.01.01-.02.02-.05-.04-.11-.06-.17-.04-.02 0-.04 0-.06.01-.1-.07-.2-.14-.31-.2-.03-.13-.13-.23-.3-.22-.08 0-.17.02-.25.04-.35-.05-.66.07-.87.37-.13.18-.15.4-.12.61-.02 0-.05.02-.08.03-.04 0-.07 0-.1.02 0 0 0 0-.01 0-.06 0-.13 0-.2.02-.12.02-.23.09-.31.18-.03-.02-.06-.05-.1-.07-.22-.13-.48-.1-.7.02-.04.02-.07.05-.1.07-.04-.7-.07-1.4.12-2.08.2-.7.56-1.34.75-2.04.02 0 .04 0 .06-.01.12-.04.21-.13.26-.24.19.03.38 0 .54-.1.02 0 .04.01.06.02-.1.21-.05.49.18.62.15.09.34.09.49 0 .09-.05.12-.09.18-.17.02-.03.04-.08.06-.12.19.06.39.04.54-.12.02-.02.04-.05.06-.08v.01c.05.1.13.17.22.23.12.09.27.08.41.06.22-.04.43-.28.42-.5 0-.05 0-.11-.02-.16.1 0 .21-.03.31-.1.14-.09.28-.27.26-.45 0-.02 0-.04 0-.06.08-.13.07-.31 0-.43-.1-.17-.3-.24-.49-.2-.07.02-.13.04-.19.07.02-.03.03-.07.02-.13 0-.02-.02-.05-.03-.07.12-.08.21-.21.27-.36 0 0 0 0 .01-.01.08-.08.07-.17.03-.24-.03-.16-.14-.31-.3-.34 0 0-.01 0-.02 0 0-.01 0-.02 0-.02.01-.09-.06-.17-.12-.22-.04-.02-.07-.04-.11-.05 0 0 0 0-.02 0-.01-.11-.06-.2-.16-.26-.09-.05-.19-.06-.29-.02-.02-.07-.07-.14-.17-.14-.21 0-.24.29-.07.36-.04.07-.08.13-.11.21-.02 0-.04 0-.06 0-.01-.1-.1-.19-.2-.22 0 0 0-.02-.02-.02.04-.03.07-.08.07-.12 0-.03 0-.05 0-.08.03-.07.03-.14-.03-.2-.07-.07-.19-.07-.26 0-.06.06-.08.13-.08.2-.14-.07-.27-.08-.43-.05-.07.01-.12.04-.18.08-.01-.02-.03-.04-.04-.06-.02-.1-.09-.2-.19-.22-.14-.02-.28-.04-.42 0-.19.06-.36.24-.36.45 0 .11.03.2.08.27-.04.02-.07.04-.1.07-.11.08-.18.21-.21.34 0 0 0 0 0-.01-.17-.2-.58-.16-.69.09-.02.04-.03.08-.04.12-.03.05-.04.12-.03.18-.01.15.06.27.17.36.15.14.34.17.54.14.02 0 .04-.01.06-.02-.07.14-.05.31.06.43.12.12.3.2.47.18v.02c-.03 0-.07 0-.1 0-.1 0-.19.03-.26.09 0-.03-.06-.04-.07 0-.04.09-.07.18-.11.27-.13.03-.24.14-.27.27-.03.12 0 .22.06.32-.14.37-.28.74-.46 1.1 0-.4-.04-.81-.05-1.2-.02-1-.08-1.99.1-2.98.12-.7.52-1.21.99-1.67.02 0 .05.01.08.02-.04.1-.05.2-.03.32.04.21.29.36.49.34.12-.01.17-.03.29-.08.09-.04.17-.17.22-.24.02-.04.04-.07.04-.11.12 0 .25-.05.33-.14.14-.14.17-.36.09-.53.01 0 .02.01.04.02.1.23.27.43.54.48s.58-.02.71-.3c.08-.17.1-.35.06-.52.13-.04.24-.12.31-.23.05.09.12.18.22.25.15.11.37.15.56.15.26 0 .51-.13.7-.3.01-.01.02-.02.02-.03.03.01.05.02.08.03.13.03.24.02.36 0 .16-.03.32-.1.47-.18.07-.05.15-.1.21-.16.04-.04.07-.08.1-.12.02-.04.04-.08.04-.12.04.04.09.08.14.12.21.14.5.12.72.01.12-.06.21-.17.27-.27.09-.13.1-.27.12-.42 0 .04 0 .09-.02.13 0-.02 0-.04.01-.06.04-.27-.07-.56-.36-.63zm-9.27 16.02c-.3-.5-.7-.93-1.1-1.35.31-.12.56-.4.72-.67.07-.11.09-.24.07-.35.14-.02.28-.07.39-.15-.04.84-.07 1.68-.08 2.53zm-1.82-2.69c.06-.03.09-.08.1-.13.08-.02.15.1.06.13 0 0-.01 0-.02 0 0 .04-.02.08-.07.08-.04 0-.05.02-.09.02s-.05-.05-.06-.08c.03 0 .05-.01.08-.03zm-2.35-1.06s0-.01 0-.02h.04c.04.02.08.05.12.06 0 .01-.02.02-.03.04-.05.07-.17 0-.13-.09zm3.39-6.88s0 0 0 0c.03.04.07.07.12.1 0 0 0 .01-.02.02-.07.07-.18-.04-.11-.11zm-1.33.22s.02 0 .03 0c0-.03.02-.05.05-.06-.02.09.03.2.15.2.03 0 .05 0 .07-.02-.07.14-.23.21-.4.16-.04-.01-.06-.05-.06-.1.02-.08.06-.17.15-.19zm7.67-7.32s0 0 0 .01v.05c0 .1.08.15.16.16 0 .01.01.02.02.03-.08-.01-.16-.01-.24 0 .02-.06.02-.13 0-.2.01-.02.03-.03.04-.05zm-3.48-.05c.08-.05.16.08.08.13-.07.04-.15.06-.21 0-.05-.05-.04-.14-.02-.2.03-.1.18-.05.15.04 0 .01 0 .02-.01.04h.01zm1.32 1.28s.01 0 .02 0c0 0-.01.01-.02.02 0 0 0-.01 0-.02zm-2.19 3.51c.03-.39.07-.79.11-1.18.08.22.3.34.53.33-.02.06-.01.12.02.17-.13.1-.25.22-.36.35-.11.1-.21.21-.3.33zm-1.83-3.47c-.06-.07-.14-.13-.22-.17 0-.06-.01-.11-.04-.16 0 0 0-.01.02-.02.02-.04.05-.07.06-.11l.06.06c.12.11.28.16.44.18h.04c.11.47.27.93.39 1.41-.17-.18-.36-.31-.59-.33.02-.04.03-.07.04-.1.09-.27-.02-.54-.19-.74zm1.84-3.06c.09 0 .18.02.26.04.05.01.07.07.05.11-.02.03-.04.06-.06.08-.01 0-.03 0-.05 0-.09 0-.14.07-.14.14-.07.02-.14.02-.21-.03-.04-.03-.07-.07-.09-.11-.02 0-.03-.02-.04-.04.14-.02.18-.17.12-.27.01-.02.02-.04.04-.05.07-.07.18.04.11.11 0 0-.02.02-.02.03h.03zm.78 3.25c.05.08.14.16.24.2.01.08.05.16.12.22.03.02.05.04.08.06-.03.11-.04.21-.02.34.01.09.07.17.13.24-.02-.03-.06-.05-.11-.05-.09 0-.13.06-.14.12-.07.03-.13.07-.18.13-.09.11-.14.24-.14.37s0-.01-.01-.02c-.08-.08-.18-.09-.28-.08-.14.02-.26.11-.34.22.07-.7.16-1.41.25-2.11.1-.02.18-.06.25-.13.04.02.09.04.14.05-.07.14-.08.3 0 .44zm1.46 1.67s0 0 0 0c-.04.02-.08.04-.12.06-.01 0-.02 0-.03 0-.02-.02-.04-.04-.06-.06-.06-.05-.12-.09-.18-.13 0-.09-.02-.17-.06-.25.05 0 .1 0 .15.01.04.02.09.04.13.05 0 .02.01.04.02.05-.08.08-.05.26.1.26h.04zm-.9-.61s0 0 0 0t0 0zm-3.14-3.33s-.04-.01-.06-.01c.03-.02.05-.04.08-.07-.01.03-.02.05-.02.08zm.69 1.65s.06-.1.07-.16c.01-.08.01-.17 0-.25.21.03.4.01.59-.09.21-.11.34-.32.37-.55.02.02.05.02.07.04-.11.42-.22.83-.32 1.25-.05.22-.1.44-.11.66 0 .05-.02.26-.02.37-.17-.44-.43-.84-.64-1.27zm1.35.28s.02 0 .04 0h.01c-.07.39-.14.77-.21 1.16.04-.39.1-.77.16-1.16zm-2.04-1.1c.07.02.07.15-.02.15-.06 0-.15-.01-.16-.08-.02-.06.03-.12.07-.16.07-.07.16.03.12.1zm3.32-.34s-.01.01-.02.02c0 .04-.02.08-.07.08-.06 0-.15-.03-.12-.11.01-.05.07-.07.11-.1.07-.07.18.04.11.11zm-.16.65s.05.06.03.09c0 .04 0 .08-.05.09-.02.02-.03.05-.05.07-.05.04-.12.06-.18.08-.05.02-.1-.03-.1-.07 0-.08.02-.19.11-.22h.04c.01-.02.02-.04.04-.05.06-.03.11 0 .16.02zm-3.43 3.32c.06-.04.1-.09.13-.14.05.01.09.01.13.02.27 0 .51-.14.7-.32.05-.05.09-.11.11-.17.09.66.11 1.34.11 2.01-.22-.15-.46-.25-.74-.32-.19-.05-.36-.1-.52-.17.24-.29.23-.63.07-.9zm2.7-5.4s-.05-.02-.07-.04c-.04-.07-.08-.14 0-.2 0 0 .01 0 .02-.01.02.05.04.09.07.13.02.03.06.06.1.07-.03.03-.07.04-.12.04zm-2.24-.75s.05 0 .08 0c-.02.02-.04.04-.05.06 0 0-.01.02-.02.03-.03-.04-.02-.08 0-.11zm-.91 1.71s.04 0 .06-.02c.07-.06.18.04.11.11-.05.05-.1.06-.17.06-.1 0-.1-.15 0-.15zm-2.44 4.22s.09-.05.13-.09c.01-.02.02-.03.04-.05v.07c0 .01-.01.03-.02.04-.04.04-.09.04-.13.03zm6.61 10.48s.07.08.11.11c.02.01.05.02.07.02-.08.03-.15.08-.2.15v.02c-.02 0-.04 0-.06 0-.06 0-.09-.07-.07-.11.03-.05.07-.08.1-.1-.03-.04 0-.09.05-.11zm-.89 1.39c.12-.06.21-.14.29-.23.04.18.16.31.35.37.13.05.27.08.41.09v.07c0 .01 0 .02-.01.03-.03-.01-.06-.01-.08.02-.34.78-.87 1.46-1.23 2.23-.04.08-.09.15-.13.23 0-.52-.02-1.04-.02-1.55 0-.4-.02-.79-.03-1.19.16.02.32 0 .46-.08zm-.28-10.39s-.02.02-.02.03c0-.01.02-.02.02-.03zm3.74-3.39s.04 0 .06 0c0 .02.01.04.02.06 0 0-.02 0-.02.01-.02 0-.04.01-.06.02 0-.03 0-.05 0-.08zm-1.87-1.54s-.03.05-.04.08c-.1-.02-.2-.03-.3-.01 0 0 .01-.01.02-.02.12.03.22 0 .32-.04zm.11-1.92s-.02-.02-.03-.02.02.01.03.02zm-.21-.41s0 0 0 0zm-5.3 1.8c.07-.14.24-.07.34 0 0 0 0 0 .02.01.08-.02.16 0 .24.02.04.01.06.05.05.09-.04.16-.12.4-.32.42-.12.01-.23-.1-.28-.2s-.1-.24-.05-.34zm-2.5 4.24c0-.09.13-.1.15-.02.06.02.09.11.02.13-.1.05-.17 0-.17-.12zm4.59 4.18s.03-.01.04-.02c0 .62-.02 1.25-.02 1.87-.25-.28-.53-.53-.8-.79.12-.02.24-.05.34-.11.35-.21.48-.58.44-.95zm-3.12-.17s-.01-.02-.02-.03c0 0 0-.01 0-.02.05-.02.09-.07.1-.12h.05.09c.1-.03.14.12.04.15-.05.01-.1.04-.15.05-.05 0-.1 0-.14-.03zm.7.34s-.05.04-.09.02c-.03-.01-.05-.03-.07-.06-.05-.06.02-.15.06-.2.06-.06.16.02.12.09.04.03.05.12-.02.14zm-3.13 6.52h-.08c-.1 0-.1-.15 0-.15h.08c.1 0 .1.15 0 .15zm.27-.53s0-.03.02-.05c.01.01.02.02.03.02.04.06.1.09.17.1-.02.01-.05.03-.07.06h-.01c-.02 0-.05 0-.07-.02-.03-.04-.05-.07-.06-.12zm.59.64s-.04-.04-.07-.06c.04-.03.06-.07.08-.12.02.01.05.02.07.03.07.03.15.03.24.02-.01.1 0 .19.05.27 0 .01 0 .02-.01.04 0 0-.02-.02-.03-.02-.03-.02-.08-.03-.12-.05h-.02c-.02-.02-.04-.05-.07-.06-.04-.02-.08-.03-.12-.03zm1.89 1.26c0-.06.02-.12.07-.16h.01c0-.03.03-.06.07-.07s-.06.07-.06.13c0 .07.04.13.1.15-.03 0-.07.01-.1.02-.05.01-.1-.02-.1-.07zm.92.82s0-.03.01-.05c.14.09.26.19.37.3-.12-.08-.25-.17-.38-.25zm4.52.06c.1-.24.19-.49.26-.74 0 0 .01.01.02.02-.08.25-.18.48-.28.72zm3.94-1.69s-.03.04-.06.06-.07.01-.11 0c-.03 0-.06-.04-.06-.08 0-.06.03-.11.07-.15.04-.05.1-.02.12.03.06.02.08.1.02.14zm.28-.53s.04-.08.03-.12c.04.04.02.11-.03.12zm.07.49s.03-.07.06-.09c.01 0 .04-.02.05-.03-.07-.06 0-.19.08-.13.07.05.17.14.13.24s-.16.11-.25.11c-.04 0-.09-.05-.07-.1zm-4.42-7.96c.02.05.06.09.13.1s-.08 0-.1-.02-.02-.05-.02-.07zm.28-.1c-.02-.05-.06-.09-.13-.1 0 0 .02-.01.02-.02.03-.03.06-.03.09-.01.01 0 .02-.01.04-.01.03 0 .05 0 .06.02.03 0 .05-.01.08-.02.06-.02.11.05.09.1v.02h-.03s-.04-.01-.07-.01c-.05 0-.1 0-.15.03zm.95 1.48c.09.05 0 .18-.08.13-.12-.07-.12-.21 0-.29.09-.05.16.08.08.13-.02.01-.02 0 0 .02zm.66-1.64c.06.05.02.16-.07.13-.04-.02-.07-.03-.1-.06.03-.04.04-.09.04-.13h.01c.03-.02.06-.04.09-.07.05.02.07.09.02.12zm-2.11-.18s0 0 .01 0c.05.01.11.01.17-.02h.02c0 .01.01.02.02.04 0 0 .02.02.02.02.01.02.02.05 0 .08-.03.09-.08.1-.17.1-.06 0-.11-.07-.11-.13 0-.03.02-.06.04-.07zm-1.05 3.35c-.03.06-.05.12-.08.17v-.02c.03-.05.05-.1.08-.15zm4.08-8.01s-.02.02-.03.02c0-.06-.05-.12-.13-.12-.05 0-.08.02-.1.06 0 0-.01 0-.02 0-.02-.01-.04-.02-.06-.03t-.01 0s-.04-.04-.06-.06c.07 0 .11-.04.14-.09.01 0 .02-.01.03-.02.01.11.12.18.23.16.03 0 .05-.02.07-.03-.02.04-.05.07-.06.11zm.87-.17s0 .05.01.08c-.02-.02-.03-.05-.05-.06.01 0 .03-.01.04-.02zm.5.78s-.04-.02-.06-.04c-.03-.02-.06-.04-.09-.06 0 0 0 0-.01-.01.11.08.1.08-.02-.02-.04-.02-.09-.04-.14-.05.02-.15-.02-.31-.11-.45.03.03.08.05.13.05h.03c.04.11.12.21.24.24.02.03.05.06.09.08s.09.04.13.04c-.07.07-.13.14-.19.22zm.2-1.33s0 0 0 0c-.06-.01-.12 0-.19 0 0-.02 0-.04 0-.06h.05c.05 0 .1-.03.15-.05 0 .03-.01.07-.02.1z"/></svg>