<svg fill="none" height="135" viewBox="0 0 142 135" width="142" xmlns="http://www.w3.org/2000/svg"><path d="m81.9658.206055c8.3165-1.313545 16.2455 3.751175 18.8372 11.893545 5.21-2.0692 10.947-1.6775 15.849 1.5391 4.115 2.6983 7.106 7.4226 7.561 12.8388 8.467.914 14.721 7.4851 15.35 15.9121.309 4.0989-1.012 8.1231-3.504 11.5059 4.874 4.7675 6.512 11.7622 4.09 18.2705-2.148 5.7724-7.493 10.1722-14.045 10.9082-5.618.6291-11.01-1.6779-14.848-5.9746-2.414 5.7092-7.344 9.4843-13.2941 10.4141-5.2383.8229-10.3422-.7837-14.2353-4.5264-1.4322 1.6418-2.7933 2.8719-4.6368 3.8887-.7833 4.1661-.827 7.759-.6054 12.0478.5419 10.6142 2.4685 25.3092 7.4443 35.5012l-31.0527.019c4.1581-9.634 6.9124-19.699 7.4228-30.183l.17-3.517c.1978-4.0592-.0197-10.1013-1.084-13.9588-1.4679-1.096-2.8729-2.2711-4.1983-3.7706-4.0197 3.7231-9.151 5.3766-14.7217 4.4825-4.712-.7557-9.1078-3.7146-11.8457-8.2842-3.6952 4.89-9.4123 7.0461-15.0224 6.6387-6.70621-.4867-11.18127-5.0409-13.98244-9.7452-4.13801-6.9472.9457-12.7907 1.29004-18.3691.35212-5.6696-4.09541-12.2775.96093-18.6553 3.60433-4.5459 9.12407-8.767 16.05177-7.7343-1.4164-6.3066.8983-12.2656 5.373-16.2696 4.5776-4.0986 11.0822-5.36091 17.0088-3.2324 1.919-5.66927 6.6744-9.86673 12.1182-11.132809 6.4451-1.499496 12.6015.585459 16.9892 5.471679 2.7062-3.19679 6.3658-5.317775 10.5596-5.978515zm3.9649 134.222945c-.0007-.002-.0014-.003-.002-.004h.002zm13.6572-66.3851c-2.3858-.7477-3.3752-.9978-5.5947.292l-2.7178.0323-.0596 1.5781c-4.0631 1.7013-3.3424 7.3036-1.1347 10.0058 2.0731 2.5401 3.5844.9261 5.3212 1.3692v-.0039c1.2977.3283 2.4174-.0241 3.3155-.9776 2.3572-2.4965 3.2122-7.568.2929-9.8232zm-45.3213-.0078c-2.5202-.7042-3.4736-1.0647-5.6377.3516l-2.6348-.0557-.0634 1.6026c-3.9881 1.63-3.4378 6.8686-1.3369 9.832 1.1986 1.6891 2.6542 1.8005 4.6835 1.5078l.004.0039c.9336-.1345 2.1167.4463 3.0029-.1074 3.4698-2.1681 4.5025-8.1345 1.3769-10.7734zm-5.1191 2.5069c.4431-1.088 2.1164-1.9188 2.9472-1.2422.0078 1.5191-1.6501 1.9067-2.7539 2.334.9021-.0396 1.8444-.2171 2.7188-.0391 2.0925.4238 2.6501 4.8895-.0596 7.6865-.4946.5104-1.0961.6608-1.7607.3838l.0039.0049c-1.9387-.8031-2.5047 1.0443-3.9131-.4551-1.8951-2.0217-2.4568-6.0338-.3838-7.3633.7517-.4826 1.67-.3161 2.8174-.3359l-1.1045-1.5078zm45.3203.0215c.459-1.0681 1.9584-1.8747 3.0068-1.3409.0435 1.4283-1.5073 1.9266-2.7021 2.4014.9098-.0119 1.8673-.2373 2.7099.0078 2.1563.6212 2.3863 4.9855-.0508 7.5928-.534.5696-1.2345.736-1.9267.4355v-.0039c-1.8635-.811-2.3823 1.151-3.961-.5898-2.5952-2.8644-1.6496-7.3741.459-7.4932l2.1367-.123-1.2031-1.3692zm-64.7149-13.5635c-2.3974-.7636-3.557-1.0048-5.622.3203l-2.6358-.0352-.0586 1.5821c-1.8515.811-2.9086 2.5046-2.9404 4.538-.0356 2.1484.5816 4.155 2.0019 5.7217 1.1632 1.2859 2.6754 1.6611 4.4043.8936l-.0078.0039c1.3965.799 2.8047.3567 3.8135-.6006 2.5875-2.4569 3.3668-7.6121.4629-10.085zm87.4921.3203c-2.199-1.3369-3.058-1.0876-5.59-.332l.523 2.2158-1.215 1.749c-1.772 2.5519-.403 6.2782 1.674 8.4463 1.195 1.2462 2.464 1.0131 3.964.8271 1.056-.1305 2.184.6053 3.295-.2255 2.066-1.5391 3.007-3.8852 3.007-6.4014 0-2.1009-1.024-3.8937-2.943-4.7324l-.075-1.5821zm-41.7909-1.7959c-1.6419-.5895-3.2172-.5455-4.6494.5781h-2.8174l-.1299 1.6455c-3.6874 1.4876-3.2324 6.4531-1.6181 9.1475 1.994 3.3231 4.4588 1.9621 5.163 2.1006l.0079-.0078c1.7368.3362 3.1258.2332 4.2929-1.2149 2.0414-2.5361 2.9356-7.2761 0-9.5351l.4785-1.7647c.0474-.1703.0514-.6717-.0986-.7236zm-50.8135 3.9697c.459-1.0484 1.931-1.8515 2.9082-1.3174.1897 1.3767-1.4283 2.0647-2.6982 2.3575.8427-.0119 1.8005-.1268 2.7461.0078 1.8593.2614 2.7769 4.819-.0713 7.6992-.4945.5024-1.1433.633-1.7803.3799-1.9424-.7754-2.3979.9615-3.7705-.3672-1.9861-1.9229-2.6234-5.8402-.6728-7.3516.8189-.6369 1.7486-.4433 2.7851-.3681.4269-.542-1.3764-1.1076-.8349-1.5625zm89.2034-1.3232c.993-.5378 2.532.325 2.939 1.4287.542-.3324 1.1-.7439 1.574-.4551l-1.214 1.2227c.166.1068.506.2134.661.166 1.491-.455 3.11.5144 3.375 2.2236h-.004c.455 2.9552-1.488 6.7054-3.557 5.8516-1.859-.7676-2.374.9767-3.751-.3604-2.401-2.3343-2.548-7.2052.154-7.7314.768-.1503 1.777.044 2.481.0361-1.282-.3521-2.884-1.0169-2.658-2.3818zm-42.8381.2334c.7517-1.1315 1.828-1.9544 3.2246-1.4678-.0752.898-.716 1.5786-1.5547 1.9268l-1.2422.5185c1.0009-.0317 1.9188-.2854 2.7852-.0283 2.0454.6093 2.5358 4.9892-.2178 7.7666-.4036.4075-1.0724.5183-1.5987.3047l-.0039-.0039c-2.0016-.8029-2.6112.9498-3.9326-.4229-2.8209-2.9316-1.9108-7.5724.2256-7.6953l2.1484-.123-1.2822-1.3409c.5776-.2294.9379.1066 1.4483.5655zm-21.0596-15.7422c-2.1829-1.8428-5.5552-.5553-5.5625-.2656 0 .2057.0317.6178.0713.7959l.3554 1.5859c-2.9395 2.1602-2.0052 7.5812.4122 9.8799 1.1353 1.0758 2.5633 1.4081 3.9794.6133 1.2872.6342 2.6825.6075 3.794-.3536l.2139-.2001c1.6577-1.6815 2.3699-3.854 2.3027-6.1368-.0594-1.9742-1.0996-3.601-2.8682-4.4121l-.1308-1.7285zm45.4082.0234c-1.4242-1.0285-3.0779-1.3488-4.8066-.7041l-.792.293c-.458.171.6683 2.2423.1826 2.5713-2.7179 2.5636-1.7334 7.5406.6758 9.8672 1.1314 1.0919 2.6234 1.2704 3.9843.5742 1.5153.7794 3.0429.455 4.21-.8545l-.0039.0078c1.7293-1.9426 2.3653-4.4949 1.8793-7.0508-.285-1.4993-1.4405-2.575-2.7026-3.2832l-.1025-1.626c-.8348.008-1.6698.0864-2.5244.2051zm-48.9141.7168c1.1909-.5183 2.4656.4349 3.0235 1.4912.5576-.3954 1.0754-.7117 1.5263-.5459-.5774.6012-.9891.9454-1.1552 1.4121 1.0563-.0395 1.8124-.1856 2.5918.21.5379.2729 1.1238 1.056 1.2783 1.8115v-.0039c.7042 3.4303-1.7532 6.6985-3.043 6.2197-1.0442-.3875-1.7761-.3518-2.8203-.0078-1.3689.4511-3.7705-2.8007-3.0586-6.2031.364-1.7487 1.8553-2.2837 3.6475-2.1611-1.0443-.3838-2.2114-1.1983-1.9903-2.2227zm45.3096.0303c1.1632-.5618 2.4414.3764 2.9834 1.4209l.8857-.5264c.0712-.0435.3678-.0713.4473-.0595.079.0118.1543.1854.1191.2568-.3086.637-.8939.2342-1.0205 1.251 1.0047-.0634 1.6773-.2179 2.4961.1777.6093.2928 1.2423 1.0842 1.3926 1.915l.0117.0039c.6409 3.5091-1.9066 6.5161-2.9472 6.1407-1.1276-.4075-1.9115-.3846-3.043-.0127-1.2779.4189-3.7343-2.8877-2.9473-6.3018.4194-1.8239 1.9352-2.1291 3.7315-2.1133-1.0801-.178-2.2756-1.1078-2.1094-2.1523zm-63.0977-11.2949c-1.527-.6012-3.1452-.4308-4.4072.6611l-2.75-.0439-.0986 1.5507c-1.9861.8269-2.924 2.6832-2.9121 4.7959.0119 2.2193.7281 4.2846 2.3222 5.8037 1.1355 1.0841 2.5605 1.298 4.0284.5225l.0039.0039c1.4796.9415 2.9637.3912 4.0556-.7324 2.3617-2.4215 3.1645-7.4417.2647-9.8906l.6054-2.2315zm88.6767-.5186c-1.397-1.0207-2.968-1.3292-4.661-.7041l-.812.3008c-.193.0719-.059.7275-.011.9375l.36 1.5518c-2.943 2.18-2.006 7.5523.399 9.8906 1.124 1.0919 2.584 1.4203 3.997.6172 1.266.6172 2.702.6525 3.802-.3643l-.008.0039c1.816-1.6815 2.58-3.9365 2.501-6.3222-.068-1.9742-1.085-3.6316-2.885-4.4268l-.162-1.71zm-92.7313 3.3779c.5499-1.0997 1.9183-1.8944 2.9707-1.3447.0195 2.0887-2.3217 1.8518-2.753 2.4531 1.0602-.1028 1.9465-.3405 2.9395-.0517 1.8514.5382 2.4054 4.7397-.1738 7.5605l.0039-.0078c-1.3294 1.456-2.0106-.2725-3.7159.4238-2.334.9489-4.2089-3.0629-3.5918-6.121.7004-3.4856 5.5708-.9422 3.3829-2.7344l-.5069-.4151c-.0908-.0752.1587-.297.2774-.3603zm89.2023-2.5576c1.088-.5972 2.449.1786 2.987 1.3496l.969-.5185c.063-.0356.352-.0713.424-.0752.071-.0032.157.2286.098.2725l-.289.2216c-.34.2611-.66.6607-.712 1.0088 1.009-.0514 1.702-.1818 2.552.2217 1.907.8942 1.97 4.9303-.301 7.4229-.676.7395-1.325.6998-2.1.415-1.702-.6212-2.457 1.2817-4.095-.8428-1.135-1.4717-1.531-3.4179-1.163-5.1943.368-1.7765 1.851-2.2323 3.655-2.169-.977-.3126-2.085-1.052-2.025-2.1123zm-37.4875-4.8711c-4.0514-1.5311-4.5269.0153-5.6387.1973-.8543.1384-1.8431.0553-2.6816.0869l-.1348 1.6387c-3.7388 1.4995-3.2839 6.6589-1.456 9.373.7359 1.0919 2.0176 2.3807 3.497 2.0723h.0039c1.1039-.2334 1.8166-.2406 2.8809.0166.9494.2293 2.152-.5621 2.7969-1.2979 2.2275-2.5242 3.0506-7.3989.1387-9.666zm-5.2783 2.5645c.6053-1.0483 1.9816-1.9616 3.1289-1.4238.0907 1.3647-1.4321 1.9147-2.71 2.4013.8585 0 1.8357-.2331 2.7061-.0117 2.0732.5262 2.6477 4.9102-.1455 7.7588-.4035.4114-1.0764.5337-1.6026.3281l-.0039-.0039c-2.1364-.8308-2.493 1.0246-4.0439-.5342-2.4886-2.5004-2.0452-7.3912.3603-7.5732l2.1084-.1582-1.2187-1.2578c.5222-.2453.863.0592 1.4209.4746zm-16.7793-13.4609c-1.7962-1.0801-3.9803-1.1348-5.6182.1787l-2.6347-.0918-.0752 1.6142c-3.9564 1.5549-3.4581 7.086-1.2901 9.8516.732.9337 1.9628 1.9985 3.2803 1.6543l.0039-.0039c2.7812-.7239 3.0381 1.1704 5.3603-1.0449 2.5361-2.4174 3.2642-7.6281.376-10.0059zm40.9219.1542c-1.6538-1.2462-3.862-1.2662-5.587-.1347l.5899 2.248c-2.8407 2.1247-2.1562 6.9673-.0791 9.4678.6924.8347 1.907 1.7326 3.0146 1.4834 1.1077-.2492 1.8752-.2175 3.0381 0v-.0078c2.4767.455 5.8007-4.4669 4.3257-8.8545-.424-1.2542-1.374-2.0852-2.4897-2.6826l-.0752-1.5791zm-46.0342 2.1612c.4589-1.0721 1.9348-1.8193 2.9199-1.3408.1819 1.4559-1.4006 1.9469-2.6943 2.4375l1.5556-.1465c1.3173-.1265 2.3972.5497 2.7295 1.875.7794 3.0938-1.3925 7.145-3.4062 6.2988v-.0078c-1.9426-.815-2.414 1.0564-3.8858-.4629s-2.0414-3.6959-1.5468-5.7256c.4194-1.7287 2.1166-2.3731 3.707-1.8193.087-.2137.1702-.4278.0713-.5029l-.4864-.3956c-.2492-.2017-.5147-.5384-.3525-.7402zm42.4931-1.3096c1.2265-.5419 2.5001.1981 3.1172 1.3731.546-.3205.9263-.5063 1.5039-.4747l-1.1953 1.2891 2.1289.1426c2.0929.1386 2.9986 4.5852.3203 7.5683l.0039.0049c-1.424 1.586-2.0849-.2652-3.8769.4942-.7438.3165-1.4089.1108-1.9746-.4746-2.1009-2.188-2.3936-6.5881-.0791-7.4981.8545-.3362 1.8476-.0983 2.8525-.0469-.7992-.6804-2.1084-.0241-2.8008-2.3779z" fill="#000" fill-opacity=".88"/></svg>