<svg width="104" height="126" viewBox="0 0 104 126" fill="none" xmlns="http://www.w3.org/2000/svg">
<path d="M57.9916 116.818L59.2564 125.423C58.7523 125.387 58.3585 125.238 57.8723 125.023C54.2959 122.431 51.7635 119.484 49.2668 115.609C45.6099 119.413 38.6211 120.704 33.5055 120.847C40.6763 112.564 44.8164 102.506 45.6427 91.8482C45.8008 88.1703 45.8157 84.2419 45.0789 80.7281C41.7203 82.1868 39.6054 83.2337 36.032 83.2576C34.0007 83.2695 32.0081 83.1323 30.0991 82.5029C29.4041 82.2733 28.9239 82.312 28.3243 82.7237C24.3989 85.4112 19.7844 85.9779 15.1223 85.5365C11.1402 85.1577 7.3967 83.8184 4.28858 81.3516C0.103658 78.0346 -1.62341 72.755 1.88441 68.2807C2.92244 66.9564 4.33034 65.9571 5.84563 65.0921C0.721106 60.591 -0.460099 53.9482 3.88888 48.5433C6.06636 45.8378 9.00445 44.0392 12.3452 42.8252C10.469 38.6701 10.8091 34.685 13.8456 31.2249C15.6651 29.1518 18.0872 27.8125 20.6584 26.7507C18.642 22.8431 19.6264 19.0012 23.5667 16.9908C24.8404 16.3405 26.0514 15.8633 27.4593 15.559C29.6875 10.0348 34.2214 5.67688 39.4861 3.11462C42.0901 1.84691 45.771 0.635881 48.6613 0.34058L51.2325 0.0780897C53.4786 -0.151589 56.4913 0.158626 58.7135 0.576224C68.5211 2.41067 77.5889 9.53369 78.5733 20.0542C79.6441 20.0959 80.706 20.0094 81.744 20.1228C84.7656 20.4539 86.9878 22.8014 87.1907 25.814C87.2384 26.512 86.9938 27.2667 86.8238 28.0005C87.8827 28.7283 88.879 29.471 89.7947 30.3629C93.1474 34.2197 93.0341 38.5925 90.3167 42.9475C93.0192 44.2152 95.4203 45.7573 97.3115 48.0094C100.933 52.4448 101.643 57.4918 98.6239 62.5149C101.473 64.7103 103.453 67.6543 103.79 71.1622C104.056 73.9034 103.253 76.4955 101.404 78.491C98.1944 81.9541 93.565 82.8937 88.8939 82.1838C87.4532 85.3575 84.7328 87.5618 81.3503 88.3553C76.1303 89.5782 70.7433 87.4485 68.2407 82.5507C66.2571 83.4753 62.8925 84.0272 61.4905 82.2464C60.8253 81.3993 60.7388 80.4299 60.0617 79.4067L60.1393 89.8019L60.2556 92.9309L60.5629 99.0338L60.8611 102.47L61.0729 104.227C61.6009 108.582 62.7373 113.295 66.1616 116.299C67.5964 117.557 69.1982 118.536 70.8865 119.451L72.533 120.346C72.6016 120.385 72.7567 120.519 72.8104 120.57C72.8641 120.621 72.5777 120.779 72.5062 120.8C70.9968 121.223 69.3145 121.134 67.7783 120.776L64.9536 119.884L57.9887 116.809L57.9916 116.818Z" fill="black" fill-opacity="0.88"/>
</svg>
