<svg viewBox="0 0 28.01 32.26" xmlns="http://www.w3.org/2000/svg"><path d="m26.75 12.1c.27-.06.55-.13.77-.29.01 0 .02-.01.03-.02 0 0 .01 0 .02-.01.02-.01.04-.03.06-.04s.04-.02.05-.04c.27-.2.43-.46.26-.77-.12-.24-.44-.35-.76-.38 0 0 0 0-.01 0 .13-.07.16-.24.01-.32-.07-.04-.16-.05-.24-.04.06-.04.09-.08.1-.12.02-.05 0-.1-.03-.14.08-.01.16-.03.24-.06h.01c.04-.01.07-.03.11-.05.02-.01.04-.03.05-.04s.03-.02.04-.03c.01-.01.02-.02.02-.04.01-.01.02-.03.03-.05.01-.03.02-.05.02-.08 0 0 0 0 0-.01 0-.06-.04-.12-.12-.16-.31-.15-.74-.15-1.11-.05-.01 0-.02 0-.04.01-.07.02-.14.04-.2.07.06-.07.12-.15.14-.23.01-.04.02-.09.02-.13.01-.15-.04-.28-.22-.33-.15-.04-.34.01-.48.05-.16.04-.31.1-.45.18-.08.04-.12.07-.14.08 0-.02.01-.03.02-.05.03-.05.06-.12.01-.2-.02-.03-.04-.05-.07-.06h-.01s0 0-.01 0c-.02 0-.05-.01-.08-.01 0 0 0 0-.01 0-.03 0-.06 0-.09.01-.01 0-.02 0-.03 0-.04 0-.07.02-.1.03.06-.08.02-.17-.05-.23 0 0-.01 0-.02-.01-.02-.02-.05-.03-.08-.04 0 0-.01 0-.02-.01-.05-.02-.1-.03-.15-.02.39-.37.75-.88.62-1.41-.01-.05-.03-.1-.06-.14 0-.01-.02-.02-.03-.03-.08-.11-.2-.18-.36-.17-.2 0-.37.08-.5.19 0-.02 0-.04.01-.06 0-.04 0-.08 0-.12 0-.01-.02-.02-.03-.04 0-.02-.02-.03-.03-.05-.03-.03-.06-.05-.1-.05s0 0 0 0c-.01 0-.02 0-.03 0-.02 0-.04 0-.06 0 .07-.11.11-.22.11-.33.02-.1.01-.19-.04-.28-.15-.23-.39-.12-.58.04 0-.03 0-.06-.01-.09 0 0 0-.01-.01-.02 0 0 0-.01 0-.02-.01-.02-.03-.03-.06-.04.03-.03.07-.07.1-.1.21-.21.37-.46.46-.73.18-.42.2-.87-.19-1.07-.03-.02-.07-.03-.1-.05 0 0 0 0-.01 0-.22-.07-.48-.04-.7.05s-.44.19-.64.31c0 0-.01 0-.02 0-.11.07-.21.14-.32.21.02-.03.04-.06.06-.09 0 0 0-.02.01-.02.01-.03.01-.06.01-.09 0 0 0 0 0-.01 0-.04-.02-.07-.05-.1-.06-.06-.15-.1-.24-.11-.04 0-.07 0-.1 0 .04-.05.08-.12.1-.19.03-.05.04-.12.02-.21 0-.01 0-.02 0-.03-.02-.07-.07-.14-.16-.18-.18-.08-.43-.06-.64.02.05-.07.08-.15.11-.23.09-.22.15-.48.15-.72 0-.04 0-.08 0-.12 0 0 0-.02 0-.03-.01-.06-.03-.12-.06-.17-.13-.19-.4-.16-.6-.1-.18.05-.34.13-.5.22-.08.05-.16.12-.23.18.04-.08.07-.16.07-.25t0 0s0-.02 0-.03c-.02-.07-.06-.17-.17-.17-.04 0-.07 0-.11.01-.19.04-.37.18-.5.31.02-.08.03-.15.02-.23s0 0 0 0c0-.04-.01-.07-.02-.1t0 0s-.03-.06-.06-.08c-.1-.07-.26-.05-.36.02-.04.02-.07.05-.1.08 0-.02 0-.04 0-.06-.02-.05-.06-.09-.12-.09-.02-.02-.03-.04-.02-.06.13-.28-.16-.6-.52-.58-.23.02-.38.15-.53.3-.09.09-.19.19-.28.28.06-.12.09-.25.11-.38.1-.26.13-.53-.02-.77-.1-.16-.33-.22-.52-.16-.12.04-.2.1-.29.19-.06.06-.12.1-.16.16 0-.06-.02-.12-.07-.15-.06-.02-.15 0-.21.05 0-.08-.02-.16-.06-.24-.06-.14-.24-.27-.42-.25-.2.03-.34.19-.44.33-.09.13-.22.31-.27.48-.03-.08-.07-.14-.14-.18-.1-.05-.2.03-.26.09-.01 0-.02.02-.03.04 0-.01-.02-.04-.07-.07 0 0 0 0-.01-.01-.06-.04-.14-.05-.19-.01 0-.09-.02-.18-.04-.26 0-.03-.01-.05-.02-.08 0 0 0-.02 0-.03v.01c-.03-.09-.05-.17-.09-.24-.09-.19-.24-.35-.49-.31-.18.02-.28.2-.33.34-.07.18-.15.4-.16.59-.05-.06-.12-.1-.18-.12-.14-.03-.24.08-.28.2-.01.04-.04.05-.06.06-.08-.05-.16-.02-.22.03-.02.02-.04.05-.06.09 0 .02-.01.04-.02.06-.01-.05-.03-.1-.05-.15 0-.01-.01-.02-.02-.04-.02-.04-.03-.08-.05-.12 0-.01-.01-.02-.02-.04-.03-.05-.05-.09-.08-.13-.11-.16-.27-.29-.47-.36-.37-.14-.62.24-.64.55-.02-.04-.05-.08-.08-.12-.08-.09-.18-.15-.3-.11-.05.02-.1.05-.13.1s-.05.05-.06.05c-.03-.08-.07-.15-.12-.23s0 0 0-.01c-.03-.05-.07-.1-.11-.14-.01 0-.02-.02-.03-.03-.02-.02-.03-.04-.05-.05-.02-.02-.05-.04-.08-.07-.15-.12-.36-.25-.54-.16-.22.1-.35.31-.39.53v.03s0 .02 0 .03c0 .02 0 .05-.01.08v.03c0 .12 0 .26.05.37-.06-.03-.12-.04-.18-.03-.13.02-.18.14-.19.26 0 .05 0 .1.02.14-.06-.03-.13-.07-.2-.07-.1 0-.15.07-.18.16-.02.07-.03.12-.03.13-.04-.02-.07-.05-.1-.07-.22-.18-.44-.37-.73-.44-.24-.06-.5-.02-.63.2-.03.05-.05.1-.06.15s0 .02 0 .03v.12.05c0 .03 0 .07.01.1v.05c0 .04.02.08.02.12-.02-.01-.05-.03-.08-.03-.02 0-.03 0-.05 0-.01 0-.02 0-.03 0s-.02.01-.03.01c0 0-.01 0-.02.01-.04.03-.06.07-.07.12v.05.02c0 .03 0 .05.01.08-.01 0-.02 0-.03 0s-.02 0-.04 0c-.02 0-.04.02-.06.03-.01.01-.02.03-.03.04v.02.07c-.05-.04-.1-.09-.15-.13-.01 0-.02-.02-.03-.02-.04-.03-.09-.07-.13-.1-.02-.01-.04-.02-.06-.04-.04-.02-.07-.05-.11-.07-.03-.02-.06-.03-.09-.05-.02-.01-.05-.02-.07-.04-.04-.02-.09-.04-.13-.06h-.01c-.22-.08-.45-.11-.68-.05-.03 0-.06.01-.09.02-.01 0-.02 0-.03 0-.19.08-.28.21-.3.35v.02c-.06.25.16.56.31.79-.16-.02-.18.03-.15.1v.06c0 .04.02.1.04.15-.23-.13-.5-.22-.69-.03-.05.05-.08.11-.09.17v.03.04.07c0 .02.01.04.02.06 0 .02.01.04.03.06 0 0 0 .02.01.02 0 .01.02.02.03.03.02.02.04.05.06.07 0 0 .01.01.02.02.06.06.12.13.17.19-.06-.03-.13-.06-.19-.1-.2-.1-.42-.18-.64-.22-.26-.05-.52-.05-.75.04-.03.01-.06.02-.1.04 0 0-.02 0-.03.01 0 0 0 0-.01 0s-.02.01-.03.02c-.18.11-.21.24-.14.38.04.12.15.22.27.31.02.02.05.03.07.05.19.15.42.27.55.35.02.02.05.03.07.05-.22.04-.25.26-.13.41-.08-.02-.16-.02-.24 0-.03 0-.06.03-.08.05-.07.04-.1.1-.05.18-.05 0-.09 0-.14 0-.02 0-.05 0-.07.02-.02 0-.04 0-.05 0h.01c-.11.03-.2.1-.23.21-.01.05-.02.11-.01.16v.02c0 .05.01.1.03.15 0 0 0 .02.01.03.02.04.04.09.07.13 0 0 0 .02.01.02 0 0 .01.02.02.03s.02.02.03.04c.06.07.12.14.19.2l.08.08c-.04-.01-.09-.02-.13-.03-.15-.01-.3.04-.34.18v.02c0 .05 0 .09.03.13-.07-.01-.14-.02-.21-.02s-.13.01-.19.02c0 0-.01 0-.02 0 0 0-.02 0-.03 0 0 0-.01 0-.02 0-.18.05-.39.14-.47.3-.03.07-.04.13-.04.2v.04.04c0 .04.01.07.03.1.07.17.21.32.36.42.04.03.08.05.12.07-.08 0-.16 0-.24 0h.01c-.11 0-.22.02-.32.04-.23.05-.53.14-.62.36-.05.12-.03.24.02.35s0 .01.01.02c.01.02.03.04.04.07 0 .01.02.02.03.04 0 0 .02.02.03.03.18.21.48.37.73.43 0 0-.01 0-.02 0-.07.01-.13.04-.19.07-.14.08-.21.2-.19.32 0 .02 0 .03.01.05 0 0 0 .02.01.03 0 .01.02.03.03.04.02.02.04.05.07.07-.03 0-.05.02-.07.03-.04.02-.08.04-.12.07-.07.06-.04.11 0 .15 0 0 .01.01.02.02.02.01.05.02.07.04-.1.03-.2.07-.29.12-.06.03-.11.06-.16.1-.18.15-.34.38-.26.61 0 .02.03.04.04.07s.02.04.03.05c.01.02.02.04.04.06.21.28.65.51 1 .54-.04.03-.09.05-.12.08 0 0-.01.01-.02.02-.03.03-.05.05-.08.08 0 0-.01.02-.02.03-.02.03-.03.05-.04.08 0 .01-.01.03-.02.04-.01.04-.02.07-.02.1v.03c-.01.21.09.43.26.57.02.02.04.03.06.05.12.1.26.18.42.22-.03 0-.07.01-.1.02-.08.03-.19.08-.2.16v.03c0 .03 0 .06.04.09.01.01.03.03.05.04-.05 0-.1.02-.15.04 0 0 0 0-.01 0-.03.01-.06.03-.08.05s-.01.01-.02.02c-.11.14.04.28.16.36.1.07.21.13.33.17.03.01.07.02.1.03.02 0 .04.01.07.02.17.04.35.05.5.01-.06.07-.04.16.02.22.02.02.04.04.07.05-.03 0-.07.01-.1.02-.13.04-.24.17-.15.29.05.07.12.11.19.16.01 0 .03.02.04.02.02 0 .03.01.05.02.03.01.07.03.1.04.1.04.21.06.31.08.05 0 .1.02.15.02h.29c-.16.06-.3.15-.38.28-.05.1-.04.19 0 .27.03.1.12.17.27.2.04.01.07.02.11.02-.04.02-.07.05-.11.07-.02.01-.04.03-.05.04 0 0-.02.01-.02.02-.04.04-.07.08-.1.12v.01c0 .01 0 .02-.01.04-.04.1-.04.22.01.34.09.2.32.27.56.26.16 0 .34-.04.49-.17-.11.14-.19.3-.15.45v.02c0 .02.01.04.02.05 0 0 0 .02.01.02.01.02.03.03.04.05 0 0 .02.01.03.02.02 0 .03.02.05.02.03.01.07.02.11.02-.02.02-.04.04-.06.05-.02.02-.03.04-.04.05-.01.02-.02.04-.03.05v.02c0 .01-.01.02-.01.03 0 0 0 .02-.01.03-.06.07-.04.14.02.21 0 .02.02.04.03.06.07.1.19.15.31.17.1.02.21 0 .32-.04-.13.19-.23.39-.23.62v.02c-.02.26.06.51.28.67.04.03.09.05.14.07h.01c.1.04.2.05.31.04h.03.08c.11-.02.22-.05.33-.1.27.2.6.37.84.51.18.1.36.19.56.26.05.13.15.23.34.22.06 0 .12-.02.17-.04.04.01.07.02.11.04.06.02.11.04.17.07v.02c0 .02.01.04.02.07 0 .03.02.05.03.08 0 .02.01.03.02.05.02.03.03.06.05.09 0 0 .01.02.02.03.02.03.05.06.08.08 0 0 .01.01.02.02.03.02.06.04.09.05.01 0 .03.01.04.02.03 0 .06.01.09.02h.06.02c.11 0 .22-.03.32-.07.02.01.04.02.06.03.17.09.39.18.6.14.18.09.38.15.57.21.34.1.91.16 1.12.42.25.31.55.58.69.94.12.3.18.62.2.94.12 1.49-.28 2.98-.34 4.46-.03.6 0 1.48-.45 2-.27.31-.62.56-.86.88-.26.34.44.37.63.39-.3.36.24.42.53.44.38.03.76.1 1.14.08h.03v.02.03c.07 0 .15-.02.22-.02.15-.02.42-.01.53-.12.03-.05.06-.1.08-.16h.04c0 .04 0 .08-.01.12h.02c.02-.01.04-.02.06-.04.08-.05.14-.06.19-.06 0 0 0 0 0-.01.04 0 .08 0 .11.01v.06h.15.05c0-.01 0-.02 0-.03v.03c.07.01.15.03.22.05.15.11.22.28.49.29.24 0 .49-.04.72-.07.33-.05.65-.15.93-.31.06-.04.11-.08.15-.14.06.01.11 0 .15-.04.06-.07 0-.19-.04-.29.13.04.27.08.42.1.22-.05.44-.12.67-.17.14-.01.27-.03.4-.05.74-.1.16-.35-.16-.56-.41-.27-.69-.58-.86-1-.17-.43-.18-.9-.22-1.36-.07-.9-.08-1.79-.16-2.69-.04-.49-.11-.97-.2-1.45-.08-.43-.06-.85-.06-1.28 0-.46.02-.83.29-1.24.21-.32.38-.47.76-.67.24-.12.49-.2.74-.26.01.02.03.05.04.07.02.03.04.06.06.09.02.02.04.05.06.07.02.03.05.05.07.08.02.02.04.04.07.06s.06.05.09.07.05.03.07.05c.03.02.07.04.11.05l.09.03c.01 0 .02 0 .04.01.04.01.1.02.15.03h.13.04c.2 0 .43-.03.56-.17 0 0 0 0 .01-.01.01-.02.03-.03.04-.05 0-.01.01-.03.01-.04s0-.02.01-.03c.01-.04.02-.09.01-.14.13.11.29.19.47.17.14-.01.29-.07.35-.2.07-.17.02-.34-.09-.5-.02-.03-.05-.07-.08-.1.04 0 .07 0 .11-.01.02 0 .03-.02.05-.03.01 0 .02-.01.03-.02h.01c.01-.01.01-.03.02-.04 0 0 0-.01.01-.02 0 0 0-.01 0-.02.01 0 .03-.01.04-.02.13.17.3.31.52.29.21-.01.27-.13.27-.27s0-.03 0-.04c0-.05-.02-.1-.05-.16-.01-.03-.03-.06-.05-.09.04.03.08.06.13.08.04.02.09.04.13.06 0 0 .02 0 .03.01.02 0 .05.02.07.02h.05c.11.02.21.03.31.02h.01.04c.11-.02.22-.06.27-.15.02-.02.02-.05.04-.08 0 0 .01-.02.02-.02v-.02c0-.02.01-.04.02-.06 0-.03.01-.06.02-.09 0-.02 0-.04 0-.06 0-.04 0-.08 0-.12 0-.01 0-.02 0-.04 0-.05-.02-.1-.03-.14 0 0 0-.01 0-.02-.02-.05-.04-.1-.07-.15-.03-.05-.06-.1-.1-.14-.03-.04-.07-.08-.11-.11 0 0 0 0-.01-.01-.04-.03-.1-.06-.15-.09.09 0 .16-.04.18-.12 0-.01 0-.03 0-.04 0-.03 0-.06-.01-.09.03 0 .05.01.08.01h.02.02c.02 0 .03 0 .05-.01.05-.02.07-.04.09-.07 0 0 0-.02.01-.03 0 0 0-.01 0-.02 0-.02 0-.04-.01-.06.17.11.35.19.57.22h.06c.23.04.45.01.57-.14s.04-.06.06-.1 0-.01 0-.02c0-.03.01-.05.01-.08.02-.22-.11-.43-.31-.6-.02-.02-.04-.04-.06-.06-.01-.01-.03-.02-.04-.03-.1-.07-.2-.13-.31-.18-.06-.03-.11-.05-.17-.06.01 0 .02-.02.03-.03 0 0 0 0 0-.01 0 0 0-.01.01-.02.02-.04.03-.09 0-.13 0 0-.02-.02-.02-.03.18.08.4.12.5-.02.06-.05.07-.13 0-.26.04.01.08.01.13 0h.02.03c.04-.01.12-.06.13-.1.06.02.11.04.17.05h.01c.06 0 .12 0 .18-.02.05-.02.09-.06.11-.1 0 0 0 0 0-.01.02-.05 0-.11-.06-.17.02.01.05.02.08.03.21.07.43.12.64.11.1 0 .21-.02.31-.06.09-.03.15-.08.2-.15 0 0 0 0 0-.01s0-.02.01-.03c.02-.04.03-.09.02-.14 0-.04 0-.08-.02-.12 0 0 0-.02-.01-.03 0-.02-.01-.04-.02-.06-.01-.04-.03-.07-.05-.11 0-.02-.02-.03-.03-.04-.03-.04-.06-.07-.09-.11 0 0-.02-.02-.03-.03-.04-.04-.08-.07-.12-.11 0 0-.01-.01-.02-.02-.05-.03-.09-.06-.14-.1 0 0-.02 0-.02-.01-.05-.03-.1-.05-.15-.07-.01 0-.02-.01-.04-.02-.05-.02-.1-.04-.15-.05-.01 0-.03 0-.04-.01-.07-.02-.13-.03-.19-.05.05-.01.09-.04.12-.06.04-.04.05-.09.04-.13 0-.02-.02-.05-.03-.07 0 0 0 0-.01-.01.21.07.62.16.76-.06.02-.02.03-.05.03-.07 0 0 0-.02 0-.03s0-.02 0-.04 0-.02-.01-.03c0-.01 0-.02-.01-.03 0-.01-.02-.02-.03-.03 0 0-.01-.02-.02-.03-.01 0-.02-.02-.03-.02s-.02-.02-.03-.02-.03-.01-.04-.02c-.01 0-.03-.01-.04-.02-.01 0-.03-.01-.05-.02-.01 0-.02-.01-.03-.01-.03-.01-.05-.02-.08-.03.1 0 .18-.03.23-.1 0 0 0 0 0-.01.02-.03.03-.07 0-.11-.01-.01-.02-.02-.03-.03.45 0 1.07-.16 1.46-.41.01 0 .02-.02.04-.02 0 0 .02 0 .02-.01.03-.02.05-.05.08-.07.01-.01.03-.02.04-.03s0 0 .01-.01c.12-.15.21-.38.05-.53-.12-.11-.27-.14-.43-.15.02 0 .05-.02.08-.04.05-.02.1-.04.14-.06.08-.05.22-.12.22-.22 0 0 0-.01 0-.02.02-.07-.01-.12-.17-.15.09-.02.21-.06.25-.13s.01-.12-.04-.16c0 0-.01 0-.02-.01-.03-.02-.05-.04-.09-.04zm-17.51 8.33s0 .03 0 .05c0 0-.01-.01-.02-.02 0 0 0-.02.01-.03zm6.01.35c0-.42-.02-.84-.06-1.26.04.05.1.09.18.1.24.02.41-.09.54-.25-.01.03-.02.06-.03.09-.01.05-.02.1-.02.16 0 .07 0 .17.04.25-.03.12-.07.24-.14.36-.13.22-.34.39-.51.57zm-1.24-.34c-.27-.26-.46-.58-.71-.85-.11-.12-.24-.25-.35-.38.03 0 .05 0 .07-.02.26-.09.36-.3.39-.53 0-.01 0-.02 0-.04 0-.05 0-.1 0-.15.11.2.32.38.55.34.01 0 .02 0 .04-.01.02 0 .03 0 .05-.01.02 0 .03 0 .05-.02.01 0 .02 0 .03-.01 0 .03.01.07.01.1.11.58.04 1.01-.13 1.57zm-2.81-.63s0-.06 0-.08c.02.02.05.05.08.07.12.11.22.13.29.1h.01c.11-.04.18-.12.19-.24.03-.22-.03-.45-.14-.64.08.03.15.01.2-.02.01.02.03.03.04.05.25.31.47.62.73.92.24.27.56.64.36.99-.49-.4-1.27-.48-1.8-.85.03-.09.04-.19.04-.29zm5.35.24s0 .03.01.05c0 .02.01.04.01.06.01.04.03.08.04.12.01.03.02.05.04.08.01.02.02.04.03.06-.1.02-.19.04-.28.06.06-.12.1-.27.14-.43zm-6.18.65s.03-.06.04-.09c0 0 0 0 0-.01.02-.04.03-.09.05-.14.13.15.27.29.43.41.26.18.68.3.8.58-.35-.05-.73-.26-1.06-.36-.15-.05-.3-.09-.45-.13.07-.07.14-.16.19-.25z"/></svg>