<svg viewBox="0 0 15.4 32.25" xmlns="http://www.w3.org/2000/svg"><path d="m.09 22.31s.08.03.09.04v.06.02c-.09.15-.11.33 0 .46.12.15.51.16.68.02.04-.02.08-.03.13-.03h.11c.03 0 .06.02.07.03 0 .04.01.08 0 .12-.05.1-.17.23-.12.33.01.06.08.09.15.09 0 .12-.05.24.06.33.05.04.12.04.18.02.04 0 .09 0 .16.02.07.07.14.1.23.06.04.02.06.04.04.06-.06.08-.13.16-.22.2-.08.03-.16.05-.24.09-.16.07-.13.29-.09.42.01.04.04.07.07.1.06.08.13.17.21.24.03.03.05.07.09.1.1.09.19.03.26-.06.03.01.07.03.11.05.06.05.1.1.14.15 0 .07.01.1.06.15.1.1.31-.02.42-.08.07-.02.14-.04.21-.05.11-.02.21-.02.3-.13.04-.05.11-.13.11-.19 0 0 0-.01 0-.02.01-.02.03-.04.05-.06.06-.03.15-.02.23-.01.03.08.1.1.2.15.04.11.03.24.09.36.01.06.04.11.13.13.09.03.17 0 .23.04.01.07.01.16.05.21.06.08.05.07.02.18-.02.07-.03.15 0 .23v.01s0 .02.01.03c.04.06.08.07.15.07h.03c.08 0 .14 0 .23.03.02.02.04.04.06.05.03.02.07.03.11.04.08.03.18.05.28.06.01.01.02.03.05.04.21.09.54-.13.56-.36.02-.03.04-.07.07-.09.09-.04.18-.09.23-.19.04-.07.02-.13-.02-.18-.01-.03-.03-.06-.06-.09.09 0 .18 0 .27-.04.04-.01.07-.02.09-.02.03.01.04.03.05.07v.05c-.01.11.07.14.15.17.06.04.13.09.19.11.05.04.09.04.13.03.06 0 .14-.01.23-.04h.02c.12-.04.24-.1.35-.17.11-.04.2-.14.25-.25.05-.09.05-.18 0-.28.06 0 .13.11.18.16.04.04.11.06.19.07.06.03.08.07.1.11.01.05.03.08.06.12 0 .51-.02 1.01-.03 1.51v.95c0 .32.02.63-.07.94-.08.27-.07.52-.06.79.02.32 0 .65.01.98-.05.14-.14.26-.22.4-.14.24-.23.39-.49.52-.19.1-.41.18-.62.25h-.02c-.03 0-.05.01-.08.03-.06.03-.04.12.02.13.23.07.56.03.82-.04-.02.05 0 .1.05.12.19.06.44.02.65.02.18 0 .38-.04.56-.11v.05.02c0 .05.06.06.08.03.11.01.22-.05.31-.1.06-.03.11-.05.17-.08.24.11.56.13.79.13.06 0 .12-.06.09-.12-.01-.03-.03-.06-.05-.08.16.04.33.08.5.1.1.02.15-.08.11-.15s0 0-.01-.01c0 0-.02-.02-.04-.03-.24-.1-.48-.27-.71-.41s-.41-.33-.6-.52c0-.12 0-.23-.02-.35-.03-.29-.09-.57-.09-.87 0-.46.13-.98.05-1.44.08-.54.02-1.12.03-1.66.01-.33.02-.66.03-.99h.01s.01.02.01.02c.02.03.06.05.1.04s.1-.05.16-.07c.06 0 .12.02.14.05 0 .01 0 .03.01.04 0 .03 0 .05-.02.08-.03.05-.07.1-.08.15-.01.03-.01.06 0 .09.03.08.09.11.17.15.12.05.31-.11.39 0 .02.04.06.05.1.04.07-.01.12-.03.18-.05.06.23.25.2.44.11.04 0 .08-.01.12-.02.13.09.28.04.38-.06.09-.05.14-.14.12-.32.09-.05.17-.07.27-.01.05.03.15 0 .18-.04.02-.02.03-.04.05-.07.06-.05.09-.14.06-.34 0-.04.05-.07.12-.08.06 0 .14.02.16.02.04 0 .07-.01.08-.04.07.03.14.02.21-.02.03.07.01.12.02.21 0 .03 0 .05.02.06.1.07.21.05.3 0 .11-.07.14-.23.17-.35.03-.18.24.14.31.17.08.04 0 .13.06.2.1.08.2.08.32.05.15-.03.29-.12.4-.23.03-.03.06-.08.06-.12 0-.12.04-.2.12-.27.09.07.22.09.31-.02.07-.07.11-.15.1-.25 0-.02-.01-.04-.02-.06 0-.02-.01-.04-.02-.06-.03-.05-.05-.09.01-.15.02-.02.05-.04.07-.06.06-.04.13-.08.18-.13.01 0 .02-.02.04-.02.07-.03.06-.12.06-.18-.02-.19-.13-.32-.3-.37 0-.12 0-.24.03-.36.03-.14.15-.19.25-.27.14-.12.06-.28-.03-.39-.04-.04-.06-.11-.08-.18h.01c-.05-.16-.12-.23-.29-.25 0 0 0 .01.01.02-.02 0-.03 0-.05 0 .04-.03.06-.08.07-.15 0 0 0-.01 0-.02.06-.03.1-.07.14-.11.08-.09.11-.22.1-.37 0-.08-.07-.15-.15-.16-.16-.03.22-.18.26-.23.14-.14.26-.42.09-.58-.05-.04-.11-.06-.17-.09 0 0 0-.08 0-.11 0-.02 0-.05-.04-.08v.01c-.07-.06-.15-.04-.23-.05.05-.07.11-.13.11-.22 0-.11-.09-.25-.2-.29h-.01.02c-.11-.04-.24-.21-.35-.22 0 0-.03 0-.06.01-.05 0-.1 0-.15.02-.04.02-.08.03-.11.05-.07.02-.13.02-.15 0 0 0 0-.01 0-.02 0-.02 0-.04.02-.07.04 0 .08-.03.09-.07.05-.02.11-.04.17-.05.05 0 .09.02.12.02.06 0 .16-.03.19-.09 0-.01.01-.03.01-.05 0-.04 0-.08-.02-.13 0-.01-.02-.02-.03-.03-.02-.04-.03-.07-.03-.08.02-.02.04-.04.05-.06 0-.02.02-.04.03-.06.03-.06.06-.12.05-.18 0-.12.02-.21.16-.19.16.02.35 0 .39-.19 0 0 0-.01.01-.02v-.02c0-.04-.01-.09-.03-.13 0-.02 0-.04-.01-.06-.01-.02-.02-.04-.03-.06-.02-.04-.03-.1-.03-.14 0-.03 0-.06 0-.09.19-.09.35-.23.3-.46-.02-.09-.04-.2-.1-.28h.01c-.05-.1-.13-.13-.24-.11.03 0 .05-.01 0 0s-.08-.01-.11-.04c-.01-.03-.03-.06-.07-.07 0 0 0 0-.01 0-.02-.01-.05-.02-.09-.01-.01-.09-.05-.17-.11-.23.03-.04.06-.07.09-.12.02-.05.03-.1-.02-.12-.35-.17-.25-.18-.06-.19.12.08.21.03.3-.06.09-.04.16-.1.13-.23-.03-.15-.02-.3-.03-.45.01-.03.03-.06.02-.09s-.03-.05-.05-.06c-.02-.09-.06-.17-.13-.25-.07-.04-.1-.1-.1-.18.07-.15-.28-.08-.32-.19 0 0 0-.02 0-.03.02-.04.05-.08.08-.11.08-.11.12-.25.14-.38 0-.02.01-.04.01-.05 0-.02 0-.03 0-.05 0-.12-.06-.21-.14-.29.01 0 .02.01.04.02-.06-.07-.14-.12-.23-.14 0 0 0 0-.01-.01.04-.06.08-.12.09-.19 0 0 0-.01 0-.02 0-.02 0-.03 0-.05 0 0 0 .01-.01.02.01-.33-.32-.54-.62-.53-.02 0-.04 0-.06.01.01 0 .03-.02.05-.02-.08 0-.24.08-.38.1-.02 0-.04-.02-.06-.02s-.07 0-.12.01c-.01 0-.03-.01-.04-.02-.02-.02-.04-.05-.06-.07 0-.02-.02-.04-.02-.06.09.05.16.03.24-.03.08-.05.15-.12.22-.19.04-.04.08-.07.12-.1.1-.08.16-.15.13-.28 0 0 0-.01 0-.02 0-.07-.02-.13-.09-.11.01 0 .03-.02.06-.03h.01c.04-.02.08-.04.11-.07.07-.04.13-.1.16-.17.05-.13.01-.25-.06-.35-.03-.05-.08-.11-.14-.15.09-.1.23-.22.18-.35-.03-.1-.14-.23-.21-.34-.02-.04-.03-.07-.04-.12.11 0 .23-.03.28-.13.02-.04.02-.08.02-.11.09-.19.08-.46-.02-.61 0-.02-.01-.04-.02-.06-.01-.04-.05-.07-.09-.07s-.07 0-.11.01c-.03 0-.06 0-.1.02-.01-.07.01-.32-.04-.36-.07-.06-.26 0-.36-.06.05-.08.15-.12.24-.17.03 0 .06-.01.09-.02.13.01.29-.06.33-.18 0-.01 0-.03.01-.05v-.02c0-.07-.04-.14-.09-.19.02-.04.05-.19.07-.27 0-.03.01-.06.01-.07 0-.02 0-.04-.01-.06 0-.02-.01-.04-.03-.06-.06-.12-.17-.29-.22-.35-.13-.19-.28.11-.4.21-.02.02-.05.03-.07.03-.01 0-.03 0-.04-.02 0 0-.01-.02-.02-.02 0-.02 0-.04 0-.07.02-.07 0-.18-.08-.21-.01 0-.02 0-.03-.01-.02-.02-.04-.04-.07-.06-.07-.05-.12-.07-.16-.07-.06-.01-.11 0-.17.08-.01.01-.02.05-.03.08.02-.02-.01-.04-.06-.07 0-.01-.02-.02-.03-.03-.02-.02-.05-.03-.07-.03-.07-.04-.14-.08-.15-.1-.02-.23.12-.61-.16-.75.01-.02.02-.05.03-.07 0-.03.01-.06.01-.09v-.02c0-.02 0-.04-.01-.06-.04-.11-.15-.19-.29-.17-.1.01-.09-.04-.05-.11.03-.03.06-.05.08-.08.03-.04.05-.09.05-.14 0-.02.01-.05 0-.07-.09-.34 0-.44.03-.77.02-.26-.03-.32-.1-.31-.07-.08-.16 0-.2.07-.01.02-.03.04-.05.05-.02 0-.04.02-.06.02-.03 0-.06 0-.08 0s-.05-.01-.07-.03c0 0 0 0-.01 0 0-.03.02-.08.07-.14 0 0 .02 0 .02-.01.06-.04.12-.1.14-.17 0 0 .01-.02.01-.02.05-.19.06-.37 0-.5 0 0 0-.02 0-.03-.02-.09-.1-.12-.18-.13-.04-.01-.09-.02-.15-.03.08-.06.15-.12.18-.24.03-.14-.03-.26-.16-.32-.06-.08-.11-.18-.06-.3.02-.04.03-.07.03-.12 0-.05 0-.1-.01-.14t0 0c-.02-.08-.07-.15-.13-.22-.03-.03-.05-.06-.07-.08 0 0-.01-.02-.02-.02-.02-.04-.08-.05-.12-.03 0 0-.02 0-.03.01-.02 0-.05.02-.08.03-.02 0-.04-.02-.06 0-.06-.27-.03-.68-.19-.89-.01-.02-.05-.05-.1-.09-.01-.01-.03-.02-.04-.03 0 0-.01 0-.02-.01 0 0-.01 0-.02-.01-.12-.07-.25-.11-.26.01v.02c0 .02 0 .04-.01.06-.06.11-.25.11-.29-.02 0-.02.01-.04.02-.05.04-.04.06-.07.07-.11.01-.09-.04-.4-.08-.48v.03c-.02-.05-.05-.09-.12-.1 0-.18-.04-.35-.22-.45-.07-.04-.16-.03-.23-.03 0 0 0 .01-.03 0-.03 0-.06 0-.09-.01-.03 0-.06-.01-.13-.02-.08 0-.13-.11-.19-.16-.11-.1-.23-.04-.3.06-.03.05 0 .11.02.16.06.12-.08.07-.13.12s-.08.14-.1.21c-.02.04-.05.15-.09.13s-.01 0-.02-.01c0 0 0 0-.01-.01-.02-.04-.06-.07-.1-.1-.09-.08-.16-.07-.28-.05-.15.02-.3.06-.44.12-.04.02-.05.08-.03.12.03.06.08.12.11.19-.17.07-.45.15-.34.37.03.06.06.12.08.17v.06c0 .02 0 .04-.02.05-.02.02-.05.03-.11.04-.12.02-.23.04-.29.1-.01 0-.02 0-.03.01-.04.03-.05.07-.03.12.04.08 0 .17-.01.25-.07.3-.1.14-.41.28-.13.06-.14.13-.11.2v.04c0 .02.03.04.05.04-.01.02-.02.05-.03.08-.06-.03-.13-.05-.2-.06h.04c-.17-.02-.22-.02-.16 0-.17 0-.31.08-.27.26.03.11.16.22.07.34-.11.05-.22.19-.27.33v.01.03c-.03.09-.03.18.05.26.03.03.07.05.11.07.08.06.11.11.14.17v.06c0 .07.06.15.07.22v.1c-.03.06-.06.13-.06.2 0 .04.03.09.05.13 0 .08.03.14.07.12-.02 0-.03.01-.05.02-.05 0-.12 0-.16.03-.04.02-.06.05-.08.08s-.04.06-.03.11c0 .04 0 .07.02.11-.07 0-.11 0-.16 0-.1 0-.2 0-.24.1-.02.04-.01.09-.01.14 0 .04.01.08.02.12v.04h-.02c-.03-.03-.07-.06-.12-.05-.1.01-.23-.04-.34-.02-.12.01-.22.07-.22.22v.07c-.03-.06-.3-.04-.33-.04h.01c-.03 0-.06.02-.09.03-.09.04-.26.12-.26.24 0 .02.02.18.02.18-.06.02-.14.02-.2.07-.03.04-.07.07-.07.13-.01.16-.07.19-.21.22-.11.02-.2.06-.27.14 0 .01-.01.02-.02.03 0 0 0 0-.01.01-.02.03-.02.09.01.12.06.05.11.07.18.09.08.02.11.05.11.08s-.02.07-.04.1c-.03.04-.06.07-.09.1-.03.04-.05.07-.07.11s0 0 0 0c-.03.09-.04.19-.02.29 0 .02 0 .04.01.06.02.1.04.21.11.29.03.04.09.07.14.07h.04.04s-.01.03-.03.09c-.03.11-.1.26.04.34.02 0 .04.02.06.02.06.01.12 0 .18-.04.35-.12.18.03.16.22 0 .03-.01.05-.02.09 0 .07.06.13.1.18.02.02.05.03.07.03.07.05.15.08.23.08 0 .04 0 .08.02.11-.07 0-.14-.03-.21-.02-.1.01-.18.08-.25.14-.01 0-.01.02-.02.03 0 0 0 0 0-.01-.02.02-.03.04-.04.07-.05.09-.06.18-.01.25.02.07.04.14.07.2 0 .02 0 .03.01.05.02.04.02.07.02.09-.01.09-.11.12-.19.16 0 0 0 0-.01 0-.1.04-.11.14-.07.23 0 .01.02.03.03.04.02.08-.11.08-.27.07-.02 0-.04-.02-.08-.02-.14 0-.28-.06-.43-.05-.04 0-.07 0-.08 0h.03c-.02 0-.04 0-.06.01-.13.06-.22.19-.21.34 0 .06.01.12.03.17.02.04.16.06.07.12-.1.07-.22-.01-.31.05-.1.07-.16.15-.24.24-.08.07-.11.14-.11.22-.17-.05-.37-.06-.51.07-.22.21-.24.43-.22.72 0 .04.03.06.06.06.01.05.01.11-.03.19-.02.04-.03.07-.03.08-.02.09.01.14.07.16.02.02.05.04.08.05.11.02.2 0 .31-.05.15-.07.11.15.06.22-.04.07-.05.14-.04.21.02.25.26.15.4.21-.01.04-.02.08-.01.13-.08.02-.18.05-.22.1s0 0 0 0c-.08.12.14.26.06.34-.02.02-.03.05-.02.07 0 0-.23-.09-.29-.09-.12 0-.26.06-.3.19-.04.09.01.21-.03.29-.03.06-.05.13-.05.2s.05.11.1.13c.03.03.06.06.1.1.02.04.04.08.09.11.18.1.36-.1.48.07.01.03.02.06.04.08 0 .01.01.02.02.04h.02s-.01 0-.02 0c-.02 0-.03.01-.06.02-.06.02-.09.05-.12.1-.03.04-.03.08 0 .12-.04.09-.05.18-.03.26 0 .04.02.08.07.12.02.02.05.02.08.04.07.05.08.08.13.17v.03c-.19.06-.06-.02-.3-.03 0 0 0 .01.01.02-.16-.02-.36.1-.41.26-.02.08-.02.14 0 .22.01.04.04.06.06.1 0-.01-.2-.01-.22-.01-.17-.02-.33.1-.36.26-.18.03-.38.23-.25.4.02.02.05.04.07.05.1.04.12.11.1.18-.05.04-.12.14-.16.23-.04.05-.07.11-.03.18.02.03.05.05.09.07.05.04.12.09.19.13.06.09.25.12.24.2 0 .13.14.18.24.19.07 0 .41-.16.44-.12-.02.01-.04.03-.05.04-.08.06-.13.12-.12.26.01.1.08.14.16.16-.08.02-.15.06-.18.13-.01.02-.02.05-.02.08-.07 0-.12.02-.16.05-.01 0-.02.01-.03.02s-.02.02-.03.03c-.09.12-.09.33.03.48-.01.01-.02.02-.03.04-.04.04-.08.09-.11.14 0 0 0 0-.01.01v.02c-.02.04-.03.07-.02.11 0 .05.02.12.07.14.01 0 .02 0 .03.01-.14.1-.34-.06-.5.08-.2.17-.48-.02-.62.29-.05.1-.06.23-.06.34 0 .12.14.32.08.44-.09 0-.17.05-.24.12-.03.01-.05.03-.07.06-.04.05-.06.11-.07.17v.06.06c0 .06.03.12.09.16z"/></svg>