<svg viewBox="0 0 14.69 32.26" xmlns="http://www.w3.org/2000/svg"><path d="m12.81 5.75.07-.33.07.19s.89-.43 1.74-.18c0 0-.5-1.1-2.64-1.35-.29.14-.34.24-.34.24l.05-.1s-1.45.14-1.65.73l-.07-.14-.58.39.05-.2-.26-.02.26-.09.41-1.31-.26-.12.38.05s.4-.79.87-1.24l-.17-.18.23.13s.57-.79.86-.96l-.12-.26.19.18s.51-1.07 1-1.18c0 0-.7-.05-2.12.23v.19s-.11-.08-.11-.08-1.01.47-1.33.86c-.11.27-.15.41-.15.41l-.11-.25s-.48.4-.82 1.16c.1.25.08.34.08.34l-.19-.23s-.09.11-.19.37c-.01.04-.03.09-.04.14 0 .02 0 .03-.01.05-.01.05-.03.1-.04.16v.03c-.01.07-.03.15-.04.23v.05c0 .08-.02.15-.02.24v.03.16c-.32-.59-.76-1.23-.76-1.23l-.4.03.11-.14c-.19-.34-.41-.49-.41-.49l-.24.06.16-.25c-.74-.56-1.27-.64-1.27-.64l-.27.25s.02-.08.1-.32c-1.78-.23-2.89.51-3.31 1.15.75-.17 1.57.2 1.57.2l.38-.14-.14.19.89.53.54-.22s-.07.08-.27.27c.21.13.92.83.92.83l.61-.27s.02.1-.3.38c.3.05.38.21.38.21l.3-.11-.25.24c.23.15.51.58.68.86.01.02.02.04.03.06.04.06.07.12.08.15.01.02.02.04.02.04l.25-.03-.11.16c.27.16.64.69.89 1.09-.03-.02-.05-.05-.08-.07-.02-.02-.04-.03-.07-.05s-.06-.05-.1-.07c-.03-.02-.06-.04-.08-.06-.04-.02-.07-.04-.11-.07-.03-.02-.07-.04-.1-.06-.04-.02-.09-.04-.13-.06s-.07-.03-.11-.05c-.08-.03-.16-.07-.25-.1-.04-.01-.09-.03-.14-.04-.04-.01-.07-.02-.11-.04h.01c-.39-.11-.87-.19-1.46-.2v.26s-.19-.19-.19-.19-.57.03-1.69.66l.19.32-.38-.26s-1.02.57-1.37.79l.06.32-.22-.13s-.8.51-1.25 1.52c.16.32-.07.32-.07.32s-.86 1.46.08 3.15c.39-.98 1.01-1.48 1.01-1.48l-.15-.33.2.13.6-.81-.13-.26.22.07 1.04-.95-.13-.46.26.31s.24-.24.44-.33v-.22l.15.13s.84-.61 1.29-.72l.04-.31.11.15s.38-.17.85-.2h.28l.11-.24.07.18s.16 0 .38 0c0 0-.02 0-.03 0-.05.01-.11.03-.16.05-.01 0-.03 0-.04.01-.36.15-.75.45-1.07 1.02l.18.02-.29.18.06.13s-.47.9-.57 1.46l.25.06-.24.15.12.02s-.37.19-.2 1.28l.14.02-.18.31.15.06s.09 1.34.6 2.44c.36-1.44.67-1.69.67-1.69l-.12-.18.18.06.33-.99-.15-.08.33-.17.22-.47-.19-.18.35.12.69-1.5-.19-.33.31.23.05-.09c.05.16.09.31.12.43.03-.02.06-.03.09-.04.15.49.44 1.55.43 2.21.06-.02.11-.04.16-.05 0 .06.02.14.02.22.07.61.16 1.67.11 2.43.04 0 .08.01.11.02v.1.03.14.04c-.04.73-.11 1.96-.26 2.55.05.01.09.02.13.03l-.05.5-.21 2.12h.13v.03s0 0 0 0v.16c-.02.51-.1 1.39-.42 1.9.11.01.2.02.27.03-.02.3-.11 1.18-.4 1.72.08.02.16.04.22.05-.02.08-.04.18-.06.29-.13.62-.38 1.66-.64 2.14.07.02.14.04.19.06l-.68 2.6h.03s-.24.87-.24.87c-.07-.21-.19-.49-.42-.81.3.61.2 1.24.2 1.24s-.12-.75-.67-.85c.36.18.56 1.24.56 1.24-.2-.63-1.33-.94-1.33-.94s1.25.94 1.21 1.48c-.22-.59-.81-.69-.81-.69s.44.39.56 1.08c-.12-.3-.75-1.16-1.52-.88.78 0 1.12.74 1.24 1.07-.79.03-1.29.07-1.29.12 0 .09 1.63.16 3.64.16s3.64-.07 3.64-.16c0-.05-.6-.1-1.53-.13.09-.1.26-.25.57-.45-.56-.09-1.09.33-1.09.33s.29-.63.94-1.14c-.61.03-1.03.37-1.2.52 0-.08.01-.16.02-.25.1-.29.25-.71.42-.93-.14.06-.26.13-.37.21.01-.26.02-.52.02-.74s0-.02 0-.03c0-.02 0-.04 0-.06 0-.04 0-.09 0-.13 0-.03 0-.05 0-.08s0-.07 0-.1c0-.01 0-.02 0-.04.05-.49.15-1.46.18-2.16 0 0 0-.01 0-.02h.04s.2-1.29-.06-2.32c-.02-.06-.03-.12-.05-.18l.28.06s.09-.98-.09-1.87 0-.01 0-.02l.34-.04s-.04-1.38-.16-2.12t0 0s0-.02 0-.03c0-.02 0-.05-.01-.07 0-.03-.01-.06-.02-.09 0-.02 0-.03-.01-.04l.24-.1s-.03-1.31-.1-2.14c0-.08-.01-.15-.02-.22 0 0 0 0 0-.01 0-.02 0-.04 0-.06l.08-.03s.03-1.7-.32-2.85h.12s-.17-1.5-.49-2.82c0 0 0-.02 0-.03 0-.03-.02-.07-.03-.1l.15-.11s-.46-1.4-.77-2.12c0 0 0-.02-.01-.03-.01-.02-.02-.05-.03-.07s-.02-.04-.03-.06l.14-.06-.18-.34c.05.02.09.04.13.05l.19-.33-.03.43.31.31.26-.28-.12.35s.81.93 1.02 1.39c.18-.1.24-.13.24-.13l-.08.21s.49.84.53 1.09c.34-.21.48-.24.48-.24l-.16.34s.97.74 1.08 1.61c0 0 .26-1.56-.4-3.32l-.19-.05.05-.14s-.27-.88-.82-1.47h-.22s.05-.21.05-.21-.73-.86-.9-1.05l-.27.1v-.17s-.08-.05-.23-.12c-.01 0-.03 0-.04-.01-.02 0-.04-.02-.07-.02-.02 0-.04-.01-.06-.02.01-.01.02-.02.03-.04.02-.02.04-.05.07-.08.15-.16.36-.34.62-.43l-.05-.38.24.26s.57-.45.88-.52l-.07-.34.21.17s.53-.22.84-.26zm-4.43 1.6s0 0 0 0zm-.09-.1c0-.05.01-.1.02-.15.02.08.05.16.07.25l-.07-.12s-.01.01-.03.03zm-.49-2.96s0 .04 0 .07h-.06s0 0 .06-.07z"/></svg>