<svg viewBox="0 0 34.77 32.26" xmlns="http://www.w3.org/2000/svg"><path d="m34.58 7.24c-.18-.07-.37-.14-.56-.19-.07-.05-.16-.09-.25-.09-.03 0-.05 0-.08 0-.18-.05-.36-.08-.54-.11 0-.03.02-.05.02-.08 0-.23-.28-.44-.63-.52-.08-.02-.15-.03-.22-.03-.04-.03-.08-.06-.12-.09 0 0 0 0 0-.01s0 0 0-.01c.19-.07.36-.15.48-.23.21-.13-.07-.39-.4-.42-.06 0-.11 0-.17 0-.02-.04-.06-.07-.1-.11.07-.14.08-.3-.02-.5-.05-.1-.21-.17-.35-.19-.06-.01-.12-.01-.18-.02.02-.1.02-.2 0-.31-.03-.12-.24-.21-.41-.22-.14 0-.27 0-.4.02.03-.16-.09-.34-.46-.5-.03-.01-.06-.02-.09-.03.04-.26-.08-.52-.54-.65-.22-.06-.4-.08-.54-.07.05-.09.09-.18.09-.29 0-.07-.07-.13-.17-.17-.02-.04-.04-.07-.07-.11.1-.15.11-.3-.05-.48-.16-.17-.36-.28-.57-.33.04-.1.03-.2-.07-.3-.24-.25-.73-.34-1.1-.3-.07-.12-.23-.24-.53-.32-.14-.04-.29-.05-.45-.06-.11-.1-.26-.18-.49-.24-.73-.19-1.16 0-1.34.29-.13-.06-.29-.11-.51-.14 0 0-.02 0-.03 0-.09-.12-.22-.23-.42-.31-.74-.32-1.28.07-1.45.51-.37 0-.6.12-.73.3-.2-.17-.48-.27-.86-.22-.19.02-.31.08-.4.14-.08-.06-.19-.11-.34-.15-.54-.14-1.07.05-1.37.31-.07-.05-.15-.08-.24-.11-.3-.08-.56-.09-.77-.06-.07-.11-.17-.23-.32-.33-.04-.03-.1-.05-.15-.06-.05-.05-.09-.1-.15-.15-.08-.06-.26-.09-.4-.04-.23.08-.49.26-.72.47-.15-.09-.32-.15-.55-.19-.72-.12-1.04.11-1.16.42-.29-.18-.69-.24-1.21 0-.37.17-.5.39-.49.62-.16 0-.33.03-.5.11-.37.18-.49.37-.47.56-.55-.14-1.11-.11-1.42.26-.16.19-.12.41.05.62-.39.18-.62.48-.54.72-.31.14-.47.39-.35.61.07.13.23.21.43.27-.06.03-.12.06-.17.09-.15-.07-.33-.12-.52-.1-.09-.02-.17-.03-.26-.04-.15-.07-.3-.13-.48-.17-.13-.03-.35.04-.43.14-.24.33-.22.63-.09.9-.5-.18-1.1-.2-1.77.16-.04.02-.08.05-.13.07-.02 0-.05 0-.08 0-.11.02-.22.07-.29.13-.35.07-.68.21-.88.45s-.18.44-.04.59c-.38.14-.65.37-.73.69-.04.15.01.27.1.36-.03.07-.06.15-.06.23-.02.26.12.39.34.44-.24.17-.48.42-.58.65-.18.06-.34.13-.5.21-.11.05-.21.09-.32.14-.66.34-1.23 1.03-.6 1.31.23.1.51.09.8.02v.14c-.01 0-.02.02-.04.02-.03 0-.07.02-.1.03-.04.02-.07.04-.1.05-.07-.04-.15-.07-.24-.08-.1 0-.2.06-.22.17s0 .22.05.32c-.01.02-.02.05-.03.07-.03.03-.05.06-.07.09-.18.03-.34.07-.45.08-.15.03-.21.22-.09.28.01 0 .03.01.04.02-.24.2-.42.47-.3.64-.12.08-.24.17-.33.26-.15.14-.31.37-.37.57-.03.05-.04.1-.02.15v.05c-.04.07-.08.17-.11.27-.16.22-.22.49-.08.85.02.05.06.09.1.11-.08.2-.1.41.05.61.08.11.16.15.24.17 0 .1.01.19.08.29.01.02.03.03.04.04v.22c.01.11.08.21.17.23.03 0 .06.01.09.01v.1c0 .09.07.18.15.19.23.04.39-.08.53-.24l.06.06c.02.1.08.19.19.26.23.14.41-.12.57-.39.02.03.04.05.07.08.04.11.1.21.19.24.07.02.12.02.18 0 .05.03.11 0 .13-.05 0 0 0-.02 0-.03.1-.08.18-.21.25-.35.05 0 .09-.03.12-.06 0 0 .01.02.02.02.07.16.16.3.3.32.27.03.44-.34.63-.6 0 0 .02 0 .03-.01.04-.02.07-.06.1-.1.09-.01.19.1.3.19 0 .05.02.1.05.15.06.11.21.14.33.1-.01.01-.03.02-.04.03-.1.16-.1.26-.01.42.07.12.26.15.39.09.08.05.2.07.29.04.06.09.16.15.34.15.11 0 .22-.05.31-.11.05.1.2.12.31.09 0 .02.02.05.03.07.05.12.25.13.35.06.09-.06.16-.12.23-.2.02.06.05.12.09.18.06.11.27.18.37.09.14-.12.2-.27.23-.44.02.02.04.03.07.04.1.2.24.38.43.55.04.03.08.05.12.06 0 0 0 .02.01.02.05.05.15.07.19.03.02-.02.04-.04.05-.06v.24c.01.12.27.2.33.09 0-.01 0-.02.01-.03.06.06.12.12.19.17.08.06.16.07.23.07.06.09.22.11.29.06.06-.04.09-.1.12-.15 1.12 1.05 2.21 2.1 3.44 3.08 1.44 1.15 2.66 2.22 2.99 3.78.15.69.15 1.39.18 2.09.03.68.18 1.36.26 2.04.16 1.22-.26 2.19-.71 3.18h4.17c-.06-.47-.14-.95-.18-1.42 0-.05 0-.1 0-.15-.05-.76.07-1.53.14-2.29.06-.76.26-1.5.16-2.26s-.49-1.64.11-2.31c.5-.55 1.27-.98 1.91-1.45.65-.48 1.22-1.01 1.7-1.58 1.04-1.23 1.69-2.52 3.83-3.2.08-.02.12-.08.13-.13.04 0 .09-.02.14-.04.03 0 .06.01.1.02.16.02.42-.14.65-.27.06.05.12.1.19.14.12.07.32-.01.34-.13 0-.02.01-.05.02-.08.1.04.19.07.29.07.12.05.27.07.44.03.06-.02.11-.03.15-.06.13.05.28.06.44.04.31-.04.46-.16.49-.33.05.02.11.03.17.04.11.02.25-.05.25-.14 0-.08 0-.17-.01-.25.04-.08.04-.16.03-.25.12.05.24.1.38.14.14.03.3 0 .31-.12 0-.09 0-.18-.02-.27.41.21.86.34 1.11.1.31-.3.14-.66-.22-.95.25-.02.44-.12.49-.36.03-.2-.15-.38-.44-.52.07-.09.04-.24-.16-.47-.02-.02-.04-.03-.06-.05.01-.05.02-.1.02-.15 0 0-.01-.02-.02-.02.04-.05.06-.11.05-.18 0-.01 0-.03-.01-.04.4.08.8.12 1.18.04.12-.02.15-.16.07-.26-.02-.02-.04-.04-.06-.07.02-.02.03-.05.02-.08 0-.08-.03-.15-.06-.22 0 0 0-.02.01-.02.06-.12.12-.24.15-.37-.08-.09-.15-.18-.19-.23-.02-.04-.04-.09-.08-.14-.17-.24-.52-.45-.9-.58-.05-.06-.11-.11-.19-.16-.02-.02-.03-.04-.04-.05-.04-.04-.08-.08-.12-.11.33 0 .59-.05.58-.26 0-.2-.14-.38-.35-.53.32 0 .65-.04.91-.13.11-.04.11-.15.03-.25.09-.04.17-.08.24-.14.08-.07.02-.19-.12-.27-.04-.02-.09-.05-.13-.07 0-.03.02-.05.02-.08 0-.07-.07-.14-.16-.19-.16-.08-.35-.15-.55-.21.35-.05.62-.17.71-.41.04-.1-.05-.24-.21-.31-.06-.03-.13-.05-.2-.07.11-.03.22-.07.31-.12.1-.05.1-.16 0-.25.27-.06.48-.16.61-.32.06-.07.01-.21-.16-.28zm-9.48 9.39c-.03.07-.05.14-.06.21-.06 0-.07-.09-.07-.19.04 0 .09-.01.14-.02zm-3.41-.84c-.2.82-.49 1.63-1.01 2.39-.16.24-.35.48-.56.73-.36-.48-.6-.91-.74-1.32-.26-.79-.19-1.6-.12-2.39.01-.13.02-.25.03-.38 0-.1.01-.18.02-.27 0 .06.03.11.07.14.17.13.39.13.64 0 0 .24.1.43.37.36s.47-.28.65-.51c.09.01.19 0 .3-.02 0 .03 0 .06.02.09-.03.07-.04.14-.03.21-.07.13-.14.27-.21.41-.04.09-.09.18-.14.28.08-.15.16-.31.24-.46.04-.07.07-.14.11-.2 0 .03.01.07.02.1v.01c0 .07.01.13.07.14h.1c.09.02.19 0 .3-.02-.03.17-.07.33-.11.5-.02.07-.04.14-.05.2zm-3.05-1.63s.02-.01.02-.02c.01.07.02.15.04.21 0 .03.03.04.05.05 0 .02 0 .05-.01.07-.01.11-.03.22-.05.33-.06-.16-.13-.32-.21-.51.05-.04.1-.09.15-.13zm-2.79.59c.04.12.06.24.07.36-.02-.02-.04-.04-.06-.06-.01-.07-.04-.14-.06-.21.02-.03.04-.06.05-.09zm-1.38 2.21c-.01-.12-.03-.25-.06-.37.25.42.6.72.74.32.05-.14 0-.36-.09-.58h.01.06c.11-.02.17-.13.19-.28.02-.02.03-.04.03-.08s0-.08 0-.12c.01.03.02.06.04.09.12.24.5.5.6.24.07-.18.02-.45-.04-.71.02.02.04.03.06.04.07.04.14 0 .15-.08.03-.16.02-.34 0-.52.05.05.1.09.15.13.07.06.18.02.18-.08 0-.15-.03-.31-.06-.46.02-.02.04-.05.04-.08 0-.08 0-.15-.02-.22.02.16.06.3.18.36.25.12.53-.18.79-.37h.04c.04-.01.09-.04.12-.06.13.03.2.32.35.41.01.03.03.07.04.1l.02.04c.08.13.15.25.22.36.02.05.04.1.05.14.1.28.15.55.18.82-.05.25-.06.5.02.74v.02c0 .16 0 .32-.01.49 0 .2 0 .4.01.6.03.1.05.2.08.3.07.33.14.65.25.97.1.29.22.57.32.85 0 0-.01.01-.02.02-.04-.03-.11-.07-.2-.12-.06-.03-.12-.07-.18-.11-.1-.07-.2-.14-.32-.19-.03-.03-.06-.06-.08-.09-.18-.19-.36-.39-.6-.52-.09-.17-.15-.35-.2-.53-.02-.1-.05-.19-.07-.28-.15-.6-.3-1.22-.9-1.69-.03-.02-.07-.02-.11 0-.09-.07-.19-.13-.31-.19-.13-.07-.21.08-.13.15.82.72.9 1.52 1.21 2.37.15.39.35.77.65 1.12.19.22.41.44.6.66-.55.45-.99.67-1.4.65-.05 0-.1.01-.12.04-.01.01-.02.03-.03.05h-.02c-.38-.42-.79-.83-1.17-1.26-.26-.29-.52-.57-.77-.86-.06-.12-.12-.25-.17-.37-.22-.57-.32-1.16-.4-1.74.08.03.14-.02.13-.1zm9.64-1.1s.02 0 .04-.01c.02 0 .03.02.04.04-.16.17-.27.4-.33.61-.04.05-.09.1-.14.15-.03-.2.18-.53.39-.79zm-.07.71s0 0 0 0c.01.1.09.17.2.18v.02c-.02.04-.1.15-.1.15s-.11-.14-.11-.21c0-.04 0-.09.02-.14zm1.36.26s.02.03.04.05c-.02.04-.02.08-.03.12-.02.03-.05.05-.08.08-.01-.05-.02-.11-.01-.17.03-.02.05-.05.08-.08zm.38.12s.01.07.04.1c-.02.03-.05.06-.08.08-.01-.03-.02-.07-.02-.11.02-.03.04-.05.06-.08zm-3.9 4.61c-.06.04-.12.08-.18.12-.22.05-.43.14-.62.22-.12.05-.24.1-.35.14-.23.08-.37.14-.45.19.28-.47.6-.93.92-1.39.34-.5.6-1.01.89-1.52.09-.16.19-.32.29-.47.11-.32.23-.64.31-.96.07-.27.15-.54.23-.8.01 0 .02-.02.03-.03.17-.22.27-.46.34-.7.17-.1.33-.29.46-.44.01 0 .03 0 .04-.01h.07c-.27.35-.46.75-.3 1.01.02.03.08.02.13 0 .04-.03.07-.06.1-.1 0 .21.12.45.38.31.12-.06.21-.18.29-.31.01.02.03.05.05.07.04.05.13.02.19-.04.01.11.06.2.18.22h.13c0 .14.02.26.09.35.04.05.13.05.22-.01.04-.03.08-.07.12-.1.03.06.06.11.11.15.04.04.13.02.19-.02.09-.05.17-.12.24-.19.05.05.13.08.23.07.09 0 .16-.02.23-.05h.01c-.04.11-.05.21-.02.3-1.17.49-1.76 1.32-2.3 2.12-.1.14-.19.29-.29.43-.19.27-.4.53-.65.78-.5.13-.92.39-1.3.65zm6.18-19.25c-.1 0-.21 0-.31.02.02-.05-.02-.11-.1-.15.17 0 .34.01.5.05-.03.03-.06.05-.09.08zm-5.75-1.27s-.08.04-.11.06c.02-.03.06-.06.1-.09 0 0 .01.01.02.02v.02zm-7.85.32s.01-.01.02-.02c.02-.02.05-.02.08 0-.03 0-.07.02-.1.03zm-10.11 6.54c-.07-.02-.13-.04-.2-.06.07-.05.14-.09.22-.12-.03.07-.04.13-.03.18zm23.48 9.37s0 .03 0 .04c-.03 0-.06.01-.09.02.03-.02.06-.04.08-.06zm5.15-3.17c-.09-.05-.18-.08-.27-.11 0 0 .02-.01.02-.02.1.07.21.11.31.1.02.02-.01.04-.06.04zm-.34-7.5s0 .08-.03.11c-.03-.03-.06-.06-.1-.08s-.07-.04-.11-.06c.04 0 .06-.02.08-.04.07.02.15.04.15.06zm-1.23-1.55s0-.01 0-.02c0 0 0-.01 0-.02h.01s0 .02-.01.04zm-2.36-1.81c.16-.15.49-.04.49.14 0 .06-.02.12-.03.18-.02 0-.04.01-.06.02-.17-.08-.34-.13-.52-.15.02-.07.06-.13.12-.19zm-1.03-1.46c.2.02.34.08.3.23-.15-.04-.32-.07-.5-.07.07-.05.14-.1.2-.16zm-.98-.46c.3-.11.78-.2.62.1-.07-.05-.18-.08-.3-.09-.12 0-.23 0-.34.01 0 0 .01-.01.02-.02zm-.49-.43s.05.1.05.15c-.08-.06-.2-.1-.32-.1 0-.06 0-.12-.03-.18.13.02.24.06.3.14zm-.9-.07c.03.13 0 .27-.07.41-.07-.08-.2-.15-.4-.21.13-.08.29-.15.47-.2zm-.14-.24c-.33.07-.61.21-.76.37-.03 0-.06 0-.09 0 0-.03-.02-.05-.04-.08.12-.17.6-.55.9-.3zm-2.16.13s0 .05 0 .08c0 0-.01 0-.02 0-.09-.01-.18 0-.27 0 .08-.03.18-.06.29-.07zm-1.09-.11c.15-.23.61-.49.92-.19-.32.02-.54.11-.67.24-.04 0-.08 0-.11.01-.02 0-.04.01-.06.02-.02 0-.04-.01-.06-.02-.01 0-.03 0-.05 0 .01-.02.02-.04.03-.06zm-5.87.33c.05.08.09.16.11.25-.02.03-.04.05-.06.08t0 0c-.07-.04-.16-.08-.26-.1.06-.08.13-.16.21-.23zm-.38.56s.03.02.04.03c-.02 0-.04 0-.06 0 0 0 0-.02 0-.03zm-1.3-.61c.16.03.27.08.35.16-.12-.04-.24-.07-.39-.07-.13 0-.24.01-.35.03.07-.11.19-.17.39-.13zm-1.4.42c-.31.18-.46.39-.52.6-.07-.14-.13-.29-.15-.43-.02-.22.44-.28.67-.17zm-.99.98c.1.11.2.22.3.31s-.08.01-.11.01c-.03-.01-.06-.03-.09-.04-.12-.04-.26-.06-.39-.05.07-.11.18-.21.29-.23zm-1.35.36c.1.04.2.08.29.12-.02.02-.04.03-.05.04-.14-.02-.29-.04-.43-.02 0-.06-.02-.11-.03-.17.08 0 .15.01.21.02zm-1.19.76s.06-.03.09-.04c.05.04.1.08.16.12 0 .08.04.15.09.22-.03.02-.05.04-.06.06-.13-.02-.26-.03-.4-.02-.03 0-.07 0-.1 0-.01-.1.04-.22.22-.34zm-.32.73c.15.04.33.05.52.04.1.02.19.04.29.06.1.07.24.12.39.17v.01c-.32 0-.63 0-.93-.03-.14-.02-.31-.05-.35-.14-.03-.07.02-.1.1-.11zm-3.01 1.65c.13 0 .26.03.37.06-.13-.02-.27-.02-.4.02-.07-.02-.14-.04-.22-.06.09-.01.18-.02.25-.02zm-1.32.53c.12.12.25.25.4.36-.03.03-.05.06-.07.09-.12 0-.24 0-.37 0-.18-.12-.13-.29.03-.45zm-.73.87s.02 0 .02-.01c.07.03.15.05.24.07-.29.08-.56.18-.78.32.02-.11.16-.25.52-.38zm-.61 1.94c.13-.17.34-.31.56-.43h.05c0 .04.03.07.06.09-.05.04-.09.08-.13.13-.13.07-.26.14-.4.2-.06.01-.11.02-.17.03 0 0 .01-.02.02-.02zm-1.81 1.22c.19.08.6 0 .86-.07-.07.1-.11.2-.11.3-.15.05-.29.08-.43.09-.27.02-.37-.13-.31-.32zm.9.54s.02.01.02.02c-.02.01-.04.02-.05.03 0-.02.02-.03.02-.05zm7.15 7.04s0-.07 0-.1c.02 0 .04-.01.06-.02.02.05.04.09.07.14-.03-.03-.08-.03-.12-.02zm2.44 1.91c-.8-.52-1.48-1.17-2.16-1.75.08.03.16.02.21-.02.15-.15.17-.38.16-.61h.07c.01.02.02.03.04.05.05.05.12.07.18.06.11.08.23.16.35.21.06.14.13.29.23.42.06.08.21.15.27.1.1-.08.15-.2.16-.34.02-.04.02-.1.01-.15.02-.02.04-.05.06-.08.12.05.23.06.32.03.07.09.15.17.24.25.11.16.22.32.32.48.43.65.55 1.39.84 2.09-.44-.23-.89-.46-1.29-.72zm20.7-5.05s-.05-.08-.07-.11c.02-.04.03-.08.03-.12.16.05.17.13.04.24zm-.15-6.19c-.1-.06-.21-.12-.33-.17-.08-.04-.18-.09-.29-.13.14 0 .27.01.41.02.22.04.45.11.68.18-.12.06-.28.09-.48.1z"/></svg>