<svg viewBox="0 0 15.49 32.26" xmlns="http://www.w3.org/2000/svg"><path d="m14.33 10.37c0-.12-.03-.25-.09-.34 0 0 0-.01.01-.02 0-.02.02-.04.03-.06.17-.02.35-.09.45-.18.17-.17.15-.38.03-.49.15-.26.08-.64-.21-.67.14-.22.19-.5.03-.71-.09-.12-.22-.13-.35-.1-.03-.1-.12-.2-.25-.24-.19-.07-.41-.02-.58.1-.07-.26-.44-.41-.69-.26-.03-.23-.17-.48-.36-.41-.11-.2-.29-.34-.53-.13-.13.11-.26.35-.27.54-.18.12-.34.35-.41.56-.1.08-.21.15-.33.21-.34.2-.71.31-1.06.45.23-.41.42-.83.69-1.23.06-.09.11-.18.16-.27.46.32 1.34-.25 1.31-.78.09-.09.15-.23.18-.34.05-.17-.02-.35-.13-.51.01-.05.02-.11.03-.17 0-.04 0-.08 0-.11.1-.1.18-.21.21-.34.04-.15.02-.29-.05-.4 0 0 .01-.02.02-.03.09-.25.12-.54-.15-.69-.06-.04-.13-.04-.19-.02 0-.22-.12-.43-.39-.49-.39-.08-.56.11-.67.38-.19-.26-.45-.3-.74 0-.09.09-.13.25-.13.41-.12-.15-.28-.26-.43-.28-.06 0-.11 0-.16 0 0 0 0 0 0-.01.34-.62-.13-.93-.67-.85.1-.29.22-.76-.18-.78-.15 0-.29.02-.41.07.06-.3 0-.62-.32-.71-.48-.12-.69.21-.73.6-.11-.06-.24-.04-.36.04 0 0-.01 0-.02 0-.09-.45-.83-.51-.93-.1-.21-.07-.46.08-.57.29-.25-.14-.6-.05-.68.3-.05.23 0 .61.15.85-.08.05-.15.11-.22.16-.14-.2-.3-.28-.43-.26.03-.4-.06-.81-.33-.97-.35-.2-.4.25-.37.66-.19-.07-.39.02-.53.22-.14.21-.07.47.04.69-.24.03-.48.17-.5.44-.01.14.02.29.08.42-.14.01-.28.09-.38.23-.08.12-.1.28-.07.42-.07 0-.13.03-.18.07-.15.03-.27.16-.36.27-.16.21-.15.52.08.68.04.03.08.05.13.07-.58.02-1.33.65-.9 1.14.24.27.7.2 1.1 0 0 .1.02.19.08.27-.23.23-.31.77-.11.99.22.23.52.1.74-.16.77 1.08 1.97 1.78 3.18 2.31.1.18.2.35.28.54.27.62.47 1.26.62 1.9-.12-.1-.24-.2-.35-.3-.06-.06-.12-.12-.18-.18.02-.05.04-.1.05-.17.05-.37-.14-.52-.38-.49.12-.22.17-.48-.07-.59-.06-.03-.13-.05-.2-.05.02-.09.01-.19-.03-.27-.1-.18-.35-.17-.55-.08 0-.21-.06-.41-.22-.52-.33-.22-.66.11-.81.39 0 0-.02.02-.03.02-.12-.16-.37-.12-.58.03.08-.37.12-.9-.21-.89-.24 0-.36.11-.42.27-.12-.19-.29-.28-.53-.07-.19.17-.15.5-.05.79-.16-.1-.32-.15-.45-.09-.07-.12-.18-.18-.35-.11-.31.13-.24.56-.11.89-.35 0-.61.52-.41.92-.15 0-.27.06-.34.2-.16.33.1.61.41.76-.03.04-.05.09-.06.14-.09.35.34.46.7.47-.12.09-.21.2-.22.34-.01.16.03.29.1.38-.37.09-.72.31-.87.64-.1.22.03.47.24.62-.26.17-.21.48-.09.71.34.7.86.14 1.04-.33.12.13.28.14.45 0 .48.2 1.01.29 1.51.34.6.45 1.25.83 1.93 1.19.02.05.05.1.07.14.04.08.07.15.1.23-.15.19-.17.41-.11.62-.05-.03-.11-.04-.2-.02-.18.05-.2.25-.16.45-.23-.05-.38.21-.36.5-.78-.23-.99.84-.5 1.06 0 .01.02.03.03.04-.02.01-.05.02-.08.03-.23.03-.33.32-.36.5-.04.3.2.44.46.45.23 0 .4-.24.54-.44.06.08.12.14.19.16-.27.35-.43.79-.12 1.15.37.42.79-.07.99-.43.23.29.38-.12.42-.46.1.06.22.07.3-.06.11.66.19 1.33.24 2.01.05.63.07 1.26.09 1.9.04 1.73.01 3.46-.04 5.19v.04c.01.31.34.68.73.67.35-.01.62-.23.67-.5.01-.63.05-1.27 0-1.9 0-.02-.01-.02-.02-.01 0-.46.02-.92.03-1.38 0-.43.06-.85-.01-1.27.02-1.06-.06-2.12 0-3.18.05-.73.17-1.47.27-2.19.06-.39.17-.84.17-1.25.17-.74.33-1.5.54-2.24.07.17.23.33.42.42-.02.06-.03.12-.04.19-.24.1-.43.38-.46.62-.03.29.18.49.44.54-.14.25-.23.51-.22.67.06 1.01 1.31.16 1.37-.67.06 0 .12-.03.18-.07.11-.07.2-.18.26-.31.14.1.32.11.52-.01.15-.1.25-.27.29-.46.06.04.13.05.2.04.06.26.23.45.55.42.28-.02.44-.25.49-.52.05 0 .1 0 .16-.02.42-.11.62-.65.49-1.04-.02-.07-.08-.08-.14-.07.1-.26.01-.49-.24-.58.16-.33.26-.72-.24-.78-.21-.02-.44.07-.65.22-.01-.07-.05-.14-.11-.21-.09-.09-.2-.1-.32-.06.18-.37.26-.8-.05-.99-.08-.05-.16-.06-.23-.04.02-.3-.11-.61-.49-.51-.28.08-.49.29-.56.54-.25-.04-.56.15-.7.39.37-.7.8-1.45 1.41-1.93.27-.21.76-.24 1.1-.34.1-.03.21-.07.31-.1-.03.23.04.45.27.56.27.13.67-.18.81-.45.34-.18.43-.67.3-1.06.05-.02.09-.05.13-.09.26-.25.15-.56-.04-.81.05-.09.08-.18.08-.26 0-.05 0-.09-.02-.13.2-.2.31-.54.31-.79-.01-.39-.35-.42-.62-.28zm-4.34-4.53s.01.03.02.04c.09.16.36.21.58.16.02.04.05.08.09.11-.21.18-.34.48-.26.73-.02.03-.05.07-.07.1-.13-.35-.32-.68-.41-1.05.02-.03.04-.05.06-.08zm-4.16.48c.06 0 .12-.02.19-.06.34-.23.28-.53.09-.79.14-.03.26-.13.34-.3.05-.11.05-.23.02-.34.04 0 .09-.03.13-.05-.05.54-.07 1.12-.03 1.69-.02.04-.04.07-.05.11-.02.05-.02.13 0 .18.02.03.05.05.08.06.04.34.1.67.18.99-.11-.1-.24-.2-.34-.29-.16-.15-.3-.31-.44-.48.26-.25.02-.52-.19-.72zm1.09.34s.02-.02.03-.04c.06-.08.11-.18.09-.28-.02-.08-.1-.09-.17-.07-.06-.52-.08-1.06-.08-1.6 0 .11.02.21.05.29.13.31.5.34.77.2.05-.02.1-.06.15-.09 0 .36.3.76.61.85-.05.17-.06.35.03.47.23.29.76.01 1.01-.27.11.05.22.04.33-.03v.02c.07.4.26.75.45 1.1-.14.23-.26.47-.39.71-.22.36-.43.72-.63 1.09-.2.32-.38.66-.53 1.01-.15.31-.29.65-.41.99-.21-.96-.29-1.87-.3-2.86 0-.01 0-.01-.01-.01-.02-.02-.08.01-.09.05-.07.34-.12.7-.15 1.06-.03-.07-.06-.14-.1-.21.01.02.02.04.04.05.02.03.08-.02.06-.05-.42-.78-.64-1.57-.77-2.39zm-3.99 7.42s-.03 0-.05 0c-.01-.01-.03-.02-.04-.04.01-.02.02-.03 0-.05-.21-.18-.43-.35-.65-.53.03-.02.05-.04.08-.06.13-.13.16-.27.14-.42.13.06.25.07.38.04.05.35.08.7.14 1.05zm1.42 1.35c.07 0 .13-.04.19-.08.04.27.09.55.15.82-.23-.26-.43-.52-.62-.8.08.05.18.07.29.06zm.33.82s.01 0 .02-.02v.05c0-.01-.02-.03-.03-.04zm7.16-5s.09-.03.13-.05c.01.09.05.17.1.24-.16.13-.31.26-.47.38.08-.19.16-.38.24-.57zm-1.44.11s-.02.03-.03.05c0-.02 0-.03 0-.05zm.19.02s.04-.09.06-.14c.06-.05.12-.12.16-.19.17.07.41.02.57-.13-.02.14.02.26.15.32-.09.16-.18.31-.26.47-.1.2-.2.5-.37.7-.13.29-.28.62-.34.8 0-.01 0-.03 0-.04.01 0 .03-.02.02-.04-.06-.54-.22-1.24 0-1.75zm2.02 1.61c.16.15.43.23.66.23-.02.03-.03.06-.05.09-.21.05-.41.1-.62.15-.17.04-.33.06-.49.08.18-.16.34-.35.5-.54zm-9.09 1.48c.04.15.15.23.28.24 0 .04-.02.07-.02.11 0 .05 0 .11.01.16-.11-.16-.22-.32-.34-.48-.25-.33-.18-.67-.26-1.04-.04-.19-.1-.38-.16-.56.04-.03.09-.06.13-.1.01.21.05.46.29.48h.06c-.12.2-.13.46.07.61.03.03.07.04.11.05-.15.12-.22.32-.17.52zm.03 2.58c-.34-.23-.66-.48-.96-.74-.06-.06-.12-.12-.17-.18.05-.1.09-.22.09-.33.08-.04.15-.12.18-.24.06-.28-.17-.74-.46-1 .02-.02.04-.05.05-.08.09-.15.1-.33.06-.49.02.02.04.05.07.07.06.06.12.12.18.18v.01c.59.6 1.02 1.35 1.5 2.03.39.55.75 1.11 1.08 1.7-.52-.33-1.09-.61-1.62-.93zm7.11-2.45c.19-.46.37-.93.53-1.4.1-.3.16-.6.27-.9.02-.05.04-.08.06-.11.03 0 .06-.02.1-.04.06-.02.12-.06.17-.1 0 0 0-.01.01-.02.24-.12.47-.3.65-.46.09-.01.19-.05.28-.11.02.06.05.12.08.18-.06.05-.12.11-.16.18-.09.16-.13.35-.09.52-.04.06-.08.12-.11.2-.01.04-.01.08-.02.11-.11.11-.22.22-.32.33-.54.5-1.03 1.04-1.47 1.6zm.48-6.36s.01.02.02.04c-.02 0-.04 0-.06 0zm.03.23s0 0 0 0c-.02.13.01.27.1.38s.24.12.39.08c.02.07.05.15.11.22.09.12.21.16.34.17-.07.06-.14.13-.2.2-.02-.05-.05-.09-.1-.13-.18-.14-.36-.07-.48.07-.03-.02-.07-.03-.12-.02-.09 0-.15.07-.19.15-.06-.1-.15-.17-.28-.1-.01 0-.02.02-.03.02-.02-.04-.03-.09-.06-.13-.13-.22-.42-.16-.57-.02-.12.1-.15.3-.13.48-.4.16-.83.69-.72 1.05.09.32.35.59.7.48.06-.02.12-.05.17-.09h.02v.06.24.31.15c.02.52.07 1.04.21 1.52-.01.05-.03.09-.04.14-.26.54-.52 1.07-.71 1.65-.09.26-.18.52-.27.77-.08.03-.15.07-.21.1-.32.22-.32.7-.18 1.02-.05.15-.1.3-.15.46-.26.81-.41 1.66-.6 2.49 0-.14 0-.27 0-.4s0-.01 0-.02c0-1.48-.09-2.96-.04-4.44.05-.83.12-1.65.29-2.5.22-1.15.54-2.23.95-3.31.08-.21.17-.42.26-.63.41.01.82-.16 1.2-.42.12.02.25 0 .36-.03zm-7.01 1.53s.01-.03 0-.04c-.58-.31-1.13-.81-1.55-1.34.08-.13.14-.28.16-.42.19.01.42-.12.56-.3.07.03.16.02.25 0 .26.69.49 1.42.65 2.15-.02-.01-.04-.03-.06-.04zm.26.17c.04-.58-.19-1.24-.47-1.82.07.04.16.05.27.02.24-.07.45-.25.56-.47-.07.48-.03.98.48.74.43-.2.7-.95.59-1.49.02 0 .04-.02.07-.03.11.2.23.39.38.56.15.18.35.46.58.54.1.64.29 1.28.8 1.55.01.66.12 1.32.36 1.9v.02c-.04.13-.07.23-.09.27-.24.65-.35 1.32-.42 2.01-.02.17-.04.35-.05.53-.13-.69-.33-1.35-.64-2.04 0 0 0-.01-.02 0-.08-.18-.16-.36-.24-.54.02 0 .03-.02.04-.04.24-.87.15-2.1-.27-2.9-.01-.03-.05 0-.06.02-.03 0-.07.04-.06.06.05.3.09.6.11.91-.06-.04-.12-.07-.17-.1-.21-.12-.37-.27-.55-.43-.3-.26-.54-.53-.79-.84-.02-.02-.07.02-.05.04.22.35.41.64.7.94.27.27.57.47.9.66.02.43.03.87.03 1.3-.03-.06-.07-.12-.1-.18-.14-.35-.3-.7-.62-.93-.01 0-.03 0-.05 0-.05-.02-.1-.04-.17-.05-.03 0-.06 0-.09-.01-.03.01-.06.03-.08.06.06.12.12.24.19.36-.35-.21-.7-.42-1.04-.63zm2.24 3.92c.18.97.25 1.95.27 2.94 0 .5.01 1 0 1.51-.02 0-.03 0-.05 0-.05 0-.1.02-.14.05-.02.01-.05.03-.06.05s-.04.05-.05.07c0-.01-.02-.03-.03-.04-.07-.24-.2-.45-.43-.44-.18-.27-.37-.54-.55-.79-.38-.52-.48-1.07-.63-1.69-.06-.25-.13-.49-.22-.73.03-.07.06-.15.07-.22.06.01.14 0 .22-.07.12-.08.17-.22.19-.35.18.09.38.06.56-.19.21-.29.12-.62-.08-.86.03-.01.07-.03.1-.05.21.27.5.62.82.8zm-4.5 2.74c.07-.15.08-.32.05-.49.04-.01.07-.04.11-.07.28.29.57.56.88.81-.34-.09-.7-.16-1.04-.25zm9.52-2.85s.03-.04.05-.06h.06c-.04.02-.08.04-.11.06z"/><path d="m9.13 2.53c.06.14.17.19.29.19v.06c.06.35.46.37.72.25.01 0 .02-.01.03-.01.01.03.03.06.06.09.09.08.21.09.32.06.12-.03.25-.09.31-.21.04-.08.02-.17-.04-.24-.05-.06-.13-.11-.22-.14-.03-.03-.07-.05-.12-.05 0-.08-.01-.16-.05-.24-.05-.11-.14-.15-.24-.15.08-.15.11-.32 0-.47-.06-.07-.12-.12-.19-.14.05-.19.03-.39-.13-.5-.09-.06-.18-.05-.27.01-.02-.12-.07-.24-.22-.26-.07-.01-.15 0-.21.03-.07-.05-.15-.06-.24-.05-.08.01-.15.05-.21.1-.04-.17-.13-.32-.27-.39-.11-.06-.22-.03-.31.03 0-.01-.02-.02-.02-.03.01-.2-.06-.42-.25-.46-.19-.04-.33.11-.39.28-.06-.1-.21-.18-.32-.2-.36-.06-.52.29-.5.59.02.32.3.55.62.47.07-.02.15-.07.21-.14.02.02.03.04.06.05.13.08.27.03.38-.05.04.23.19.53.43.57.09.02.18 0 .26-.05 0 .01 0 .02.01.03.04.07.1.1.17.1-.05.09-.06.2 0 .32.07.14.2.18.34.17-.05.14-.06.27-.02.37z"/><path d="m.87 15.08c.01-.1 0-.21-.1-.26-.12-.06-.26.06-.32.15-.06.1-.09.21-.02.31.02.04.08.04.12.04.14.05.3-.11.32-.24z"/><path d="m2.32 17.49c-.12-.21-.42-.03-.44.16v.02c-.01-.01-.03-.03-.05-.04-.05-.03-.11-.05-.17-.04-.18-.05-.41.2-.48.33-.12.21-.16.57.16.59.15.01.33-.1.46-.25 0 .05 0 .1.02.15.06.14.23.18.37.16.21-.02.36-.2.43-.39.05-.16.02-.4-.15-.47-.04-.02-.09-.02-.13-.02.03-.07.03-.14 0-.21z"/><path d="m3.77 19.41c-.06-.04-.13-.05-.21-.04-.01-.11-.07-.21-.18-.27-.26-.15-.56.19-.5.44-.07-.05-.16-.05-.27.02-.16.1-.15.29-.06.46-.19-.02-.38.06-.52.23-.22.26-.15.64.06.88.28.31.6.16.8-.09.04.08.12.14.23.13.2 0 .36-.14.43-.32.07-.01.14-.04.19-.08.23-.17.18-.46.04-.66.23-.19.32-.48-.01-.7z"/><path d="m1.61 20.12s.02 0 .02 0c.07.07.18.02.25-.04.08-.07.14-.22.12-.32 0-.05-.03-.07-.08-.09-.17-.04-.35.16-.37.31 0 .04 0 .1.05.12z"/><path d="m15.46 15.04c-.04-.15-.15-.19-.27-.17.03-.26-.04-.55-.36-.52-.16.01-.29.1-.38.21-.08-.1-.19-.15-.33-.08-.03.01-.06.03-.08.06-.03-.12-.12-.23-.25-.21-.26.05-.33.25-.29.46-.36-.06-.76.1-.73.53.02.29.27.35.54.3-.1.23-.1.46.08.56.11.06.23.04.34-.02.05.13.13.24.23.29.17.08.38 0 .51-.15.2.06.45.02.58-.19.04-.06.05-.14.05-.21.07-.04.13-.08.19-.13.19-.18.24-.49.17-.73z"/><path d="m5.52 1.4s-.06 0-.09 0c0 0-.02 0-.03.01-.06.02-.12.06-.16.12-.05.07-.06.16 0 .23s.16.04.23 0c.1-.06.13-.16.12-.27 0-.03 0-.05-.02-.07-.01-.02-.03-.04-.06-.04z"/><path d="m5.7 1.71s.15-.12.07-.14c-.02 0-.04-.01-.07 0-.06 0-.15.13-.05.15h.05z"/><path d="m2.6 9.21c-.02-.07-.12-.04-.16-.02-.05.03-.09.07-.1.13s-.03.08-.03.11c0 .04 0 .09.06.09.16 0 .27-.17.24-.31z"/><path d="m2.82 9.5s.02-.07-.03-.07c-.06 0-.1.03-.12.08s0 .1.06.09c.05 0 .09-.05.1-.1z"/><path d="m.03 13.25s0 0 .01 0c.06.02.13-.04.15-.09.01-.04.02-.07 0-.1s-.06-.02-.09 0t0 0s-.11.08-.1.14.01.04.03.05z"/><path d="m7.09 6.67c-.09 0-.19.17-.08.17.08 0 .19-.17.08-.17z"/></svg>