<svg viewBox="0 0 30.75 32.26" xmlns="http://www.w3.org/2000/svg"><path d="m30.63 18.05s-.01-.02-.02-.02c-.03-.04-.07-.08-.11-.11-.01-.01-.02-.02-.04-.03-.04-.03-.08-.06-.13-.09-.01-.01-.03-.02-.05-.03-.04-.02-.08-.04-.12-.06-.02-.01-.04-.02-.06-.03-.04-.02-.07-.03-.11-.04-.02 0-.04-.02-.06-.02-.04-.01-.08-.02-.11-.03-.02 0-.04-.01-.06-.02-.02 0-.05-.01-.07-.02-.03 0-.06-.01-.08-.02-.01 0-.03 0-.05 0s-.04 0-.04 0 1.12-.84-.14-1.49c.2-.26.27-.69.1-1.05 0-.01-.01-.02-.02-.03-.02-.04-.04-.07-.07-.11-.01-.02-.03-.03-.04-.05-.02-.03-.05-.06-.08-.09-.02-.02-.04-.03-.06-.05-.03-.02-.07-.05-.1-.07-.02-.02-.05-.03-.07-.04-.04-.02-.08-.04-.12-.05-.03-.01-.06-.02-.09-.03-.05-.02-.1-.02-.15-.03-.03 0-.07-.01-.1-.02-.06 0-.12-.01-.19-.01-.04 0-.07 0-.1 0-.08 0-.16.01-.25.02-.03 0-.06 0-.09 0-.12.02-.25.04-.39.07-.07-.18-.25-.24-.25-.24.51-.25-.23-1.37-1.41-.63-.02-.12-.05-.23-.09-.33 1.1.35 3.8-1.63 1.71-3.33 1.03-1.04.36-3.21-1.76-3.36.18-.34-.3-.44-.3-.44s.41-1.64-1.46-1.91c-.02-.23-.21-.54-.21-.54s.06-1.57-1.23-2.16c-.07-.03-.15-.06-.22-.09-.02 0-.04-.01-.06-.02-.05-.02-.1-.03-.15-.04-.02 0-.04-.01-.06-.01-.05-.01-.11-.02-.16-.02 0 0-.02 0-.03 0-.06 0-.12 0-.18 0-.02 0-.03 0-.05 0-.04 0-.09 0-.13 0-.02 0-.04 0-.06 0-.04 0-.08.01-.13.02-.01 0-.02 0-.04 0 0 0 0 0-.01 0-.56.14-.9.49-.9.49-.38-.75-1.16-.37-1.16-.37-.12-.77-1.03-1.12-1.48-.39 0 0-.46-1.12-1.48-.39-.57-.6-1.57-.3-1.79.05.09-1.16-2.62-1.14-2.49.79-.69-.27-1.17.14-1.29.56-.42-.66-.88.44-.88.44-1.06-.93-2.83 1-1.23 2.21-.86.16-.43.86-.43.86-.74-.22-.68.42-.68.42-1.06-.29-2.11.99-.45 2.29-.86.2-.72 1.06-.35 1.18-.82.02-.32.99.15 1.1-.21.1-.35.21-.45.34-.02 0-.05-.01-.07-.02-.03 0-.06 0-.1 0-.02 0-.04 0-.05 0-.04 0-.08 0-.11.01-.01 0-.02 0-.03 0-.04 0-.08.01-.12.02 0 0-.02 0-.03 0-.4.11-.75.42-.79.78-.52-1.12-3.16-.67-2.7 1.24-.86-.31-1.08.33-1 .7-.83-.43-2.04.9-.79 1.88-.93.36-.58 1.62.11 1.65-.71.76.12.82.36.89-.51.91.01 1.61.76 1.23-.24.93 1.14.37 1.14.37-.11.6.36 1.13.92 1.36s.02 0 .03.01c.05.02.11.04.16.06.02 0 .04 0 .05.01.05.01.1.02.15.03h.07c.05 0 .09.01.14.01h.08.12c.03 0 .06-.02.1-.02.03 0 .06-.01.09-.02.04-.01.07-.03.1-.05.02-.01.05-.02.07-.03.04-.02.07-.06.11-.09.01-.01.03-.02.05-.04.05-.05.09-.1.13-.16.18.94 1.1.41 1.1.41 0 .07.04.13.08.19-.16 0-.77.02-.82.75-.06.83.96.94.96.94s-.14.09-.24.23-.05.07-.06.12v.02c0 .02 0 .03-.01.04v.04.04.04c0 .02 0 .03.01.05s.01.03.02.05c0 .02.01.03.02.05s.02.03.03.05.02.03.03.05l.06.06c.01.01.03.03.04.04.04.03.08.07.14.1-.29.22-.03.88.86.74-.07.3.49.4.68.05.12.37.88.55 1.32.25.12.28.58.2.79-.13.33.38 1.71.68 1.81-.32.06 0 .13 0 .21.01h.06c.06 0 .12.01.18.02.04 0 .08.01.12.02h.02c.07.02.15.03.23.05.06.01.11.03.17.04.29.08.6.19.88.34 0 0 .01 0 .02.01.09.05.18.1.26.15.29.19.53.42.68.7.03.05.05.1.07.15.13.34.25.84.35 1.44.02.15.05.3.07.46 0 .05.01.1.02.15.01.11.02.22.04.33 0 .06.01.12.02.18.02.15.03.31.04.47v.17c0 .11.01.22.02.33v.22.32.18c0 .16 0 .31-.01.47v.16c0 .11-.01.23-.02.34 0 .05 0 .11-.01.16-.02.15-.04.31-.06.45 0 0-.06.37 1.59.31 1.66-.05 2.47-.15 2.31-.58s-.48-1.25-.58-1.89-.47-2.74-.36-4.38.93-3.09 2.24-3.55c.4-.14.75-.23 1.1-.32.41.52 1.56.75 1.95.1.18.25.53-.08.53-.08.01.34.64.51 1.19.06.41.89 2.94 1.06 2.38-.9.53.12.79-.21.65-.44.37.29.88-.15.34-.67 1.23.42 2.09-.86 1.87-1.4-.02-.06-.05-.11-.08-.15zm-15.3 6.05v.22.11c0 .1.01.19.03.27.09.57-.1.69-.43.4-.32-.29-.9-.84-1.39-1.17-.09-.06-.2-.15-.34-.27 0-.05.02-.1.01-.16 0 0 .85-.39.61-1.14s-1.31-.6-1.52-.49c.3-.68-.32-.98-.65-.84 0-.22-.13-.23-.22-.2.07-.19-.03-.39-.19-.51 0 0-.01 0-.01-.01-.02-.01-.04-.02-.06-.04-.01 0-.02-.01-.04-.02-.01 0-.03-.01-.04-.02-.02 0-.04-.01-.06-.02-.01 0-.02 0-.03 0-.02 0-.05 0-.07-.01h-.01c-.03 0-.06 0-.09 0s-.06.01-.09.02c-.06.02-.12.05-.18.09-.03.02-.06.05-.08.07s-.01.01-.02.02c0 0-.02-.01-.03-.02 0 0 0-.01 0-.02.01-.02.02-.05.03-.07 0-.02.01-.03.02-.05 0-.03 0-.05 0-.08 0-.01 0-.02 0-.04 0-.04-.01-.07-.02-.11.58.18 1.26-.08 1.6-.6.64.48 1.19.89 1.65 1.19.8.52 1.25 1.35 1.46 1.94.15.41.14 1 .15 1.52s0 .01 0 .02zm1.72-5.62s-.01.02-.02.02c-.02.03-.05.05-.07.07 0 0-.01 0-.02.01-.02.02-.04.03-.06.03-.22.02-.16-1.09-.09-2.08.3-.09.57-.21.77-.36.07.29.23.49.42.63-.33.72-.69 1.4-.93 1.68zm-1.9 1.95s0 .04-.02.05c0 .02-.02.03-.03.04 0 0-.01.02-.02.02-.02.01-.05.02-.09.01-.32-.06-1.6-.78-2.15-1.31-.22-.21-.4-.39-.56-.56 0-.05 0-.1 0-.15 0 0 2.12-.54.79-1.92.05-.11.03-.23-.03-.33.33.03.72-.2.91-.33.56.96.88 1.98 1.03 2.9.04.27.09.52.12.73 0 .07.02.12.03.18.01.09.02.18.04.26v.07.11.07.08c0 .02 0 .04-.01.06zm-2.57-4.52s-.02 0-.02-.01h.01v.02zm3.42 2.3s-.04.03-.06.04-.04 0-.07 0c-.24-.06-.47-.78-.58-1.17-.03-.11-.09-.24-.15-.39.34.05.72.04 1.09-.02-.05.99-.11 1.42-.23 1.54zm2.81 3.24s0 0 0 0c-.05.03-.1.06-.14.08 0 0-.01 0-.02.01-.04.02-.07.03-.1.03-.03 0-.05 0-.06-.02-.12-.18-.06-1.2-.15-2.08-.04-.42-.04-.83 0-1.23.02.03.03.05.05.08.15.19.33.24.47.24s.08 0 .12 0 .07-.02.09-.02.05-.02.06-.02.02-.01.02-.01-.56 1.33.95 1.21c.01.26.27.37.49.43-.67.47-1.23.92-1.6 1.19t0 0c-.07.05-.13.1-.19.13zm1.96-.18c.09-.16.19-.32.29-.47.06.16.17.32.33.41-.22.04-.43.06-.62.06z"/></svg>