<svg viewBox="0 0 23.2 32.25" xmlns="http://www.w3.org/2000/svg"><path d="m13.21 31.96s.06-.05.09-.08c0 0 .02-.02.03-.03.02-.02.04-.05.06-.08 0-.01.01-.02.02-.04.02-.04.04-.09.05-.14.09-.45-.02-.77-.1-1.21-.16-.83-.17-1.62-.21-2.47-.01-.2-.04-.41-.06-.62.15.35.34.66.58.94.09.11.21 0 .26-.12.13-.38.11-.9.14-1.35 0 .01 0 .02.01.02.35.63.79 1.08 1.28 1.53.1.09.24-.11.23-.24-.02-.17-.04-.3-.12-.43-.09-.15-.16-.33-.23-.51.4.37.96 1.01 1.46.91.1-.02.18-.14.18-.28-.03-.67-.44-1.38-.62-2.02 0-.02-.01-.05-.02-.07.45.27.93.5 1.42.69.55.21 1.11.3 1.68.35.38.04.79 0 1.18.07.21-.03.41-.06.62-.09-.42-.3-.85-.58-1.29-.85.3 0 .61-.03.92-.07.34-.04.69-.16 1.02-.26.11-.03.34-.17.48-.11.06-.04.12-.09.17-.14 0-.03-.01-.06-.04-.08s-.07-.04-.1-.05c-.48-.2-.97-.45-1.45-.71.33 0 .63-.05.92-.11.01-.02.03-.04.05-.04.42-.12.99-.23 1.37-.6-.06-.01-.11-.02-.17-.03-.86-.03-1.68-.46-2.5-.8-.14-.06-.28-.13-.42-.21.23-.02.46-.07.69-.12s.04-.01.06-.02c.17-.04.34-.09.51-.14.21-.06.59-.31.91-.43h.02c.14-.1.27-.19.42-.28-.19-.01-.37-.03-.55-.06-.66-.02-1.4-.29-1.97-.5-.55-.2-1.1-.48-1.63-.75-.07-.03-.18-.08-.3-.14 0 0 0 0-.01-.01.28.06.56.11.83.14.43.04.86 0 1.29-.04.35-.04.72-.22 1.08-.3.15 0 .29 0 .43-.05.04-.02.09-.09.1-.16-.14-.02-.29-.06-.43-.1-.64 0-1.44-.46-1.94-.77-.21-.13-.41-.25-.62-.38.47.05.94.05 1.42 0-.25-.17-.49-.36-.71-.6-.22-.07-.44-.15-.66-.29-.21-.13-.41-.28-.6-.44.66.01 1.32-.1 1.9-.25.03-.01.07-.04.1-.07-.06-.03-.11-.07-.17-.11-.22-.14-.44-.31-.65-.5-.53-.14-1.07-.65-1.49-1.05-.35-.33-.68-.68-.97-1.06.22.1.45.19.68.27.55.17 1.64.52 2.08-.14-.93-.52-1.88-.96-2.48-2.07-.02-.02-.03-.03-.04-.05-.37-.44-.68-.96-.96-1.5.23.11.46.21.67.3.46.18.99.43 1.44.11.02-.01.03-.04.05-.06-.35-.31-.7-.61-1.03-.95-.14-.1-.27-.2-.4-.31-.36-.32-.68-.71-.98-1.13.11.04.21.08.32.11.34.1.74.14.98-.24-1.19-.64-2.31-1.91-3.07-3.04-.13-.19-.26-.39-.39-.59-.13-.2-.26-.4-.38-.61-.03-.05-.06-.1-.09-.15-.1-.16-.19-.32-.28-.49-.06-.1-.11-.2-.16-.3-.06-.12-.13-.24-.19-.36-.07-.14-.13-.28-.19-.42-.04-.09-.09-.18-.13-.27-.07-.17-.14-.34-.2-.51-.03-.07-.06-.14-.08-.2-.07-.19-.13-.38-.19-.57-.02-.05-.04-.1-.05-.16-.06-.21-.11-.42-.15-.63-.01-.06-.03-.13-.04-.2-.52 1.79-1.33 3.37-2.31 4.78-.47.67-.98 1.28-1.52 1.87-.18.19-.36.35-.54.48-.11.11-.23.23-.35.34-.06.06-.15.15-.26.25-.02.01-.03.03-.04.04-.02.02-.04.04-.06.06-.04.04-.09.08-.14.12-.01.01-.03.02-.04.03-.06.05-.12.09-.18.13-.02.01-.03.02-.05.03-.06.04-.13.08-.19.1.34.23.69.22 1.05.14-.06.06-.13.11-.19.18-.07.07-.11.23 0 .27.07.02.14.04.21.05.04 0 .08.01.12.01h.18c-.51.24-1.06.27-1.62.3-.21.08-.43.15-.65.16-.01.05-.01.1.03.14.57.4 1.31.61 1.98.45-.23.19-.46.36-.69.53-.21.15-.43.25-.66.33-.46.29-.92.61-1.41.74.36.18 1.16.57 1.84.61-.25.16-.51.32-.78.45-.34.17-.73.44-1.12.55-.27.12-.54.22-.83.28-.02.06 0 .14.04.17.24.19.59.26.93.24-.47.13-.95.21-1.41.3-.13.04-.26.09-.39.14-.11.05-.23.09-.34.14-.01.05 0 .1.04.14.78.58 1.68.95 2.58 1-.16.09-.32.16-.49.23-.08.03-.14.22-.02.25.24.06.49.12.73.16h.02c.06 0 .11.02.17.03-.23.13-.47.25-.71.36-.3.13-.6.2-.9.25-.21.1-.42.2-.63.25-.26.06-.53.08-.79.11 0 .03 0 .05.03.07.52.55 1.29.78 2.04.79-.21.1-.41.19-.63.26-.08.03-.14.23-.02.26.4.1.82.22 1.24.22-.4.28-.83.52-1.25.75-.3.16-.61.31-.91.44-.88.45-1.82.73-2.75.79.15.14.31.25.47.35s.01 0 .02.01c.08.05.16.09.24.14.25.12.51.21.78.27.02 0 .04 0 .06.01.06.01.13.02.19.03.05 0 .1.01.15.02.05 0 .1 0 .15.01h.22.1c.11 0 .22 0 .33-.02-.46.33-.97.56-1.47.79-.06.02-.14.17-.07.24.01.01.02.02.04.03.36.33.87.4 1.38.33-.03.02-.05.03-.08.05-.5.32-1.12.44-1.58.84-.05.04-.12.18-.05.24.34.33.8.42 1.26.4-.2.09-.39.18-.59.27-.44.2-1.22.31-1.63.76-.05.05-.1.11-.13.18-.03.06-.03.17.02.2.6.4 1.43.27 2.09.27.12 0 .24 0 .36-.01-.28.16-.57.34-.81.58-.06.06-.13.22-.03.28.46.29 1.17.08 1.64-.06.26-.08.52-.17.78-.25-.24.33-.38.63-.22.73.4.26 1.13-.16 1.66-.42-.01.05-.02.1-.03.16 0 .06.02.12.06.15.2.14.37.13.57-.02.27-.19.54-.37.82-.52-.26.33-.44.69-.27.92.2.27.6.05.83-.06-.18.2-.35.39-.51.58-.07.09-.09.28.03.31.68.18 1.51-.45 2.09-.86.1-.07.2-.14.3-.22-.12.37-.25.97.2.92.24-.03.48-.28.66-.47.3-.31.61-.61.91-.94-.03.37-.02.74 0 1.11-.02.7-.05 1.4-.07 2.09-.03.88-.31 2.03.59 2.02.3 0 1.08.02 1.51-.28 0 0 .02 0 .02-.01z"/></svg>