<svg viewBox="0 0 17.32 32.26" xmlns="http://www.w3.org/2000/svg"><path d="m12.23 19.16s.09-.05.09-.09c0-.15-.03-.31-.1-.47.11.02.23.03.32.01.04 0 .09-.04.08-.09 0-.08-.03-.16-.07-.23.03-.02.05-.04.05-.07 0-.02 0-.05 0-.08.06-.03.12-.06.16-.12s.06-.11.07-.15c.18 0 .36-.01.53-.09.05-.02.07-.07.04-.12-.09-.19-.3-.31-.53-.38-.01-.01-.03-.02-.05-.04.07-.02.12-.04.17-.08.03.06.13.1.18.04.08-.08.09-.18.06-.27.17 0 .33-.03.48-.1.05-.02.07-.08.05-.13-.1-.2-.32-.34-.57-.41-.03-.02-.06-.05-.1-.07.08-.02.15-.06.22-.09v.02c.01.09.15.13.21.07.1-.1.11-.23.05-.35 0-.03 0-.05-.03-.07.15 0 .3-.04.44-.1.06-.02.07-.08.05-.13-.1-.21-.34-.35-.6-.43-.02-.02-.06-.05-.09-.07.08-.02.16-.04.22-.09.02.08.15.13.21.06.1-.1.11-.23.06-.35.19 0 .39-.03.57-.11.06-.03.08-.09.05-.14-.11-.23-.36-.37-.65-.46-.03-.03-.07-.06-.11-.08.02 0 .03-.01.05-.02.06.03.13.04.21.01 0 0 .01-.01.02-.01.05.05.15.06.2 0 .11-.12.12-.26.05-.39 0-.01 0-.02-.01-.04 0-.04 0-.07 0-.11.12.08.24.12.38.08.13-.05.18-.14.17-.25.06.02.13.04.19.05.05 0 .1-.02.11-.06.1.07.21.14.32.18.04.02.11-.02.1-.06 0-.04 0-.07-.01-.1.1.03.2.03.3.02.04 0 .07-.04.07-.07 0-.12-.03-.25-.08-.38.09.02.18.02.26 0 .04 0 .07-.03.07-.07 0-.1-.06-.2-.13-.27.1-.02.18-.06.23-.13.03-.04.05-.09.06-.12.15 0 .29-.01.43-.07.04-.02.05-.06.03-.1-.06-.12-.18-.21-.32-.26 0-.06-.01-.11-.03-.17v.01c.01.06.11.1.16.05.05-.06.07-.13.06-.2.04 0 .08-.04.07-.07 0-.11-.06-.21-.14-.3.1-.02.19-.06.24-.14.03-.05.05-.09.06-.13.16 0 .32-.01.46-.08.04-.02.06-.07.04-.1-.08-.16-.26-.27-.47-.33-.02-.02-.05-.04-.08-.06.06-.02.12-.05.18-.08v.01c.01.07.12.11.17.05.08-.09.08-.19.04-.28 0-.02 0-.04-.02-.06-.06-.06-.12-.09-.19-.12 0-.02 0-.04 0-.06.02-.03.05-.05.07-.08.02-.04.02-.08-.02-.11-.04-.02-.09-.04-.14-.06 0 0 0-.02 0-.03.04-.06.06-.13.04-.21s-.07-.12-.14-.14c-.05-.04-.12-.05-.19-.05.06-.07.1-.15.11-.26 0-.03-.02-.07-.05-.07-.16-.03-.31-.02-.45.03v-.04c0-.05-.06-.09-.11-.09-.08 0-.15 0-.22.03.04-.12.06-.26.04-.37-.01-.06-.07-.09-.14-.09-.16.02-.31.11-.42.23-.01 0-.02 0-.03 0-.04-.06-.1-.09-.18-.04-.02.01-.03.02-.05.04 0-.04 0-.07 0-.11 0-.1-.13-.18-.22-.1-.06.05-.13.13-.22.22 0 0-.02 0-.03 0 .04-.13.06-.26.04-.39-.01-.06-.09-.12-.16-.1-.19.06-.36.17-.5.31 0-.05-.02-.1-.04-.15 0-.03-.01-.06-.04-.07 0-.02-.02-.03-.03-.05-.04-.04-.1-.05-.15-.04s0-.02 0-.03c.06-.08.08-.17.05-.27-.02-.1-.09-.15-.18-.18-.06-.05-.15-.07-.23-.06.02-.02.03-.04.04-.07.06 0 .11 0 .17-.02.06 0 .1-.05.1-.1 0-.18-.04-.38-.12-.56.13.03.27.04.38 0 .05 0 .1-.05.1-.1-.01-.16-.08-.29-.19-.41.15-.03.27-.08.34-.19.04-.06.07-.13.08-.18.22 0 .44-.02.64-.11.06-.03.08-.09.05-.14-.1-.19-.29-.32-.52-.41-.02-.07-.05-.13-.08-.19.03-.01.07-.02.1-.04v.02c.01.09.16.15.23.07.11-.12.12-.26.05-.39 0-.03-.01-.06-.04-.08 0 0-.02-.01-.03-.02.02-.03.02-.07.03-.1.23 0 .47-.02.69-.12.07-.03.09-.1.06-.15-.12-.24-.39-.4-.7-.49-.03-.03-.07-.06-.12-.09.09-.03.18-.07.26-.11v.02c.02.1.18.16.25.07.12-.12.12-.27.06-.41 0-.03-.01-.07-.04-.09-.08-.08-.18-.14-.28-.18 0-.03.01-.06.01-.09.04-.04.07-.08.1-.13.03-.06.02-.13-.04-.16s-.13-.06-.2-.09c0-.01 0-.03 0-.04.06-.09.09-.19.06-.31-.03-.11-.11-.18-.21-.21-.07-.06-.17-.08-.27-.07.08-.1.14-.23.16-.37 0-.04-.03-.1-.08-.11-.24-.05-.46-.03-.67.04 0-.02 0-.04 0-.05 0-.07-.09-.14-.17-.14-.12 0-.23.02-.33.05.07-.19.1-.38.05-.56-.02-.09-.11-.13-.21-.13-.23.02-.45.16-.62.35-.02 0-.03 0-.05 0-.05-.08-.15-.13-.26-.07-.02.02-.05.04-.07.05 0-.05 0-.1 0-.16 0-.15-.19-.26-.32-.15-.08.07-.19.19-.31.31-.01 0-.03 0-.05.01.06-.18.09-.38.05-.57-.02-.1-.13-.18-.24-.15-.29.09-.53.26-.75.46 0-.14-.05-.29-.16-.41-.06-.08-.18-.09-.27-.05-.11.05-.2.12-.27.19 0-.02-.01-.04-.02-.06-.05-.11-.2-.14-.31-.1-.24.11-.38.27-.48.45-.05-.23-.18-.41-.48-.46-.26-.04-.44.15-.53.38-.24-.29-.52-.42-.88-.17-.16.12-.22.29-.23.48-.05 0-.1-.01-.16-.01-.04 0-.09 0-.13 0-.06-.07-.14-.13-.22-.17-.11-.05-.22-.02-.27.09s-.05.24-.03.36c-.04.05-.08.1-.1.15-.22-.05-.43-.09-.55-.12-.17-.04-.29.14-.18.27.01.01.02.02.03.04-.33.1-.61.31-.54.56-.16.02-.32.06-.45.11-.22.08-.5.23-.66.41-.05.04-.08.09-.09.14 0 .02-.02.04-.02.06-.29.18-.66.6-.48.92.04.06.1.1.17.13-.16.14-.31.3-.43.49-.07.11.02.25.17.23.08-.02.15-.03.23-.05-.17.21-.3.44-.37.71-.02.09.04.21.16.2.1 0 .2-.02.3-.04.03.06.09.09.15.05v.03c-.08.09-.16.18-.22.28s.02.23.16.21c.07-.01.14-.03.21-.05-.15.2-.27.41-.35.66-.02.08.04.19.15.19.1 0 .19-.02.27-.04.02.05.08.09.14.04v.08c0 .09.08.17.19.15s.22-.05.32-.1c.02.07.07.12.13.15 0 .03-.01.06 0 .1v.02c-.03.1-.05.19-.07.29-.01.07.06.13.14.14.27.01.49-.08.69-.22v.01c-.13.09-.21.21-.18.35-.14.02-.28.05-.4.1-.16.05-.36.16-.5.29-.12.03-.21.14-.26.27-.17-.21-.38-.31-.64-.12-.12.09-.16.21-.17.35-.04 0-.08-.01-.11-.01s-.06 0-.09.01c-.05-.05-.1-.1-.17-.13-.08-.04-.16-.01-.19.07-.04.08-.04.18-.02.27-.02.03-.05.07-.07.1-.16-.04-.31-.07-.4-.09-.13-.03-.21.1-.13.2 0 0 .02.02.03.03-.24.07-.44.22-.4.41-.12.02-.23.05-.33.08-.17.06-.38.18-.49.32-.02.02-.04.04-.04.06-.01.02-.02.04-.03.06-.21.13-.48.44-.35.67.03.05.07.08.12.1-.12.1-.23.22-.31.35-.05.08.02.18.13.17.06-.01.11-.02.16-.04-.12.15-.22.32-.27.52-.02.06.03.15.11.15s.15-.01.22-.03c.02.04.06.07.11.04v.06c0 .07.06.13.15.12.06-.01.11-.03.17-.05v.03c.03.04.07.07.11.09-.11.1-.21.2-.29.33-.05.07.02.17.12.15l.15-.03c-.11.14-.2.3-.25.48-.02.06.02.14.1.14.07 0 .14-.01.2-.03.02.04.06.06.1.03v.06c0 .06.06.12.14.11s.16-.04.24-.07c.02.05.04.09.09.11v.07.01c-.02.07-.04.14-.05.21 0 .05.05.1.1.1.2 0 .36-.06.5-.16-.03.13-.02.26.06.34.04.04.08.06.12.07-.05.17-.03.35.11.51.04.04.12.04.16 0 .09-.08.16-.17.23-.27.02.02.06.04.1.05-.12.11-.23.24-.33.38-.06.1.02.24.16.21.07-.01.15-.03.21-.05-.16.2-.28.42-.35.67-.02.08.04.19.15.19.1 0 .19-.02.28-.04 0 .02.02.04.04.05-.02.03-.04.05-.06.08-.06.1.02.22.15.2.07-.01.14-.03.2-.05-.14.18-.26.39-.32.62-.02.08.03.18.14.18h.11c-.03.04-.07.08-.1.12-.06.09.02.21.14.19.06-.01.13-.02.19-.04-.14.18-.25.37-.32.59-.02.07.03.17.13.17.09 0 .17-.02.25-.04 0 .02.02.03.03.04-.01.01-.02.03-.03.04-.06.09.02.19.13.18.03 0 .06-.01.09-.02h.07c-.12.15-.22.33-.28.52-.02.07.03.16.12.16.08 0 .16-.01.23-.03.02.04.07.07.12.04v.07c0 .07.07.14.16.12s.18-.04.27-.07c.01.05.05.1.11.13v.08.01c-.02.08-.05.16-.06.24-.01.06.05.11.12.12.2 0 .38-.05.53-.15 0 .03.01.07.03.1 0 .1.02.19.09.26.05.05.09.07.14.08-.06.2-.04.4.12.59.04.05.14.05.19 0 .1-.1.19-.2.27-.3.04.03.09.06.18.08h.09c.02.08.04.15.08.22.03.05.1.05.14 0 0 0 0-.01.01-.02 0 .07.01.15.02.23.05.38.09.75.12 1.13.01.13.02.27.03.4 0 .07.01.13.01.2 0 .2.01.39.01.59 0 .9.01 1.82.02 2.73v.27.81c0 .22 0 .43-.01.65 0 .38-.02.76-.04 1.14 0 .17-.02.34-.03.52 0 .07-.01.14-.02.21-.02.32-.05.65-.09.97s0 .04 0 .06c-.01.1-.02.19-.03.28-.02.19-.05.38-.08.57-.07.45-.21.93-.28 1.4.81 0 1.63-.03 2.44 0-.12-.85-.3-1.69-.4-2.55-.12-1.02-.03-2.06-.01-3.09.02-.96.14-1.91.02-2.86-.12-.96-.43-2.05-.02-2.92.13-.28.29-.54.46-.79.04.02.09.03.14.02h.11c.09 0 .16-.05.21-.12 0 .02.02.03.03.05.06.09.16.02.17-.07 0 0 0-.02 0-.03.03.04.05.07.08.11.08.08.2.03.23-.06.01-.01.03-.02.04-.03.09.09.19.13.33.07.29-.11.36-.38.33-.67.14.1.3.15.46.1.16-.06.22-.17.21-.3.03 0 .06.01.08.02.05.02.1.03.15.04.06 0 .12-.03.14-.08.12.09.26.17.4.23.05.02.13-.03.13-.08 0-.04 0-.09-.01-.12.12.03.24.04.37.02zm4.68-8.7c.08.02.14.07.19.13-.1.03-.21.05-.32.06.07-.04.12-.1.12-.19zm-13.39 3.67s0 0 0 0 0 0 0-.02c.04 0 .07 0 .1-.02-.02.01-.05.03-.07.04zm9.66-6.9s-.04.05-.06.07c0-.03 0-.06 0-.09.02 0 .05.01.07.02zm-.53-.48s-.01.04-.02.07c.06-.01.1.02.11.08.01.08-.02.16-.07.22-.03.03-.08.05-.11.02-.11-.1-.11-.26-.06-.4 0-.01.02-.03.03-.04.02.01.05.02.07.04h.04v.01zm-3.27.95s.09-.07.13-.09c-.05.14-.09.28-.13.41 0-.11 0-.21 0-.32zm-1.36-.56s.03-.04.05-.05c.05 0 .1-.01.14-.04.01 0 .02.01.04.02-.06.06-.12.11-.19.15-.03.02-.04.02-.06.02t0 0s0 0 0-.01c.02-.03.03-.05.05-.08zm3.11.97c0 .05-.03.1-.06.13-.02 0-.03.02-.04.03-.09.04-.19.03-.19-.1v-.06c0-.17.29-.28.29-.06zm-.76.65s0 .02 0 .03c-.19.07-.34.2-.31.36-.03 0-.06 0-.08.02 0-.03 0-.05 0-.07-.08-.06-.06-.16 0-.23.04-.06.09-.1.14-.13 0-.01.02-.03.02-.04.05-.06.15-.1.21-.04.04.04.04.08.03.13zm.06-.61c-.2 0-.07-.31.09-.31.19 0 .07.31-.09.31zm.47-.34c-.2 0-.07-.31.09-.31.2 0 .07.31-.09.31zm-2.61.37c-.2 0-.07-.32.09-.32.2 0 .07.32-.09.32zm-.16-.71s.09-.04.12-.06c0 .01-.01.02-.02.03-.01.03-.04.06-.06.08-.01.02-.02.03-.04.05-.06.06-.22.12-.24-.02 0-.03 0-.06 0-.08.07.03.16.03.24 0zm-.11 1.05c.12 0 .12.13.06.22-.02 0-.05.02-.07.02 0-.01 0-.03 0-.04 0-.05-.07-.1-.12-.1 0 0-.01 0-.02 0 .04-.05.09-.1.15-.1zm3.52-.74c-.06 0-.12-.02-.14-.08-.01-.02-.01-.05-.01-.08v-.02-.02c0-.04.02-.08.02-.12 0-.09.07-.17.15-.19s.15.04.14.12v.06c.02.03.03.07.04.1.01.11-.07.23-.19.23zm-4.24.02c.03-.07.13-.13.21-.1.05.02.06.07.06.11v.08c0 .03-.02.06-.03.08-.05.08-.19.17-.26.05-.04-.07 0-.16.03-.22zm-.37-.29c.06-.06.12-.12.17-.18h.02c.04.02.06.05.06.09.06.05.04.16 0 .22 0 0 0 .01-.01.01-.01.02-.03.03-.05.04 0 .01 0 .02 0 0-.06.1-.24.18-.27.02-.02-.07 0-.13.02-.18.03 0 .06-.01.08-.03zm5.33.34c-.06 0-.09 0-.12-.05-.04-.04-.03-.13-.03-.18 0-.16.24-.26.29-.11.02.02.04.05.04.1 0 .1-.07.21-.17.23zm-6.19-.44c.1-.15.29-.25.45-.23.13.02.11.16.05.25-.17.24-.41.42-.69.5-.15.04-.16-.16-.09-.24.08-.1.18-.19.28-.27zm6.76.36s-.02.02-.03.03c-.05.05-.14.1-.21.04-.06-.06-.04-.16.01-.22 0 0 .02-.02.03-.03.05-.05.14-.1.21-.04.06.05.04.16-.01.22zm.3.12h-.01c-.1 0-.12-.12-.08-.2s0-.01 0-.02c.03-.07.1-.14.18-.13.07 0 .1.07.1.13 0 .1-.09.22-.19.21zm-9.86 6.26s.01.05.03.08c0 0 .01.01.02.02-.09.05-.18.09-.27.12.07-.08.15-.15.23-.22zm9.11 3.33s0 0 0 0h.25c.01.02.04.05.04.07-.1 0-.2-.02-.29-.06zm1.68-4.48c-.02.07-.07.12-.14.14.03-.03.06-.07.08-.1.03-.05.02-.12-.04-.15-.03-.01-.06-.03-.09-.04.02 0 .04-.01.06-.01h.03c.08 0 .12.1.09.17zm2.27-1.82s0-.03 0-.05c.02.02.04.05.06.08-.02 0-.04-.02-.07-.03zm.3-.69s-.02-.04-.05-.03c0 0-.02 0-.03.01s0-.04 0-.06h.17c.02.04-.03.06-.1.07zm-2.89-5.7s-.05 0-.08 0c0 0 0 0-.01 0-.01-.01-.03-.03-.05-.04.05-.01.09-.03.14-.04.04 0 .07.02.1.02.02 0 .03.02.04.03-.05.01-.09.03-.14.04zm.7-.9c-.05-.02-.1-.05-.15-.07 0-.01 0-.02 0-.03h.27c.03.05-.03.09-.11.1zm-10.92-.18c.11 0 .22-.02.33-.05-.19.12-.38.23-.6.31.08-.09.17-.18.27-.26zm-2.93 6.88c.08 0 .16-.02.24-.04-.14.09-.28.16-.43.22.06-.07.13-.13.2-.19zm10.96 7.76c.2 0 .07.32-.09.32-.2 0-.07-.32.09-.32zm.57.03s0-.06 0-.09c.07.02.14.03.21.04.03.04.05.07.07.11-.09 0-.18-.02-.27-.06zm1.05-.72c-.1.03-.21.05-.32.06.04-.01.08-.05.08-.09 0-.01 0-.03 0-.04.01-.03.02-.05.03-.08.09.03.16.08.22.15zm.11-1.12c.09.03.17.08.24.16-.12.04-.25.06-.38.07.09-.05.14-.12.15-.23zm.48-.99c-.13.04-.27.07-.41.08.03-.02.05-.03.07-.05.04-.01.09-.05.08-.1 0 0 0-.02 0-.03 0-.02.01-.04.01-.07.1.03.18.09.25.17zm.13-1.3c.1.03.2.09.27.18-.14.05-.29.07-.44.08.1-.06.16-.14.17-.26zm.69-1.74s-.05 0-.07 0c.07-.09.1-.21.1-.34.02 0 .04.01.05.01.03 0 .06-.02.08-.05.04.03.08.05.12.07v.07c-.05.13-.15.19-.28.23zm.27.32c-.19 0-.07-.32.09-.32.19 0 .07.32-.09.32zm.19.15s-.01-.07-.02-.11c.06.1.15.18.26.23v.03c-.09-.05-.17-.1-.25-.16zm.26-.87c0-.07-.02-.15-.04-.22.05.02.1.03.15.04.02 0 .04 0 .06-.01v.02c0 .09-.09.17-.17.18zm.36.46c-.05-.07-.1-.14-.17-.2.07.02.14.04.21.04.08.05.15.12.18.2-.07 0-.15-.02-.22-.05zm.32-.69s.06 0 .09.01h-.02c-.02 0-.04-.01-.06-.02zm.23.15c.06-.03.09-.08.1-.15.01 0 .02 0 .03-.02.06.02.11.06.15.11-.09.03-.19.05-.29.05zm.23-1.91c-.06 0-.12-.01-.18-.02.08-.02.15-.05.23-.07.11-.03.22-.05.33-.05-.1.07-.24.11-.38.14zm.06-1.33c-.03.1-.1.19-.2.27 0 0-.01 0-.02 0-.02 0-.04 0-.05 0 .04-.07.08-.15.1-.23 0 0 0 0 0-.01.06-.01.12-.02.18-.03zm-.62.02s0 0 0 0 .02 0 .02-.01v.01zm-.32-.27s-.03-.07-.06-.1c.04-.03.09-.06.13-.08-.01.06-.04.12-.07.17zm-1.26-.22s-.03 0-.05 0c-.05 0-.11.02-.16.03.08-.06.16-.12.25-.15 0 .04-.02.08-.04.12zm-.9-2.01s-.05-.07-.07-.1c.07 0 .14-.05.14-.1v-.02c.12.08.21.18.26.3-.11 0-.22-.03-.33-.07zm.58-.99s-.02 0-.03-.01c.04 0 .08-.02.12-.04h.04c-.03.02-.08.04-.13.04zm.24.2c.1-.06.16-.14.17-.26.1.04.2.09.27.18-.14.05-.29.07-.43.08zm.61-1.68c.11.04.21.1.28.19-.15.05-.3.08-.46.09.11-.06.18-.15.18-.28zm-.61-.52s-.07-.06-.1-.08c.03 0 .06-.02.09-.03.16-.04.32-.07.49-.08-.14.09-.3.15-.48.18zm-.01-1.95c-.04.15-.15.28-.29.4 0 0-.02 0-.02.01-.02 0-.05-.01-.08-.02.07-.11.12-.22.14-.33 0 0 0-.01 0-.02.08-.02.16-.04.25-.04zm-.91.03s0 0-.01 0c0 0 0 0-.01-.01.01 0 .02-.01.04-.02 0 0 0 .01-.01.02zm-.47-.39c-.02-.05-.05-.1-.1-.14.06-.05.13-.09.2-.12-.02.09-.05.18-.1.26zm-1.87-.34s-.04 0-.07 0c-.08 0-.16.03-.23.05.12-.09.24-.17.37-.23-.01.06-.04.12-.07.18zm-1.13.37s-.02-.04-.03-.05c.06-.16.12-.31.23-.43 0 .15-.09.31-.2.48zm-2.56-.5c.13-.09.26-.03.38.11-.02.01-.04.03-.05.04-.06-.07-.16-.1-.24-.03-.06.05-.1.1-.13.16 0-.05 0-.1 0-.14-.02 0-.03 0-.05 0 .02-.06.04-.1.09-.13zm-3.94 7.74c.1-.06.19-.02.27.08-.01 0-.03.02-.04.03-.04-.05-.12-.07-.18-.02-.04.03-.07.07-.1.12 0-.03 0-.07 0-.1-.01 0-.02 0-.03 0 .01-.04.03-.07.07-.09zm-2.04 4.35c-.2 0-.07-.32.09-.32.2 0 .07.32-.09.32zm.23.15s0 0 0-.01c-.1-.05-.07-.16-.02-.24-.04.07 0 0 0-.02.01-.04.03-.07.06-.1 0-.01.02-.02.03-.02.01.06.04.11.08.15s.09.06.13.07c-.01.05-.02.09-.02.14v.01c-.05.07-.18.11-.23.02zm.79.53c-.07.03-.15.06-.22 0-.04-.03-.04-.08-.03-.13.07-.06.12-.12.18-.19.03 0 .06 0 .09.02.11.03.1.24-.03.3zm.36.19c.03-.12.09-.19.18-.28.05-.05.14-.1.21-.04.02.01.02.03.03.05-.14.12-.26.28-.31.44-.08-.02-.12-.09-.09-.17zm1.45 4.67c-.09-.02-.07-.14-.04-.2s.09-.1.16-.1c.01 0 .02.02.03.03 0 .03-.01.06 0 .09v.01c-.02.06-.03.12-.04.18-.04 0-.07 0-.11-.02zm1 .69s-.11.09-.18.06c-.06-.02-.08-.1-.06-.16 0-.02.01-.06.01-.04.01-.07.06-.11.12-.13 0 0 0 .01.01.02.05.05.1.07.15.08-.01.04-.02.08-.02.11 0 .01-.01.03-.02.04 0 0 0 0-.01.01zm.71.18s.09.05.15.06h.1c.01.07.04.13.07.2-.06.04-.12.05-.19.04-.08-.02-.13-.11-.13-.19 0-.04 0-.07 0-.11zm.27.71c-.05.04-.1.06-.16.06-.03 0-.07-.02-.09-.05 0 0 0-.01 0-.02-.06-.13.12-.31.22-.26.11 0 .16.18.03.27zm2.75.01s-.01 0-.02 0c0 0-.01 0-.02 0 .07-.1.14-.2.2-.29.02.03.03.06.02.1 0 .09-.09.21-.19.21zm.91-.25c-.05.03-.13.02-.16-.04-.04-.07-.04-.14-.02-.2.05-.02.09-.06.1-.11.01 0 .02-.02.03-.03.08.08.18.12.3.1-.05.12-.12.21-.24.28zm.79-.42c-.2 0-.07-.31.09-.31.2 0 .07.31-.09.31zm.8-.2s-.01-.09-.02-.14c.08.12.19.22.32.29v.04c-.11-.06-.21-.12-.3-.2z"/></svg>