<svg viewBox="0 0 18.8 32.27" xmlns="http://www.w3.org/2000/svg"><path d="m14.34 15.06c.3.03.55-.17.82-.34.03.1.12.15.3.18.19.02.63-.32.71-.25.33.27.76.03.99-.24.09.09.24.15.42.1.03 0 .06-.02.08-.03.01 0 .02-.01.03-.02 0 0 .02-.01.03-.02 0 0 .02-.02.02-.02s.01-.02.02-.02c0 0 .01-.02.02-.02 0-.01 0-.02.01-.03v-.02c0-.01 0-.02 0-.03v-.02c0-.01 0-.03 0-.04 0 0 0-.01 0-.02 0-.02 0-.05-.02-.07h.02c.03.01.06.02.1.02h.04c.05 0 .11 0 .17-.02.32-.09.31-.3.25-.5.05.02.11.05.18.07.09.02.2-.01.23-.09.05-.17 0-.3-.1-.44.03-.04.04-.1 0-.13-.17-.2-.32-.41-.52-.59-.13-.12-.39.06-.26.17.05.04.09.08.13.12-.02 0-.04 0-.06.01-.01 0-.02 0-.03.02 0 0 0 0-.01 0 0 0 0 0-.01 0-.06-.04-.13-.08-.2-.11.01 0 .02-.02.03-.02.03-.03.02-.09-.02-.12-.06-.05-.13-.09-.21-.12.13-.05.25-.11.31-.2.03-.05 0-.1-.05-.14-.04-.02-.08-.04-.12-.06-.02 0-.05-.01-.07-.02-.02 0-.04-.01-.05-.02-.09-.02-.18-.02-.28-.02s-.01-.01-.02-.02 0-.03 0-.04c0 0 0 0 0-.01 0 0 0-.02-.01-.02 0 0-.02-.02-.02-.02s0 0-.01-.01c-.02-.01-.04-.02-.06-.02s-.05 0-.07 0c.03-.02.06-.04.08-.07.07-.07.01-.19-.12-.19-.08 0-.2.01-.33.02 0 0-.02 0-.03 0 0 0 .01 0 .02-.01.05-.03.1-.06.14-.09s.09-.08.12-.13 0-.14-.08-.16c-.21-.07-.44-.07-.65-.05.05-.07.09-.15.08-.26 0-.06-.08-.1-.15-.11-.09-.01-.17 0-.25 0 0-.01.01-.02.01-.04.01-.07-.07-.14-.15-.15-.19-.02-.34.02-.46.07.05-.13.03-.26-.14-.37-.15-.1-.33-.05-.46.05-.06-.21-.2-.37-.51-.32-.04 0-.07.02-.1.03-.02 0-.03.02-.04.02s-.03.02-.04.03-.02.02-.04.04c0 0-.02.02-.02.02-.01.02-.02.04-.04.05-.03-.02-.06-.03-.1-.04-.03-.01-.05-.02-.08-.02-.02-.05-.05-.1-.09-.14-.05-.05-.14-.06-.19 0-.03.02-.05.05-.07.08v.02c-.02.03-.03.06-.04.09s-.01.01-.02.01-.03.02-.04.03c-.01 0-.03.01-.04.02 0 0-.02-.01-.03-.02 0 0-.02-.01-.03-.02 0-.05 0-.11-.03-.16h.1.02c.04 0 .08-.02.13-.04.23-.11.19-.26.13-.4.04.01.09.02.14.02.07 0 .15-.03.15-.09.01-.13-.04-.23-.12-.32.02-.04.01-.07-.02-.1-.15-.13-.29-.27-.46-.38-.11-.07-.28.09-.17.16.04.02.08.05.11.07-.03 0-.05.02-.07.04-.02-.01-.05-.02-.08-.03 0 0 0 0-.01 0-.02-.01-.05-.02-.08-.02s.01-.01.02-.02c.02-.03 0-.07-.03-.09-.05-.03-.11-.05-.17-.06.09-.05.17-.12.21-.19.02-.04 0-.07-.05-.1-.06-.02-.12-.03-.19-.04-.07 0-.14 0-.21.02 0 0-.01-.01-.02-.01s0-.04-.02-.06c-.02-.02-.04-.02-.08-.02-.02 0-.03 0-.05 0 .02-.02.03-.04.05-.06.04-.06-.02-.15-.11-.13-.03 0-.08.02-.12.03 0 0-.02 0-.03 0-.03 0-.06.01-.09.02 0 0-.02 0-.03 0 .02-.02.04-.04.06-.06.01-.01.03-.02.04-.03.04-.04.06-.08.08-.12 0-.02 0-.05-.02-.07.09-.13.18-.26.29-.4.02-.03.02-.05.04-.08.15-.28.3-.56.44-.84.03-.06.05-.09.08-.15.12-.23.24-.47.35-.72.14-.08.28-.17.42-.26.04.12.14.17.34.2.22.03.72-.37.81-.29.38.3.86.03 1.12-.29.11.1.27.16.48.11.04 0 .07-.02.1-.04 0 0 .02 0 .02-.01.02-.01.03-.02.05-.03 0 0 .01-.02.02-.02 0-.01.02-.02.03-.03 0 0 0-.02.02-.03 0 0 0-.02.01-.03 0-.01 0-.02 0-.03 0 0 0-.02 0-.03v-.06s0-.04 0-.05c0-.02 0-.05-.02-.07.01 0 .03 0 .04.01.01 0 .02 0 .03.01.04 0 .08.01.12 0h.04c.05 0 .1-.01.15-.03.37-.11.35-.34.28-.57.06.02.13.05.21.07.1.03.23-.02.26-.11.05-.19 0-.35-.11-.49.03-.05.04-.11 0-.15-.19-.23-.37-.46-.6-.67-.15-.14-.44.07-.29.2.05.04.1.09.15.14-.02 0-.04 0-.06.01-.02 0-.03.02-.04.02s-.02 0-.02-.01c-.06-.04-.12-.08-.19-.11 0 0-.02-.01-.03-.02.01 0 .02-.02.03-.02.04-.04.02-.11-.02-.14-.07-.05-.15-.1-.24-.13.15-.06.28-.14.35-.24.04-.06 0-.12-.06-.16-.08-.05-.18-.08-.29-.1-.1-.02-.21-.02-.31-.02 0 0-.02-.01-.03-.02s0-.03 0-.05 0-.03-.02-.04c0 0-.01-.01-.02-.02 0 0-.01-.01-.02-.02-.02-.01-.04-.02-.07-.02s-.05 0-.08-.01c.03-.02.06-.05.09-.07.08-.08.01-.22-.14-.21-.04 0-.08 0-.13 0-.02 0-.04 0-.06 0-.06 0-.12.01-.18.02h-.02s0 0-.01 0c.03-.02.06-.03.09-.05.03-.02.06-.04.09-.06.02-.02.05-.04.07-.06.02-.03.04-.06.06-.08.04-.06 0-.15-.09-.18-.24-.08-.5-.08-.74-.05.06-.08.1-.18.08-.29 0-.06-.09-.12-.17-.12-.1-.01-.2 0-.28 0 0-.02 0-.03.01-.05.01-.08-.08-.15-.18-.16-.22-.02-.38.02-.53.09.06-.15.04-.3-.16-.43-.18-.11-.38-.06-.52.06-.06-.24-.23-.41-.59-.36-.05 0-.09.02-.12.04-.01 0-.02.01-.03.02-.02.01-.04.02-.05.04-.02.01-.03.03-.05.05 0 0-.01.01-.02.02-.02.02-.03.05-.05.07-.03-.02-.07-.04-.11-.05-.03-.01-.06-.02-.09-.03s-.01-.02-.02-.03c-.02-.04-.05-.09-.09-.12-.06-.06-.16-.06-.22 0-.03.03-.06.06-.08.09 0 0-.01.02-.02.03-.01.03-.03.06-.04.09s0 0-.01 0c-.04.02-.07.04-.1.06-.01 0-.02-.01-.03-.02-.02-.01-.05-.03-.08-.04-.1-.05-.18-.1-.24-.13-.11-.06-.25.03-.2.13 0 0 .01.02.01.03-.02 0-.05 0-.07 0s-.03 0-.05 0-.05 0-.07.01c-.03 0-.05.01-.08.02-.02 0-.03.01-.05.02-.02 0-.04.02-.06.03-.01 0-.02.01-.04.02-.02.02-.04.03-.06.05 0 0 0 .01-.01.02-.01.02-.02.05-.03.08-.12-.01-.23-.01-.34 0-.04 0-.08 0-.13.02-.09.02-.18.04-.26.08h-.02c-.04.02-.08.04-.11.07-.02 0-.04.02-.05.03 0 0 0 .01-.01.02 0 0-.01.01-.02.02 0 .01-.02.02-.03.04-.06.02-.14.06-.2.11-.1.02-.2.07-.28.15 0 0-.02.02-.02.02-.03.03-.06.07-.08.1 0 .01-.02.02-.02.04-.03.05-.06.11-.08.18-.01.04 0 .09 0 .13-.15.08-.27.2-.28.41 0 .05 0 .09.02.13v.01c.01.03.03.06.05.09-.03.03-.05.06-.06.09-.02.04-.03.08-.03.12v.05c-.04.04-.07.09-.11.14 0 0 0 .02-.01.03-.02 0-.05.02-.07.03s-.02 0-.03-.01 0-.03-.02-.05c0 0 0 0 0-.01s-.02-.02-.03-.03c0 0-.02-.01-.03-.01 0 0-.02 0-.03-.01-.02 0-.05 0-.08 0s-.06.02-.08.02c.02-.04.05-.07.07-.11.05-.11-.06-.23-.22-.17-.09.03-.21.08-.33.14-.01 0-.02.01-.04.02h-.02-.02s.01-.02.02-.02c.02-.02.04-.04.05-.06 0 0 .01-.02.02-.03.02-.02.04-.05.05-.07 0 0 .01-.02.02-.03.01-.02.03-.05.04-.07.02-.04.03-.07.03-.11.02-.07-.05-.15-.15-.15-.28 0-.54.09-.78.2.04-.1.04-.21-.02-.33-.03-.07-.13-.09-.22-.07-.11.02-.2.06-.29.1 0-.02 0-.03 0-.05-.01-.09-.13-.13-.24-.11-.23.05-.39.15-.51.28 0-.17-.07-.32-.31-.38-.22-.05-.41.08-.52.24-.15-.23-.38-.35-.73-.17-.04.02-.08.05-.11.08-.01.01-.02.03-.04.04-.01.02-.03.03-.04.05s-.02.03-.03.05c0 .02-.02.04-.02.05 0 .02-.01.03-.01.05v.02c-.04 0-.08-.01-.13-.01-.04 0-.07 0-.11 0-.04-.05-.1-.1-.16-.13-.09-.04-.18 0-.23.07-.02.04-.04.08-.05.13v.02.12c-.04.04-.07.07-.09.11 0 0-.01 0-.02 0-.17-.04-.32-.06-.42-.07-.14-.03-.25.11-.16.21 0 .01.02.02.03.03 0 0-.02 0-.03.01-.1.04-.18.08-.25.13 0 0-.01.01-.02.02-.03.02-.05.05-.07.07v.01c-.02.03-.04.06-.05.08v.02.09c-.13.03-.25.07-.35.11-.04.02-.08.04-.12.06 0 0-.01 0-.02.01-.08.05-.16.11-.24.17 0 0 0 0-.01.01-.03.03-.06.06-.09.1-.02.02-.04.04-.05.06v.03.03c0 .02-.01.03-.01.05-.06.05-.12.11-.17.18-.1.06-.18.14-.23.25 0 .01-.01.02-.02.04-.02.04-.04.08-.05.13 0 .02 0 .04-.01.05-.01.07-.02.13-.02.21 0 .05.02.09.05.13-.13.14-.21.31-.15.52.02.06.04.1.06.13 0 0 0 0 .01.01.02.03.04.05.07.07-.01.03-.02.06-.02.09v.03c0 .04 0 .09.02.14 0 .02.01.04.02.05-.02.06-.05.11-.06.18-.02.09 0 .2.07.25.02.01.05.03.07.04-.01.03-.02.05-.03.08-.02.08 0 .17.06.21.05.03.1.04.14.05h.04.1c.02 0 .03 0 .04-.01.03 0 .06-.02.09-.03.01 0 .02-.01.03-.02.02 0 .04-.02.06-.03 0 0 0 .01.01.02 0 .02.01.03.02.04v.11.03c.01.04.03.08.06.12.02.02.04.04.06.06 0 0 .02 0 .03.01.01 0 .02.01.04.01s.03 0 .04 0h.04c.01 0 .03 0 .04-.01.01 0 .02 0 .04-.01.01 0 .03-.01.04-.02.01 0 .02-.01.04-.02.01 0 .03-.02.04-.03.01 0 .03-.02.04-.03s.03-.02.04-.03c.01 0 .03-.02.04-.03.02-.01.03-.03.05-.04 0 .03.02.06.03.08 0 .05 0 .09.01.13v.03c.01.04.03.08.06.1.02.02.05.04.08.05h.03c.01 0 .02 0 .04.01 0 0 .02 0 .02.01 0 0 .02.02.03.02.02 0 .05-.01.06-.03 0 0 0-.02.01-.02.05-.02.1-.05.15-.08l.15-.12c.04 0 .08 0 .12-.01s0 .01 0 .02v.07.06c0 .02 0 .04.01.06 0 .02.01.04.02.06 0 .02.01.03.02.04.02.03.04.05.07.07.03.01.06.02.09.02h.05.04c.02 0 .04-.01.05-.02.01 0 .02 0 .04-.02.02 0 .04-.02.06-.03.01 0 .02-.01.04-.02s.04-.02.05-.03c.02-.01.03-.02.05-.03.01 0 .02-.02.03-.02.07-.05.14-.1.21-.15h.04c.04 0 .08-.03.11-.05.01 0 .02.01.04.02 0 0 .01 0 .02.01.02.02.03.04.05.06 0 .01.01.02.02.03.01.02.02.04.04.07 0 .02.02.03.03.05 0 .02.02.03.03.04 0 .01.02.02.03.04 0 .01.02.02.03.03s.02.02.04.03c.01 0 .02.01.03.02.02.01.05.01.08 0 .06 0 .11-.03.16-.05 0 0 .01 0 .02-.01.05-.02.09-.05.14-.08 0 0 .01-.01.02-.02.04-.03.09-.07.13-.1.01-.01.03-.03.05-.04s.03-.03.05-.04c-.02.4-.03.81-.05 1.21 0-.02-.01-.03-.03-.04-.02 0-.04-.01-.06 0-.01 0-.03 0-.04.01.01-.02.02-.04.03-.06.03-.06-.03-.12-.11-.09-.05.02-.12.05-.19.08h-.02s0 0 0 0c.03-.03.05-.06.07-.09s.04-.07.05-.11c0-.04-.03-.08-.08-.08-.14 0-.27.05-.39.1.02-.05.02-.11 0-.17-.01-.03-.07-.05-.11-.04-.06 0-.1.03-.14.05v-.02c0-.04-.07-.07-.12-.06-.12.03-.2.08-.26.14 0-.09-.03-.16-.16-.19-.11-.03-.21.04-.26.12-.08-.11-.2-.17-.37-.08-.04.02-.06.05-.09.07-.02.03-.03.06-.04.1-.02 0-.04 0-.06 0s-.04 0-.05 0c-.02-.02-.05-.05-.08-.06-.04-.02-.09 0-.12.03-.02.03-.02.06-.03.09v.03.02c-.01.01-.02.02-.04.04v.01c-.02 0-.04 0-.06-.01-.02 0-.03 0-.05 0-.04 0-.08-.02-.11-.02-.07-.01-.12.06-.08.11 0 0 0 0 .01.01-.07.02-.13.05-.17.09-.02.02-.03.03-.04.05v.01c0 .02-.01.04 0 .06-.06.02-.12.03-.18.06-.02.01-.05.03-.08.04 0 0 0 0-.01.01-.02.02-.05.03-.07.05 0 0-.01.01-.02.02-.02.02-.04.04-.05.05s0 0 0 .01c-.02.02-.02.03-.02.05v.03c-.03.02-.06.06-.09.1-.02.01-.03.02-.05.04 0 0-.01.01-.02.02-.03.03-.05.06-.07.1 0 .01 0 .02-.01.03-.01.05-.02.09-.02.15 0 .02.01.05.03.06-.07.07-.11.15-.07.26 0 .03.02.05.03.07.01.01.02.02.04.03s0 0 0 0c0 .02-.01.03-.01.05v.01.07s0 .01.01.02c-.01.03-.02.06-.03.09 0 .05 0 .1.04.12.01 0 .03.02.04.02 0 .02-.01.02-.02.04-.01.04 0 .08.03.1.02.01.05.02.07.02h.02.05.02c.02 0 .03 0 .05-.02 0 0 .02 0 .02-.01 0 0 .02 0 .02-.01 0 .01.01.02.02.04v.02.03c0 .03.01.06.04.08.02.02.04.04.06.04s.04 0 .07-.01c.02-.01.05-.02.07-.04.02-.02.05-.04.08-.06 0 .02 0 .03.02.04v.03.03c0 .03.02.06.04.08s.05.03.08.03h.02c.01 0 .02 0 .03-.02.05-.02.1-.05.14-.09 0 0 .01 0 .02-.01h.03.03s0 0 0 .01c0 .04 0 .07.02.1v.01c.01.03.03.05.05.07.02.01.05.01.08 0h.01c.02 0 .05-.02.07-.03 0 0 .01 0 .02-.01.02-.02.05-.03.07-.05.03-.02.05-.04.08-.06 0 0 .01 0 .02-.01h.02c.02 0 .04-.01.05-.02 0 0 .01 0 .02.01s.02.02.02.03c.02.04.05.09.08.13s.02.02.03.02h.04c.1-.02.19-.09.29-.18s0 .07.02.1c0 .01 0 .02.02.02.02.01.05 0 .07-.04.02.02.04.04.07.06h.01c.03.01.06.02.1.02 0 .04 0 .07.03.09.05.04.1.05.17.04.13.38.27.75.4 1.12-.05.04-.1.08-.13.12-.01-.07-.04-.14-.09-.2-.02-.02-.07-.03-.1-.01-.23.12-.41.33-.48.55-.06-.04-.12-.08-.2-.1-.37-.08-.38.29-.34.53-.05-.03-.11-.07-.18-.1-.04-.02-.09 0-.11.02-.09.11-.09.2-.05.3-.24-.12-.51-.21-.75-.13-.18.06-.16.23-.09.32.03.04.07.06.12.08-.1.02-.21.05-.31.08-.24.07-.58.18-.69.38-.1.16.1.3.29.29-.3.25-.52.55-.51.88 0 .06.07.09.15.07.07-.03.13-.05.19-.08-.02.05-.02.1-.02.15t0 0s-.03.1-.04.14v.02s-.01 0-.02 0c-.05 0-.1.02-.13.06-.06.09-.07.15-.03.25 0 .02.02.03.04.04 0 0 .02 0 .02.01h.02c.03.01.07.01.1 0 0 0-.01 0-.01.02-.06.1-.07.16-.01.25.04.08.15.1.23.06.05.03.12.05.17.03.03.05.1.09.21.09.07 0 .14-.03.19-.07.03.07.16.09.22.05 0 0 .02-.02.02-.02.07.01.15-.01.16-.07.03.04.09.06.14.06.01.05.03.09.06.13.04.07.16.12.22.06.09-.07.12-.16.15-.26.01 0 .03.02.04.02.05.12.14.23.25.34.06.06.18.05.21 0v-.02c.09.12.2.24.33.34.07.06.16.06.2.02.05-.05.07-.13.07-.2.03.01.06.02.1.03.05 0 .1 0 .11-.05 0-.04 0-.07 0-.11 0-.03 0-.06-.02-.1 0 0 0-.01 0-.02.01 0 .02 0 .04-.01.03-.01.05-.03.07-.05.02.01.03.02.05.03h.01c.03.02.07.04.1.05h.02c.04.01.07.02.1.02.02 0 .03 0 .05-.01 0 0 0 .01.01.01.02.02.05.05.08.07 0 0 .01.01.02.02 0 0 .02.01.02.02.28.5.56 1 .85 1.49.95 1.55 1.75 3 1.97 5.11.1.93.1 1.88.12 2.82.02.92.11 1.83.17 2.76.11 1.64-.17 2.95-.47 4.28h2.75c-.04-.64-.09-1.27-.12-1.91-.05-1.1.04-2.2.09-3.3.04-1.02.17-2.02.1-3.04s-.32-2.21.07-3.11c.33-.74.84-1.33 1.26-1.97.43-.64.8-1.36 1.12-2.13.38-.92.68-1.86 1.11-2.67h.08c.13 0 .26-.06.4-.12 0 .05-.02.1-.02.15 0 .02 0 .03.01.04s.02.01.03.01h.02.03c.01 0 .02-.01.03-.02h.01c0 .02.02.03.02.05v.01c.02.04.04.07.08.09h.01c.03.02.07.05.11.06-.02.05-.03.11 0 .16.09.13.23.18.43.16-.07.14-.04.3.15.32zm-1.75-6.52s.08 0 .12 0c-.04.03-.08.05-.13.07 0-.01 0-.03 0-.05 0 0 0-.02 0-.03zm4.26-4.99s0 0-.01 0zm-4.19 5.32s0 0 0 0h.02s0 0-.01 0zm5.23 4.05s-.02 0-.03 0c-.04.01-.07.02-.11.02-.02 0-.03 0-.05 0h-.02c-.02-.01-.04-.02-.05-.03-.02-.01-.04-.02-.06-.02-.02 0-.03 0-.05 0 .02 0 .04 0 .06-.01.02 0 .03 0 .05-.01.04-.01.08-.02.12-.04h.01c.05.02.1.05.14.08zm-.01.15s0 0-.01 0zm-.39-.16s0 0 0 0zm-10.44.5s.01-.04.01-.07.02-.02.02-.03c.01.09.03.17.04.26-.02-.05-.05-.1-.08-.14 0 0 0-.01 0-.02zm-1.76-4.05s.05-.04.07-.06c.01-.02.02-.04.02-.06 0-.05-.02-.09-.05-.13.03 0 .06 0 .09-.01.03-.01.07-.03.1-.05.17-.12.12-.24.04-.35h.12c.06 0 .12-.05.11-.1 0-.11-.06-.18-.15-.24 0-.03 0-.06-.02-.08-.12-.07-.23-.14-.35-.2.05-.26.09-.52.13-.78.12.02.25 0 .39-.06 0 .22.08.38.32.33.36-.08.58-.43.83-.74.08.11.2.14.43.09.03 0 .06-.02.09-.04-.01.31.05.64.1.93l.02.11c.03.16.06.32.1.48 0 0 0 .01-.01.02 0 0 0 .01-.01.02-.02.02-.03.05-.04.08 0 0 0 .02-.01.02-.01.04-.02.08-.03.13 0 .03 0 .06.02.08-.09.07-.16.17-.14.3 0 .04.01.06.02.09v.01c0 .02.02.03.03.04-.01.02-.02.04-.03.06v.01.08.04c-.02.03-.04.06-.06.1-.02.05-.02.12.01.16.01.01.03.02.04.03 0 .01-.02.03-.02.04-.02.05-.02.1.01.13.02.02.05.04.08.05h.02c.02 0 .04 0 .06.01h.02.06c.02 0 .04-.01.07-.02 0 .01 0 .03.01.04v.07.02s.01.05.02.08c0 .02.02.03.03.04s.02.01.03.02h.01.04.02.03.02c0 .07.01.14.02.2-.04.33-.04.67.01 1.01v.02.66.8c.02.14.04.27.05.41.05.44.09.88.17 1.31.06.39.14.77.21 1.15 0 0 0 .02-.01.02-.03-.04-.07-.1-.13-.17-.04-.04-.07-.1-.12-.15-.06-.1-.13-.19-.21-.26-.02-.04-.04-.08-.05-.12-.12-.26-.24-.53-.4-.7-.06-.23-.1-.47-.14-.72-.02-.12-.03-.25-.05-.38-.02-.16-.04-.32-.06-.47.02-.03.03-.06.02-.1-.01-.06-.03-.11-.05-.16-.09-.56-.22-1.11-.49-1.55-.02-.03-.05-.03-.07-.01v.01c-.06-.09-.13-.18-.2-.26-.09-.1-.14.1-.08.2.16.28.27.58.36.89-.08-.05-.16-.09-.25-.13 0-.03 0-.06-.05-.06-.02 0-.04 0-.06 0v-.02c-.06-.12-.22-.13-.41-.08 0-.02.01-.03.02-.05 0-.04-.05-.08-.1-.08-.07.01-.14.03-.21.05 0 0-.01 0-.02 0-.07.02-.13.05-.19.08-.04 0-.09-.01-.13 0s0-.01 0-.02c0-.02 0-.03 0-.05s0-.03 0-.05c0-.01 0-.03 0-.04 0-.02 0-.04-.01-.06 0-.01 0-.02 0-.03-.01-.02-.03-.04-.05-.05-.04-.6-.05-1.2-.05-1.8.01 0 .02 0 .04-.02zm.67 5.19s.02.03.03.04-.02 0-.04-.01c0 0 0-.02 0-.03zm3.18-.31c-.24-.65-.4-1.23-.48-1.77-.12-.73-.13-1.49-.11-2.24.02-.01.04-.02.05-.03h.02.05v.01s0 .04 0 .05v.03s0 .03 0 .04v.04.02c0 .02.02.04.04.05s.03.02.05.02c.12.03.27-.07.4-.13h.02c.02 0 .05 0 .07-.02 0 0 .01 0 .02.01 0 0 0 0 .01.01 0 .01.01.02.02.04v.02c0 .01 0 .02.01.04 0 .01 0 .03.01.04v.02c0 .01.01.02.02.03 0 0 0 .01.01.02 0 .01.01.02.02.02 0 0 0 0 .01.01.01 0 .03.02.05.02.03 0 .07 0 .1-.02.01 0 .03-.01.04-.02.02 0 .04-.01.06-.02.01 0 .03-.02.04-.02.02-.01.04-.02.07-.04 0 0 .01 0 .02-.01.02-.01.03-.02.05-.03v.12c0 .02 0 .02.01.03s.02 0 .03 0 .02 0 .03-.01c0 0 .01-.01.02-.02s.01.01.02.02c.01.02.03.04.05.05 0 0 .02.02.03.03.01 0 .02.01.04.02-.13.88-.3 1.75-.58 2.57-.11.32-.24.64-.38.97zm1.43-9.83c.07-.02.15-.05.22-.07 0 0 .02.01.02.01h.06c-.03.14-.06.28-.09.43-.04.04-.07.09-.07.14 0 .13-.01.26-.02.37-.09.57-.17 1.2-.24 1.9 0 .09-.01.17-.02.26-.02.02-.04.03-.06.05-.07-.15-.19-.25-.42-.17-.03.01-.05.02-.07.04 0 0-.01.01-.02.02-.01 0-.02.02-.03.03s-.02.02-.03.04v.01c0 .02-.02.03-.02.05-.02 0-.05-.02-.08-.02-.02 0-.04 0-.06 0-.02-.03-.05-.06-.09-.09-.05-.03-.11-.03-.14.02-.03.03-.04.07-.05.1v.04.02c-.02.02-.04.03-.06.05 0 0 0 0-.01.01-.06-.02-.11-.04-.16-.06-.04-.01-.07-.02-.09-.04-.08-.03-.16.04-.12.11 0 0 0 .01.01.02t0 0c-.08.01-.15.04-.21.07 0 0-.01 0-.02.01-.01 0-.02.02-.03.02 0-.07 0-.13 0-.2s.01-.15.02-.22c0-.03 0-.07-.02-.1 0-.34-.02-.66-.05-.97.28-.11.49-.4.6-.68.15.07.34.07.53-.05.04-.02.06-.05.09-.07 0-.01.02-.02.02-.03.01-.02.02-.03.04-.05 0-.01.01-.02.02-.03 0-.01.01-.03.02-.04 0-.01 0-.02 0-.04 0-.01 0-.02 0-.03 0-.02 0-.03 0-.04 0 0 0-.02 0-.03 0-.02 0-.03-.01-.05 0 0 0-.01 0-.02 0-.02-.02-.04-.02-.05 0 0 0 0 0-.01 0-.02-.02-.03-.03-.05h.07.01s.1-.02.15-.04h.02c.05-.02.1-.05.15-.08s.09-.07.12-.1l.03-.03c.02-.02.04-.05.05-.07 0-.01.01-.02.01-.04s.02-.05.02-.07c0-.01 0-.02 0-.03 0-.03 0-.07-.01-.1h.03c.04-.01.08-.02.12-.04zm-.63 3.12s.04-.04.06-.05c.08-.02.14.02.17.09-.01 0-.02 0-.04 0-.01-.03-.06-.06-.11-.04-.04.01-.07.03-.09.05 0-.02.02-.04.02-.06 0 0-.01 0-.02-.01zm-1.6-1.19c0 .54-.04 1.08-.07 1.61 0 0 0 0-.01 0 0 0-.01 0-.02.01-.03.01-.05.02-.08.04-.01 0-.02.01-.03.02-.01 0-.02.02-.04.02-.02-.1-.04-.2-.07-.31-.02-.08-.04-.17-.05-.26-.06-.29-.11-.58-.22-.83 0 0 0 0 0-.01.17-.17.32-.36.4-.33.07.03.15.04.21.04zm-2.54 8.45s.05-.02.06-.04c0 0 0 0 .01-.01.01-.02.03-.04.04-.06.02.02.04.03.06.05 0 .06-.01.12-.02.18-.05 0-.08 0-.11-.01-.01-.03-.03-.07-.04-.11zm5.58-8.11c.04-.63.09-1.27.15-1.92.01 0 .02-.01.04-.02.02 0 .04-.01.06-.02.04-.02.09-.04.13-.05-.01.06-.02.12-.03.18 0 .02 0 .04.01.05s.02.01.03.01h.03.02c.01 0 .03-.01.04-.02h.01c0 .02.02.04.02.05 0 0 0 .02.01.02.02.03.05.06.08.09 0 0 .02.02.03.02.03.03.07.05.12.06-.03.06-.03.12 0 .17.04.07.11.11.18.15-.03.06-.07.12-.1.18-.06.13-.13.25-.2.37-.29.53-.52.99-.71 1.41.01-.24.03-.49.05-.73zm-5.39 8.53c.09-.02.12-.13.14-.27.06.11.14.18.25.16.02 0 .04-.02.06-.04 0 0 0 0 .01-.01.01-.02.02-.04.03-.07v-.02c.02-.07.02-.15.02-.24 0 0 0-.01 0-.02 0-.02 0-.06 0-.08 0 0 .02 0 .03-.01.1-.05.13-.18.13-.32.02 0 .05-.02.08-.04.04-.03.06-.07.08-.11 0 0 0 0 0-.01.02-.04.02-.09.02-.14v-.02s0-.01 0-.02c0 0 0-.01 0-.02.06-.01.11-.05.15-.11s.05-.12.04-.18c.02.02.04 0 .06 0 .02.14.04.27.07.41.1.52.24 1.04.43 1.51.12.3.27.6.4.9-.36.61-.66.9-.93.88-.03 0-.06.02-.08.05 0 .02-.02.04-.02.07 0 0-.01 0-.02 0-.25-.57-.52-1.13-.77-1.7-.08-.18-.16-.36-.24-.55h.02zm4.86-2.39s0 .01 0 .02c0-.01 0-.02 0-.03zm-2.13-9.49s-.01 0-.02 0h.04s0 0-.01 0zm1.59 14.49c-.04.06-.08.11-.12.17-.14.07-.28.18-.41.3-.08.07-.15.14-.23.19-.15.11-.24.19-.3.25.19-.63.4-1.25.6-1.87.22-.67.39-1.35.59-2.04.06-.21.12-.42.19-.63.07-.4.14-.8.19-1.21 0 .02 0 .05.01.07 0 .02.02.04.03.06 0 .01.02.02.03.02 0 0 0 0 .01.01.01 0 .03.01.04.02h.01.05.01s.04 0 .06 0h.01c.02 0 .04 0 .06-.01h.02c.01 0 .03 0 .04-.01.03 0 .07-.02.1-.03s0 .05 0 .07c-.01.04-.02.07-.02.1v.02c0 .03 0 .06.02.09.01.02.03.04.05.05.01.01.03.02.04.02 0 .01.01.02.02.02 0 0 0 .01.01.02h.06s.01 0 .02-.01h.01c.09 0 .18-.04.28-.07.03.02.06.02.09.02v.02.02.01c0 .03-.01.05-.02.08v.04.06.03c0 .03.02.05.04.07s.04.03.06.04h.02c.02 0 .03.01.05.01h.02.06.02c.02 0 .05 0 .07-.01h.02c.02 0 .05-.01.08-.02h.01.02c-.23.48-.41 1.02-.58 1.54-.06.19-.12.38-.19.57-.13.37-.27.72-.43 1.06-.33.17-.61.53-.86.88zm2.76-8.62s0 0 0 0v.01s0 0-.02 0zm0-.11s-.09.04-.15.05c-.02 0-.03-.01-.04-.02-.02-.01-.04-.01-.06-.01 0 0-.01 0-.02 0 0 0-.02 0-.03 0s.03-.01.04-.02c.02 0 .04-.01.05-.02.03-.01.06-.03.08-.05.04.01.08.02.12.05zm4.34 3.46s0 0 0 0h.03s-.01 0-.02 0zm-.55-9.18c-.05.03-.11.04-.16.05-.01 0-.03 0-.04 0s-.02 0-.04 0c0 0-.01 0-.02-.01-.01 0-.03-.02-.04-.02-.02-.02-.04-.02-.07-.03 0 0-.01 0-.02 0-.02 0-.05 0-.08.01.1-.02.2-.05.28-.09h.01c.05.02.1.05.14.08 0 0 .02 0 .02.01zm-.55-.41s0 0-.01 0 .02 0 .03 0c0 0-.01 0-.02 0zm-12.41 7.03c.04.05.1.06.21.04.12-.02.31-.32.37-.3h.03c0 .23-.01.46-.02.69 0 .22 0 .44-.01.67s-.04.01-.06.02c-.01 0-.02 0-.04.01-.03.01-.05.02-.08.04-.02 0-.03.02-.05.03-.17-.34-.35-.67-.54-1l.18-.21zm13.46 2.21s0 0 0 0c0-.02.01-.05.01-.07v-.02c.06 0 .11.01.16.03-.05.03-.12.05-.18.07zm-.91-.86s-.02-.02-.04-.02c-.05-.02-.1-.04-.15-.05.1 0 .21 0 .31.02-.04.02-.08.04-.12.06zm-.58-.31s0 0 0 0c-.03.02-.06.03-.09.05-.04.02-.09.04-.14.05 0-.01 0-.02 0-.04.04-.03.09-.05.13-.07h.02c.05-.02.1-.04.15-.05-.02.02-.04.04-.07.06zm-1.62-.86c.11-.01.18.05.2.15-.02 0-.03 0-.05 0-.01-.05-.07-.09-.14-.08-.05.01-.09.03-.13.05.01-.02.03-.05.05-.07 0 0-.02-.01-.03-.02.03-.02.06-.04.1-.04zm2.09-7.64s-.06.02-.09.03.01-.06.01-.09v-.02c.07 0 .13.02.19.03-.04.02-.08.04-.12.05zm-1.14-.93s-.03-.02-.04-.03c-.06-.03-.12-.05-.18-.06h.03.15c.06 0 .12.01.18.02-.04.03-.08.05-.13.07zm-.66-.35s-.02.01-.03.02c-.02.01-.04.02-.07.04-.02 0-.03.01-.05.02-.02 0-.04.02-.06.03-.02 0-.04.02-.07.03 0-.01 0-.02 0-.04 0 0 .02 0 .03-.02.04-.02.08-.05.12-.06.01 0 .03-.02.04-.02.05-.02.1-.04.16-.06-.02.02-.05.05-.07.07zm-1.86-.97c.12-.01.2.06.24.17-.02 0-.04 0-.06 0-.01-.06-.08-.1-.16-.09-.06.01-.1.03-.15.06.02-.03.03-.05.05-.08 0 0-.02-.01-.03-.02.03-.03.07-.05.11-.06zm-5.58 2.03s-.04-.01-.06-.02c-.07 0-.13 0-.2 0l.18-.06c.06-.02.13-.03.19-.04-.03.04-.07.08-.11.12zm-.81-.14s-.03.04-.05.06c0 0-.01.02-.02.02-.05.05-.11.1-.17.16 0-.02 0-.03 0-.04.04-.05.09-.1.13-.14 0 0 .01-.01.02-.02.05-.05.1-.09.15-.12-.01.03-.03.06-.05.09zm-2.26-.35c.12-.06.23-.01.31.09-.02.01-.04.02-.05.03-.04-.06-.12-.08-.2-.04-.05.04-.1.08-.13.12 0-.04.01-.07.02-.11-.01 0-.03 0-.04 0 .02-.04.05-.08.09-.09zm-.07 5.89s-.02 0-.02 0c-.03 0-.07 0-.1 0 .06-.02.12-.04.19-.05-.02.02-.04.04-.06.06zm-.43-.04s0 0 0 .01c-.02.03-.05.05-.08.08s0-.01 0-.02c0 0 0-.01.02-.02.01-.02.03-.03.04-.05.03-.03.06-.06.1-.08-.01.03-.03.05-.05.08zm-1.12-.2c.06-.03.11 0 .15.05 0 0-.02 0-.03.02-.02-.03-.06-.04-.1-.02-.03.02-.05.04-.07.06 0-.02 0-.04.01-.05 0 0-.01 0-.02 0 0-.02.03-.04.05-.05zm-1.97 5.79c.02-.06.14-.11.2-.13.2-.1.42-.15.63-.2-.14.09-.29.19-.43.28-.05.02-.09.03-.14.05-.02 0-.3.09-.26 0zm4.02 2.65s.04-.11.02-.19c.02 0 .03 0 .04.01.04.03.09.06.13.08.07.08.14.12.2.12.03.17.06.35.1.52-.17-.18-.33-.36-.49-.54z"/></svg>