<svg width="142" height="135" viewBox="0 0 142 135" fill="none" xmlns="http://www.w3.org/2000/svg">
<path d="M81.9658 0.206055C90.2823 -1.10749 98.2113 3.95723 100.803 12.0996C106.013 10.0304 111.75 10.4221 116.652 13.6387C120.767 16.337 123.758 21.0613 124.213 26.4775C132.68 27.3915 138.934 33.9626 139.563 42.3896C139.872 46.4885 138.551 50.5127 136.059 53.8955C140.933 58.663 142.571 65.6577 140.149 72.166C138.001 77.9384 132.656 82.3382 126.104 83.0742C120.486 83.7033 115.094 81.3963 111.256 77.0996C108.842 82.8088 103.912 86.5839 97.9619 87.5137C92.7236 88.3366 87.6197 86.73 83.7266 82.9873C82.2944 84.6291 80.9333 85.8592 79.0898 86.876C78.3065 91.0421 78.2628 94.635 78.4844 98.9238C79.0263 109.538 80.9529 124.233 85.9287 134.425L54.876 134.444C59.0341 124.81 61.7884 114.745 62.2988 104.261L62.4688 100.744C62.6666 96.6848 62.4491 90.6427 61.3848 86.7852C59.9169 85.6892 58.5119 84.5141 57.1865 83.0146C53.1668 86.7377 48.0355 88.3912 42.4648 87.4971C37.7528 86.7414 33.357 83.7825 30.6191 79.2129C26.9239 84.1029 21.2068 86.259 15.5967 85.8516C8.89049 85.3649 4.41543 80.8107 1.61426 76.1064C-2.52375 69.1592 2.55996 63.3157 2.9043 57.7373C3.25642 52.0677 -1.19111 45.4598 3.86523 39.082C7.46956 34.5361 12.9893 30.315 19.917 31.3477C18.5006 25.0411 20.8153 19.0821 25.29 15.0781C29.8676 10.9795 36.3722 9.71719 42.2988 11.8457C44.2178 6.17643 48.9732 1.97897 54.417 0.712891C60.8621 -0.786605 67.0185 1.29835 71.4062 6.18457C74.1124 2.98778 77.772 0.866795 81.9658 0.206055ZM85.9307 134.429C85.93 134.427 85.9293 134.426 85.9287 134.425H85.9307V134.429ZM99.5879 68.0439C97.2021 67.2962 96.2127 67.0461 93.9932 68.3359L91.2754 68.3682L91.2158 69.9463C87.1527 71.6476 87.8734 77.2499 90.0811 79.9521C92.1542 82.4922 93.6655 80.8782 95.4023 81.3213V81.3174C96.7 81.6457 97.8197 81.2933 98.7178 80.3398C101.075 77.8433 101.93 72.7718 99.0107 70.5166L99.5879 68.0439ZM54.2666 68.0361C51.7464 67.3319 50.793 66.9714 48.6289 68.3877L45.9941 68.332L45.9307 69.9346C41.9426 71.5646 42.4929 76.8032 44.5938 79.7666C45.7924 81.4557 47.248 81.5671 49.2773 81.2744L49.2813 81.2783C50.2149 81.1438 51.398 81.7246 52.2842 81.1709C55.754 79.0028 56.7867 73.0364 53.6611 70.3975L54.2666 68.0361ZM49.1475 70.543C49.5906 69.455 51.2639 68.6242 52.0947 69.3008C52.1025 70.8199 50.4446 71.2075 49.3408 71.6348C50.2429 71.5952 51.1852 71.4177 52.0596 71.5957C54.1521 72.0195 54.7097 76.4852 52 79.2822C51.5054 79.7926 50.9039 79.943 50.2393 79.666L50.2432 79.6709C48.3045 78.8678 47.7385 80.7152 46.3301 79.2158C44.435 77.1941 43.8733 73.182 45.9463 71.8525C46.698 71.3699 47.6163 71.5364 48.7637 71.5166L47.6592 70.0088L49.1475 70.543ZM94.4678 70.5645C94.9268 69.4964 96.4262 68.6898 97.4746 69.2236C97.5181 70.6519 95.9673 71.1502 94.7725 71.625C95.6823 71.6131 96.6398 71.3877 97.4824 71.6328C99.6387 72.254 99.8687 76.6183 97.4316 79.2256C96.8976 79.7952 96.1971 79.9616 95.5049 79.6611V79.6572C93.6414 78.8462 93.1226 80.8082 91.5439 79.0674C88.9487 76.203 89.8943 71.6933 92.0029 71.5742L94.1396 71.4512L92.9365 70.082L94.4678 70.5645ZM29.7529 57.001C27.3555 56.2374 26.1959 55.9962 24.1309 57.3213L21.4951 57.2861L21.4365 58.8682C19.585 59.6792 18.5279 61.3728 18.4961 63.4062C18.4605 65.5546 19.0777 67.5612 20.498 69.1279C21.6612 70.4138 23.1734 70.789 24.9023 70.0215L24.8945 70.0254C26.291 70.8244 27.6992 70.3821 28.708 69.4248C31.2955 66.9679 32.0748 61.8127 29.1709 59.3398L29.7529 57.001ZM117.245 57.3213C115.046 55.9844 114.187 56.2337 111.655 56.9893L112.178 59.2051L110.963 60.9541C109.191 63.506 110.56 67.2323 112.637 69.4004C113.832 70.6466 115.101 70.4135 116.601 70.2275C117.657 70.097 118.785 70.8328 119.896 70.002C121.962 68.4629 122.903 66.1168 122.903 63.6006C122.903 61.4997 121.879 59.7069 119.96 58.8682L119.885 57.2861L117.245 57.3213ZM75.4541 55.5254C73.8122 54.9359 72.2369 54.9799 70.8047 56.1035H67.9873L67.8574 57.749C64.17 59.2366 64.625 64.2021 66.2393 66.8965C68.2333 70.2196 70.6981 68.8586 71.4023 68.9971L71.4102 68.9893C73.147 69.3255 74.536 69.2225 75.7031 67.7744C77.7445 65.2383 78.6387 60.4983 75.7031 58.2393L76.1816 56.4746C76.229 56.3043 76.233 55.8029 76.083 55.751L75.4541 55.5254ZM24.6406 59.4951C25.0996 58.4467 26.5716 57.6436 27.5488 58.1777C27.7385 59.5544 26.1205 60.2424 24.8506 60.5352C25.6933 60.5233 26.6511 60.4084 27.5967 60.543C29.456 60.8044 30.3736 65.362 27.5254 68.2422C27.0309 68.7446 26.3821 68.8752 25.7451 68.6221C23.8027 67.8467 23.3472 69.5836 21.9746 68.2549C19.9885 66.332 19.3512 62.4147 21.3018 60.9033C22.1207 60.2664 23.0504 60.46 24.0869 60.5352C24.5138 59.9932 22.7105 59.4276 23.252 58.9727L24.6406 59.4951ZM113.844 58.1719C114.837 57.6341 116.376 58.4969 116.783 59.6006C117.325 59.2682 117.883 58.8567 118.357 59.1455L117.143 60.3682C117.309 60.475 117.649 60.5816 117.804 60.5342C119.295 60.0792 120.914 61.0486 121.179 62.7578H121.175C121.63 65.713 119.687 69.4632 117.618 68.6094C115.759 67.8418 115.244 69.5861 113.867 68.249C111.466 65.9147 111.319 61.0438 114.021 60.5176C114.789 60.3673 115.798 60.5616 116.502 60.5537C115.22 60.2016 113.618 59.5368 113.844 58.1719ZM71.0059 58.4053C71.7576 57.2738 72.8339 56.4509 74.2305 56.9375C74.1553 57.8355 73.5145 58.5161 72.6758 58.8643L71.4336 59.3828C72.4345 59.3511 73.3524 59.0974 74.2188 59.3545C76.2642 59.9638 76.7546 64.3437 74.001 67.1211C73.5974 67.5286 72.9286 67.6394 72.4023 67.4258L72.3984 67.4219C70.3968 66.619 69.7872 68.3717 68.4658 66.999C65.6449 64.0674 66.555 59.4266 68.6914 59.3037L70.8398 59.1807L69.5576 57.8398C70.1352 57.6104 70.4955 57.9464 71.0059 58.4053ZM49.9463 42.6631C47.7634 40.8203 44.3911 42.1078 44.3838 42.3975C44.3838 42.6032 44.4155 43.0153 44.4551 43.1934L44.8105 44.7793C41.871 46.9395 42.8053 52.3605 45.2227 54.6592C46.358 55.735 47.786 56.0673 49.2021 55.2725C50.4893 55.9067 51.8846 55.88 52.9961 54.9189L53.21 54.7188C54.8677 53.0373 55.5799 50.8648 55.5127 48.582C55.4533 46.6078 54.4131 44.981 52.6445 44.1699L52.5137 42.4414L49.9463 42.6631ZM95.3545 42.6865C93.9303 41.658 92.2766 41.3377 90.5479 41.9824L89.7559 42.2754C89.2979 42.4464 90.4242 44.5177 89.9385 44.8467C87.2206 47.4103 88.2051 52.3873 90.6143 54.7139C91.7457 55.8058 93.2377 55.9843 94.5986 55.2881C96.1139 56.0675 97.6415 55.7431 98.8086 54.4336L98.8047 54.4414C100.534 52.4988 101.17 49.9465 100.684 47.3906C100.399 45.8913 99.2435 44.8156 97.9814 44.1074L97.8789 42.4814C97.0441 42.4894 96.2091 42.5678 95.3545 42.6865ZM46.4404 43.4033C47.6313 42.885 48.906 43.8382 49.4639 44.8945C50.0215 44.4991 50.5393 44.1828 50.9902 44.3486C50.4128 44.9498 50.0011 45.294 49.835 45.7607C50.8913 45.7212 51.6474 45.5751 52.4268 45.9707C52.9647 46.2436 53.5506 47.0267 53.7051 47.7822V47.7783C54.4093 51.2086 51.9519 54.4768 50.6621 53.998C49.6179 53.6105 48.886 53.6462 47.8418 53.9902C46.4729 54.4413 44.0713 51.1895 44.7832 47.7871C45.1472 46.0384 46.6385 45.5034 48.4307 45.626C47.3864 45.2422 46.2193 44.4277 46.4404 43.4033ZM91.75 43.4336C92.9132 42.8718 94.1914 43.81 94.7334 44.8545L95.6191 44.3281C95.6903 44.2846 95.9869 44.2568 96.0664 44.2686C96.1454 44.2804 96.2207 44.454 96.1855 44.5254C95.8769 45.1624 95.2916 44.7596 95.165 45.7764C96.1697 45.713 96.8423 45.5585 97.6611 45.9541C98.2704 46.2469 98.9034 47.0383 99.0537 47.8691L99.0654 47.873C99.7063 51.3821 97.1588 54.3891 96.1182 54.0137C94.9906 53.6062 94.2067 53.6291 93.0752 54.001C91.7973 54.4199 89.3409 51.1133 90.1279 47.6992C90.5473 45.8753 92.0631 45.5701 93.8594 45.5859C92.7793 45.4079 91.5838 44.4781 91.75 43.4336ZM28.6523 32.1387C27.1253 31.5375 25.5071 31.7079 24.2451 32.7998L21.4951 32.7559L21.3965 34.3066C19.4104 35.1335 18.4725 36.9898 18.4844 39.1025C18.4963 41.3218 19.2125 43.3871 20.8066 44.9062C21.9421 45.9903 23.3671 46.2042 24.835 45.4287L24.8389 45.4326C26.3185 46.3741 27.8026 45.8238 28.8945 44.7002C31.2562 42.2787 32.059 37.2585 29.1592 34.8096L29.7646 32.5781L28.6523 32.1387ZM117.329 31.6201C115.932 30.5994 114.361 30.2909 112.668 30.916L111.856 31.2168C111.663 31.2887 111.797 31.9443 111.845 32.1543L112.205 33.7061C109.262 35.8861 110.199 41.2584 112.604 43.5967C113.728 44.6886 115.188 45.017 116.601 44.2139C117.867 44.8311 119.303 44.8664 120.403 43.8496L120.395 43.8535C122.211 42.172 122.975 39.917 122.896 37.5313C122.828 35.5571 121.811 33.8997 120.011 33.1045L119.849 31.3945L117.329 31.6201ZM24.5977 34.998C25.1476 33.8983 26.516 33.1036 27.5684 33.6533C27.5879 35.742 25.2467 35.5051 24.8154 36.1064C25.8756 36.0036 26.7619 35.7659 27.7549 36.0547C29.6063 36.5929 30.1603 40.7944 27.5811 43.6152L27.585 43.6074C26.2556 45.0634 25.5744 43.3349 23.8691 44.0312C21.5351 44.9801 19.6602 40.9683 20.2773 37.9102C20.9777 34.4246 25.8481 36.968 23.6602 35.1758L23.1533 34.7607C23.0625 34.6855 23.312 34.4637 23.4307 34.4004L24.5977 34.998ZM113.8 32.4404C114.888 31.8432 116.249 32.619 116.787 33.79L117.756 33.2715C117.819 33.2359 118.108 33.2002 118.18 33.1963C118.251 33.1931 118.337 33.4249 118.278 33.4688L117.989 33.6904C117.649 33.9515 117.329 34.3511 117.277 34.6992C118.286 34.6478 118.979 34.5174 119.829 34.9209C121.736 35.8151 121.799 39.8512 119.528 42.3438C118.852 43.0833 118.203 43.0436 117.428 42.7588C115.726 42.1376 114.971 44.0405 113.333 41.916C112.198 40.4443 111.802 38.4981 112.17 36.7217C112.538 34.9452 114.021 34.4894 115.825 34.5527C114.848 34.2401 113.74 33.5007 113.8 32.4404ZM76.3125 27.5693C72.2611 26.0382 71.7856 27.5846 70.6738 27.7666C69.8195 27.905 68.8307 27.8219 67.9922 27.8535L67.8574 29.4922C64.1186 30.9917 64.5735 36.1511 66.4014 38.8652C67.1373 39.9571 68.419 41.2459 69.8984 40.9375H69.9023C71.0062 40.7041 71.7189 40.6969 72.7832 40.9541C73.7326 41.1834 74.9352 40.392 75.5801 39.6562C77.8076 37.132 78.6307 32.2573 75.7188 29.9902L76.3125 27.5693ZM71.0342 30.1338C71.6395 29.0855 73.0158 28.1722 74.1631 28.71C74.2538 30.0747 72.731 30.6247 71.4531 31.1113C72.3116 31.1113 73.2888 30.8782 74.1592 31.0996C76.2324 31.6258 76.8069 36.0098 74.0137 38.8584C73.6102 39.2698 72.9373 39.3921 72.4111 39.1865L72.4072 39.1826C70.2708 38.3518 69.9142 40.2072 68.3633 38.6484C65.8747 36.148 66.3181 31.2572 68.7236 31.0752L70.832 30.917L69.6133 29.6592C70.1355 29.4139 70.4763 29.7184 71.0342 30.1338ZM54.2549 16.6729C52.4587 15.5928 50.2746 15.5381 48.6367 16.8516L46.002 16.7598L45.9268 18.374C41.9704 19.9289 42.4687 25.46 44.6367 28.2256C45.3687 29.1593 46.5995 30.2241 47.917 29.8799L47.9209 29.876C50.7021 29.1521 50.959 31.0464 53.2812 28.8311C55.8173 26.4137 56.5454 21.203 53.6572 18.8252L54.2549 16.6729ZM95.1768 16.8271C93.523 15.5809 91.3148 15.5609 89.5898 16.6924L90.1797 18.9404C87.339 21.0651 88.0235 25.9077 90.1006 28.4082C90.793 29.2429 92.0076 30.1408 93.1152 29.8916C94.2229 29.6424 94.9904 29.6741 96.1533 29.8916V29.8838C98.63 30.3388 101.954 25.4169 100.479 21.0293C100.055 19.7751 99.105 18.9441 97.9893 18.3467L97.9141 16.7676L95.1768 16.8271ZM49.1426 18.9883C49.6015 17.9162 51.0774 17.169 52.0625 17.6475C52.2444 19.1034 50.6619 19.5944 49.3682 20.085L50.9238 19.9385C52.2411 19.812 53.321 20.4882 53.6533 21.8135C54.4327 24.9073 52.2608 28.9585 50.2471 28.1123V28.1045C48.3045 27.2895 47.8331 29.1609 46.3613 27.6416C44.8895 26.1223 44.3199 23.9457 44.8145 21.916C45.2339 20.1873 46.9311 19.5429 48.5215 20.0967C48.6085 19.883 48.6917 19.6689 48.5928 19.5938L48.1064 19.1982C47.8572 18.9965 47.5917 18.6598 47.7539 18.458L49.1426 18.9883ZM91.6357 17.6787C92.8622 17.1368 94.1358 17.8768 94.7529 19.0518C95.2989 18.7313 95.6792 18.5455 96.2568 18.5771L95.0615 19.8662L97.1904 20.0088C99.2833 20.1474 100.189 24.594 97.5107 27.5771L97.5146 27.582C96.0906 29.168 95.4297 27.3168 93.6377 28.0762C92.8939 28.3927 92.2288 28.187 91.6631 27.6016C89.5622 25.4136 89.2695 21.0135 91.584 20.1035C92.4385 19.7673 93.4316 20.0052 94.4365 20.0566C93.6373 19.3762 92.3281 20.0325 91.6357 17.6787Z" fill="black" fill-opacity="0.88"/>
</svg>
