<svg viewBox="0 0 29.43 32.26" xmlns="http://www.w3.org/2000/svg"><path d="m29.26 14.97c-.13-.14-.42-.23-.61-.16-.14.05-.1.05-.21-.02 0-.03 0-.06-.01-.08 0-.01 0-.02-.01-.03 0-.02-.02-.05-.04-.07 0 0-.01-.02-.02-.02 0 0 0 0-.01-.01-.02-.04-.05-.07-.09-.1 0 0-.01 0-.02.01-.02-.01-.04-.02-.06-.03.13-.04.23-.12.29-.24.29-.1.68-.31.62-.64-.04-.22-.16-.34-.31-.41.17-.21.3-.46.17-.69-.04-.08-.09-.13-.14-.17s0 0-.02-.02c-.04-.03-.08-.05-.12-.07-.01 0-.02 0-.03-.01-.09-.03-.18-.04-.28-.04-.01 0-.03 0-.04 0-.04 0-.09 0-.14 0-.02-.05-.05-.1-.09-.14.4-.3-.05-.79-.29-1.15.11 0 .22-.01.35-.07.11-.05.07-.22.02-.3-.01-.02-.03-.04-.04-.06.33-.13.28-.54 0-.8 0-.04.01-.07.01-.1 0-.01 0-.02 0-.03s0-.03 0-.04 0-.02 0-.03c0-.02-.01-.03-.02-.05 0-.02-.01-.03-.02-.05s-.02-.03-.03-.05c0-.01-.02-.02-.03-.04s-.03-.03-.04-.04c-.01 0-.02-.02-.03-.03-.02-.01-.04-.03-.06-.04-.01 0-.02-.01-.03-.02-.02-.01-.04-.02-.06-.03-.01 0-.02-.01-.04-.02-.02 0-.05-.02-.07-.02 0 0-.01 0-.02 0s-.04 0-.05-.01c-.02-.15-.09-.28-.23-.37-.09-.06-.19-.09-.29-.1h-.01c-.06 0-.11-.01-.17-.02 0 0-.01 0-.02 0-.06 0-.13 0-.19 0-.03 0-.07 0-.1 0 .07-.04.14-.08.18-.14.08-.13.13-.24.08-.39 0-.02-.01-.03-.02-.05.01-.02.03-.04.03-.06.11-.39-.16-.65-.31-.97-.1-.22-.11-.49-.39-.58-.27-.08-.54-.06-.79.03-.09-.12-.21-.21-.34-.28.11-.16.2-.32.17-.56-.04-.29-.2-.54-.43-.71s-.54-.32-.83-.28c-.2.03-.32.18-.52.21-.02 0-.04.01-.07.02s-.06.01-.1.02c-.08.03-.15.06-.23.08-.14.05-.11.15-.23.1-.05-.02-.1-.03-.15-.05-.01 0-.03 0-.04 0-.02 0-.03 0-.05-.01s-.06 0-.08-.01c.02-.04.04-.07.05-.11.14-.41-.14-.79-.51-.95-.05-.34-.2-.67-.6-.72-.35-.04-.61.14-.68.43-.13-.02-.23 0-.33.06s-.02.01-.02.02c-.02-.08-.07-.15-.12-.2-.02-.02-.04-.04-.06-.06 0 0 0 0 .01-.01s0 0 .01-.01c.01 0 .02-.02.04-.03s0 0 .01 0 .02-.02.03-.03.03-.02.04-.03c.01 0 .02-.02.03-.02.01-.02.03-.03.04-.05 0 0 .01-.02.02-.02.01-.02.03-.05.03-.07.06-.27-.02-.51-.2-.71-.21-.23-.56-.41-.89-.42-.04-.09-.09-.17-.18-.24-.11-.09-.24-.12-.38-.08-.07.02-.12.08-.17.11-.12-.09-.22-.15-.41-.15s-.38.11-.46.29c-.1.21-.1.46-.02.68.04.1.12.18.18.26.07.05.06.08-.03.09-.04.05-.09.09-.15.12 0-.01-.02-.02-.02-.04-.02-.12-.1-.22-.21-.26-.09-.07-.18-.13-.28-.16.15-.68-.03-1.55-.59-1.81-.13-.06-.26-.07-.38.03-.11.1-.21.2-.31.3-.17-.2-.47-.25-.73-.17-.09-.05-.17-.11-.17-.18.02-.15.06-.3.05-.46 0-.14-.12-.27-.26-.28-.17 0-.35.01-.5.12-.13.1-.34.38-.53.25-.13-.09-.25-.13-.41-.12-.01 0-.02 0-.03.01s-.02.02-.03.02c0 .01-.02.02-.03.03-.04.05-.08.11-.09.1-.09-.05-.19-.11-.29-.18-.15-.1-.31-.18-.48-.2s0 0 0 0c-.04 0-.09 0-.13 0-.33.07-.36.46-.26.72.06.15.02.21-.09.22-.04 0-.08 0-.14 0-.09-.01-.18-.02-.28-.01-.2.02-.33.1-.46.25-.15.19-.12.43-.04.66-.11 0-.24.01-.34.05-.21.08-.36.18-.42.34-.11-.03-.23 0-.36.11-.21.17-.36.22-.64.19-.1-.01-.25-.25-.39-.29-.08-.03-.16-.05-.25-.03-.05 0-.1.02-.15.04-.02 0-.04.01-.06.02-.09-.08-.21-.12-.34-.12-.26.01-.5.09-.72.21t0 0s0 0 0 0c-.08.04-.15.09-.22.15-.32.04-.73.24-.75.6 0 .11 0 .2.04.31v.03c-.02.03-.04.05-.06.08-.08.13-.12.24-.12.37-.17.1-.35.26-.41.43-.03.1 0 .18.05.25-.09.26-.01.51.26.7.16.11.39.1.62.08.01.04.04.08.06.11.01.02.02.03.03.04-.04.02-.08.03-.12.05-.1.03-.21.06-.3.11-.18.1-.22.25-.17.39-.04.04-.08.08-.11.12-.23-.13-.51-.2-.76-.17-.05-.08-.12-.16-.21-.21-.13-.07-.25-.08-.39-.02-.07.03-.11.1-.16.14-.13-.07-.24-.12-.43-.09s-.36.17-.41.36c-.07.22-.03.47.09.67.05.09.14.16.22.23.08.04.07.07-.02.09-.04.05-.08.1-.13.14-.05-.09-.14-.18-.23-.23-.16-.1-.33-.18-.53-.14-.33.07-.45.44-.48.76-.07.01-.13.03-.19.06-.03.01-.06.02-.09.04-.02.01-.03.02-.04.03-.02.02-.04.03-.06.05-.01.01-.02.02-.04.04s-.03.04-.04.06c0 .02-.02.03-.02.05-.01.02-.02.05-.03.07 0 .02 0 .03-.01.05v.08.05c0 .03 0 .07.01.1v.05c.01.05.03.11.05.16.13.32.37.62.66.85-.07.12-.11.24-.12.38-.17-.04-.34-.12-.48.1-.12.19-.11.42-.22.61-.16.28-.1.59.06.85-.16.02-.3.1-.39.31-.05.12-.07.26-.06.4-.03.03-.06.06-.07.1-.07.15-.01.28.09.38-.06.1-.08.21-.04.32-.09.08-.11.19-.12.31-.21-.2-.47.05-.26.26.08.08.1.22.12.36-.19.04-.35.13-.41.31-.05 0-.1 0-.15 0-.01 0-.03 0-.04 0-.1 0-.2.02-.28.06-.01 0-.02.01-.03.02-.04.02-.08.05-.12.08-.01.01-.02.02-.02.02-.05.05-.09.11-.13.19-.12.26.02.51.21.71-.16.08-.28.21-.3.44-.04.34.38.54.68.62.07.12.18.21.32.24-.02.01-.04.02-.06.04 0 0-.02 0-.02-.01-.04.03-.07.07-.09.11v.01c0 .01-.01.02-.02.03-.01.02-.03.05-.03.07 0 .01 0 .02-.01.03 0 .03-.01.06-.01.09-.11.07-.07.08-.21.03-.2-.06-.5.05-.62.21-.03.04-.06.08-.08.13-.18.29-.07.6.2.77-.01.05-.02.1-.02.14-.02.43.29.7.74.62.1.11.22.17.39.14.07-.01.15-.06.21-.09 0 .02.01.04.02.09 0 .03 0 .06-.02.09-.02.02-.03.05-.05.07-.02.03-.04.06-.05.1-.03.1.1.24.17.28.22.11.46.2.69.27.02 0 .04.02.06.02 0 .01 0 .03-.01.04-.02.05-.04.1-.07.13-.09.13-.19.23-.24.38-.08.23.13.39.32.45.32.1.93.06 1.2-.23-.18.39-.06.85.37 1.01.04.1.1.19.17.27-.1.46.21 1.04.67 1.16.46.11 1.07-.1 1.36-.49.08.03.15.06.23.07.21.04.4.01.48-.16.22.02.45.04.62-.11.12-.11.16-.23.14-.37 0 .02.02.03.03.04.08.23.2.48.46.55.15.04.28 0 .43.03.13.03.27.07.4.04.03 0 .06-.02.09-.04.12.19.3.35.51.4.43.11.99-.08 1.3-.43.03.05.07.09.11.13.14.12.28.15.4.1.25.24.59.38.81.15.2.08.4.13.59.07.18.33.22.64.24 1.02.02.39.05.76.01 1.15-.05.44-.07.87-.09 1.31-.02.8 0 1.61 0 2.41 0 .34 0 .69-.06 1.02-.04-.18-.12-.36-.25-.52-.01-.02-.04 0-.03.02.15.26.19.54.19.83-.01.03-.02.07-.04.1-.04-.13-.11-.26-.18-.37-.08-.2-.21-.37-.41-.47-.01 0-.03.01-.02.02.37.32.39.86.31 1.31-.04-.14-.09-.28-.12-.37-.1-.25-.21-.55-.48-.66-.04-.02-.08.04-.04.06.23.14.33.45.38.7v.05c-.02-.03-.04-.06-.06-.08-.15-.21-.31-.38-.55-.48-.03-.01-.04.03-.02.05.21.12.36.35.46.56.05.1.08.21.1.33.01.05.01.09.02.12-.08-.16-.23-.32-.32-.42-.23-.24-.57-.41-.9-.37-.03 0-.03.05 0 .05.22 0 .4.11.56.25-.09-.04-.18-.07-.29-.08-.04 0-.04.05 0 .06.07.03.14.06.2.1-.03 0-.05 0-.08 0-.01 0-.01.02 0 .02.11.02.21.07.29.15.04.04.08.09.12.15-.29-.17-.6-.26-.97-.2-.03 0-.03.06 0 .06.46 0 .75.27 1.1.53h.02c-.01.07.06.12.27.14.1.01.2.02.31.02.17.03.34.08.51.12.11-.02.21-.06.31-.11-.03.09-.07.2-.02.26.03.04.07.05.12.03.03.05.07.08.12.11.22.13.46.2.71.23.17.02.37.04.55.03.2-.02.25-.18.36-.29.05-.02.11-.04.16-.06 0-.01 0-.02 0-.03v.03c.01 0 .03 0 .04-.01.04 0 .07-.01.11 0 0-.02 0-.03 0-.05.03 0 .06-.02.09-.02v.01c.04-.01.09 0 .15.04.02.01.03.02.04.03h.01c0-.03 0-.07-.01-.1h.03c.02.05.04.09.07.14.09.09.29.08.41.08h.17s0-.02 0-.03c0 0 0-.01-.01-.02h.03c.29 0 .57-.08.86-.13.22-.04.63-.12.38-.42.09-.02.33-.05.45-.14.02.1.16.07.16-.02 0-.01 0-.02 0-.03.02-.02.03-.04.03-.07 0-.05.01-.09.02-.14.08-.19.23-.35.37-.51.03-.03-.01-.07-.04-.05-.05.04-.1.09-.16.13.11-.18.26-.34.44-.44.03-.01 0-.06-.02-.05-.07.02-.14.05-.2.09 0 0 0 0 0-.01.03-.02 0-.06-.04-.05-.21.09-.36.28-.48.47-.02.02-.04.06-.05.09.03-.16.07-.3.16-.46.12-.23.28-.42.43-.62.02-.03-.02-.08-.05-.05-.05.04-.09.07-.14.11.02-.03.04-.06.05-.09.02-.04-.04-.08-.06-.04-.07.11-.16.2-.24.29.09-.14.2-.27.35-.38.03-.02 0-.08-.03-.06-.28.16-.49.42-.65.71.01-.1.02-.2.05-.3.07-.31.25-.59.38-.88.02-.05-.04-.09-.07-.04-.07.11-.14.22-.21.33.03-.05.06-.11.1-.16 0-.01-.01-.02-.02-.01-.22.27-.38.58-.46.92-.03.13-.12.36-.11.53-.01 0-.02-.02-.03-.03.02-.61.12-1.21.36-1.78.02-.04-.04-.07-.06-.04-.19.3-.31.63-.4.97 0-.3.02-.59.1-.89 0 0 0 0 0-.01 0-.02.01-.03.02-.05.03-.06-.06-.11-.09-.05-.24.37-.25.79-.31 1.21v.04c-.14-.42-.16-.93-.19-1.32-.11-1.32-.48-2.63-.46-3.97 0-.29.03-.58.11-.85.08-.29.26-.53.42-.78.21.07.44.1.64-.04.15-.11.15-.27.11-.43.05-.02.1-.04.14-.05h.02.07c.4.21 1.12.43 1.15-.05 0-.13-.05-.17-.03-.24 0-.03.02-.06.04-.1.07-.12.32-.02.44-.02.05 0 .1 0 .14-.02.1.02.19.01.29-.02.18.17.4.25.64.21.07.15.14.29.28.39.16.11.3.12.41.06.27.21.62.32.82.07.26.07.52.11.74-.08.01-.01.02-.02.03-.04.08-.04.14-.1.15-.2.01-.09 0-.18-.01-.27.04 0 .08-.01.12-.02.42.17 1.16.32 1.14-.17 0-.13-.07-.16-.06-.24 0-.03 0-.06.03-.1 0-.01.01-.02.02-.03.12.08.24.1.37.05.35.27.73.17.91-.2s.04-.08.05-.13c.31-.02.54-.24.52-.56 0-.05 0-.1-.01-.15-.04-.19-.24-.42-.44-.46-.14-.02-.11 0-.17-.12.01-.03.02-.05.03-.08 0-.01 0-.02 0-.03 0-.02 0-.05 0-.08 0-.01 0-.02 0-.03 0 0 0 0 0-.01 0-.05-.01-.09-.03-.14h-.02c-.01-.02-.02-.04-.03-.06.14.04.26.02.38-.06.3.07.74.08.86-.22.08-.21.04-.37-.06-.51.06-.02.12-.05.18-.08.14 0 .26-.03.36-.07.18-.07.38-.24.29-.45-.06-.14-.17-.23-.25-.35-.01-.02-.03-.04-.04-.07 0-.01-.01-.02-.02-.04s-.02-.04-.02-.06c.01 0 .03-.01.05-.02.22-.08.44-.18.65-.3.07-.04.18-.18.15-.27-.01-.03-.03-.06-.06-.09-.01-.02-.03-.04-.04-.06-.02-.03-.04-.06-.03-.09 0-.05 0-.07.01-.09.06.03.14.07.21.08.17.02.28-.04.37-.15.44.05.72-.23.67-.64s-.01-.09-.02-.13c.25-.18.34-.48.15-.75-.02-.03-.04-.07-.08-.11zm-4.04-4.69s0 .03.01.05c.02.09.04.17.06.25-.04 0-.07 0-.11-.01-.04-.12-.1-.22-.19-.31.08-.02.16-.03.21-.02-.01-.05 0-.04.02.04zm-5.98 4.73s0 0-.01 0c0 0 0-.01 0-.02 0 0 .01 0 .02.01zm2.86-2.24s-.03-.08-.04-.12c.03 0 .06.02.1.02-.02.04-.04.07-.06.11zm-7.75-6.46s-.04-.03-.07-.05c.03 0 .06-.02.08-.02 0 .02-.01.05-.02.08z"/></svg>