<svg viewBox="0 0 17.76 32.25" xmlns="http://www.w3.org/2000/svg"><path d="m17.6 10.05s0 .02.01.02c.1-.23.16-.48.16-.73 0-.27-.09-.51-.14-.76 0 0 0-.02-.01-.02-.05-.16-.12-.32-.2-.47-.13-.39-.32-.74-.56-1.05.01-.05.02-.1.03-.15 0-.01 0-.02 0-.04.08-.46.05-.92-.13-1.35-.13-.31-.38-.6-.64-.79-.07-.05-.15-.09-.22-.11v-.02c-.2-.17-.43-.32-.68-.43 0 0 0-.01 0-.02 0 0 0 0 0-.01-.06-.12-.12-.23-.21-.33-.23-.46-.57-.82-1.01-1.08 0-.01 0-.03 0-.03-.09-.08-.2-.12-.32-.13-.02-.01-.05-.02-.07-.04-.02 0-.04-.02-.06-.02.33-.17.69-.39 1.03-.36.07 0 .15 0 .22.03.06.02.12.05.17.07.12.06.25.15.35.21 0 0 0 0 0-.01s-.02-.03-.02-.04c0 0-.01-.01-.02-.02s.01 0 .02.01c-.03-.07-.07-.14-.11-.2 0-.01-.01-.02-.02-.03-.17-.29-.39-.54-.66-.74.15 0 .29 0 .42.06.06.02.12.05.17.09.04.04.09.07.12.11.09.09.16.19.24.28 0-.01 0-.03 0-.04 0 0 0-.01-.01-.02s0 .01.01.02c0-.07-.02-.13-.03-.2 0 0 0-.02 0-.03-.09-.39-.26-.76-.56-1.05-.21-.21-.5-.36-.79-.43-.07-.02-.15-.02-.21-.02 0 0 0-.01 0-.02-.31-.1-.64-.16-.96-.12-.18.02-.35.06-.52.11-.12.03-.22.09-.32.14.04-.03.09-.05.13-.08.02-.01.03-.07 0-.07-.38.04-.79.23-1.11.42-.29.18-.65.37-.84.67 0-.07.02-.13.05-.21.01-.04-.03-.07-.06-.03-.06.07-.13.17-.19.28-.39.29-.67.74-.87 1.18-.11.25-.19.51-.23.77 0-.04 0-.07 0-.11s.02-.09.02-.13c0-.01-.01-.02-.02 0-.13.24-.14.61-.15.88v.11c-.05-.29-.13-.59-.23-.88-.05-.09-.1-.17-.15-.26v.01c0 .02 0 .05-.01.07-.02-.04-.03-.08-.05-.12-.02-.03-.03-.06-.05-.09-.02 0-.03.02-.03.04-.02.08-.02.16-.03.24-.11-.27-.25-.54-.4-.8-.02-.03-.05-.07-.07-.1-.03-.05-.06-.1-.09-.14-.11-.17-.24-.33-.37-.49-.07-.1-.15-.2-.23-.27-.02-.02-.05-.04-.07-.06-.16-.15-.33-.3-.53-.42-.02-.01-.05 0-.04.03 0 .04.01.08.02.11-.07-.05-.14-.1-.21-.15-.43-.29-.88-.52-1.39-.6-.02 0-.03.02-.03.04-.08-.01-.15-.03-.22-.04-.43-.06-.85-.03-1.25.07-.08.01-.15.03-.23.05-.73.19-1.33.63-1.71 1.28v.02s0 .01 0 0c.1-.03.18-.1.27-.13.15-.06.33-.09.49-.12.14-.02.28-.02.42-.01h.01s-.02.01-.03.02 0 .03 0 .04c-.11.05-.21.11-.31.17-.13.08-.34.21-.4.36 0 .02 0 .04.02.03.2-.14.44-.18.68-.17-.15.05-.3.12-.42.21-.01 0-.02.03 0 .03s0 0 0 0 .03 0 .04 0h.01s.08 0 .12 0c-.22.13-.47.31-.6.54s0 .03.01.02 0 0 0 0 .03 0 .04 0c.12-.04.23-.09.35-.12h.01c.51-.19 1.07-.16 1.63-.08-.1.03-.2.07-.29.13-.2.11-.55.29-.65.51 0 .02 0 .07.03.05.08-.04.16-.07.24-.1 0 .01 0 .02.03.02.27-.02.52.02.76.1-.12.07-.25.15-.31.26 0 .01 0 .04.01.04.06.02.12.04.18.07-.21.02-.41.07-.6.14-.61.22-1.1.62-1.47 1.14-.06.09-.12.18-.17.27-.06.03-.11.06-.16.1-.72.45-1.21 1.14-1.37 1.98 0 .02 0 .02.02.03 0 0 0 .01.01 0 .09-.07.15-.17.24-.24.14-.12.32-.22.49-.31.14-.07.28-.12.43-.16v.08c-.09.09-.18.18-.26.28-.11.13-.29.34-.3.53 0 .02.02.04.04.02.14-.18.32-.3.53-.38v.01c.02.08.03.15.04.23 0 0-.02.02-.02.02-.2.23-.42.54-.49.85 0 .01 0 .03.02.02s0 0 0 0 .02-.02.04-.02c.11-.09.22-.17.33-.26 0 0 0 0 .01-.01 0 0 0 0 0-.01.07-.06.15-.11.23-.16l.03.06c-.14.22-.25.44-.33.67-.01.04.03.04.05.02.11-.17.24-.3.38-.42-.1.15-.18.32-.26.47-.16.33-.3.68-.39 1.03-.06.23-.13.54-.07.78.01.04.07 0 .09-.02.06-.12.11-.24.18-.36-.04.08-.07.16-.1.25-.05.17-.08.34-.11.52-.04.3-.04.67.04.96v.04s.01.02.02.02c.02.02.06 0 .07-.02.07-.17.08-.38.14-.56.07-.22.17-.43.28-.64.24-.49.62-.86 1.01-1.22-.04.09-.07.18-.1.27-.1.26-.15.53-.23.79-.03.11-.04.23.02.34.02.03.06.02.08-.01.16-.33.34-.64.57-.92.14-.17.31-.29.49-.4.03.17.08.34.18.47.03.03.06-.02.06-.04.01-.12.01-.23.02-.34v.23c.01.15.05.31.09.46.07.26.19.56.36.77 0 0 0 .02.01.03 0 .01.01.01.02 0 .02 0 .05-.02.05-.04 0-.16-.06-.34-.08-.5-.02-.2 0-.41.01-.61.02-.24.07-.46.14-.68.1-.05.2-.1.3-.15.02.15.04.31.06.46.01.1.04.2.13.27.03.02.06 0 .06-.04.01-.21.04-.42.08-.62.02 0 .04-.01.06-.02 0 .26.02.52.08.78-.38.41-.68.88-.83 1.41-.21.76-.18 1.72.11 2.45.01.04.05.01.05-.02-.02-.2-.02-.38 0-.56.03.18.07.36.12.53.1.35.22.71.39 1.03.1.2.25.46.44.61 0 .08.01.15.02.23.03.21.05.46.18.64h.02c0-.02.01-.04.02-.07.04-.14.11-.25.19-.36.16.21.35.41.56.55 0 0 .02.02.03.03 0 .01.02 0 .03 0 .03 0 .04-.04.04-.06-.06-.18-.19-.34-.27-.51-.05-.11-.09-.22-.12-.33.03-.04.07-.09.1-.14.11-.19.14-.42.24-.62.07.35-.11.81-.16 1.15.13-.08.25-.17.36-.26.28-.29.55-.63.73-.97.13-.24.18-.48.24-.74-.02.12 0 .3 0 .42 0 .19-.02.37-.05.56 0 .02 0 .03.02.03.03-.02.05-.04.08-.06.27-.44.55-.86.66-1.38.03-.12.05-.25.07-.37 0 0 .02-.25.02-.14.02.31.04.6 0 .91 0 .03.04.04.05 0 .02-.06.05-.12.08-.18v.22c-.02.56 0 1.12 0 1.68v1.68.84.84.84c.01.07.01.14.01.21 0-.02-.02-.03-.02-.03s0 .02.01.06c0 .2 0 .39-.02.59-.03.56-.04 1.12-.04 1.68 0 1.12 0 2.24-.02 3.36-.01.56-.04 1.12-.06 1.68s-.03 1.12-.03 1.68v1.68c0 .45 0 .9.01 1.35-.01 0-.03.01-.04.02-.04.02-.06.07-.06.11s0 .08.02.11c0 .03.03.06.05.08s.05.04.08.06.06.03.09.03h.1.05.05c.03 0 .07 0 .1-.02h.02c.03.03.06.05.09.07s.07.03.11.04h.06.06.22.11c.02 0 .04 0 .05-.01 0 0 .02 0 .03-.01 0 0 .02 0 .03-.02s.03-.04.04-.07c0-.03 0-.06 0-.09 0-.02-.02-.04-.03-.07l-.11-1.46c-.02-.26-.04-.52-.05-.78 0-.26 0-.52 0-.78.03-1.04.07-2.09 0-3.13 0-.13-.02-.26-.03-.39l-.04-.39c-.02-.26-.03-.52-.02-.78 0-.52.03-1.04.05-1.56.03-.52.05-1.04.07-1.56.01-.52.02-1.04 0-1.57l-.04-1.56v-.78s0-.78 0-.78c0-.26.01-.52.02-.78l.04-.78.04-.81s.02-.02.02-.03c0-.05 0-.1-.01-.14v-.05c.03.07.05.15.08.22.1.23.3.44.46.63.34.41.76.81 1.25 1.04.03.01.05-.03.04-.05-.17-.23-.25-.46-.33-.72-.07-.23.03-.02.09.06.07.13.15.25.24.37.11.15.23.28.37.4.11.12.23.24.36.35.16.14.34.31.56.36h.02c0-.02-.02-.04-.03-.06s0 0 0-.01c-.15-.31-.08-.64-.14-.97-.04-.21-.18-.41-.23-.62.29.22.45.68.64.97.04-.14.08-.29.1-.44.02-.41 0-.83-.09-1.21-.06-.27-.18-.48-.31-.71.06.11.2.22.29.32.12.15.23.3.33.45 0 .01.02.02.04.01 0-.03.01-.06.02-.1-.09-.51-.16-1.01-.41-1.47-.06-.11-.13-.22-.19-.33 0 0-.15-.2-.07-.12.21.22.43.43.61.69.02.03.05 0 .04-.02-.13-.4-.22-.81-.38-1.2-.06-.13-.14-.27-.23-.4.01-.04.02-.07.04-.11.11.1.2.2.29.32.02.06.04.11.06.17 0 .01.02 0 .02 0 0-.03-.01-.05-.02-.08.01.02.03.04.04.06 0 0 .01 0 0 0-.02-.04-.04-.07-.07-.1 0-.02-.01-.04-.02-.06.09.14.19.28.31.39.02.16.05.32.09.48.05.19.14.37.18.57.01.07.02.17.09.21h.01c.09-.07.13-.31.16-.49.04.17.07.33.08.51.02.24-.05.45-.09.68 0 .03.02.05.05.04.15-.06.23-.3.31-.43.03-.05.06-.11.08-.17-.03.16-.07.31-.13.46-.1.27-.25.49-.39.74v.02c.23-.11.44-.26.6-.45.17-.21.27-.44.39-.67v-.02c.07-.15.12-.32.16-.48.34-.8.37-1.64.09-2.49-.24-.71-.62-1.34-1.18-1.83.31 0 .62.02.93.07.08.04.17.1.24.1.02 0 .03-.02.02-.04-.02-.13-.08-.26-.14-.38-.03-.06-.06-.11-.1-.15.1.05.2.09.3.12.06.02.12.04.19.06 0 .03 0 .06.02.09 0 .03.03.03.05.01s.03-.04.04-.07l.12.03c0 .2-.04.38-.07.58v.02c.15-.16.27-.35.34-.57h.03c.12.11.25.21.38.3.16.12.35.19.51.31.06.04.13.11.2.1 0 0 0 0 0-.01.02-.11-.1-.32-.2-.47.14.1.27.2.4.33.17.17.26.37.38.58.02.03.05.02.06 0 .07-.14-.02-.38-.05-.52-.01-.06-.03-.12-.05-.18.08.14.15.28.21.43.09.28.13.54.19.82zm-1.77-3.89s-.01 0-.02 0c.24.06.48.15.64.31.06.05.1.1.15.17.03.05.06.11.08.17.01.03.02.06.03.1-.25-.28-.54-.52-.89-.73z"/></svg>