<svg viewBox="0 0 30.36 32.26" xmlns="http://www.w3.org/2000/svg"><path d="m30.21 14.24c-.05.11-.23.15-.35.18.2-.23.27-.55.16-.83.09-.34-.19.06-.22.1.34-.99-.64-2.2-1.82-2.21.08-.52-.08-1.13-.63-1.43.11.02.65.26.68.11.03-.16-.58-.46-.73-.49.12-.04.55 0 .6-.09.1-.19-.49-.21-.6-.2.12-.27.06-.57-.02-.84-.14-.44-.2-.22-.43.02.19-1-.52-2.19-1.73-2.31.28-.05.59-.06.87 0 .07.02.2.1.28.08.16-.04.03-.17-.03-.21-.45-.33-1.18-.57-1.77-.58.04-.12.08-.24.1-.36 0-.07-.1-.07-.13-.03-.05.07-.54.16-.66.22.28-.62.03-1.91-.89-2.01.17-.08.91-.07.58-.33-.28-.21-.69-.23-1.04-.16-.19.04-.24-.2-.38-.33-.13-.11-.31-.14-.47-.18-.02 0-.39-.15-.29 0 .08.13.24.16.36.25-.35-.14-.68-.05-1.03-.11-.09-.01-.17.08-.11.14.08.09.36.14.48.21-.41-.09-.84-.02-1.21.16 0-.79-.49-1.75-1.44-1.96.12-.07.86-.15.71-.32-.08-.09-.43-.12-.55-.14-.21-.03-.43-.02-.64.04.07-.16.65-.74.13-.64-.39.08-.73.29-.95.59-.2-.17-.47-.28-.75-.29-.05 0-.28 0-.2.12.05.07.29.12.38.19-.79-.19-1.82.15-2.19.83-.64-.74-2.19-.73-2.84-.02.04-.1.4-.63 0-.41-.32.17-.55.39-.67.71-.03-.14-.05-.3-.03-.44 0-.02.03-.24-.09-.14-.25.23-.37.61-.44.91-.19-.1-.42-.15-.64-.16-.14 0-.27.01-.41.03-.07.01-.04.1.02.11.31.02.77.08.87.39-.87-.41-2.28-.37-3.04.22.07-.16.19-.3.31-.43.11-.12.06-.2-.1-.1-.34.22-.68.47-.73.86-.11-.07-.64-.36-.77-.26-.08.06.09.1.09.16-.01.18.1.35.22.49-.61.23-1.07.65-1.22 1.23-.1-.13-.15-.28-.14-.44 0-.07.12-.3-.02-.32-.29-.04-.27.7-.23.83-.32-.09-.69-.08-1.01 0-.07.02-.32.06-.26.17.05.11.39 0 .5 0-.31.06-.62.36-.8.58-.11.13-.1.23.09.15.17-.08.42-.11.6-.04-.41.27-.66.74-.76 1.17-.03.11-.04.23-.06.34-.02.19-.15.15-.33.23-.24.09-.46.23-.65.4-.69.63-.88 1.79-.26 2.52-.19-.1-.35-.25-.46-.42-.06-.09-.11-.18-.16-.27-.02-.05-.11-.01-.09.03.14.42.29.84.71 1.11-.27.04-.54.11-.79.21-.07.02-.03.13.04.12.11-.01.23-.02.35-.03-.53.21-.77.62-.92 1.09-.02.07-.2.53-.09.53.07 0 .35-.42.44-.49-.25.44-.19.94-.03 1.4.06.18.21.37.25.53.04.18.13-.16.13-.12.02-.15.01-.31.07-.45.08.45.47.83.89 1.06-.23.02-.47.07-.66.19-.06.03-.5.36-.46.39.04.04.46-.14.54-.15.25-.06.5-.08.75-.04-.6.03-1.06.28-1.42.69-.04.05-.37.45-.29.51.02.01.52-.3.61-.32-.29.3-.44.74-.44 1.13 0 .33.14.03.17-.1.05-.2.19-.33.4-.41-.13.62.21 1.2.75 1.58.29.21.62.4.99.49.13.03.15-.03.22-.02.14.02-.21-.23-.23-.25.37.1.79.09 1.15-.01-.03.05-.19.4-.08.44.1.03.31-.08.39-.11-.04.05-.46.38-.34.44.28.12.6-.02.84-.13-.06.11-.14.2-.24.27 0 0-.3.13-.18.15.33.05.78-.24 1-.44.06.12.14.24.22.35.08.1.13.03.17.05.17.21.16-.25.18-.31.02-.08.05-.16.09-.23.05.05.09.1.15.15.27.26.6.46.8.79.14.23.29.48.46.69.33.4.68.6 1.1.81.06.03.12.06.18.08.25.11.52.18.76.32.31.11.62.23.88.4.06.04.12.09.17.13.02.02.05.04.07.07.47.48.9 1.02 1.49 1.37.2.12.39.23.57.37.25.54.47 1.07.51 1.7.05.8-.01 1.61.03 2.41.03.66.02 1.32-.07 1.97-.37.91-.87 1.78-1.6 2.35h4.78c-.18-.2-.31-.45-.38-.77-.08-.36-.13-.73-.18-1.11 0-.22-.02-.45-.07-.67-.19-.98-.3-1.92-.19-2.92.12-1.07.45-2.01 1.17-2.83.6-.7 1.28-1.14 2.08-1.58s1.56-.88 2.3-1.42c.77-.58 1.49-1.32 2.16-2.01.23-.23.44-.48.64-.73.5-.14 1.04-.19 1.48-.52.34-.26.66-.51.93-.81.02 0 .04-.02.06-.02.6-.26 1.08-.59 1.33-1.16-.02.2-.07.4-.18.59-.02.05 0 .08.06.1.09.02.19-.16.22-.21.32-.18.46-.49.54-.81 0 .12-.17.73-.06.79.04.02.27-.1.3-.11.15-.08.29-.19.39-.32.04.18.22.11.35 0 .18-.15.26-.36.32-.56.04-.13 0-.15.16-.21.15-.06.3-.13.43-.23.19-.14.35-.35.29-.58-.02-.07-.14.08-.15.08zm-9.34 2.19c.01-.15.03-.3.04-.45.06 0 .13.01.2 0 .19 0 .2.13.29.26-.24.34-.48.68-.68 1.05.07-.3.13-.59.16-.88zm-11.29.01s0-.03 0-.05c.1-.12.18-.27.23-.41.04.05.49.36.38.15-.1-.21-.21-.42-.25-.65.15.02.29.01.43-.02.01.05.03.09.03.14.03.25 0 .49.05.73-.03.39-.02.79-.03 1.19 0 .2-.02.39-.04.59-.02.29-.05.58-.05.88-.33-.83-.55-1.68-.74-2.55zm6.25 3.28c.03-.66.21-1.39.04-2.04-.09-.35-.23-.7-.19-1.08 0-.07.02-.14.02-.21.02-.06.03-.12.04-.18.1-.47.02-1.12.11-1.66.16-.21.34-.41.5-.62.32.04.64 0 .98-.11.19-.06.13.02.23.14.04.05.08.09.12.14-.05.24-.09.49 0 .72.08.23.21.43.34.64 0 .84-.25 1.68-.27 2.53-.02.81 0 1.64-.36 2.38-.34.67-.76 1.33-1.24 1.91-.07.09-.16.18-.24.27.02-.29.09-.6.11-.75.08-.7-.23-1.38-.2-2.09zm-.11-5.83c-.03-.06-.06-.12-.09-.18.05.03.11.05.16.07-.02.04-.05.08-.07.11zm-.33.29s.08.04.14.05c-.03.06-.05.11-.08.17 0-.02-.01-.03-.02-.05s-.04-.1-.06-.15c0 0 0-.02.01-.02zm-4.79 1.27s-.01-.03-.02-.05c.02 0 .03-.01.05-.02 0 .02-.02.05-.02.07zm7.48-.54s0 0 0 0c-.06-.17-.07-.36-.06-.56v.03c0 .08 0 .15.02.23 0 .06.01.12.02.18 0 .04 0 .08.01.12zm-6.04.24c0-.07-.01-.14-.01-.21h.02s.02-.01.03-.01c0 .04-.02.07-.02.11v.01c0 .04-.01.07-.02.11zm6.5.66s0 0 0 .01c-.04.08-.07.15-.1.23.02-.32.06-.64.11-.96.03-.19.04-.39.04-.59h.14c-.03.08-.16.73.06.68.08-.02.15-.05.21-.08-.17.23-.34.46-.47.71v.01zm-5.74 3.18c.13.34.33.66.45 1 .15.44.14.9.19 1.35-.12.23-.16.5-.2.76-.02.01-.05.02-.08.02-.02 0-.03 0-.05-.01-.02 0-.03 0-.05-.02-.3-.19-.55-.43-.82-.67-.65-.6-1.21-1.19-1.6-2 .06-.66.03-1.33.16-1.98.14-.69.26-1.42.32-2.12.1-.1.17-.22.21-.35.16.05.32.05.48.03.04.17.08.33.12.5.05.14.1.27.16.41.04.11.08.21.11.32.01 0 .03.01.04.02.18.58.31 1.14.38 1.76.04.33.06.67.17.98zm2.01-4.85c-.02.12-.22.52-.13.63.07.1.22 0 .36-.15.05.22.07.43.03.68 0 .06-.02.12-.03.18-.05.29-.1.57-.15.86-.11-.63-.39-1.22-.55-1.85.2-.13.43-.31.46-.35zm-6.97 6.15c-.32-.33-.56-.71-.85-1.06 0 0 0 0 0-.01-.14-.38-.24-.77-.34-1.15.36-.09.68-.3.92-.56.1-.1.18-.22.26-.33.31.86.24 1.77.44 2.65.03.12.1.49.22.84-.07-.01-.14-.02-.22-.02-.16-.1-.31-.21-.44-.35zm2.61 1.19c-.46-.32-.95-.56-1.47-.71-.03-.08-.06-.16-.09-.24-.06-.18-.12-.36-.17-.55-.17-.59-.23-1.18-.33-1.78-.07-.44-.18-.92-.35-1.36.03-.05.06-.1.08-.15.07-.15.09-.1.25-.14-.22.18.04.11.17.05.06.07.12.14.17.21.47.65.52 1.44.87 2.14.31.61.59 1.24.95 1.83.38.62.82 1.19 1.37 1.68.08.07.17.15.27.22-.26-.12-.52-.23-.75-.39-.34-.24-.61-.57-.96-.81zm8.11-2.29c.05-.59.04-1.21.11-1.82 0-.05.02-.1.03-.15.03-.19.06-.37.09-.55.07-.28.17-.56.31-.81 0 0 0-.02 0-.03 0-.02.02-.03.03-.05.12-.18.24-.36.37-.55.22.22.54.38.85.48-.02.11-.05.22-.06.33-.06.42-.03.84-.1 1.25-.07.39-.2.78-.34 1.15-.31.78-.72 1.51-1.26 2.15-.09.1-.19.21-.29.32.02-.08.04-.15.06-.23v.02c.11-.49.18-.99.23-1.5zm1.64 1.22c-.07.01-.15.02-.23.04.02-.02.04-.05.05-.08.14-.2.27-.4.38-.61.22-.43.36-.9.5-1.37 0-.01.01-.02.02-.03.28-.56.57-1.12.9-1.65.02-.04.05-.09.08-.13.05.02.1.03.15.04-.18.14-.37.33-.32.56.04.2.36.1.54.04-.04.12-.14.48-.02.58.01.01.19.05.19.05.14.02.3-.25.36-.33.08.12.18.22.29.32-.41.44-.82.87-1.22 1.31-.23.26-.46.55-.71.82-.29.21-.61.39-.96.45zm-6 1.7c0-.11.02-.21.02-.21.04-.26.07-.56.01-.83-.12-.58-.43-1.16-.65-1.72-.16-.42-.34-.86-.41-1.31-.04-.29-.04-.6-.11-.88-.1-.35-.25-.69-.33-1.05 0-.05-.02-.09-.02-.13-.02-.04-.03-.08-.05-.12-.16-.38-.18-.78-.17-1.19.02-.02.05-.05.07-.07.13-.15.14-.46.35-.44.32.03.64-.02.94-.11.13.71.36 1.39.57 2.08.08.16.15.32.21.49.08.2.2.49.14.71-.04.52-.08 1.06-.04 1.59.02.33.08.66.14.98.05.23-.05.51-.03.75.02.27-.02.52-.08.77-.17.3-.38.58-.58.87 0-.06 0-.12 0-.18zm10.51-4.48c-.09.04-.19.07-.28.1 0 0-.02 0-.03 0-.1.02-.19.05-.29.06-.03 0-.06.01-.09.02.04-.05.07-.1.1-.15.19.03.39 0 .56-.1.2-.13-.26-.1-.28-.1-.04 0-.08-.02-.12-.03.03-.05.06-.1.09-.15.4.02.81-.06 1.19-.18-.27.22-.56.41-.85.53z"/></svg>