<svg fill="none" height="126" viewBox="0 0 104 126" width="104" xmlns="http://www.w3.org/2000/svg"><path d="m57.9916 116.818 1.2648 8.605c-.5041-.036-.8979-.185-1.3841-.4-3.5764-2.592-6.1088-5.539-8.6055-9.414-3.6569 3.804-10.6457 5.095-15.7613 5.238 7.1708-8.283 11.3109-18.341 12.1372-28.9988.1581-3.6779.173-7.6063-.5638-11.1201-3.3586 1.4587-5.4735 2.5056-9.0469 2.5295-2.0313.0119-4.0239-.1253-5.9329-.7547-.695-.2296-1.1752-.1909-1.7748.2208-3.9254 2.6875-8.5399 3.2542-13.202 2.8128-3.9821-.3788-7.7256-1.7181-10.83372-4.1849-4.184922-3.317-5.91199-8.5966-2.40417-13.0709 1.03803-1.3243 2.44593-2.3236 3.96122-3.1886-5.124524-4.5011-6.305729-11.1439-1.95675-16.5488 2.17748-2.7055 5.11557-4.5041 8.45632-5.7181-1.8762-4.1551-1.5361-8.1402 1.5004-11.6003 1.8195-2.0731 4.2416-3.4124 6.8128-4.4742-2.0164-3.9076-1.032-7.7495 2.9083-9.7599 1.2737-.6503 2.4847-1.1275 3.8926-1.4318 2.2282-5.5242 6.7621-9.88212 12.0268-12.44438 2.604-1.26771 6.2849-2.478739 9.1752-2.77404l2.5712-.2624903c2.2461-.2296787 5.2588.0805363 7.481.4981343 9.8076 1.834446 18.8754 8.957466 19.8598 19.477976 1.0708.0417 2.1327-.0448 3.1707.0686 3.0216.3311 5.2438 2.6786 5.4467 5.6912.0477.698-.1969 1.4527-.3669 2.1865 1.0589.7278 2.0552 1.4705 2.9709 2.3624 3.3527 3.8568 3.2394 8.2296.522 12.5846 2.7025 1.2677 5.1036 2.8098 6.9948 5.0619 3.6215 4.4354 4.3315 9.4824 1.3124 14.5055 2.8491 2.1954 4.8291 5.1394 5.1661 8.6473.266 2.7412-.537 5.3333-2.386 7.3288-3.2096 3.4631-7.839 4.4027-12.5101 3.6928-1.4407 3.1737-4.1611 5.378-7.5436 6.1715-5.22 1.2229-10.607-.9068-13.1096-5.8046-1.9836.9246-5.3482 1.4765-6.7502-.3043-.6652-.8471-.7517-1.8165-1.4288-2.8397l.0776 10.3952.1163 3.129.3073 6.1029.2982 3.4362.2118 1.757c.528 4.355 1.6644 9.068 5.0887 12.072 1.4348 1.258 3.0366 2.237 4.7249 3.152l1.6465.895c.0686.039.2237.173.2774.224s-.2327.209-.3042.23c-1.5094.423-3.1917.334-4.7279-.024l-2.8247-.892-6.9649-3.075z" fill="#000" fill-opacity=".88"/></svg>