<svg viewBox="0 0 26.98 32.26" xmlns="http://www.w3.org/2000/svg"><path d="m26.91 12.49c-.34-.23-.76-.32-1.19-.3.21-.36.4-.75.21-1.16-.11-.22-.25-.2-.41-.07.08-.15.14-.32.13-.51 0-.08-.05-.17-.14-.17-.4-.03-.72.23-.86.6-.03.06-.05.14-.07.23-.07.03-.13.08-.19.15-.04 0-.08.02-.12.04-.03-.02-.05-.04-.07-.05v-.04c.17-.14.29-.33.32-.56.02-.18 0-.28-.08-.35.02 0 .04.01.06.02.09.02.17-.08.15-.16-.04-.16-.12-.29-.22-.38.33.03.68 0 .93-.18.09-.07.07-.18 0-.25-.22-.21-.58-.25-.88-.17.1-.27-.06-.46-.31-.59.49-.16.93-.43.68-.78-.08-.11-.19-.16-.31-.16.03-.12 0-.26-.13-.42-.03-.04-.09-.05-.14-.02-.18.12-.37.25-.51.41v.02c-.04.02-.08.05-.13.08.18-.44.16-.97-.26-1.15-.14-.06-.24 0-.33.1 0-.03 0-.06-.01-.08-.02-.12-.21-.19-.28-.07-.09.15-.16.32-.21.48-.06-.3-.17-.58-.34-.84-.04-.06-.12-.07-.19-.05-.08.03-.15.08-.22.14.16-.49.12-1.1-.32-1.18-.29-.05-.42.23-.48.58-.03-.02-.06-.05-.09-.07.42-.39.06-.59-.42-.7.01-.02.01-.05.01-.08.58-.23.99-.93.51-1.49-.17-.2-.38-.25-.58-.21 0-.1 0-.19-.02-.29-.06-.27-.33-.31-.53-.13-.28.26-.47.6-.56.97 0 .02 0 .05-.02.07s-.03.05-.05.07c-.01-.23-.06-.45-.16-.66-.02-.04-.06-.07-.11-.08.18-.3.24-.68.07-.99-.14-.27-.46-.33-.71-.18-.08.05-.15.11-.2.19.03-.18.04-.36.05-.52 0-.11-.12-.23-.23-.17-.26.15-.54.37-.72.63-.03-.03-.06-.06-.09-.09.12-.05.22-.12.3-.22.15-.17.1-.42-.1-.53-.21-.11-.47-.12-.69-.01-.09.04-.16.1-.22.17-.04-.24-.14-.5-.26-.68 0-.1 0-.21-.02-.3-.05-.18-.16-.35-.34-.35s-.32.15-.37.32c-.02.07-.03.14-.04.21-.01 0-.02-.01-.03-.02-.09-.04-.2.03-.21.13v.12c-.12-.17-.29-.3-.49-.37-.08-.02-.17 0-.2.09-.04.12-.06.25-.07.38-.04.02-.08.07-.09.13v.06c-.13-.13-.3-.22-.53-.21-.08 0-.14.07-.11.15.04.12.1.23.17.34-.06-.03-.11-.06-.17-.08-.05-.02-.1 0-.12.04-.12-.14-.26-.25-.44-.34.05-.07.12-.16.21-.17.14 0 .19.22.22.32.02.08.15.06.13-.02-.07-.29-.24-.59-.57-.4-.17.1-.29.27-.38.45-.11-.33-.28-.64-.5-.91-.06-.08-.17-.05-.21.03-.1.21-.1.43-.06.65-.12-.13-.26-.25-.44-.34-.09-.04-.19.05-.17.14.07.44.32.83.58 1.19v.3c-.02 0-.04 0-.06 0-.1-.07-.2-.13-.3-.17 0-.13 0-.26-.03-.38-.11-.4-.52-.63-.91-.42-.02 0-.03.02-.04.03-.07-.11-.16-.2-.29-.26-.06-.03-.14 0-.17.07-.04.12-.06.26-.07.4-.08-.05-.15-.1-.23-.12-.08-.03-.15 0-.18.08-.12.24-.13.51-.09.77-.12-.05-.25-.09-.38-.11-.09-.01-.16.08-.15.16 0 .08.02.17.04.26-.07 0-.15.02-.22.05-.21.09-.35.22-.42.36-.13-.27-.4-.52-.63-.6-.1-.03-.19.04-.17.14.01.08.03.17.06.25-.13-.12-.27-.24-.44-.33-.09-.05-.19.05-.18.14.02.13.06.24.1.35-.1-.03-.2-.04-.32-.04-.09 0-.14.12-.1.19.02.04.04.07.06.11-.1.06-.08.21 0 .28-.07.02-.14.05-.21.09-.05.03-.07.12-.04.17.02.03.04.06.06.08v.06c.03.12.07.22.13.32-.05-.02-.11-.03-.16-.04-.07-.01-.12.03-.15.08-.25-.13-.5-.19-.73-.03-.02-.14-.06-.27-.13-.4-.04-.07-.14-.11-.21-.05-.15.13-.29.33-.42.54-.06-.08-.16-.14-.27-.15-.05-.16-.12-.31-.21-.44-.07-.1-.23-.04-.24.07-.01.18 0 .37.01.55-.05.06-.08.13-.11.2-.17-.32-.4-.55-.72-.39s-.34.48-.24.84c-.21-.13-.43-.14-.65.07-.26.24-.14.64.1.97-.02.02-.04.04-.06.06-.17.23.03.53.27.79-.12 0-.25.02-.39.07-.06.02-.11.12-.07.18.13.22.3.42.47.61-.05 0-.1 0-.15.02-.23-.3-.52-.51-.79-.35-.3.18-.25.47-.08.75-.09 0-.19 0-.29 0-.08.01-.15.11-.11.19.17.28.42.49.61.75 0 0-.01 0-.02 0-.35-.44-1.1-.67-1.59-.66-.12 0-.16.17-.1.25.1.14.22.28.33.42-.15 0-.3.01-.45.06-.07.02-.12.14-.08.2.2.34.49.58.8.79-.22.02-.44.08-.66.19-.08.05-.13.16-.06.24.12.14.27.24.42.32v.04c-.27.09-.49.25-.58.56-.03.08 0 .19.1.22.04.01.09.02.14.04-.04.04-.09.07-.13.11-.07.08-.08.19 0 .26.2.16.42.23.65.23 0 0 0 .01.01.02.01 0 .03.01.04.02.06.3.22.59.44.83-.19-.02-.37-.03-.54-.02-.12 0-.14.15-.09.23.15.24.37.44.6.62-.02.01-.03.02-.05.03-.2.04-.39.11-.55.27-.06.06-.09.15-.02.22.23.26.6.39.97.4-.04.05-.08.1-.11.16-.03.07 0 .15.06.2.19.14.4.21.62.23-.13.14-.16.32-.01.51.26.34.69.3 1.13.15-.23.26-.34.54-.14.77.53.63 1.34-.32 1.83-.83.05-.02.1-.04.15-.06-.12.21-.24.43-.35.65-.08.15.12.25.24.18-.01.22.04.41.22.5.31.15.53.01.69-.23.12.22.33.35.67.24.27-.08.48-.24.64-.45.07.25.17.49.32.7.04.06.15.07.21.02.22-.19.28-.46.25-.73.12.18.28.36.49.37.27.02.33-.24.29-.45.16.11.32.2.5.3.67.35 1.27.71 1.59 1.42.31.67.44 1.39.53 2.12.11.92-.06 1.81-.09 2.72-.03.81.15 1.57.28 2.37.14.81.29 1.66-.03 2.44-.32.79-.99 1.48-1.69 1.96-.03.02-.06.04-.09.06-.03-.04-.07-.08-.12-.11-.04-.03-.08 0-.1.03-.06-.04-.14-.03-.16.05 0 .03 0 .07-.01.11-.02-.09-.06-.18-.14-.24-.08-.07-.24-.09-.28.03v.07c-.02.02-.03.05-.03.08v.04c-.05-.05-.1-.09-.17-.11 0-.01-.02-.02-.03-.03-.01-.02-.03-.04-.06-.05-.02-.02-.04-.04-.07-.06-.08-.04-.15.05-.1.12 0 .01 0 .02-.01.03-.08-.1-.16-.23-.29-.23-.06 0-.12.06-.12.13 0 .06.03.1.06.13-.08-.1-.17-.18-.29-.23-.08-.03-.14.05-.08.12.17.2.33.35.43.58-.03 0-.06.02-.08.05-.08-.26-.22-.48-.47-.48-.08 0-.13.11-.06.16.09.07.19.1.26.21.06.09.11.19.15.3v.02c-.02 0-.04.02-.06.02-.03-.04-.06-.08-.08-.12-.11-.16-.25-.39-.45-.43-.04-.01-.08.02-.09.05-.04 0-.07.03-.08.06-.04-.01-.08-.02-.12-.01s-.05.06-.02.09c.07.07.17.09.23.17.04.05.07.09.1.14v.14c-.08-.14-.18-.25-.31-.31-.11-.12-.25-.25-.39-.28-.05-.01-.1.01-.12.05 0 0-.02 0-.03 0-.04 0-.04.07 0 .08h.02v.04c.02.04.04.06.08.1-.06-.04-.12-.05-.2 0-.04.03-.04.1 0 .13-.04-.02-.07-.04-.12-.04-.07 0-.14.07-.1.13-.02 0-.05 0-.08.01-.04.02-.05.07 0 .09.08.05.13.09.18.15-.01.01-.02.03 0 .05.03.04.07.07.1.11v.02c-.07-.05-.13-.09-.16-.11-.02-.04-.04-.07-.07-.1-.1-.09-.28-.2-.41-.12-.05.03-.05.09-.01.13-.03 0-.03.03-.02.05 0 0 0 0-.01 0 0 0-.01 0-.02-.01-.03-.02-.06.03-.04.05 0 0 0 .01.01.01v.04c-.02.02-.03.05 0 .08.05.04.09.06.15.05 0 .02.02.03.03.04.02.04.04.08.05.12-.08-.11-.2-.18-.29-.27-.04-.03-.08.02-.05.05s.06.06.08.1c-.02 0-.04-.01-.05-.02-.04-.01-.06.05-.03.06.08.03.11.08.13.16 0 .04.07.05.09.02 0-.01.01-.02.02-.03.01.02.02.03.03.04.03.04.08.01.1-.03 0 .01 0 .02.01.03.03.05.12.05.14 0 .02-.04.02-.07.01-.11.02.05.02.11-.01.15-.04.05-.02.16.07.15.1-.01.16-.06.18-.13 0 .01.02.03.03.04.02.02.06.02.09.01.01.02.02.03.01.02.01.04.05.08.09.07.12-.02.13-.1.09-.19 0 .01.02.02.03.03.02.03.04.06.06.09.02.04.04.09.05.14 0 .05.06.09.11.06.08-.06.09-.14.05-.21.01 0 .03 0 .04-.02 0 .02 0 .02 0 .01 0 .02.02.05.04.05h.04c0 .02.01.03.03.04.03.04.08.05.12.03.05-.03.07-.07.08-.11.02-.01.03-.04.02-.06 0 0 0-.02-.01-.02 0-.01 0-.02 0-.03.05.05.1.11.17.14.02.01.04 0 .05-.02.01-.05 0-.1 0-.14h.02c.01.01.03.02.05 0 .03.07.05.13.08.19.07.16.32.09.26-.08 0-.04-.02-.07-.03-.11v.02c0 .02.02.02.03.02v.01c.01.02.03.04.05.06 0 .01.01.02 0 .03 0 .02.02.04.04.05.05.04.13.04.15-.02.03-.06.02-.11 0-.17.05.06.1.11.15.16 0 .01-.01.02-.02.03-.03.03.01.07.04.04 0-.01.02-.02.02-.03 0 0 .01.01.02.02.07.07.17 0 .18-.08 0-.03 0-.05-.01-.08.03.02.05.04.07.06.03.05.11.09.15.04.04-.05.02-.12 0-.19.07.06.12.14.21.17.02 0 .04 0 .04-.02.01-.03.01-.07 0-.1.01 0 .02.02.03.02h.08c.02.03.04.06.05.09.03.05.08.04.11 0 .11.09.3.11.42.11.03 0 .04-.02.05-.03.02 0 .03 0 .05.02.05.02.09-.02.09-.07h.02c.08.05.18.07.27.05.03 0 .06.01.09.01.04 0 .06-.05.02-.07-.01 0-.03-.02-.04-.02 0-.02-.02-.03-.04-.03s.01 0 .02-.01c.01-.02.02-.03.04-.05 0 .05.05.09.1.1.03.05.06.1.1.15.06.07.16 0 .12-.08-.02-.04-.04-.08-.07-.13t0 0c.06.06.12.12.19.17.03.02.07-.03.04-.05s-.05-.04-.08-.07c.02 0 .05.02.07.03h.03c.02.05.06.08.12.06.01 0 .03-.02.04-.02.03.04.07.07.1.11s.09 0 .06-.04-.06-.08-.09-.11c.04-.03.08-.07.12-.11v.01c0 .05.05.08.09.08.08.07.16.13.25.18.02.02.05-.02.03-.04 0 0-.02-.02-.02-.03 0 0 0 0 .01.01 0 0 .01.01.02.02.05.02.1 0 .12-.04.03-.03.04-.08 0-.11-.02-.02-.04-.03-.05-.05h.06c0 .05.04.09.09.1.06.02.15.03.25.02 0 .03.03.06.07.07.15.02.28-.02.42-.07.04-.02.09-.03.14-.05v.02c0 .03 0 .07.04.08 0 0-.01.01-.02.02-.04.04-.02.11.04.13.12.03.23-.02.34-.07.1-.04.2-.08.3-.13.03-.02.03-.04.03-.07.02-.01.03-.03.04-.05.1.04.21.04.29-.03.02.02.05.04.09.03.07-.02.11-.02.16-.08l.03-.06v.01c.05.09.16.07.22 0 0 .08.09.15.17.12.02 0 .03-.02.05-.03.03 0 .06 0 .09-.03.01 0 .03 0 .04-.02.02-.02.03-.03.05-.05 0 0 .02-.02.03-.02s.03 0 .04-.01v.02c0 .11.16.12.19.02s.04.03.06.01c.02 0 .03-.02.05-.03-.03.05-.01.1.03.14-.09.01-.17.02-.26.05-.04.01-.03.08.01.08.43-.04.87-.02 1.29-.09.04 0 .04-.06 0-.06-.08.01-.16.01-.24.01.1-.01.2-.02.29-.04v.06c-.03.02-.07.04-.11.07-.03.02 0 .07.03.05.04-.02.08-.04.12-.06.02.01.04.02.07.02.2 0 .42 0 .62-.05.13-.02.26-.03.38-.05.31.04.62.07.94 0 .13-.03.13-.22.01-.27 0-.04 0-.08-.05-.09-.14-.04-.32 0-.47.02.06-.05.04-.14-.04-.14-.06 0-.12.01-.19.03.02-.04.02-.08-.01-.11 0 0-.02-.01-.03-.02 0-.03-.04-.06-.07-.04 0 0-.02 0-.02.01-.03 0-.06 0-.1 0 .02-.04 0-.09-.05-.1 0 0-.02 0-.03 0-.02-.02-.04-.02-.07-.02-.03-.04-.09-.06-.14-.04.03-.04 0-.1-.04-.12-.09-.02-.18-.01-.26.02 0 0-.01 0-.02 0-.02 0-.03 0-.05 0 .03-.03.06-.07.08-.11.04-.09-.03-.17-.13-.15-.05.01-.1.04-.15.08-.01 0-.03 0-.05 0t0 0s-.04-.06-.09-.06c-.1.02-.18.08-.26.15-.04.02-.08.05-.13.07.1-.14.22-.27.31-.42.04-.06-.06-.13-.11-.08-.08.09-.15.18-.21.28 0-.02 0-.05 0-.07.05-.1.11-.2.1-.29 0-.06-.06-.1-.12-.08-.05.02-.08.06-.12.1s-.03-.02-.05-.04c-.03-.11-.11-.27-.21-.27-.03-.06-.07-.11-.13-.13-.04-.01-.08.01-.1.05-.02.05-.02.11-.01.17-.01 0-.02-.01-.03-.02-.12-.12-.27-.22-.43-.32-.35-.22-.59-.55-.77-.92-.36-.75-.43-1.61-.58-2.41-.35-1.85-.38-3.68-.29-5.55.03-.57.07-1.29.41-1.78.02 0 .03-.02.03-.04.12-.16.27-.29.47-.38.07-.03.15-.06.22-.09.02 0 .04-.01.07-.02.05-.02.11-.03.16-.04.03 0 .06-.01.08-.02.05-.01.1-.02.15-.02.03 0 .06 0 .1-.01h.09c.18-.02.35-.02.53-.03.2 0 .4-.02.6-.03h.04c.03 0 .06-.01.1-.01.05 0 .11-.02.16-.02.03 0 .06-.02.1-.02.06-.01.11-.02.17-.04.03 0 .06-.02.09-.02.05-.02.11-.03.16-.05.03-.01.07-.02.1-.04.05-.02.1-.03.14-.05s.09-.04.13-.06c.03-.02.07-.03.1-.05.07-.03.13-.07.2-.1.01 0 .02-.01.03-.02.11-.06.22-.13.33-.2v.01c.15.54.8.15.92-.26h.15c0 .27.03.53.1.79.03.09.15.13.23.09.16-.08.31-.2.43-.34.04.01.08.02.13 0 .15-.06.31-.12.46-.2-.04.24-.03.5.05.75.03.11.19.13.28.07.06-.04.12-.09.18-.14.03.15.1.3.19.42.06.08.17.08.25.03.17-.12.31-.27.43-.43.03.13.08.25.15.36.05.09.18.15.27.07s.15-.17.2-.27c.13.28.32.48.58.43.4-.08.42-.46.36-.87.12.21.26.4.45.56.08.07.23.03.26-.07.04-.14.06-.28.05-.41.07.03.14.05.23.06.1.01.18-.07.19-.16.1.01.2-.09.18-.19-.03-.15-.07-.28-.12-.42.13.05.28.09.43.1.15 0 .24-.15.15-.27-.03-.04-.06-.07-.09-.1.05.01.1.02.15.03.14.02.22-.12.18-.25 0-.01-.01-.03-.02-.04.19.08.4.12.63.08.14-.02.19-.18.11-.28-.03-.04-.06-.08-.1-.12.03 0 .05 0 .07.01.19.04.23-.21.12-.31-.2-.18-.41-.34-.64-.49.15 0 .31-.01.47-.08.08-.03.14-.15.09-.23 0-.01-.01-.02-.02-.02 0-.04 0-.07 0-.11 0-.05-.02-.09-.04-.13.05-.02.1-.04.15-.07.09-.05.15-.18.07-.27-.04-.04-.08-.07-.12-.1.24-.09.39-.26.3-.55-.03-.09-.08-.15-.14-.18-.01-.02-.02-.05-.03-.07.07.02.14.05.21.06.15.03.23-.17.15-.27-.12-.16-.25-.3-.4-.44 0 0 0-.01.01-.02.18 0 .36-.01.55-.07.13-.04.12-.21.03-.28-.1-.09-.21-.17-.33-.25.18-.06.35-.14.51-.26.09-.07.09-.22 0-.28zm-14.72 18.94s-.03-.05-.06-.06c.03 0 .06-.02.09-.02s.03-.03.02-.05c.02 0 .04-.01.07-.01.11-.01.23 0 .34-.02 0 .01-.01.02-.01.04 0 .04.01.08.03.11-.04-.03-.09-.05-.13-.08-.08-.06-.19.03-.13.11-.04 0-.07 0-.11 0-.03 0-.07 0-.1 0zm6.31-23.34c0 .12.02.24.06.36.02.08.1.14.19.1.06-.02.11-.05.16-.08 0 .15.04.29.1.43-.05.05-.09.11-.12.17-.04-.14-.14-.24-.32-.3-.19-.06-.37.02-.53.15.08-.23-.05-.51-.25-.74.03.01.06.02.1.03.16.02.29-.02.4-.09.08.04.16.02.22-.02zm-.04 2.25s0-.02.01-.02v.02s0 0-.01 0zm.35-.68s.03.01.05.02c.13.01.27 0 .4 0 0 .03 0 .07.03.1.11.12.23.19.35.23.06.2.19.28.4.11.02-.01.02-.03.03-.04h.16c-.19.06-.36.13-.53.27-.1.08-.06.2.04.26.03.01.05.02.08.04-.07 0-.13.04-.13.12v.08c-.05-.23-.28-.4-.5-.46-.07-.02-.14-.03-.22-.04-.08-.1-.17-.17-.31-.18-.03 0-.06 0-.09.02.05-.08.09-.17.12-.25.05-.09.09-.18.13-.27zm-2.01-1.43c-.07.01-.13.04-.18.07 0 0 .01-.01.02-.02.05-.06.1-.11.15-.17v.03.08zm-.79-.38c-.01-.08-.04-.15-.08-.21.05-.02.09-.05.12-.08.03.06.07.11.11.16-.06.03-.11.07-.15.13zm-.76-.5c.04.06.08.11.12.15-.19.05-.31.14-.4.26 0-.02-.01-.03-.02-.04-.12-.13-.26-.17-.42-.18 0-.02.02-.04.02-.06.02-.07.01-.14 0-.2.02 0 .05 0 .07-.01.21.07.42.1.63.07zm-2.92 7.35s0-.02 0-.02v.03zm4.11-6.2s0-.01 0-.02c0-.03.01-.06.02-.09.03-.16-.16-.21-.27-.14-.03-.01-.06-.02-.09-.03-.03 0-.05 0-.07.01 0-.05 0-.11 0-.16.09.11.24.13.38.1-.04.11.09.18.19.14-.06.05-.11.11-.15.19zm.07 5.91s.02 0 .03 0c.12.11.24.22.37.33-.16.03-.31.09-.45.19.01-.01.03-.02.03-.04.08-.17.07-.33.02-.48zm.75.57s0 0 0 0c-.17.08-.36.18-.54.15.16-.11.35-.15.54-.15zm.06-5.72s0-.02 0-.02c.02-.01.04-.02.06-.03h.02c-.03.02-.05.04-.08.05zm-8.32 7.12c.06.1.14.19.23.27.06.05.16.03.2-.03.07-.11.11-.23.13-.35.17.19.38.33.61.36.04.15.07.3.11.45.02.08.05.17.08.25-.09-.08-.19-.14-.29-.21-.09-.06-.18-.11-.27-.16-.32-.17-.65-.31-.96-.47 0 0 0-.02.01-.02.05-.02.1-.05.15-.1zm3.82 1.37c-.16-.26-.19-.66-.23-.94-.05-.35-.05-.66 0-.99.04.02.08.03.12 0 .13-.06.25-.15.35-.25.15.27.39.49.66.61 0 .02-.02.05-.03.08-.03.1-.06.19-.08.29-.19.46-.39.98-.8 1.2zm4.94-.37c-.56.19-1.08.69-1.68.76-.02 0-.04 0-.05 0-.62.04-1.23-.03-1.85.04-.26.03-.51.09-.71.23 0-.1.01-.2.02-.3 0-.04 0-.08.01-.12.02-.12.04-.23.08-.35.14-.45.35-.89.55-1.32.03.04.06.08.1.11.07.07.18.08.25 0 .19-.24.26-.53.24-.82.03 0 .06-.02.08-.04.15.24.33.45.56.6.07.05.19.05.23-.03.13-.23.14-.47.08-.69.15.06.32.08.49.04.08-.02.14-.08.12-.17-.05-.25-.17-.49-.33-.7 0 0 0-.02 0-.03.06.01.11.01.17 0 .02.13.06.25.15.35.04.04.1.05.15.02-.05.04-.1.08-.14.13-.05.05-.04.15 0 .2.22.24.74.27 1.05.08.07.08.16.15.27.2-.08.02-.16.04-.24.07-.25.08-.44.22-.5.48-.02.08.06.16.14.17.1.01.26.01.38-.03.02.03.05.06.08.09-.19.09-.41.2-.5.39-.11.23.09.52.34.53.13 0 .24-.06.31-.16.13.08.32.1.52.08-.03.04-.06.08-.1.12-.1.03-.19.06-.29.1zm-7.65-1.68c-.04-.09-.08-.17-.12-.26v-.04s.01 0 .02 0c.22.28.48.52.71.36.08-.06.13-.13.16-.21.14.17.29.32.44.43.07.06.18.02.22-.06.15-.35-.03-.75-.3-1.1.04-.16.03-.34-.02-.51.16-.02.33-.09.47-.2.03.19.07.39.13.59.02.07.09.14.17.12.01 0 .03-.01.04-.02-.02.4-.03.79-.06 1.18-.03.59-.07 1.19-.15 1.78-.04.31-.12.63-.16.94-.02-.03-.04-.07-.06-.1-.02-.03-.04-.06-.06-.09s-.05-.07-.07-.1c-.03-.05-.07-.09-.1-.14-.07-.09-.14-.18-.21-.27 0 0-.01-.02-.02-.02-.06-.08-.11-.16-.17-.25-.21-.35-.39-.73-.52-1.12.02 0 .03 0 .05-.01.07-.02.09-.1.09-.16-.01-.32-.23-.57-.48-.76zm2.92 15.54c-.05-.02-.11-.04-.16-.05-.05 0-.08.03-.09.07s-.03-.04-.06-.04c.01-.02.02-.04.02-.06l.21-.03c.03.03.07.05.11.07-.01 0-.02.02-.03.03zm-5.65.12s0 .01 0 .02c0-.02-.02-.04-.03-.05.01.01.03.02.04.03zm17.33-17.05s-.03-.05-.04-.08h.12c.04 0 .07.02.1.02.03.02.05.04.08.06-.09 0-.17 0-.26 0zm-15.8 16.22s0 .04 0 .05c0-.04-.02-.07-.03-.11.01.02.02.04.03.05zm-2.02.44s0 0 0 0c-.02 0-.04 0-.05.02-.02-.04-.05-.09-.09-.13.04.04.09.07.14.1zm-.36.31s.06.08.09.12c-.02 0-.05 0-.07-.01-.02-.05-.03-.1-.06-.14.01.01.02.02.03.03zm7.05-.04s.09.09.13.14c-.05-.05-.09-.09-.13-.14zm.25.25s.02-.02.02-.03c0 0 0 .01.01.02 0 .02.01.04.02.06-.02-.02-.04-.04-.06-.05zm3.08.03s.05-.04.07-.06c-.01.01-.03.03-.03.05-.01 0-.03 0-.04.01zm.12-.11s0 0-.01.01zm6.32-13.42c.08.08.17.16.25.23.02.07.03.14.03.22-.1-.14-.19-.29-.28-.45z"/></svg>