<svg viewBox="0 0 18.86 32.26" xmlns="http://www.w3.org/2000/svg"><path d="m18.06 11.64c.22-.11.42-.4.32-.65-.04-.1-.1-.18-.18-.23.02-.1 0-.21-.04-.3.01-.02.02-.04.03-.06.03-.11-.02-.25-.12-.3-.04-.02-.07-.03-.11-.04-.08-.07-.2-.07-.26.02-.05-.02-.11-.03-.17-.03-.03 0-.07 0-.1 0 0-.02 0-.04 0-.07 0 0 .01-.02.01-.03v-.04c.03-.09-.01-.17-.09-.21-.06-.12-.15-.23-.27-.32 0-.06-.02-.12-.08-.15-.09-.04-.17-.06-.26-.07 0-.02.01-.04.02-.06 0-.04.01-.08.02-.11.14-.02.27-.07.4-.15.16-.11.25-.28.2-.48 0 0 0-.01 0-.02.04-.01.09-.03.13-.05 0 0 0 0 .01.01.06.06.12.09.19.11.06.04.12.08.19.11.25.1.58-.02.71-.26.02-.03.02-.06.04-.08.06-.06.11-.12.17-.19.12-.17.07-.43-.08-.57-.09-.08-.19-.13-.31-.13-.05-.06-.11-.11-.19-.14.05-.08.06-.19.03-.28 0-.02 0-.04-.01-.06-.02-.08-.06-.14-.12-.2 0 0-.02-.01-.02-.02-.01-.08-.03-.15-.07-.23.12-.04.22-.09.32-.17.12-.09.17-.26.18-.4 0-.16-.07-.28-.17-.41 0-.01-.02-.02-.03-.03-.06-.08-.14-.15-.23-.19-.11-.05-.22-.06-.33-.05-.11-.06-.23-.06-.34 0s.02-.02.03-.02c-.02 0-.04 0-.05.01-.05.01-.09.02-.14.04-.04.01-.08.02-.12.03h-.01c-.02-.01-.04-.02-.06-.03-.04-.02-.09-.04-.14-.06-.01 0-.02 0-.03-.01.1.04.08.03-.06-.02-.05-.02-.1-.04-.15-.05-.02 0-.04 0-.06 0 .12-.04.22-.15.22-.29 0-.12-.08-.22-.18-.27 0-.04.01-.07.01-.11 0-.05 0-.09-.02-.13 0-.02.02-.04.03-.06-.05.12.01-.03.03-.07.06-.14-.06-.28-.19-.32-.03 0-.07-.02-.1-.03-.03 0-.05-.01-.08-.01-.04-.01-.08-.02-.12-.01-.05 0-.1.01-.15.02.18-.2.17-.54-.06-.7-.02-.02-.05-.05-.09-.07.03.02.06.05.1.07-.02-.02-.04-.03-.06-.05-.16-.15-.42-.15-.57 0-.03.03-.06.06-.09.1 0 0-.01 0-.02 0 0-.14-.05-.28-.13-.4-.21-.31-.53-.45-.89-.49-.27-.03-.57.06-.75.27 0 0-.02 0-.03-.01 0-.01.02-.02.03-.03.07-.09.08-.21.06-.33.02-.08.02-.15 0-.23-.05-.18-.25-.35-.45-.33-.09 0-.17.01-.26.02s-.05-.06-.07-.08c.01-.01.03-.02.04-.03.07-.05.14-.18.15-.27 0-.03.02-.11.02-.16 0-.12-.02-.14-.07-.25-.05-.1-.17-.18-.27-.2-.07-.02-.15-.02-.22 0-.02 0-.05 0-.07 0 0-.21-.14-.41-.37-.46-.15-.03-.29-.02-.43.04-.09-.08-.21-.11-.33-.09-.14.03-.26.14-.3.28-.04.13 0 .27.1.36-.03 0-.05.02-.07.02-.03-.1-.1-.2-.22-.23-.36-.09-.78.02-.89.4-.01.05-.02.1-.02.15-.22-.19-.48-.34-.79-.32-.04 0-.07 0-.11.01-.01-.1-.07-.19-.16-.24-.04-.02-.08-.05-.12-.06-.04-.02-.08-.03-.12-.05t0 0c-.1-.03-.2-.04-.3-.01-.16.05-.28.17-.32.31h-.01c-.09-.04-.16-.05-.24-.05-.08-.05-.19-.05-.28 0-.07.04-.12.12-.12.2v.02c-.08.16-.07.37.03.53.02.04.05.08.08.11-.02 0-.03 0-.05 0-.17 0-.33.05-.48.14-.06.03-.12.08-.17.12-.01-.01-.03-.02-.04-.03-.11-.06-.22-.06-.34-.04-.14.02-.28.07-.41.14-.16.07-.26.27-.26.43 0 .1.03.19.08.27 0 .03-.01.06-.01.08v.01s-.01 0-.02 0c-.25 0-.49.07-.72.15-.18.07-.32.18-.38.36-.06.23.04.48.25.59.01 0 .02.01.03.02-.02.09 0 .19.07.26.03.03.07.05.1.06 0 0 0 0-.01 0-.02-.01-.04-.02-.07-.02-.04-.02-.07-.04-.11-.05-.22-.05-.41.07-.55.22-.08.08-.11.19-.08.31s.17.25.31.23c.06 0 .12-.02.18-.04v.04c-.04 0-.09.02-.13.03-.32.12-.47.39-.51.71-.03.24.11.5.32.64-.11.09-.19.21-.25.34-.2-.05-.41-.07-.61-.08-.45-.03-.79.14-1.05.49-.18.24-.12.56.04.79-.23-.01-.47.14-.54.38-.05.19.03.4.21.5.04.02.08.04.13.05.12.04.31 0 .4-.1 0 0 .01-.01.02-.02.07-.06.11-.15.12-.24.03-.04.05-.08.06-.13.01-.03.01-.07.01-.1.03.02.06.03.08.04-.08.18-.06.43.1.55.09.07.16.11.26.15.09.03.22.02.3 0 .06-.02.11-.05.17-.08.13-.03.24-.11.3-.22.03.03.06.05.1.07-.05.05-.09.11-.12.18-.06.03-.11.07-.16.11-.05.03-.09.06-.14.1-.1.09-.16.2-.19.32-.04 0-.08 0-.13.02-.09.02-.17.05-.24.1-.35-.08-.75-.02-1.04.16-.06-.04-.12-.07-.19-.1-.21-.07-.45 0-.64.1-.29.1-.55.31-.66.58s-.02.52.16.69c0 .01-.01.02-.02.03-.05 0-.11 0-.16.02 0 0-.01 0-.02 0-.07-.01-.13-.02-.2 0-.12.02-.15.02-.27.07-.09.04-.14.11-.2.19s-.1.22-.09.32c.02.13.02.15.08.27.04.08.12.15.2.2.15.09.32.1.48.07.11-.02.25-.09.33-.17.03.02.06.04.09.05-.03.04-.06.09-.08.13-.1.21-.08.54.18.65.23.1.41.12.65.08.04.05.1.1.16.13.23.13.52.1.73-.05.26-.18.44-.48.44-.77.17-.05.32-.14.46-.26.05-.05.1-.11.14-.17.12.08.27.11.44.08.31-.06.7-.24.83-.53.06-.12.07-.24.07-.36.1.06.2.1.31.12.24.04.46 0 .67-.1h.05c.11-.02.2-.1.26-.19v.01c.17.23.42.37.71.37.24 0 .51-.11.67-.29.18-.21.29-.49.27-.77-.01-.16-.04-.26-.11-.41-.02-.05-.05-.08-.08-.12 0 0 0-.01 0-.02.96.56 1.07 1.62 1.14 2.72 0 .12.01.23.01.34-.01.16-.03.32-.04.48-.04-.17-.16-.29-.35-.37-.2-.08-.43-.11-.64-.07-.04-.12-.1-.23-.19-.33-.26-.28-.68-.32-1.04-.27-.29.04-.5.28-.53.55v.1c0 .02-.02.04-.02.06-.02.05-.03.11-.03.17-.04 0-.08.01-.13.03-.12.04-.2.09-.3.17-.09.07-.13.16-.17.26-.01-.02-.03-.03-.05-.04-.19-.13-.37-.2-.61-.17-.27.04-.49.3-.56.55-.04.16 0 .35.13.47s.27.2.43.23c-.04.07-.06.15-.08.23-.03 0-.06 0-.08 0-.09.02-.18.03-.27.05-.18.05-.3.17-.41.31-.08.1-.08.23-.04.35 0 0-.01 0-.02.01-.12-.04-.27-.04-.38.03-.1.07-.17.14-.2.26-.04.14 0 .31.11.42.14.13.33.15.49.09.04.02.08.02.12.03.17.02.35-.03.46-.16.06.12.13.2.26.25h.01c-.04.04-.07.1-.06.15.02.19.19.26.36.22.1-.02.18-.11.23-.19.02-.01.03-.02.04-.04.01.02.03.04.05.06.17.16.43.21.65.13.11-.04.2-.1.28-.17.24.11.54.12.78-.02.14-.08.24-.2.3-.32.14.03.29.01.41-.06.11-.07.2-.18.22-.3.02-.09 0-.17-.01-.27-.02-.1-.12-.18-.21-.2-.07-.02-.14-.02-.21-.02 0 0 0 0-.01 0-.07-.05-.18-.07-.25-.04-.01 0-.03.01-.04.02-.02-.02-.04-.04-.05-.06.03-.06.05-.12.06-.19.04-.01.07-.03.11-.05.03.02.06.03.08.05.1.13.24.23.4.27.17.12.33.25.47.4.43.44.53 1.07.62 1.65.02.14.04.28.05.43-.07-.17-.29-.21-.41-.08-.04 0-.08 0-.12 0 0 0 0 0 0-.01.07-.08.1-.18.07-.29-.03-.1-.12-.21-.23-.22-.02 0-.04 0-.07 0-.11-.04-.22-.05-.33 0-.04-.05-.09-.1-.15-.12s0 0 0 0c-.04-.04-.08-.07-.13-.1-.11-.07-.25-.07-.36-.02-.04-.03-.09-.06-.14-.08.06.02-.03-.02-.03-.02-.05-.03-.11-.05-.16-.07.13.05-.04-.02-.09-.04-.04-.02-.08-.03-.11-.04-.15-.05-.34 0-.45.11-.04.04-.07.08-.09.12-.04.04-.08.1-.1.17 0 .03-.01.06-.01.09 0 0-.02 0-.03 0-.07-.06-.17-.07-.26-.02-.06.03-.11.07-.15.11-.02 0-.03.02-.05.02-.07-.02-.14-.03-.22-.04-.17-.02-.31.06-.43.16-.05.04-.08.09-.11.15-.06.04-.1.09-.13.16v.06c-.06 0-.13 0-.19.02-.19.05-.32.21-.32.4v.02c-.01.05 0 .11.04.16-.1.07-.15.18-.15.29-.04 0-.07 0-.11 0-.02 0-.03 0-.05 0h.05s-.03 0-.05 0c-.06 0-.11 0-.17.02 0-.01-.02-.02-.02-.03 0 0 0 0 0-.01.01-.07-.07-.12-.13-.12 0 0-.01 0-.02 0-.06-.03-.12-.05-.19-.05-.13.02-.24.07-.29.21-.06.19.09.36.27.41.04.01.08.01.12 0 0 .07.02.14.06.21.03.05.07.1.13.14.02.07.08.13.17.13.04 0 .06 0 .09-.02.02 0 .05.01.08.01.14 0 .27-.03.39-.09.05-.02.09-.06.12-.1 0 .23.11.46.3.61.02.07.04.15.06.22.08.33.57.48.83.26.05.14.16.25.32.3.33.11.72-.03.91-.29.17.05.35.06.52 0 .11-.04.19-.09.27-.15.6.61.72 1.74.82 2.5v2.01s0 0 0-.02c-.01.22-.02.43-.03.65 0-.09-.02-.18-.03-.26 0-.04 0 1.14 0 1.18v.3.32c-.04.85-.2 1.75-.41 2.54-.14.52-.35 1.02-.69 1.43-.04.05-.09.1-.14.14-.21.16-.44.27-.72.3-.06 0-.06.08 0 .08h.14c-.21.09-.43.16-.67.22-.01 0 0 .02 0 .02.18.01.36-.01.52-.05h.03.03s.02.02.03.02.02 0 .03.02h.03s.02.03.03.03.02.01.03.02c.02.02.04.03.05.05.01.01.02.03.03.04-.01.01-.03.02-.05.03 0 0-.02 0-.03-.01-.01 0-.02-.01-.04-.01h-.04s-.04-.02-.04-.02c-.01 0-.03 0-.04 0s-.03 0-.04 0c-.03 0-.05 0-.08 0-.05 0-.1.01-.15.02s0 0 0 0h.06s.04 0 .06 0h.03s.02 0 .03 0c.02 0 .04 0 .06.01.02 0 .04.01.06.02s.04.02.06.03c-.18.1-.38.17-.59.17-.06 0-.07.09-.01.1.09.02.18.02.27.02 0 .02.01.05.03.06.49.43 1.55.15 2.07-.09 0 0 .02 0 .02-.01-.03.06.04.11.09.07.11-.09.21-.19.3-.3.16-.11.32-.25.47-.4.03.17.06.35.1.52.06.26.45.19.46-.06 0-.14 0-.28.01-.43l.06.06c.08.17.17.32.28.46.06.09.21.04.18-.08 0-.03-.02-.07-.03-.1.01.01.03.02.04.01.07.03.15.06.24.08.08.09.15.19.24.27.16.16.4.16.58.07.1.02.19.04.29.04.07.04.14.08.22.1.21.08.15-.01.07-.1.2-.01.41-.06.62-.13.03-.01.05-.03.07-.05.1.01.21.02.32.01.08 0 .1-.09.06-.13.1-.02.19-.04.29-.09.02 0 0-.03 0-.03-.53-.03-.93-.07-1.38-.37-.31-.21-.55-.5-.76-.8-.2-.44-.41-.88-.55-1.35-.29-.96-.43-1.96-.51-2.96-.01-.11-.01-.23-.02-.34.02.01.05 0 .05-.02-.12-1.28.01-2.56.05-3.84.03-1.32 0-2.64 0-3.95 0-.42-.02-.83-.04-1.25 0-.7-.01-1.39-.06-2.08 0-.14 0-.29 0-.43.01-.56.16-1.05.54-1.47.14-.15.29-.29.44-.43.24-.15.51-.28.77-.4.14.08.3.13.46.14.07 0 .14 0 .2-.01-.04.08-.07.17-.07.25 0 .24.16.39.37.47.15.06.37.07.52.02.08-.03.16-.07.24-.1.04-.03.09-.06.13-.1-.12.09-.02.02 0 0 .17-.11.26-.29.22-.48.05-.02.11-.04.15-.07-.21.26-.21.66.02.91.35.39.99.07 1.28-.23.2-.2.27-.45.24-.69.02.01.05.02.07.03.04.04.09.07.16.07.02 0 .04 0 .06-.01.13.02.27.01.41-.02.12-.03.26-.1.35-.18.12-.12.18-.27.18-.43.07.08.17.14.29.16.19.04.36 0 .53-.08zm-16.44-.71s0 0-.01-.01c-.04 0-.07-.01-.08-.05-.02-.06.01-.12.07-.12.05 0 .1.04.13.07.07.07-.04.17-.11.11zm.89-.43s-.06.1-.1.13c-.05.05-.11.06-.18.07-.06 0-.1-.07-.07-.11.03-.05.07-.1.11-.14.03-.03.07-.02.09 0 0-.01.02-.02.03-.04.07-.07.18.04.11.11zm.28.75s-.08.02-.12 0-.07-.07-.05-.11c.04-.07.1-.07.17-.06.05 0 .08.05.07.09 0 .04-.02.08-.07.09zm.59-.62c-.04.1-.13.2-.25.19-.1 0-.19-.06-.21-.16-.01-.08.03-.15.08-.2-.01-.04 0-.08.05-.09.09-.02.19-.02.26.04.04.03.09.06.09.11 0 .04-.01.07-.03.11zm3.47 20.76c.1-.03.19-.07.28-.11l.02.03s.01.01.01.02v.02s.03.03.03.05l.02.05s0 .02 0 .03c-.02.01-.04.03-.05.04 0 0-.01-.01-.02-.02-.01 0-.02-.02-.03-.02-.02-.02-.04-.03-.07-.04-.02-.01-.05-.02-.07-.03-.03 0-.05-.02-.08-.02-.02 0-.04 0-.05 0zm.39.07s0-.01 0-.02l-.02-.05s-.02-.03-.02-.05v-.02s-.02 0-.02-.01l.02.02s.02.02.03.04c.01.01.02.03.03.04 0 .01.01.02.01.03s-.02.02-.03.03zm.43-.44c-.07.08-.14.16-.21.24v-.07s-.03.04-.03.04l-.03.04s-.01.03-.02.04c0 0 0 .02-.01.02-.03.02-.05.05-.08.07 0 0 0-.02-.01-.02 0-.02-.02-.03-.03-.04-.01-.02-.02-.03-.04-.04l-.02-.02s-.01-.01-.02-.02c0 0-.01 0-.02 0 .07-.04.15-.08.22-.13.1-.03.2-.07.29-.12zm-.02-12.96s0-.02-.01-.04.02 0 .04 0h.04c-.02.02-.04.03-.06.04zm-.22-.17s.02.03.03.05c-.02 0-.03 0-.05-.01 0-.01.01-.02.02-.03zm-.12.95s.06-.08.07-.12c0 0 .02-.01.02-.02.02 0 .04.01.06.01.03 0 .06 0 .08-.01 0 0 0 .02-.01.02-.02.03-.01.07-.03.1-.02.04-.04.06-.08.08-.02.02-.06.02-.08 0s-.05-.02-.08-.02c.01-.01.03-.02.04-.04zm.87.35s.01 0 .02 0c.03 0 .06 0 .08-.02-.02.06-.03.11-.02.17-.02-.05-.05-.11-.08-.15zm.85 2.91c0 .06-.01.12-.02.18 0-.07.01-.13.01-.2v.02zm-.74-2.6s.02.04.03.06c.03.06.08.11.15.15-.06-.03-.12-.06-.19-.09 0-.04.01-.08.01-.12zm-1.32-13.25s0 0 0 0zm7.28 4.04s-.03-.06-.04-.08-.02-.03-.04-.05c0-.02.01-.04.03-.05.04-.03.12-.01.12.06 0 .06-.02.1-.08.12zm-2.4-1.88c-.12.02-.29 0-.29-.15 0-.06.05-.08.09-.07.03 0 .07 0 .08.03h.02c.02 0 .03.01.05.02.03.01.05.02.07.04.04.03.02.12-.03.13zm-6.84-1.98s.15-.07.17-.07c.03 0 .06-.02.07-.04.06.07.13.13.21.18-.16-.03-.31-.06-.45-.08zm7.05-4.3s0 0 0 0h-.01s0 0-.01-.01h.02zm3.93 4.88s.04-.03.06-.04c.02-.03.05-.04.08-.03.02 0 .05 0 .08.02.06.06.09.15.06.23-.01.03-.04.06-.08.06h-.19s-.08-.03-.08-.08c0-.06.01-.12.06-.16zm-2.94.94s0 .05 0 .08c-.04.13-.24.31-.39.21-.09-.06-.11-.17-.08-.26 0-.01 0-.02.01-.03 0-.01 0-.02.01-.03.1-.15.29-.15.46-.11.08.02.06.13 0 .15zm.57-1.52c-.05-.12.01-.21.15-.22.1 0 .1.14 0 .15 0 0 0 0-.01 0s0 .08-.04.11c-.03-.02-.06-.03-.1-.04zm1.63-.61c.08-.04.16-.08.23-.13.02 0 .03.02.05.02-.03.05-.06.1-.07.16-.07-.02-.13-.04-.2-.05zm-2.96-.53s.05.07.08.1c-.02.01-.03.02-.05.03 0-.04-.01-.09-.03-.13zm-4.6 2.53c.02-.07.05-.13.12-.16.05-.03.11-.03.17-.04.05-.02.09.02.09.06.02 0 .04 0 .06.01.06.02.08.11.02.14s-.12.07-.18.08c-.07.01-.13.01-.2.01-.05 0-.09-.05-.07-.1zm1.14 1.46c.05.05.09.1.14.15-.05-.05-.11-.09-.17-.14.01 0 .02 0 .03-.01zm.61.71c-.03-.05-.06-.1-.1-.15-.06-.09-.14-.18-.22-.26-.07-.11-.16-.21-.27-.3.09-.05.16-.11.23-.19.14-.18.21-.37.21-.58.11-.02.21-.06.29-.12.03-.02.05-.04.08-.06-.07.56-.15 1.11-.21 1.67zm.5-.41s0-.08 0-.11c0-.02 0-.02-.02-.03 0-.29-.01-.58-.02-.88.02-.24.04-.48.07-.72 0 0 0 0 0-.01.02 0 .04.02.06.02.06.02.11.02.17.03 0 .08.04.15.11.19-.13.51-.26 1.01-.38 1.52zm.19 2.38s0-.02 0-.02v.04s0 0 0-.01zm.93-3.1h.08c.1 0 .1.15 0 .15h-.08c-.1 0-.1-.15 0-.15zm1.44 2.04h-.11c-.1 0-.1-.15 0-.15h.26c.06 0 .08.05.07.1 0 .03-.02.06-.05.08-.02.01-.04 0-.06.02-.04.03-.09 0-.11-.04zm-3.46 3.36s0-.02-.01-.03h.01v.04zm.01.34c0 .19.02.39.05.6 0 .01.02.04.04.07v.1c-.12-.15-.26-.29-.39-.42.14-.07.24-.19.3-.34zm-2.23-.87s0 0 0-.02c.02.02.05.02.07.03-.02.01-.04.02-.06.03 0-.02-.01-.04-.02-.05zm3.45-.88c-.02-.14-.04-.29-.07-.43.13-.87.21-1.75.31-2.62.04 0 .07.01.11.01.14 0 .26-.04.38-.11.16-.1.29-.23.38-.38.07.03.13.06.2.08.09.1.22.15.36.16-.04.02-.08.04-.11.07-.2.15-.33.36-.35.59-.25-.05-.47.05-.57.29-.03.07-.01.14.03.2 0 .01-.02.02-.02.03-.02-.04-.06-.07-.12-.07-.2 0-.2.3 0 .3.02 0 .05 0 .06-.01 0 .25.19.49.48.49.19 0 .38-.05.53-.14 0 .09.02.18.05.27-.71.22-1.25.68-1.64 1.27zm6.17-1.5s-.03.05-.05.05c-.05 0-.09.02-.14 0-.04-.02-.07-.07-.04-.11.02-.03.04-.05.07-.06 0-.08.12-.11.14-.03.02.02.04.04.03.07v.08zm.56-.9s.01 0 .02 0c-.04.04-.06.1-.05.15-.03-.01-.05-.03-.06-.06-.02-.06.04-.1.1-.09zm-.21-2.54c-.06.04-.14.06-.18-.03-.02-.06.04-.14.07-.19.05-.09.18-.01.13.08 0 .01 0 .02-.01.02.03.03.04.09-.01.12zm.49-.83s0 .11-.06.12c.07 0 .11.11.04.14-.1.04-.42.14-.39-.08.02-.17.22-.28.37-.33.09-.03.13.11.05.14zm-11.08-1.98s-.07.09-.12.11c-.07.03-.14 0-.21-.03-.02-.01-.04-.04-.04-.07 0-.05.01-.09.06-.12.01-.01.06-.02.07-.03.04-.06.12-.04.14.02.07-.05.16.05.1.11zm.12 2.24s.12.04.13.04 0 0 0 0c-.01.02-.03.05-.04.07.02-.04-.03.01-.02.01h-.01s-.02 0-.03 0c0-.05-.03-.11-.07-.15h.05zm.22 2.02c-.03.05-.06.11-.07.16-.01-.07-.04-.13-.08-.18.09-.03.18-.06.26-.11-.04.04-.07.08-.11.13zm.2-1.24c-.05.05-.06.13-.1.19-.06.07-.16.07-.24.06-.04 0-.07-.06-.05-.09.02-.05.04-.09.09-.12.02-.02.06-.02.08-.05.02-.04.05-.04.08-.03.01-.02.03-.04.04-.06.07-.07.18.04.11.11zm.1.98c.06-.06.11-.12.15-.18.05.03.1.06.16.09-.11.02-.22.05-.31.09zm.34-2.96s0 .04-.02.06c-.06.07-.11.09-.2.05 0-.01 0-.02.02-.04.02-.05.02-.1.01-.15.02 0 .05-.01.07-.02.07-.03.13.04.11.1zm1.89 6.98s0 .05 0 .08v.36c0 .06 0 .12-.01.17-.01 0-.03-.01-.04-.02-.03-.01-.06-.02-.09-.02 0 0-.02 0-.03 0 0 0-.02 0-.03 0-.02 0-.03 0-.05 0h.02s-.03 0-.05.01c-.05.02-.08.05-.11.09-.02-.02-.05-.03-.07-.04h.01c.25-.12.39-.39.45-.64zm-1.66 0h.05c.1 0 .1.15 0 .15-.02-.05-.07-.08-.12-.1 0-.03.03-.05.07-.05zm-.81-.38s.05-.02.07-.02c.01-.01.02-.02.04-.03.05-.02.1-.04.15-.03.07.01.11.07.14.11.02.02.01.05 0 .08-.1.17-.29.22-.47.16-.03-.01-.06-.04-.06-.07 0-.1.06-.14.13-.2zm-.49.47s.09-.08.15-.11c.08-.05.16.08.08.13.02.04 0 .11-.07.11-.05 0-.1.02-.14-.01s-.05-.08-.02-.12zm-1.27 2.33s.04-.02 0 0c0 0 0 0-.01 0h.01c.01-.01.03-.03.04-.04s0 .02.01.03c-.02 0-.04.01-.06.02zm.35 2.84s-.04-.01-.06-.02c-.01.04-.06.06-.09.06 0-.06 0-.12-.05-.17 0-.01.02-.02.04-.03.06-.03.15 0 .21.01.09.03.05.17-.04.14zm1.87 13.15s-.04-.03-.05-.05c-.01 0-.02-.02-.03-.02s-.02-.01-.03-.02l-.03-.02s-.02 0-.03-.02c0 0 0 0-.01 0h.02c.02 0 .05.01.07.02.03 0 .05.02.07.03s.04.02.07.04c.01 0 .02.02.03.02 0 0 .01 0 .01.01-.02.01-.03.03-.05.04-.01-.02-.02-.03-.04-.04zm-.1.12s-.04-.02-.06-.03c-.02 0-.04-.01-.06-.02-.02 0-.04 0-.06-.01-.01 0-.02 0-.03 0h-.03s-.03 0-.04 0h.07.08.04.04.04s.03.02.03.02c.01 0 .02 0 .04.01h.01c-.02.01-.04.03-.06.04zm1.58-11.89c.06.03.13.05.19.04.13-.02.23-.04.34-.11.04-.03.09-.06.13-.1 0 .28.01.56.05.84-.21-.31-.45-.52-.71-.68zm3.32-7.68s.01 0 .01-.01c.09-.05.18-.09.26-.13 0 0 .01.01.02.01-.1.04-.2.08-.3.13zm1.31-.58c-.06-.02-.08-.06-.08-.12 0-.09.14-.1.15 0 .06.05.01.15-.07.13zm.32-.76c-.03.05-.06.11-.11.15s-.12.04-.18.04c-.04 0-.08-.04-.08-.08 0-.09.05-.14.11-.18 0-.05.06-.1.11-.06.04-.02.06 0 .09.01h.02c.05.02.07.07.05.11zm.36.45s-.02.04-.04.05c-.04.04-.11.03-.16.01-.04-.02-.06-.05-.06-.09 0-.03.02-.05.03-.07 0-.03.04-.06.08-.06.01 0 .06.02.06.01.04-.03.08 0 .1.03s.02.08-.02.11c.02-.01 0 0 0 .02zm2.03-.16c-.11-.03-.07-.14-.08-.21-.02-.09.13-.14.15-.04v.04c.05-.04.14 0 .12.07v.02.03c0 .03-.02.06-.04.08-.04.02-.11.03-.16.02zm.51-.23s-.06-.02-.07-.05c.01 0 .02 0 .03-.01.02 0 .03-.02.04-.03.02-.01.03-.02.04-.04.05.04.03.13-.04.13zm.78.23s-.03.02-.04.02c0 .03 0 .06-.02.08-.04.05-.09.06-.15.07-.05 0-.09-.05-.07-.1 0 .01-.02.02-.03.02-.06.02-.12.02-.18.02s-.1-.07-.07-.11c.02-.03.05-.06.07-.08 0-.05.03-.1.09-.08h.03c.08-.02.16-.02.25.02 0 0 0 0 .01.01.07-.06.18.05.11.11z"/><path d="m4.14 18.35s.01 0 .02 0c0 0-.01 0-.02 0z"/><path d="m8.79 13.73s.02 0 .03-.01c-.08.02-.07.02-.03.01z"/><path d="m17.46 5.09s0 0 0 0c.05-.02.04-.02 0 0z"/></svg>