<svg viewBox="0 0 17.24 32.26" xmlns="http://www.w3.org/2000/svg"><path d="m17.04 11.9c.07-.09.13-.18.16-.29s.03-.23.04-.34c0 0 0 0 0-.01 0-.08-.01-.15-.03-.23 0-.39-.15-.73-.42-1.02-.19-.2-.4-.36-.65-.46h.04c.05.03.11.06.16.09.07.03.15.05.21.08.02.01.06.03.08.02 0-.04-.06-.11-.11-.16.06.03.12.06.17.1.08.05.12.12.18.19 0 .01.02 0 .02 0 .01-.06-.04-.14-.06-.19 0-.02-.02-.04-.03-.06.04.05.08.1.11.15.06.1.09.19.13.29.02-.09.03-.19 0-.29-.02-.1-.07-.18-.11-.27-.03-.06-.07-.11-.11-.16-.16-.29-.4-.5-.73-.62-.19-.07-.4-.11-.6-.1.12-.04.24-.07.36-.11.01 0 .01-.02 0-.02-.05-.04-.14-.05-.22-.05.09-.03.18-.07.28-.09.16-.04.33-.01.49 0 .01 0 .01-.01 0-.02-.05-.08-.14-.11-.23-.13.18-.03.38-.1.54-.04.03 0 .06.02.09.04s.04.03.06.05c.05.04.09.09.12.14s0-.02 0-.03c0-.03-.01-.07-.02-.1 0 0 0-.01 0-.02-.05-.2-.15-.38-.3-.52-.11-.1-.26-.17-.4-.2-.04 0-.07-.01-.11 0-.16-.05-.33-.07-.48-.04-.09.02-.17.04-.26.06-.06.02-.11.05-.16.08.02-.02.04-.03.06-.05 0 0 .01-.04 0-.03-.19.03-.39.13-.55.23-.04.03-.09.06-.14.09 0-.17 0-.35-.02-.52-.01-.14-.03-.29-.06-.44.07.14.12.27.16.43 0 .02.04.03.04 0 .01-.64-.24-1.38-.61-1.9-.05-.07-.11-.14-.17-.21.13.06.26.12.38.2.04.05.08.11.13.13.01 0 .02 0 .03-.02.02-.09.01-.19 0-.28 0-.05 0-.09-.02-.13.05.06.1.11.16.15.13.11.27.23.43.29.05.1.1.2.17.3.08.12.18.22.25.34.02.04.05.1.11.12.05-.07.01-.23 0-.36.06.1.12.21.17.32.07.15.07.31.1.47 0 .02.02.03.04.02.08-.07.08-.25.1-.35 0-.04.01-.09.01-.13.02.11.03.23.02.34 0 .2-.05.39-.09.58v.02c.13-.12.23-.27.29-.44.07-.17.08-.35.1-.53 0 0 0-.01 0-.02 0-.12 0-.24 0-.36.04-.61-.13-1.17-.52-1.67-.36-.47-.82-.83-1.39-1.01-.18-.06-.36-.09-.55-.11.05-.03.11-.06.16-.07.01 0 .02-.03.01-.04-.08-.13-.27-.23-.41-.29-.06-.03-.13-.06-.2-.08.43-.07.84-.11 1.26.09.03.02.03-.03.03-.05-.09-.21-.42-.36-.61-.46-.09-.05-.18-.08-.27-.11.51-.09 1.02-.14 1.5.02v.01h.01c.11.03.21.07.32.1h.01.03s0 0 0 0 .01-.02 0-.03c-.14-.22-.39-.39-.61-.51-.16-.08-.31-.14-.46-.18.31-.05.64-.06.91.11.02.01.03-.01.02-.03-.06-.14-.25-.25-.38-.32-.12-.07-.25-.14-.38-.19.03 0 .05-.01.08-.02.13-.01.26-.02.39 0 .15.02.31.05.46.1.09.03.16.09.25.12 0 0 .01 0 0 0 0 0 .01-.01 0-.02-.36-.6-.92-.99-1.6-1.14-.33-.08-.7-.11-1.04-.06-.31.05-.54.19-.8.33.1-.09.21-.18.26-.3 0-.02 0-.04-.02-.04-.47.1-.88.32-1.26.6-.31.22-.57.48-.77.79.03-.11.07-.23.09-.34 0-.01 0-.03-.01-.04-.02.02-.04.04-.06.06-.12.11-.21.27-.31.41-.13.18-.25.36-.36.54-.19.33-.34.69-.44 1.05 0-.15-.02-.3-.06-.42 0 0 0 0 0-.01-.04.08-.08.16-.13.24-.09.27-.15.55-.19.82 0-.04 0-.07 0-.1-.01-.25-.03-.6-.16-.81 0-.01-.02 0-.02 0 0 .04.02.08.02.12v.1c-.04-.25-.12-.48-.23-.71-.2-.4-.47-.81-.83-1.07-.06-.1-.12-.19-.18-.25-.03-.03-.07 0-.05.03.02.07.04.13.05.19-.18-.27-.51-.44-.79-.6-.3-.17-.68-.33-1.03-.36-.04 0-.02.05 0 .06.04.03.08.05.12.07-.1-.05-.19-.1-.3-.12-.16-.04-.32-.07-.48-.08-.3-.03-.6.03-.88.14v.02c-.06 0-.13 0-.2.02-.26.08-.52.23-.71.43-.26.27-.41.62-.48.99v.03c-.01.06-.02.12-.02.18 0 0 0-.01.01-.02s0 .02-.01.02v.04c.06-.08.13-.18.21-.26.03-.04.07-.07.11-.11.05-.04.1-.07.16-.08.29-.14.67-.03 1 0-.17.04-.33.11-.41.26 0 .01 0 .04.02.04.3-.04.59-.12.89-.07.18.03.35.08.53.13-.15 0-.31.03-.4.11-.02.01 0 .04.01.05.21.05.44.09.65.15-.37.02-.72.11-1.07.27-.58.26-1 .67-1.25 1.23-.07.1-.13.2-.18.31v.01c-.06.17-.14.33-.16.52-.02.18 0 .36.05.52 0 0 0 0 .01-.02.06-.19.11-.37.2-.55.05-.1.11-.2.18-.28-.02.04-.03.08-.05.12-.03.1-.11.26-.08.36 0 .02.03.02.04 0 .1-.13.18-.27.31-.37.1-.08.2-.14.3-.2-.08.1-.19.23-.18.31.05.02.11-.03.15-.05.12-.07.26-.11.38-.17.1-.06.2-.11.29-.18h.07c-.44.22-.81.54-1.12.93-.39.48-.6 1.02-.64 1.6-.26-.18-.53-.33-.85-.4-.01 0-.02.02-.02.03.04.09.12.15.19.22-.19-.1-.36-.21-.58-.24-.25-.05-.52-.02-.77.03-.5.11-.92.39-1.19.83v.02c.07-.02.12-.06.18-.09.11-.04.23-.05.34-.07.1-.01.19 0 .28 0 .02 0 .04 0 .06.01-.1.03-.19.08-.28.14s-.23.13-.28.23c0 .01 0 .03.02.02.2-.13.44-.11.67-.08-.11.03-.22.07-.34.13-.16.08-.35.21-.45.37t0 0s0 .02 0 .02h.08s0 0 0 0h.03c.08-.02.16-.05.24-.07.35-.12.73-.08 1.11 0-.07.02-.14.04-.2.08-.14.07-.38.18-.45.33 0 .01 0 .05.02.04.3-.14.61-.11.93-.06-.05.02-.1.04-.15.06-.1.05-.24.11-.3.21v.03c.15.05.29.18.44.25.18.08.39.12.59.15-.03 0-.06.02-.09.02-.02 0-.02.03 0 .04.19.15.45.19.69.26-.11 0-.22.01-.32.04-.02 0-.02.03 0 .04.07.05.16.09.26.13-.13 0-.27.03-.39.07-.47.15-.94.4-1.23.8-.28.38-.47.93-.47 1.4 0 .02.03.02.03 0 .03-.12.07-.22.12-.31-.02.1-.04.21-.05.32-.02.22-.03.44 0 .66.02.14.04.33.12.45.02.02.04 0 .04-.02 0-.08.01-.16.03-.24v.16c0 .11.02.21.05.32.04.18.11.39.22.54v.02h.01c.01 0 .03-.01.03-.03 0-.11-.03-.23-.04-.35 0-.14 0-.28.02-.42.04-.32.17-.61.32-.9v.17c0 .17.02.33.03.49 0 .07.03.14.08.19.02.02.04 0 .04-.02.02-.22.06-.43.13-.64 0 0 0-.01.01-.02-.01.07-.02.14-.03.22-.02.32.03.68.16.96 0 .02.03 0 .03-.01-.02-.1-.02-.19-.02-.28.02.09.05.17.07.26.06.17.13.34.22.49.06.1.14.24.25.3.02.01.03-.02.02-.04-.02-.06-.04-.12-.06-.19.01.04.03.08.05.12.04.08.09.15.14.22.09.12.22.25.35.33 0 0 0 .01.01.01h.01c.01 0 .02-.02.01-.03-.04-.08-.1-.16-.15-.24-.05-.1-.09-.21-.12-.32-.08-.26-.08-.52-.07-.78.02.04.03.09.05.13.06.13.13.24.19.36.03.05.07.1.12.11.02 0 .03-.02.02-.03-.06-.17-.1-.34-.12-.52 0-.1 0-.2.03-.29.01-.06.03-.12.05-.17.01.04.03.08.05.12 0 .01.02 0 .02 0 .06-.22.11-.42.21-.63 0 .01 0 .02.01.04 0 .04-.02.07-.03.11-.02.14-.04.28-.03.43 0 .12 0 .28.05.39.01.02.03.01.04 0 .01-.03.02-.07.03-.1.01-.06.02-.06 0-.02v.14c0 .15.07.31.12.45.1.3.25.62.47.85.01.02.03 0 .03-.02-.04-.16-.04-.31-.03-.48.01-.14.02 0 .03.06.01.09.03.17.06.26.03.11.07.21.12.3.04.09.08.18.13.27.06.11.12.25.23.33h.01c0-.02 0-.03 0-.04s0 0 0 0c-.02-.21.09-.38.13-.58.02-.13 0-.27 0-.4.11.18.1.48.15.68.05-.07.1-.15.15-.22.1-.23.17-.47.21-.7.02-.14.01-.26 0-.39.02.08.05.17.08.25v.02c.04.12.08.25.13.37s0 0 0 0c.11.3.23.61.36.9.03.07.07.14.1.21 0 .02.02.04.02.06.23.48.49.94.78 1.39v.01c.09.14.18.27.27.41.01.02.02.03.03.04s.03.05.05.07c.23.32.46.65.84.87t0 0c.1.06.21.11.34.15 0 .25-.01.5-.02.74 0 .13 0 .26-.01.4 0 .47-.02.95-.03 1.42v.22c0 .18 0 .36-.01.54 0 .29-.01.58-.02.88v.27c0 .18 0 .36-.01.54 0 .1 0 .3-.01.59v.1.29.17c0 .48-.02 1.07-.03 1.7s0 .04 0 .04v.31.11.5.66c0 .37 0 .74-.01 1.1v.12 1.95.32.02s0 .06 0 .09c.01.49.04.8.07.81.21.08.41.14.62.19-.01-.05-.02-.1-.03-.15.01 0 .02 0 .04.01s0 0 .01 0c.08.02.16.03.25.04.04 0 .07.01.11.02.12.02.23.02.35.02.09 0 .17 0 .26-.02.11-.02.22-.04.33-.08v.15c.25-.08.49-.2.73-.37v-.14s0 0 0 0c-.03-.72-.07-1.45-.1-2.17 0-.06 0-.12 0-.18 0-.19-.02-.38-.03-.58 0-.12-.01-.24-.02-.36-.02-.46-.04-.93-.05-1.39 0-.04 0-.08 0-.13-.01-.33-.03-.66-.04-.99 0-.06 0-.12 0-.19-.02-.42-.03-.84-.04-1.26s0-.08 0-.11c0-.15-.01-.31-.02-.46 0-.21-.01-.42-.02-.62 0-.2-.01-.41-.02-.61t0 0c0-.06 0-.12 0-.18 0-.31-.02-.61-.03-.92 0-.26-.02-.5-.02-.75s0-.02 0-.02c0-.23-.01-.45-.02-.68-.03-1.15-.06-2.31-.09-3.46h.1c.51-.1.78-.43 1.06-.74.08-.09.16-.19.25-.28s0 0 0 0c.31-.37.6-.77.84-1.18.23-.38.43-.77.61-1.18.05.07.1.14.17.19.01 0 .02 0 .02-.02-.04-.12-.05-.23-.05-.35 0-.11.02 0 .03.04.02.07.03.13.06.19.03.08.06.15.11.21.03.07.07.13.11.19.05.08.1.18.19.23h.01c0-.01 0-.02 0-.03t0 0c-.02-.16.05-.29.07-.43.01-.1-.02-.2-.02-.29.09.13.1.35.15.49.04-.06.07-.11.1-.17.06-.17.1-.36.12-.52 0-.12-.01-.23-.04-.34.01.05.06.12.08.17.03.08.06.15.08.23 0 0 0 0 .01.01 0-.01.01-.03.02-.04.03-.23.06-.45.01-.68 0-.06-.03-.11-.04-.16 0 0-.04-.1-.02-.06.07.12.13.24.17.37 0 .01.02 0 .02 0 0-.18.01-.37 0-.56-.01-.14-.07-.3-.14-.44.04.06.08.12.11.17.04.06.07.12.09.19v.08-.04s0 .02.01.03c0-.02-.01-.04-.02-.05 0-.16-.04-.33-.08-.48 0-.01 0-.02-.01-.04v-.04c.06.06.1.12.15.19.01.02.03.04.04.05.04.06.08.12.12.19 0 .01.01 0 .02 0 0-.03.01-.07.01-.1.07.11.14.21.17.34.03.14.03.28.03.43 0 .01.01.03.02.02.04-.02.06-.07.07-.11.02-.11.05-.21.07-.32 0-.04.01-.07.01-.11.07.2.13.4.13.62 0 .09 0 .18-.02.27-.01.08-.05.15-.06.22 0 .01 0 .02.02.02h.01s0 0 0-.02c.08-.09.15-.22.19-.33.02-.07.05-.14.06-.2 0-.04.01-.07.01-.11v.16c0 .01.01.03.03.02.06-.07.1-.2.12-.29.03-.12.05-.24.05-.36v.01c0-.03 0-.06 0-.08 0-.07 0-.14 0-.21.02.07.04.14.05.22 0 .01.02.02.02 0 .05-.31-.03-.68-.17-.96-.01-.02-.03-.05-.05-.07.03.01.06.02.09.04s.06.06.09.07c0 0 .01 0 .01-.01 0-.06 0-.12 0-.18 0-.03-.01-.06-.02-.08.03.03.07.06.11.09.09.06.18.13.28.16.04.06.08.12.12.18.05.07.13.12.18.19.02.02.04.06.07.07.03-.04 0-.15-.03-.23.05.06.09.12.13.19.05.09.06.19.09.29 0 .02.02.02.03 0 .05-.05.04-.16.04-.23 0-.03 0-.05 0-.08.02.07.03.14.03.21 0 .13-.01.24-.02.37v.01zm-3.13-1.72s0-.04 0-.06c0 .02.02.03.03.05s-.01 0-.02 0zm-6.47-2.25c.09-.02.17-.04.26-.06v.09c-.08-.02-.16-.02-.25-.03zm.36.06s.04-.09.06-.14c.02 0 .05 0 .07-.02-.02.06-.03.12-.05.18-.03 0-.06-.01-.09-.02zm.15-.2s-.03-.02-.04-.03c.02-.05.05-.09.07-.13h.03c-.02.05-.04.11-.06.17zm-.23-.08s-.04 0-.06 0c.02 0 .04-.01.06-.02zm-2.6 2.21s-.02 0-.02 0c0-.02 0-.04 0-.06 0 .02.02.04.03.05zm8.77-1.19c-.05.13-.08.26-.1.39 0-.02 0-.04 0-.05 0-.02 0-.04.01-.06 0 0 0-.01-.01 0-.07.13-.06.31-.06.45v.06c-.03-.14-.08-.3-.13-.44-.03-.04-.05-.08-.08-.13-.02.06-.02.15-.02.23-.07-.19-.17-.38-.28-.55-.01-.02-.03-.03-.04-.05.02-.16.02-.32 0-.47 0-.1-.02-.19-.03-.29v.02c.09.28.14.57.17.86 0 .02.03.05.05.03.08-.06.1-.15.11-.25.02-.23.05-.44.05-.67 0-.07 0-.15 0-.23.17.33.32.67.39 1.03-.02.04-.03.08-.05.12zm-8.69-2.41c.07-.06.13-.11.19-.18-.02.05-.03.09-.03.15 0 .11-.02.22 0 .33 0 .01.02.02.03.02.06-.02.11-.09.16-.14.05-.03.1-.05.15-.08-.02.04-.05.08-.07.13-.15.33-.24.73-.26 1.12-.06.09-.11.19-.16.28-.09.17-.15.34-.18.53 0-.03 0-.05 0-.08s.01-.06.02-.09c0 0 0-.01-.01 0-.1.16-.11.42-.13.6v.07c-.03-.19-.07-.4-.13-.6-.03-.06-.06-.12-.09-.18v.01c-.03.08-.05.2-.05.31-.07-.27-.18-.53-.32-.77-.06-.1-.12-.19-.19-.29.02-.02.04-.06.05-.08.09-.14.21-.25.3-.38.07-.11.14-.22.2-.34.18-.07.35-.2.5-.33zm-1.15.98s-.03-.05-.05-.08c.03-.05.06-.1.09-.14-.01.07-.03.14-.04.22zm7.11 1.46s.04 0 .06 0c-.02 0-.04.02-.06.03 0-.01 0-.02 0-.03zm-.65 6.07c-.02-.92 0-2.56-.02-4.26.14-.23.24-.48.33-.72.07-.19.16-.4.17-.61 0-.07 0-.13 0-.2s0 .02 0 .03c.01.05.02.09.03.13 0 .02.03.03.05.01.03-.06.05-.13.06-.2h.31c-.04.02-.07.04-.1.05-.07.04-.17.1-.21.17v.02c.12.03.23.11.34.16.02 0 .04 0 .06.02-.03.17-.07.34-.13.51 0 .02 0 .05.03.04.08-.02.13-.08.17-.15.06-.12.13-.23.19-.35.04 0 .09.01.13.01-.02 0-.04.01-.06.02-.01 0-.01.03 0 .03.03.02.06.03.09.05 0 .14-.02.27-.04.4-.28.14-.55.33-.71.59-.18.3-.29.71-.26 1.06 0 .02.02.01.02 0 .02-.09.04-.16.07-.24-.01.08-.02.16-.02.24 0 .16 0 .33.03.49.02.1.05.24.12.33.01.02.03-.01.03-.02 0-.06 0-.12 0-.18v.12c0 .08.03.15.05.23.04.13.1.28.19.38v.02h.01c.01 0 .02-.02.02-.02 0-.08-.04-.17-.05-.25-.01-.1-.01-.2 0-.31 0-.24.09-.46.18-.68v.12c.01.12.04.24.05.36 0 .05.03.1.07.13.02.01.03 0 .03-.02 0-.16.02-.32.06-.47v.15c0 .24.06.5.17.7 0 .01.02 0 .02-.01-.02-.07-.02-.14-.03-.2.02.06.05.12.07.18.05.12.11.24.19.35.05.07.12.17.2.2.02 0 .02-.02.02-.02-.02-.05-.04-.09-.06-.14.01.03.03.06.04.09.03.06.08.11.12.15-.1.16-.21.31-.32.47-.02.02-.03.05-.05.07-.03.04-.06.08-.09.12-.05.07-.1.14-.15.21s-.01.02-.02.03c-.04.06-.09.12-.13.18-.03.04-.06.08-.1.13-.04.05-.07.09-.11.14s-.01.01-.02.02c-.11.14-.23.28-.35.42s0 0 0 0c-.08.1-.17.19-.26.28s0 0 0 0c-.14.14-.28.28-.43.41 0-.33-.02-.66-.02-.99zm2.16-1.63s-.02-.04-.02-.06c-.08-.18-.09-.38-.09-.57.02.03.03.06.05.09.05.09.11.17.16.26.02.02.03.04.05.05-.05.08-.1.15-.15.23zm-6.63-.84c-.01-.18-.07-.39-.14-.56.05.08.1.17.14.25.05.09.08.18.1.27v.11h.01c0-.02 0-.03 0-.05 0 .02 0 .03.01.04 0-.02-.01-.05-.02-.07.02-.21-.02-.45-.07-.65 0-.02 0-.03-.01-.05 0-.02 0-.04 0-.06.04.05.08.11.11.16.02.03.04.06.05.09.02.03.03.06.05.09.05.09.1.19.15.29 0 .01.02.01.03 0 .01-.05.02-.09.02-.14.09.15.17.3.19.48.02.19.02.39 0 .58 0 .02.01.04.03.03.06-.03.09-.09.11-.15.04-.14.09-.28.13-.43.01-.05.02-.1.03-.15.07.28.14.56.1.85-.01.13-.03.25-.06.37-.02.1-.08.2-.1.3 0 .01 0 .04.02.03h.02s0-.01.01-.02c.12-.11.23-.28.3-.43.04-.09.07-.18.1-.27.01-.05.02-.1.03-.14 0 .07-.02.14-.02.21 0 .01.02.05.03.03.1-.09.16-.25.2-.38.05-.16.09-.33.11-.49v.02s0-.07.01-.11c.01-.09.02-.19.02-.29.03.1.04.19.05.3 0 .02.02.03.03 0 .1-.42.04-.93-.14-1.32-.02-.04-.04-.07-.06-.1.04.02.08.04.12.07.04.04.07.1.12.11 0 0 .02 0 .02-.01.02-.08 0-.16 0-.24 0-.04-.01-.08-.02-.11.04.05.09.09.14.13.11.1.23.19.37.25.04.09.09.17.15.25.06.09.14.17.2.27 0 .21-.01.41-.02.62 0 .14 0 .27-.01.41v.22c0 .14-.01.29-.01.43 0 .18-.01.36-.02.54v.31.33c0 .27-.01.55-.02.83v.08c0 .44-.02.88-.03 1.32-.08-.1-.16-.2-.24-.31-.1-.13-.2-.27-.29-.4s0 0 0 0c-.14-.2-.27-.39-.39-.6s-.01-.02-.02-.03c-.04-.06-.08-.13-.12-.19-.03-.06-.07-.12-.11-.18-.05-.08-.1-.17-.15-.26t0 0s-.02-.03-.03-.04c-.06-.1-.11-.2-.16-.3-.03-.06-.06-.11-.1-.17s-.04-.07-.06-.1c-.31-.59-.62-1.2-.88-1.82zm6.72.24c-.02-.12 0-.23.03-.35.01.03.02.06.04.08h.02c.03-.16.06-.32.12-.47 0 0 0 .02.01.03 0 .02-.01.05-.02.08-.01.1-.02.21 0 .32.01.09.01.2.06.28 0 .01.02 0 .03 0 0-.02 0-.05.01-.07 0-.04 0-.05 0-.01v.09c-.07.12-.15.24-.22.36-.04-.1-.08-.2-.09-.31z"/></svg>