<svg viewBox="0 0 30.14 32.25" xmlns="http://www.w3.org/2000/svg"><path d="m30.14 15.09c-.01-1.61-1.17-2.86-2.43-3.75h.03c.06 0 .24-.05.17-.14-.33-.46-.75-.84-1.2-1.18-.38-.29-.8-.49-1.24-.65-.25-.09-.5-.12-.76-.16-.06 0 .1-.03.15-.06.04-.02.12-.09.05-.13-2.02-1.11-4.5-.14-6.41 1.11.04-.18.09-.35.13-.53v.02c.02.07.22-.02.26-.04.47-.39.93-.79 1.4-1.18.09-.07.14-.18.18-.29 0 .03.01.06.02.1.01.07.23-.02.26-.05.37-.31.73-.61 1.1-.92.08-.07.13-.18.16-.31.04.04.19-.02.22-.04.59-.34 1.18-.69 1.77-1.03.39-.23.49-.38.57-.68.02.06.04.12.07.18.03.07.2-.01.24-.03.57-.33 1.14-.66 1.71-.98.41-.23.57-.32.68-.53 0 .03.01.06.02.1.01.07.21-.01.24-.03.4-.26 1.1-.47 1.19-.97.16-.8.32-1.6.47-2.39s0-.02-.02-.03c-.19-.05-.39-.09-.58-.13-.31-.06-.62-.11-.94-.15-.09-.01-.18-.02-.27-.03-.51-.05-1.02-.05-1.53 0-.31.03-.6.24-.7-.16 0-.03-.09-.02-.11-.02-1.32.25-3.3.58-4.34 1.59 0-.07-.02-.14-.03-.2 0-.01-.01-.02-.03-.02-.05-.01-.17.03-.19.03-1.21.68-2.34 1.75-2.79 3.08-.03-.05-.05-.1-.08-.14-.04-.07-.23.01-.27.06-.58.78-.89 1.72-1 2.7-.14-.42-.32-.84-.53-1.23-.17-.31-.42-.74-.77-.9-.04-.02-.11 0-.16.02.02-.2.04-.44-.01-.5-.27-.28-.55-.52-.86-.76-.7-.55-1.49-.99-2.33-1.29-.05-.02-.25.01-.24.09v.05c-.5-.64-1.63-.78-2.36-.94-.62-.14-1.29-.22-1.93-.2-.03 0-.24.05-.18.11.06.07.12.14.19.2-3.07.15-6.03 2.22-7.13 5.14-.03.08.21 0 .24-.01.71-.48 1.61-.57 2.43-.47.06 0 .22-.02.22-.1 0-.09.01-.18.02-.27.34.23.57.58.75.94.03.06.14.02.18 0 .6-.2 1.27-.39 1.91-.36.05 0 .21-.01.22-.08.02-.11.04-.21.06-.32.11.21.22.41.33.62.02.04.08.03.11.02 1.05-.15 2.2-.23 3.24.05.06.02.21 0 .24-.08.02-.07.05-.13.07-.2.1.2.21.4.31.58.01.03.05.03.08.03.95 0 1.89.35 2.66.91.06.04.21 0 .25-.05.03-.04.07-.09.1-.14-.01.14-.02.28-.03.42 0 .01.01.02.03.02.91.38 1.75.97 2.47 1.67-2.44-1.51-5.72-1.36-8.29-.3-3.28 1.35-4.92 4.73-4.52 8.19 0 .08.18.02.22 0 .38-.2.76-.39 1.15-.59.11-.05.19-.25.27-.48.01 0 .03.02.05.02.05 0 .11-.01.15-.04.47-.29.85-.65 1.36-.89.04-.02.08-.04.08-.09-.02-.52.1-.96.26-1.41.02.11.05.23.07.34.02.08.18.02.22 0 .18-.1.7-.25.77-.46.1-.33.21-.68.33-1.01v.06c-.01.1.18.04.22.02.43-.24.88-.48 1.35-.6.04-.01.1-.04.12-.08.08-.3.2-.59.43-.79.01.14.03.29.04.43 0 .06.09.04.15.02-.3.29-.58.6-.83.94-1.92 2.61-2.55 7.88.53 10 .06.04.24 0 .26-.07.26-.85.8-1.62 1.35-2.3.01-.02.01-.03 0-.05-.22-.33-.34-.69-.35-1.07.13.21.27.41.45.59.06.06.23 0 .26-.07.28-.59.58-1.16.9-1.72 0 0 0-.01 0-.02-.19-.3-.41-.65-.49-1.02.2.19.42.37.64.53.05.04.25 0 .26-.07.04-.29.1-.56.18-.84.06-.21.49-.86.45-1.04-.12-.46-.24-.98-.18-1.47.17.21.36.39.62.5.06.02.23 0 .24-.08.21-1.1.72-2.95 1.88-3.6-.11.38.2.96.28 1.29.94 4.18.77 8.58-.69 12.61-.19.54-.42 1.08-.66 1.63-.06-.03-.17.02-.21.04-.33.23-.61.51-.82.83.04-.65 0-1.32-.08-1.95-.01-.11-.23-.01-.26.03-.52.64-.73 1.44-.73 2.24-.07-.06-.15-.12-.24-.18-.39-.23-.9-.3-1.35-.26-.05 0-.23.09-.12.14.34.18.6.45.81.77-.18-.11-.38-.19-.61-.23-.58-.1-1.32.12-1.6.67-.06.11.13.08.18.07 1.07-.4 1.87.37 2.1 1.37v.01s0 0 0 .01c0 0 .01.01.02.02s.05.02.08.01c.11 0 .23.01.34.02h.06c0 .02.02.03.05.03h.02.04s.05 0 .08-.01h.01c1.33-.05 2.69.2 3.97.63v.03c0 .02.03.03.1.03.03 0 .23.07.39.12.06.02.13.05.19.07.07.03.13.05.2.08.18.07.36.15.54.23h.03c.28.11.57.22.88.27.39.07 1.23.01 1.21-.55 0-.17-.13-.32-.28-.44 1.03.3 2.1.68 3.02.23.04-.02.11-.07.07-.13-.48-.64-1.1-1.01-1.76-1.15 1-.12 2.06-.06 2.9.43.05.03.3-.04.25-.09-.56-.58-1.23-.94-1.91-1.06s0 0 0 0c-.02 0-.04 0-.07-.01-.06 0-.12-.02-.18-.02-.01 0-.02 0-.03 0-.17-.02-.34-.02-.51 0 .05-.05.1-.09.15-.14.25-.26.56-.6.61-.98 0-.05-.05-.09-.09-.09-.64-.03-1.26.08-1.82.32.52-.75.95-1.57 1.29-2.38.03-.07-.17-.03-.18-.02-1.16.42-2.01 1.35-2.55 2.44 1.07-5.48 1.27-11.61-1.56-16.43-.14-.24-.29-.47-.46-.69.63.2 1.22.57 1.71 1.01.25.23.39.6.72.68.39.09.79.18 1.17.3.06.02.24-.02.21-.12s-.07-.18-.11-.27c.17.2.34.4.6.54.71.39 1.49.77 2.09 1.32.07.06.24.02.26-.07.02-.07.03-.15.03-.22.1.2.22.38.45.5.58.3 1.15.64 1.68 1.02.2.15.79.95 1.16.92-.01.2-.01.42.07.51.44.48.85 1.02 1.09 1.62.04.09.22.04.26-.03.62-1.25.9-2.67.81-4.07.04.04.09.06.13.07.06.02.22 0 .22-.08zm-24.29-8.57s.03 0 .05 0c-.02 0-.04 0-.05 0z"/></svg>