<svg width="582" height="1021" viewBox="0 0 582 1021" fill="none" xmlns="http://www.w3.org/2000/svg">
<path d="M299.481 0V329.5C300.647 348.333 288.9 369.58 270.48 388C262.48 396 116.642 337 139.481 285C162.32 233 270.48 298.3 270.48 449.5C276.5 530.5 190.981 489.5 139.481 492C50.4804 496.321 4.97693 619.5 152.479 663C233.5 686.894 328.477 596 313.979 492C299.481 388 378.81 358.468 477.479 367C570 375 585.479 449.2 545.479 492C510.312 517.333 431.579 548.8 397.979 472C395.979 451.5 406.779 414.4 465.979 430C539.979 449.5 505.979 582.5 489.479 590C472.979 597.5 395.64 632.865 381.979 553C368.979 477 307.979 308 139.481 472C87.9788 522.127 137.479 556.7 241.479 559.5C320.979 553 331.979 600 344.479 631.5C371.479 667.5 419.479 730.5 489.479 675.5C559.479 620.5 467.479 522.5 330.479 553C248.479 510.5 259.979 402.973 102.979 405C-19 406.575 17.0001 487 38.9787 530.5C51.2959 576 183.313 616.052 214.5 641.5C263.521 681.5 216 737.5 136 740.5C56 743.5 47.8099 699.239 87.9788 648.5C114.5 615 139.481 604.465 198.979 600.5C266.5 596 299.481 614.708 299.481 671C299.481 729.5 299.481 926 299.481 1021" stroke="url(#paint0_linear_203_524)" stroke-width="31"/>
<defs>
<linearGradient id="paint0_linear_203_524" x1="293.018" y1="0" x2="293.018" y2="1021" gradientUnits="userSpaceOnUse">
<stop stop-color="#21232C"/>
<stop offset="1" stop-color="#334083"/>
</linearGradient>
</defs>
</svg>
