<svg width="545" height="655" viewBox="0 0 545 655" fill="none" xmlns="http://www.w3.org/2000/svg">
<path d="M53.7361 655C58.638 637.422 65.5453 620.297 73.9904 604.165C104.163 587.265 137.709 576.741 171.903 571.391C173.869 571.082 187.798 569.801 188.007 569.008L187.972 543.912C179.213 543.389 171.923 538.972 166.762 532.032L76.8519 531.953L75.6774 531.135L75.6127 526.967H71.1339V444.774H225.763L225.833 440.362C228.276 439.286 231.382 439.176 233.213 437.057C232.462 434.993 223.404 433.223 223.25 432.53C223.23 431.803 223.141 431.11 223.778 430.581C225.156 429.43 232.72 427.44 232.745 424.609C232.467 421.677 223.459 421.508 223.25 420.576C222.867 417.894 226.764 417.729 228.769 416.657C229.411 416.313 231.541 415.107 231.7 414.578C232.317 411.308 223.494 411.193 223.25 410.117C222.862 407.534 226.375 407.434 228.431 406.353C237.254 401.691 226.326 401.342 225.783 399.682C224.569 395.953 233.661 399.154 234.621 402.295C235.796 406.148 231.307 407.35 229.247 409.409C236.05 410.465 236.746 416.642 230.053 418.846L229.74 419.873C239.906 422.066 235.164 428.253 228.749 431.588C228.51 432.067 237.219 433.184 235.497 438.338C234.323 441.853 227.53 440.587 228.247 444.784H386.852L387.32 449.55L391.829 449.77V531.963H291.144C287.158 537.446 281.838 541.739 275.036 542.97L274.981 571.317C305.108 575.245 336.43 582.484 364.319 594.643C372.863 598.367 383.453 602.38 387.937 610.83C394.71 623.597 397.786 640.911 400.776 655.005H398.288C395.745 643.274 393.167 631.09 388.853 619.878C383.827 606.822 381.423 605.615 369.136 599.783C340.014 585.958 306.8 578.396 274.986 573.809V610.172H192.948V605.187H187.977V572.309C155.157 575.32 121.725 583.874 91.8411 597.784C88.1137 599.518 78.8873 603.611 76.1303 605.954C74.2293 607.565 69.2428 619.554 67.9241 622.64C63.4104 633.164 59.5387 644.037 56.2244 655.005H53.7361V655ZM384.872 446.773H73.1295V524.983H163.617C163.338 522.186 160.616 511.288 165.309 511.528C168.683 511.702 166.936 516.872 170.937 518.891C175.844 521.364 178.79 519.439 182 515.75C192.814 503.322 195.745 484.806 217.691 490.978C222.364 492.294 225.828 494.991 228.998 498.571C234.537 491.576 245.719 487.708 254.244 490.719C264.829 494.458 269.278 508.033 275.996 515.75C279.28 519.519 282.406 521.538 287.382 518.716C290.985 516.673 289.358 511.692 292.687 511.528C297.375 511.298 294.663 522.151 294.379 524.983H384.867V446.773H384.872ZM268.029 544.411C254.323 544.79 237.851 543.987 228.998 531.967C220.145 543.987 203.673 544.79 189.967 544.411V603.193H268.029V544.411Z" fill="white" fill-opacity="0.59"/>
<path d="M26.873 198.181L0 190.907L3.03566 178.28C3.90654 177.432 16.512 181.894 18.8858 182.014C21.2596 182.133 22.3942 179.202 20.0851 177.866C18.418 176.899 4.60325 174.416 4.5087 173.499L7.96736 161.045C9.30603 160.063 20.0503 164.271 22.6928 164.351C25.6339 164.44 26.3057 161.788 24.0563 160.437C21.9911 159.201 9.47025 156.962 8.98754 156.349L12.9389 143.113C13.76 142.56 26.6939 147.56 28.8736 146.653C30.257 145.96 30.3815 143.298 28.7442 142.789L13.959 138.921L17.4625 125.485C18.2587 124.912 30.4611 129.284 32.6955 129.314C35.2335 129.354 35.771 126.253 33.4918 125.081C30.1077 123.342 22.8371 122.624 18.9455 121.472L22.1702 108.017C22.5883 107.344 22.862 107.812 23.2949 107.857C26.5894 108.201 36.4378 112.454 38.8216 111.272C39.8418 110.764 40.0756 109.532 39.583 108.53C38.7121 106.755 25.9972 104.487 23.4094 103.545L26.6789 92.0737L53.129 99.7859L26.873 198.181Z" fill="white" fill-opacity="0.59"/>
<path d="M417.189 97.5675L399.766 171.275L380.905 167.317L379.895 182.248C379.268 182.951 375.381 178.26 374.68 177.766C371.345 175.423 366.732 178.589 362.995 178.758L368.464 163.822L292.886 145.88L293.677 142.375L288.452 140.586L306.542 67.2917L412.62 93.31L412.188 96.3212L417.194 97.5675H417.189ZM384.374 162.322L392.69 164.236L393.72 163.468L410.52 94.5564L307.353 69.7046L290.607 139.429L366.727 157.85L367.479 157.586C363.07 146.558 375.998 136.892 385.13 144.878C390.853 149.883 389.579 157.481 384.374 162.317V162.322Z" fill="white" fill-opacity="0.59"/>
<path d="M358.591 245.591C358.287 253.164 361.412 252.77 367.454 250.736C372.843 248.922 377.994 243.532 379.761 238.158C380.472 236 381.458 231.234 380.562 229.185C380.129 228.198 376.79 228.472 376.422 224.798C375.809 218.681 386.489 218.466 384.767 225.74C384.538 226.717 383.593 227.31 383.399 228.352C383 230.461 383.573 233.283 383.249 235.676C381.841 246.15 371.151 255.387 360.507 254.485L361.502 260.961L333.514 256.38L332.678 255.736L339.541 243.772C324.412 230.964 335.888 205.938 355.54 210.894C372.381 215.141 374.366 238.512 358.591 245.591ZM353.883 232.41C358.601 227.235 348.897 221.188 346.468 227.215C344.199 232.839 350.952 235.626 353.883 232.41Z" fill="white" fill-opacity="0.59"/>
<path d="M531.046 172.786L532.952 172.701L536.749 165.931C537.222 166.13 537.744 166.16 538.013 166.679C538.317 167.257 539.919 176.6 540.979 175.777C541.238 173.225 542.671 173.035 544.965 173.289L544.995 174.999C541.93 175.104 542.611 180.388 540.252 180.777C539.227 180.947 539.531 180.428 539.277 179.765C538.232 177.028 537.635 173.678 537.008 170.802C535.993 169.77 534.888 174.381 534.196 174.825C532.728 175.767 530.095 174.855 529.16 175.393C528.329 175.872 523.825 183.873 523.352 185.259C522.646 187.313 522.631 189.846 521.854 191.725C519.978 196.242 520.242 198.216 519.023 202.334C518.824 203.017 517.843 203.406 517.739 203.979C517.49 205.315 518.993 206.681 516.619 208.396C515.156 209.453 507.019 209.448 504.974 209.124C503.596 208.909 501.993 207.708 501.804 206.312C501.7 205.539 502.267 204.787 502.118 204.039C501.884 202.877 499.913 198.565 499.719 197.433C499.525 196.302 500.187 194.806 499.953 194.188C499.759 193.659 498.45 192.951 497.977 191.73C496.982 189.173 497.037 186.082 495.688 183.066C495.2 181.974 491.463 175.961 490.786 175.523C490.284 175.194 489.841 175.259 489.288 175.283C489.084 176.56 488.009 180.782 486.556 180.782C485.581 180.867 485.581 180.139 485.317 179.511C484.794 178.265 483.456 170.802 482.57 170.812C480.415 174.825 479.893 175.956 474.861 175.283V173.294C480.848 174.581 479.798 168.872 483.068 165.831C484.501 165.826 485.7 173.598 486.248 175.089C487.034 177.233 488.835 172.821 488.791 172.093C488.711 170.737 487.074 167.546 486.845 165.517C484.69 146.239 504.472 132.395 521.606 142.146C532.474 148.333 536.087 161.529 531.046 172.786ZM514.638 192.712C521.038 193.709 519.54 189.801 520.839 185.733C524.497 174.291 534.773 170.338 530.076 155.582C523.89 136.154 494.628 136.747 489.532 156.858C486.098 170.413 493.648 172.836 497.977 182.756C499.943 187.253 498.584 194.183 505.183 192.717L502.187 175.298C498.161 175.553 496.604 173.14 497.231 169.306L492.827 169.241C492.03 166.858 491.622 159.161 493.384 157.486C493.956 156.943 495.34 157.062 495.663 156.03C496.131 154.555 495.335 152.057 496.872 150.521C497.838 149.559 500.222 149.604 500.605 149.275C501.038 148.906 500.958 146.792 503.173 146.119C504.208 145.805 507.88 145.546 508.453 146.364L508.672 174.042L507.856 175.219L504.188 175.543L507.184 192.717L512.598 192.667L515.639 175.543L511.971 175.219L511.155 174.042L511.135 146.728C511.389 145.626 515.619 145.805 516.654 146.124C518.873 146.807 518.774 148.896 519.217 149.28C519.719 149.709 521.984 149.33 523.113 150.606C524.587 152.276 523.626 155.377 524.308 156.384C524.606 156.828 525.766 156.903 526.333 157.341C528.369 158.927 527.388 163.628 527.493 166.006L526.751 166.754L523.059 167.038L522.133 173.957L517.634 175.303L514.638 192.722V192.712ZM506.681 148.378L503.272 148.448L502.705 153.862H500.719V151.862C496.33 151.005 499.216 156.733 498.022 158.378L494.757 159.59V167.312L497.027 166.843L497.708 162.546L501.72 162.327V164.824H499.231V172.048C501.152 174.002 504.282 173.414 506.691 172.796V148.388L506.681 148.378ZM516.131 164.819H525.079L524.86 159.311L521.576 158.014L521.382 152.331L517.405 151.429C516.619 150.855 518.047 146.992 513.608 148.602L513.215 149.2C512.603 154.709 513.146 154.071 517.898 154.829L518.112 158.847L516.092 158.633L515.624 156.354L513.942 156.414L513.21 157.177V171.983C513.678 173.424 518.739 172.781 520.133 172.581C520.849 172.083 521.257 166.784 519.351 166.813C518.142 166.833 518.381 168.214 517.794 168.344C515.241 168.917 515.395 166.594 516.126 164.829L516.131 164.819ZM502.456 195.205C501.301 195.648 501.7 197.697 502.456 197.697H517.371C518.306 197.697 518.306 195.205 517.371 195.205H502.456ZM503.202 202.179H516.38L517.122 200.943C516.729 200.514 516.37 199.971 515.778 199.796C514.748 199.487 505.138 199.492 504.053 199.796C502.66 200.185 502.829 201.087 503.202 202.184V202.179ZM515.634 204.672H504.198C504.103 206.322 503.879 206.726 505.551 207.03C506.96 207.284 514.887 207.469 515.415 206.696L515.634 204.672Z" fill="white" fill-opacity="0.59"/>
<path d="M134.251 313.8L135.281 319.244L138.7 318.806L155.665 386.491L112.23 396.99L110.438 391.681L107.437 392.474L90.0246 324.728L134.246 313.8H134.251ZM132.788 315.755L92.5179 325.72L108.448 389.966L149.205 380.01L132.788 315.75V315.755Z" fill="white" fill-opacity="0.59"/>
<path d="M277.474 262.452C283.038 262.831 288.975 265.707 288.363 272.113C287.745 278.529 280.35 290.055 273.224 290.364C269.487 290.529 268.9 288.53 266.511 287.632C264.704 286.954 263.067 287.393 261.091 286.087C254.831 281.944 257.892 267.806 261.156 262.292C264.52 256.614 269.81 257.935 274.692 260.926C276.319 258.284 277.872 256.365 280.768 255.043C282.177 254.4 286.476 253.159 284.705 255.996C284.098 256.968 276.932 258.623 277.474 262.447V262.452Z" fill="white" fill-opacity="0.59"/>
<path d="M207.052 337.999C194.372 325.606 211.511 305.041 226.017 315.76C242.245 327.749 221.892 352.506 207.052 337.999Z" fill="white" fill-opacity="0.59"/>
<path d="M319.64 0.054815C338.421 -1.42582 340.805 27.838 321.969 29.3186C302.645 30.8341 300.659 1.55539 319.64 0.054815Z" fill="white" fill-opacity="0.59"/>
<path d="M179.029 74.655L169.579 105.04L147.712 82.3673L148.558 81.2306L179.029 74.655Z" fill="white" fill-opacity="0.59"/>
<path d="M361.009 340.661L365.727 309.294L390.331 328.961L361.009 340.661Z" fill="white" fill-opacity="0.59"/>
<path d="M64.5649 389.622C84.3614 387.713 87.1582 418.213 67.4065 419.863C47.6101 421.518 45.0969 391.501 64.5649 389.622ZM64.0474 392.598C48.894 394.916 51.4668 418.985 67.8644 416.842C83.5502 414.788 80.3155 390.111 64.0474 392.598Z" fill="white" fill-opacity="0.59"/>
<path d="M26.7635 261.081C37.2938 260.487 37.7516 278.36 25.181 276.371C17.2585 275.114 17.4525 261.609 26.7635 261.081Z" fill="white" fill-opacity="0.59"/>
<path d="M247.476 127.644C257.25 127.439 260.439 141.902 250.969 145.481C237.07 150.736 232.959 127.948 247.476 127.644ZM246.525 130.55C236.876 132.171 241.942 147.819 250.79 142.316C257.17 138.347 252.806 129.493 246.525 130.55Z" fill="white" fill-opacity="0.59"/>
<path d="M130.778 322.03L96.5719 330.574C96.3052 330.64 96.1429 330.911 96.2094 331.178L97.5626 336.615C97.6291 336.882 97.8992 337.045 98.1659 336.978L132.372 328.435C132.639 328.368 132.801 328.097 132.735 327.83L131.381 322.393C131.315 322.126 131.045 321.963 130.778 322.03Z" fill="white" fill-opacity="0.59"/>
<path d="M125.213 458.858C130.215 458.175 134.723 459.037 138.924 461.799C141.098 463.23 146.01 467.827 144.856 470.544C142.417 476.262 133.141 480.564 127.134 480.09C122.76 479.741 110.732 473.604 111.996 468.574C113.041 464.407 121.088 459.426 125.213 458.858ZM129.309 462.707L128.06 461.196C124.885 461.57 123.093 463.793 122.864 466.904L124.084 467.692C125.358 464.691 125.612 463.135 129.309 462.707ZM120.859 463.215C120.341 462.647 114.255 467.837 114.479 469.347C121.113 480.489 135.997 480.265 142.671 469.347C141.352 466.58 138.934 464.616 136.276 463.215C140.178 479.103 116.798 479.238 120.854 463.215H120.859Z" fill="white" fill-opacity="0.59"/>
<path d="M326.084 458.858C332.146 457.976 337.874 459.541 342.347 463.724C347.583 468.614 346.652 471.346 341.357 475.653C334.689 481.077 326.517 481.536 319.286 476.87C317.216 475.534 312.369 471.231 312.986 468.694C313.996 464.556 322.043 459.446 326.084 458.858ZM330.175 461.221C327.577 460.039 322.695 465.154 323.954 467.198C325.139 469.123 326.144 465.09 326.681 464.441C328.115 462.722 330.533 463.739 330.175 461.221ZM337.142 463.215C341.173 479.188 317.933 479.173 321.72 463.215C318.948 464.476 316.689 466.61 315.325 469.347C321.999 480.27 336.883 480.494 343.517 469.347C343.741 467.832 337.655 462.642 337.137 463.215H337.142Z" fill="white" fill-opacity="0.59"/>
<path d="M148.06 151.695C148.037 150.225 146.841 149.041 145.368 149.041C143.881 149.041 142.676 150.248 142.676 151.738C142.676 152.781 143.267 153.686 144.132 154.135L135.727 182.324C134.278 182.367 133.116 183.558 133.116 185.02C133.116 185.682 133.355 186.289 133.751 186.759L128.011 195.532C127.846 195.5 127.676 195.484 127.502 195.484C126.403 195.484 125.458 196.144 125.04 197.089L106.531 195.5C106.101 194.583 105.171 193.948 104.093 193.948C102.606 193.948 101.401 195.156 101.401 196.645C101.401 197.318 101.647 197.934 102.053 198.406L98.1241 226.996C96.9208 227.266 96.0215 228.342 96.0215 229.628C96.0215 231.118 97.2269 232.325 98.7138 232.325C100.201 232.325 101.406 231.118 101.406 229.628C101.406 228.646 100.882 227.787 100.099 227.315L103.944 199.338C103.993 199.341 104.043 199.343 104.093 199.343C105.276 199.343 106.28 198.579 106.642 197.517L124.967 199.091C125.34 200.133 126.334 200.878 127.502 200.878C128.989 200.878 130.195 199.671 130.195 198.181C130.195 197.596 130.009 197.055 129.694 196.614L135.524 187.702C135.617 187.712 135.712 187.717 135.808 187.717C137.295 187.717 138.501 186.509 138.501 185.02C138.501 184.223 138.156 183.507 137.608 183.014L146.166 154.314C146.622 154.173 147.026 153.913 147.343 153.571L164.058 161.834C164.033 161.981 164.02 162.133 164.02 162.287C164.02 163.776 165.225 164.984 166.712 164.984C168.199 164.984 169.405 163.776 169.405 162.287C169.405 160.797 168.199 159.59 166.712 159.59C166.111 159.59 165.555 159.787 165.107 160.122L148.06 151.695Z" fill="white" fill-opacity="0.59"/>
<path fill-rule="evenodd" clip-rule="evenodd" d="M171.981 129.405C171.838 128.917 171.697 128.434 171.53 127.998L63.6841 178.773L97.2455 250.013C97.6343 250.503 98.0675 250.426 98.5228 250.345C98.9941 250.262 99.489 250.174 99.9826 250.706C100.903 251.698 101.854 254.106 101.973 255.482L209.858 204.662L175.58 132.704C173.164 133.44 172.562 131.386 171.981 129.405ZM169.842 129.997L202.339 199.128L98.7335 248.493L66.2072 180.059L169.842 129.997Z" fill="white" fill-opacity="0.59"/>
<path d="M187.533 235.29L179.54 259.473L182.389 260.415L190.381 236.231L187.533 235.29Z" fill="white" fill-opacity="0.59"/>
<path d="M197.172 247.575L192.592 242.303L194.857 240.335L201.146 247.575L194.857 254.816L192.592 252.848L197.172 247.575Z" fill="white" fill-opacity="0.59"/>
<path d="M175.06 241.99L177.325 243.958L172.745 249.226L177.325 254.499L175.06 256.466L168.771 249.225L175.06 241.99Z" fill="white" fill-opacity="0.59"/>
<path d="M183.587 290.27L181.015 292.882L186.275 298.146L188.957 295.574L183.587 290.27Z" fill="white" fill-opacity="0.59"/>
<path d="M169.216 304.642L179.671 294.402L184.872 299.522L174.416 309.991L169.216 304.642Z" fill="white" fill-opacity="0.59"/>
<path d="M167.812 306.223L166.503 312.763L173.013 311.372L167.812 306.223Z" fill="white" fill-opacity="0.59"/>
</svg>
