<svg width="86" height="59" viewBox="0 0 86 59" fill="none" xmlns="http://www.w3.org/2000/svg">
<path d="M10.4873 27.4277C12.7622 28.3165 14.6677 29.533 16.4678 30.9404C17.7871 31.9708 18.8728 33.1445 19.8672 34.4375C21.5835 36.6655 22.6675 39.1702 23.3271 41.7871C23.5392 42.628 23.8 43.4059 23.8428 44.2656L23.8896 45.209C23.9091 45.6167 24.0646 45.9749 24.0938 46.4014L24.1699 47.5117L24.2402 49.3799C24.2519 49.7023 24.2558 50.0077 24.2402 50.3301L24.1504 52.3379L23.9814 54.7568L23.8721 56.0771L24.7461 55.8867C24.8395 55.2966 24.8411 54.6875 24.9033 54.0684L25.0439 52.6797C25.2347 50.7878 25.0239 46.9776 24.8877 44.9629L25.3799 44.1885L27.459 44.3164L29.0664 44.4482C29.2104 44.4604 29.4399 44.5811 29.5352 44.7021C27.9589 48.0526 27.7677 52.0497 28.3262 55.6611L31.2998 55.8027L33.3281 55.9736L35.25 56.1631L36.7275 56.3213L38.4258 56.5215L42.3691 57.0225L43.8613 57.1729L45.29 57.3857C45.2258 54.7707 44.2408 52.5037 42.5928 50.4004C41.0555 48.4386 38.8193 46.8381 36.418 45.748C34.5401 44.8968 32.6602 44.1992 30.5664 43.9092L29.3076 43.7334C28.5098 43.6225 27.7371 43.6253 26.8809 43.4053C28.2176 42.8441 29.5621 42.416 31 42.2471L32.3799 42.085C33.4715 41.957 34.9075 42.118 36.0244 42.2715C38.1105 42.5581 40.0106 43.2506 41.8438 44.124C43.7078 45.0111 46.2311 46.7338 47.2197 48.3594C48.613 50.6505 49.54 53.1554 49.8066 55.7178L50.0127 57.6875C50.0419 57.9741 50.7341 58.0065 50.9209 57.8291L50.7285 56.1104C50.5339 54.3737 50.0729 52.7541 49.4502 51.0908C48.4169 48.329 46.9493 45.8114 45.1533 43.3652C43.4389 41.0315 41.4596 38.9415 39.2432 36.9609C36.8555 34.8268 34.4311 32.8168 31.6328 31.1143L27.5615 28.6357L26.3926 27.9902C26.7387 27.9221 26.9936 27.9362 27.3086 27.9941C30.5933 28.5844 33.9793 29.879 36.8398 31.4023C38.2585 32.1581 39.5839 32.9161 40.8955 33.8066C45.1473 36.6913 48.7025 40.0875 51.4365 44.1611C53.9974 47.9739 55.5375 52.1485 56.1738 56.5293L56.3818 57.9629L57.9463 57.9043C58.3802 56.5944 58.8686 55.3476 59.709 54.1895C61.5868 51.6033 64.5333 49.8896 68.001 49.4512C71.0231 49.069 74.0044 49.4145 76.7988 50.4824C76.8727 50.5285 76.9162 50.5607 76.9551 50.6084L75.7031 50.6777L73.4736 50.8623C73.0475 50.8981 72.553 50.9662 72.1055 51.0566L72.1133 51.0605L70.4805 51.3877C69.7118 51.5429 68.9641 51.7849 68.2246 52.0391C65.8663 52.8494 63.4792 54.4704 62.8174 56.71L62.5664 57.5654C63.2123 57.6012 63.816 57.505 64.4658 57.4453L66.499 57.2598L68.4277 57.084L70.3652 56.9062L71.9785 56.7598L74.5166 56.5996L75.9346 56.4922H81.5996L83.0898 56.623L84.6748 56.6904C84.9004 56.701 85.1611 56.9328 85.1475 57.0879C85.1277 57.2923 84.9041 57.4848 84.6631 57.4697L83.2891 57.3857L81.7344 57.249C79.6736 57.0682 77.6184 57.0823 75.5596 57.2529L73.9736 57.3838C73.1991 57.4486 72.4806 57.4606 71.7158 57.5322L69.791 57.7119L67.8379 57.8896L66.5811 58.002L64.4541 58.1934L62.416 58.3701L60.457 58.5303L57.2422 58.7051L55.2002 58.7861C54.241 58.8254 53.344 58.8441 52.3867 58.7861L50.9326 58.6992C50.1914 58.6549 49.5138 58.6161 48.7861 58.5342L47.4053 58.3809L45.5684 58.1846L43.9512 57.9775L42.4092 57.792L40.9736 57.6162L39.5293 57.4355L38.1689 57.2646L36.54 57.0752L35.1592 56.917C34.2544 56.8129 33.3784 56.7169 32.4658 56.6367L30.7979 56.4922L28.4727 56.4355C27.774 56.4185 27.1273 56.3675 26.4326 56.4307C23.9749 56.6577 21.0382 57.9351 17.1484 58.208L14.9658 58.3613C13.5472 58.4603 12.2096 58.5121 10.7871 58.4541L8.4541 58.3584L4.66699 58.1758L2.68066 58.0293L0.428711 57.8652C0.278875 57.8548 0.0457592 57.6299 0.00488281 57.5088C-0.0359828 57.3877 0.197794 57.1074 0.341797 57.1143L3.00781 57.2627L5.63086 57.4355L8.64648 57.6006L10.1084 57.6709C11.1203 57.7187 12.0488 57.7716 13.082 57.7119C13.1248 56.9034 13.0936 56.2312 13.0664 55.4824L12.9785 53.0771L12.7803 51.4463C12.7277 51.0147 12.6227 50.581 12.5234 50.1562C11.7957 46.3316 9.30878 43.2706 5.40723 41.1484C10.1202 41.5256 14.364 44.462 16.6621 47.8994C18.5049 50.7107 19.3439 53.8665 19.1377 57.123C19.3829 57.1691 19.8696 57.0996 19.9863 56.9443C20.1654 56.5076 20.1082 56.0449 20.0635 55.5996L19.9395 54.3242C19.7546 52.4221 19.1276 50.6221 18.2539 48.877C18.3609 44.7878 18.044 41.0974 16.4658 37.2607C15.0453 33.5384 13.0579 30.7714 10.4873 27.4277ZM77.0283 29.4961C79.5056 29.2334 84.2985 30.0705 82.6172 30.2939C80.5624 30.5652 78.6942 31.1741 76.8359 31.957C73.9619 33.1682 71.5491 34.8268 69.2549 36.7373C68.7956 37.1211 68.3744 37.4695 67.9404 37.8994C62.9122 42.8722 59.0886 48.5206 57.4268 55.1055L57.4229 55.1094C57.3003 55.5954 57.2785 55.9144 57.082 56.3135C56.9828 55.9791 56.956 55.7414 56.9326 55.4395L56.6797 54.2061C56.2477 52.1011 55.5668 50.0998 54.625 48.0801C56.3706 43.7898 59.0697 39.8816 62.5977 36.5244C64.3041 34.9005 66.205 33.5597 68.2676 32.3076C69.583 31.5076 70.9782 30.9573 72.4688 30.4336C73.9593 29.9099 75.4444 29.665 77.0283 29.4961ZM72.1406 39.1914C75.6998 37.9017 81.3001 37.1683 84.5654 39.3945C84.1977 39.5957 83.8744 39.565 83.4775 39.6094C79.5507 40.0461 75.8595 41.2626 72.4795 43.0537C69.7668 44.4901 67.9464 45.7094 65.8506 47.8555L64.582 49.5361C62.0019 50.4164 60.2119 52.0576 58.6475 54.1523C59.4648 50.9998 60.9549 48.1368 62.7529 45.4482C63.0798 44.9604 63.5455 44.5207 63.9639 44.1045C65.398 42.6835 67.1064 41.5626 68.9355 40.5527C69.965 39.9847 71.0256 39.5957 72.1406 39.1914ZM84.9219 10.2168C84.3361 10.5955 83.7576 10.7999 83.1641 11.1104C80.574 12.4666 78.2213 14.0232 75.9912 15.8281C70.6243 20.1697 65.4595 25.8416 62.4277 31.6895C61.5677 33.3492 60.9097 34.9921 60.5225 36.7695C60.4621 37.0459 60.4779 37.4493 60.2988 37.6523C57.6428 40.6598 55.7939 43.3122 54.1963 46.8877C53.7743 46.7359 53.8651 46.3917 53.8379 46.0625C53.7133 44.6295 53.7723 41.9184 54.0059 40.5332L54.208 39.3252C54.7568 36.0447 56.0001 32.9516 57.6191 29.9492C59.7091 26.0751 62.5409 22.5983 65.9521 19.543C68.6239 17.1479 71.5103 15.1012 74.8223 13.4346C76.5074 12.5868 78.1378 11.8323 79.9922 11.3018C81.6054 10.8394 83.1296 10.3482 84.9219 10.2168ZM37.8857 1.58398C37.9871 0.594714 39.0686 -0.141939 40.1484 0.0234375C41.2168 0.187209 41.8728 0.934748 41.8008 1.85938C41.7188 2.90802 40.9329 2.77189 41.5166 3.36035L42.3438 4.19629C42.1375 3.43041 41.9953 2.81428 42.501 2.20703C42.8843 1.7465 43.583 1.37633 44.3438 1.47852C45.2136 1.59623 45.8269 2.17643 46.0195 2.81445C46.2529 3.58872 45.7648 4.38669 45.0938 4.71094C44.2453 5.12037 43.3517 4.94994 42.5967 4.39551C42.694 4.66164 42.8923 4.89423 43.085 5.13477L44.3945 6.7666C44.4548 6.61313 44.4922 6.45078 44.5039 6.27344C44.5469 5.66116 44.9713 5.061 45.6328 4.80176C46.1465 4.59889 46.8389 4.61098 47.3564 4.80371C47.9888 5.03911 48.3684 5.61184 48.4424 6.13379C48.5222 6.70179 48.2987 7.30441 47.7656 7.7002C47.0126 8.25969 46.0004 8.14534 45.0684 7.70703C46.4752 9.9571 47.7184 12.1017 48.668 14.4746C50.1858 18.2635 51.1375 22.129 51.6064 26.1191L51.8281 28.0039C51.9293 28.8636 51.9709 29.6965 52.0215 30.5664L52.0928 31.8408C52.1103 32.1631 52.1203 32.4668 52.1611 32.7891C52.2584 33.5584 52.033 34.402 52.2373 35.1611C52.5701 36.3995 53.2447 37.5327 53.4043 38.8154L53.1787 40.1221H53.1846C53.0075 41.1473 52.8652 42.9773 52.8594 44.0264C52.8594 44.2362 52.8577 44.4124 52.6709 44.5557C51.2426 42.2663 49.5633 40.2514 47.6582 38.2861C47.3546 37.974 47.4695 37.4076 47.4209 37.0391C47.0045 33.9308 45.5328 30.8208 43.8398 28.0947C42.5944 26.0886 41.1333 24.3006 39.417 22.5947C38.985 22.1666 38.5299 21.8491 38.1543 21.3203C41.1335 22.3354 44.3561 24.8635 46.3838 26.8594C48.4115 28.8553 49.768 30.8108 51.21 33.1309C51.2605 32.3548 51.2059 31.6724 51.1729 30.9629C51.1281 30.0247 51.0787 29.122 50.9717 28.1787L50.7734 26.46L50.5557 24.8418C49.8376 19.5141 47.6518 12.8065 44.3223 8.1748C44.5693 9.21869 44.2872 10.0778 43.2832 10.5264C42.3861 10.9255 41.2364 10.644 40.7207 9.83887C40.2053 9.03373 40.4644 8.09227 41.3613 7.44922C41.3413 7.4545 41.3207 7.45862 41.3008 7.46387C42.3731 7.08161 43.1868 7.227 44.0576 7.83789C42.9893 6.19525 41.7557 4.73993 40.4053 3.4043C39.7243 3.52708 39.0801 3.46605 38.5801 3.09082C38.1286 2.75134 37.8215 2.19642 37.8857 1.58398ZM35.2656 37.2793C33.9249 38.6917 32.6346 39.9471 31.541 41.4141C29.8698 41.571 28.3813 42.0044 26.749 42.5791C26.8993 42.1761 27.2437 41.9347 27.5098 41.6436C29.1501 39.8507 32.3546 37.3393 35.2656 37.2793ZM38.5039 4.90039C39.2238 4.09874 40.6424 4.0544 41.4229 4.76367C42.2981 5.55979 42.1519 6.62937 41.2168 7.48535C40.3865 7.70334 39.6637 7.86822 38.9736 7.4668C37.9773 6.88679 37.7839 5.70219 38.5039 4.90039ZM41.2031 7.49902C41.2078 7.49477 41.2121 7.48962 41.2168 7.48535C41.2446 7.47805 41.2727 7.47128 41.3008 7.46387C41.2686 7.47533 41.2357 7.48661 41.2031 7.49902Z" fill="black"/>
</svg>
