<svg width="53" height="33" viewBox="0 0 53 33" fill="none" xmlns="http://www.w3.org/2000/svg">
<path d="M49.5754 32.9581L-0.194235 32.9539L5.40637 32.9456L5.49483 31.8219C5.51695 31.5496 5.53906 31.2815 5.53768 30.9954C4.57845 30.6402 3.70352 30.3264 2.83966 29.8247C0.973711 28.741 -0.767841 26.9926 -0.126508 24.6235C2.14027 25.3644 4.86179 26.6097 5.73533 28.9705C5.80583 28.8654 5.87908 28.6733 5.89567 28.5074L6.17487 25.7445L6.30894 23.656L5.30686 23.4348C4.04492 23.1556 3.33033 22.0126 3.73393 20.6829C3.17829 21.157 2.65859 21.5219 1.95368 21.4417C0.478889 21.2745 -0.643444 19.3961 -0.806542 18.0305C-0.93785 16.9247 -0.380829 16.0305 0.69451 15.6435C-0.622712 15.1279 -0.919881 14.4258 -0.806542 13.1085C-0.550838 12.1092 -0.0352836 11.2343 0.730446 10.5791C1.61781 9.82032 2.77193 9.74983 3.70905 10.5902C3.37042 9.3877 3.94264 8.36488 5.0553 7.98202C6.01453 7.65168 7.05947 7.67103 8.02976 7.97925C9.12583 8.32756 9.76578 9.26745 9.59163 10.4547C10.8314 9.66414 11.6373 9.81894 12.6919 10.7298C13.4659 11.5508 14.0768 12.6165 14.0575 13.7457C14.0409 14.7257 13.3885 15.3601 12.4638 15.631C13.5018 15.9973 14.1045 16.8073 14.0257 17.8881C13.904 19.5702 12.3629 21.8965 10.6379 21.3961C10.2565 21.2855 9.94408 21.0409 9.59024 20.8363C9.72432 21.8011 9.41747 22.5903 8.66556 23.063C7.44233 23.8329 7.04703 23.2275 7.00971 23.8675L6.94751 24.9179L6.79547 26.8834C8.19839 24.9165 10.3491 24.0983 12.5923 23.5039C13.0042 24.6747 12.3601 26.1259 11.5391 26.9843C10.2426 28.3402 8.29376 29.1018 6.46513 29.5814L6.28268 31.0562C6.20389 31.6948 6.1182 32.3195 6.18869 32.9456H24.3478C24.3202 31.9532 24.3478 31.0161 24.4197 30.0652L24.5012 29.0064C23.1536 28.5558 21.9 28.0154 20.6864 27.3036C20.0299 26.9179 19.4853 26.4646 18.9435 25.9366C17.6511 24.6774 16.8647 22.8985 17.3941 21.0589C18.3671 21.3187 19.2282 21.6919 20.1432 22.1148C21.4521 22.7202 22.6325 23.5164 23.5945 24.5848C24.1598 25.2123 24.4708 25.8758 24.7984 26.6899L25.0901 24.3512L25.2504 22.7202L25.3803 20.8363C25.4052 20.4811 25.4411 20.1217 25.4024 19.7886C24.0368 19.7223 22.6823 19.2219 22.2151 17.9185C21.9995 17.3145 22.1266 16.7077 22.2552 16.0623C21.7783 16.4866 21.3568 16.9289 20.7196 17.0215C19.7175 17.1666 19.0306 16.9455 18.2773 16.2254C17.3374 15.3283 16.7154 14.0692 16.544 12.7768C16.3643 11.425 17.1646 10.2986 18.4583 9.90049C18.298 9.81065 18.1114 9.71389 17.9248 9.63096C16.92 9.17899 16.3906 8.21284 16.526 7.07807C16.743 5.25912 18.3049 2.82785 20.2469 2.76566C20.9698 2.74216 21.5752 3.06697 22.1626 3.48301C21.9788 2.11879 22.1723 1.17476 23.3913 0.507167C24.3216 -0.00147629 25.3306 -0.0609102 26.3893 0.0427536C28.287 0.226584 29.7535 1.24387 29.5711 3.37105C30.0756 3.11535 30.4958 2.83062 31.0196 2.77118C33.0735 2.5376 34.8151 5.07805 35.0846 7.01034C35.2353 8.08983 34.775 9.04077 33.8531 9.52454L33.1523 9.8922C34.4253 10.2916 35.2325 11.4098 35.075 12.7865C34.9174 14.1631 34.2595 15.3698 33.3099 16.2668C32.7612 16.7851 32.1447 17.045 31.4149 17.1072C30.6851 17.1694 30.1641 16.7782 29.5324 16.2834C29.7646 17.5688 29.2615 18.7036 28.1488 19.2786C27.5835 19.5702 26.9836 19.7403 26.3243 19.7582L26.2359 21.392L26.1626 22.4963C26.1308 22.9663 26.0299 23.3989 26.0769 23.9117C27.3997 21.8647 29.7798 20.7672 32.0245 20.043C32.4529 19.9047 32.8455 19.7803 33.3196 19.7043C33.5767 20.8474 33.3486 21.9462 32.7626 22.9359C31.3361 25.3492 28.2235 26.5226 25.6277 27.2607L25.3057 30.0361L25.2324 30.9221C25.1757 31.6035 25.202 32.278 25.249 32.9498H43.8449C43.8601 32.2615 43.9016 31.6505 43.9859 30.9995C42.1697 30.4038 40.1434 29.4473 38.9769 27.9283C38.33 27.0866 37.8435 25.6256 38.3065 24.6207C40.67 25.4252 43.3003 26.6304 44.1974 29.0866C44.3218 28.2822 44.4254 27.5565 44.4918 26.7742L44.641 24.9912L44.7074 23.6505L44.0066 23.5067C43.4303 23.3878 42.858 23.1653 42.4821 22.712C42.0121 22.1439 41.9555 21.4376 42.1407 20.6967C41.1331 21.6104 40.1061 21.7513 39.0833 20.8349C37.9388 19.808 36.916 17.5716 38.1185 16.2765C38.388 15.9862 38.7654 15.8066 39.1013 15.6213C38.0881 15.367 37.4578 14.4797 37.5739 13.4403C37.7039 12.2778 38.3604 11.1914 39.2699 10.4838C40.1794 9.77609 41.2326 9.82032 42.0923 10.5639C41.943 9.52315 42.084 8.68417 43.0999 8.15479C43.9776 7.69867 44.9589 7.6807 45.932 7.84656C47.2409 8.0691 48.1905 8.98687 48.008 10.4547C49.0378 9.78024 49.9072 9.75951 50.8567 10.5335C51.7137 11.2329 52.2431 12.2322 52.4379 13.3007C52.6328 14.3636 51.9984 15.3007 51.0516 15.5633C51.0088 15.5757 50.8996 15.6227 50.9148 15.6352C50.9383 15.6545 51.006 15.7098 51.0765 15.7361C51.9334 16.0512 52.5803 16.9856 52.4338 18.0319C52.279 19.1362 51.7151 20.1549 50.9162 20.9096C50.1173 21.6643 48.8982 21.5896 48.1781 20.9331C47.7081 20.5046 48.554 22.0374 47.1774 22.9967C46.6729 23.3491 46.1158 23.5247 45.4717 23.5703C45.3197 24.3927 45.3722 24.9525 45.2824 25.873C45.2506 26.2006 45.2229 26.513 45.2285 26.8502C45.7274 26.2462 46.2043 25.6809 46.8636 25.2413C48.1311 24.3968 49.5298 23.8744 51.0267 23.5178C51.5437 26.213 49.2838 27.9062 47.1497 28.8267C46.3978 29.1515 45.6569 29.3547 44.8733 29.5952C44.7737 30.3471 44.6576 31.0714 44.6106 31.8178L44.5401 32.9484L49.5754 32.9581ZM26.4515 6.94262C26.0313 6.84448 25.5102 6.85277 25.1329 6.94538C23.5752 7.32825 22.6104 8.76019 22.815 10.2861C23.0195 11.812 24.2856 12.9067 25.8033 12.9054C27.3209 12.904 28.6423 11.7471 28.7971 10.2322C28.9505 8.72563 28.0148 7.30889 26.4515 6.944V6.94262ZM6.81482 18.0858C8.0961 17.9462 9.00558 16.8902 9.00558 15.7029C9.00558 14.5156 8.19839 13.4983 6.94336 13.2827C6.07259 13.1334 5.13961 13.5633 4.61162 14.311C4.08362 15.0588 4.04631 16.1189 4.57015 16.9648C5.00001 17.6573 5.8542 18.1908 6.81482 18.0858ZM45.2686 18.083C46.5125 17.9282 47.4179 16.875 47.4192 15.7057C47.4206 14.5363 46.612 13.5094 45.386 13.2896C44.3881 13.1113 43.3169 13.6559 42.8497 14.5819C42.4392 15.3961 42.5318 16.3815 43.0806 17.1169C43.5505 17.7458 44.3577 18.195 45.2686 18.0816V18.083Z" fill="#9F0000"/>
</svg>
