<svg width="61" height="69" viewBox="0 0 61 69" fill="none" xmlns="http://www.w3.org/2000/svg">
<g clip-path="url(#clip0_704_2586)">
<path d="M18.2732 67.9676L17.0907 67.8259L15.7336 67.6731L14.0131 67.4605C13.6439 67.4147 11.1865 67.0312 11.2889 66.6477C11.4317 66.1114 14.2352 65.6682 14.1703 64.9818C14.1314 64.5595 12.9834 64.4136 12.7729 64.4094L9.4271 64.3594L8.37289 64.2663L5.69193 64.201L3.79839 64.0009C2.99944 63.9162 0.257919 63.5021 0.0113114 62.6991C-0.167515 62.1169 1.58181 61.1624 2.07503 60.9345C3.23019 60.4024 4.41419 59.9939 5.64723 59.6507C6.41734 59.4368 7.13553 59.2256 7.9114 59.063L10.7611 58.4642L12.1138 58.235L12.9243 58.1085L14.4299 57.8973C14.6102 57.8723 14.8207 57.864 15.0068 57.882C15.5533 59.2423 16.0985 60.5455 16.7893 61.8335C16.8686 61.9821 17.1512 62.0627 17.2753 62.0099C17.3921 61.9613 17.5276 61.7015 17.4555 61.5639C16.6811 60.0912 16.074 58.6101 15.4755 57.0734L14.8265 55.4089C14.1256 53.6097 13.4723 51.8507 12.6272 50.1001C10.8923 46.5057 8.56902 43.0711 4.71416 41.326C3.8705 40.944 3.01819 40.5911 2.0981 40.4021L1.31934 40.2423C0.951592 40.1673 0.562212 40.2659 0.23196 39.9561C5.4136 38.4569 9.46171 39.5921 12.9748 43.5171C15.8562 46.7363 18.69 52.5565 20.1322 56.6024L20.1884 58.2641L20.2591 59.1839L20.3081 61.6334C20.311 61.8043 20.4797 62.0099 20.6095 62.0266C20.8287 62.0544 21.0205 61.9016 21.0191 61.6765L20.996 58.756C20.9946 58.5754 20.9297 58.3253 20.9181 58.1294L20.8302 56.5385L20.6138 54.4683L20.5201 53.7583L20.3918 52.7719L20.1682 51.2533L20.0557 50.5738C19.2712 45.8068 17.4772 40.1965 14.6491 36.1478C13.4896 34.4875 12.1008 32.9925 10.4654 31.7684C8.91658 30.6097 6.59328 29.419 4.71993 29.0619L4.11422 28.9466C3.66572 28.8618 3.2821 28.7757 2.81341 28.6284C3.30518 28.5228 3.70465 28.4325 4.16182 28.3866L5.59675 28.2449C6.57165 28.1477 8.03687 28.206 9.05791 28.3616C11.5586 28.7423 13.8949 29.7691 15.9052 31.2349C16.4532 31.635 16.896 32.0157 17.3906 32.4631C20.5879 35.3586 22.5132 38.9113 24.1341 42.9308C24.2149 41.0245 24.3317 39.2239 24.1543 37.4024L24.0505 36.3298L23.9553 34.6639L23.7765 32.9508L23.6294 31.635L23.4188 29.8941L23.2746 28.8576L23.0669 27.4724L22.9141 26.4971L22.7338 25.4425L22.5449 24.3588L22.4122 23.6488L22.1887 22.4762L22.0762 21.894L21.2917 18.2246L20.8417 16.2822L20.1971 13.7272C20.1307 13.4618 20.0788 13.0325 19.9086 12.8504C19.5481 12.6434 19.2063 12.5045 18.9366 12.2197C17.9574 11.1846 17.4195 9.92717 17.1123 8.56834C16.8772 7.52908 16.7345 5.67841 17.5421 4.80865C17.7295 4.60719 18.1723 4.38071 18.4679 4.40433C20.3903 4.56134 21.3926 7.18312 21.743 8.70033C21.9897 9.76878 22.1238 11.393 21.42 12.3044C21.2772 12.4892 21.1373 12.6796 21.2095 12.9602C22.3877 17.4702 23.4058 21.976 24.1111 26.579L24.3274 27.9879L24.4976 29.1897L24.6374 30.2443L24.8494 31.9671L25.0052 33.4301L25.1076 34.5291C25.1883 35.3989 25.2129 36.2284 25.272 37.0981L25.3239 37.8581L25.3816 38.5598L25.3758 42.9044L25.2792 43.9881L25.1624 46.1069C25.1523 46.2765 25.2532 46.596 25.2922 46.778L25.4292 47.4199C25.6022 48.2258 25.7436 49.2164 25.6441 50.0209L25.4378 51.6909L25.2763 52.9997L25.1797 54.2418C25.1249 54.9518 25.0888 55.6146 25.0283 56.3273L24.9143 57.6597L24.8667 60.8303C24.8624 61.1652 24.7903 61.6028 24.9187 61.9182C24.959 62.0183 25.2504 62.0447 25.3441 62.003C25.4508 61.9557 25.5503 61.7529 25.5546 61.6126L25.5864 60.7623L25.6412 57.9376C25.6513 57.4402 25.7378 56.9567 25.745 56.4607C25.7551 55.8369 25.8085 55.2603 25.8676 54.6461L26.0911 52.2953L26.2238 51.2338L26.3997 49.8653L26.5122 49.0497L26.6665 48.0757L26.867 46.8961L27.0054 46.125L27.64 43.142L27.8231 42.325C27.8765 42.0874 27.7222 41.6845 27.7049 41.4108L27.5967 39.7755C27.5693 39.3573 27.5203 38.946 27.5203 38.5195L27.5131 34.4555L27.5809 32.9939L27.6501 31.9546L27.7265 30.5791L27.8823 28.9827L28.1044 26.9153L28.2298 25.8524L28.3221 25.2049L28.5399 23.6947L28.6769 22.7874L28.8831 21.5105L29.0374 20.6324L29.1975 19.7224L29.4153 18.5567L29.7859 16.6838L30.9324 11.5264L31.7631 8.22655C30.7478 7.46239 30.8992 5.41025 31.1358 4.38349C31.4372 3.07469 31.9304 1.89092 32.813 0.853047C33.2283 0.363981 33.7936 0.0499782 34.4556 -0.00976562C34.6142 0.0346949 34.9416 0.130563 35.0685 0.215316C35.9756 0.821091 36.0073 2.12851 35.9367 3.08441C35.8227 4.63219 35.2142 6.33142 34.2075 7.5388C33.8672 7.94728 33.5052 8.21266 32.9918 8.41829C32.8288 8.65032 32.7596 9.05185 32.6861 9.35196L31.89 12.599L31.3492 14.9484L31.1286 15.9821L30.9714 16.7435L30.781 17.6591L30.6195 18.4719L30.4479 19.4126L30.2517 20.4935L30.1075 21.3244L29.9099 22.5151L29.8133 23.0805L29.6734 24.0628L29.4614 25.5815L29.3201 26.6999L29.1095 28.5089L28.9523 30.1553L28.7894 32.3047C28.7649 32.6326 28.7317 32.9605 28.7303 33.2884L28.7187 38.5056C28.8226 38.6126 28.8658 38.657 28.8629 38.5042C30.5214 32.9925 33.1158 27.1417 37.0154 22.7513C40.0958 19.2833 43.6046 16.9922 48.2959 16.1266C49.8289 15.8446 52.0311 15.7543 53.577 15.9599L55.3047 16.1892C55.8902 16.267 56.6892 16.4656 57.2257 16.5837C57.2733 16.5949 57.3136 16.7602 57.2747 16.7727C57.2358 16.7852 57.1363 16.8186 57.0757 16.8311L56.2118 17.0061L55.4879 17.159C51.7542 17.9495 48.4372 19.2319 45.227 21.2841C42.0197 23.3348 38.4446 27.2779 36.8697 30.5791L35.778 32.8674C34.5681 35.4045 34.0532 38.1013 33.1014 40.6897C32.4871 42.3598 31.4876 43.8186 30.9613 45.5734L30.5373 46.985L30.3339 47.9382L30.1839 48.7009L30.021 49.668L29.8191 51.056L29.6734 52.3036L29.4614 54.5878L29.3129 56.394L29.1384 58.335L29.0389 59.2951L28.8802 60.4635C28.8168 60.9331 28.6264 61.4444 28.749 61.9266C28.7807 62.053 29.1672 62.0419 29.2639 61.953C29.3778 61.8474 29.4196 61.6487 29.4513 61.4597L29.6792 60.0912C29.7426 59.7119 29.7628 59.3423 29.809 58.9574L29.9258 57.9932L30.0066 56.8761L30.1897 54.66L30.3296 53.0664L30.5474 51.1338L30.6945 50.0889L30.83 49.19C31.3333 45.861 32.5693 42.35 34.9575 39.7685C36.5063 38.0957 38.547 36.8842 40.7448 36.1422C41.8235 35.7782 42.8417 35.5017 43.9579 35.3475L45.2169 35.1738C45.5616 35.1266 45.9308 35.1419 46.287 35.1043L47.0744 35.0224C48.1315 34.9126 49.1843 34.9793 50.2428 35.0335L52.7377 35.1627C52.8069 35.2016 52.8127 35.285 52.7666 35.3405C52.5084 35.3975 52.3627 35.4281 52.1508 35.4614L51.3143 35.5934C47.7363 36.1575 44.3588 37.2787 41.551 39.5309C40.5169 40.3604 39.7093 41.2816 39.0027 42.3667C38.6883 42.8488 38.4013 43.3004 38.1302 43.8186C37.2981 45.4053 36.7154 47.0642 36.3304 48.801L36.14 49.6596L35.954 50.6405L35.7982 51.6798L35.5891 53.3498L35.4276 55.0018L35.354 56.5885L35.2834 57.6375L35.2243 59.6174C35.2055 60.251 35.1911 60.8442 35.217 61.482C35.2243 61.6417 35.4593 61.8265 35.5891 61.8196C35.7766 61.8099 35.9468 61.6153 35.9525 61.3972L36.0218 58.3572L36.0852 56.3204C36.0939 56.048 36.1126 55.7604 36.1371 55.4826L36.3102 53.4818C36.4169 52.2453 36.6606 51.7145 37.3788 50.6461C38.3955 49.1358 39.6502 47.8395 41.238 46.885C41.6346 46.646 42.0024 46.4098 42.4119 46.2042C43.4459 45.6873 44.5117 45.2511 45.6366 44.9524C46.7614 44.6536 47.8733 44.3827 48.9636 44.2743L50.5384 44.1187L51.6215 44.0548C52.1003 44.027 52.5603 44.052 53.0478 44.0632L55.1014 44.1048C55.1216 44.1048 55.1865 44.1159 55.2629 44.1257L55.3523 44.2521C55.0552 44.3633 54.937 44.3924 54.699 44.4383C54.1049 44.5508 53.5482 44.6842 52.9598 44.8398C49.4063 45.7874 45.8168 47.1754 43.4532 50.0584C41.9576 51.8827 41.1717 54.246 40.84 56.5288L40.6972 57.5083L40.4881 58.5656L40.3338 59.2464C39.9617 60.8859 38.9609 61.2722 39.2796 61.7723C39.3358 61.8599 39.6257 61.9057 39.7064 61.839C40.5847 61.1152 41.0347 59.6646 41.238 58.599L41.4197 57.6431C41.7932 57.6139 42.1595 57.6361 42.5374 57.6973C42.97 57.7667 43.4027 57.7473 43.8324 57.7945L45.8168 58.0182L46.9143 58.1558L48.156 58.3294C48.9463 58.4406 50.5096 58.8393 51.2811 59.1228C51.7902 59.3103 52.2531 59.5326 52.6036 59.9453C53.1184 60.5511 51.7772 61.4389 51.3157 61.7209L50.3942 62.2836C49.8996 62.5851 49.314 62.9394 49.3761 63.5563C49.464 64.4441 51.3129 64.5692 52.0469 64.572L55.2196 64.5873L56.2263 64.6651L57.3079 64.7179C58.3131 64.7665 60.0696 65.0346 60.9363 65.4028C61.3719 65.589 59.3211 66.2309 59.1971 66.2615L57.5862 66.6547L55.8297 67.0229L54.7293 67.2202L53.7559 67.3827L52.8185 67.5244L51.3186 67.7412L50.5009 67.8593L48.7704 68.0691L47.0701 68.2289L45.5616 68.3678L44.6227 68.4331C44.1987 68.4623 43.8065 68.5484 43.3767 68.5637L41.7024 68.6234L40.6265 68.704L37.3255 68.8388L35.8689 68.9138C34.3777 68.9902 32.8966 69.0097 31.4069 68.9166L30.1104 68.836L27.9529 68.7665L26.4704 68.7165L24.0995 68.5609L22.803 68.4275L21.071 68.2691C20.6586 68.2316 20.285 68.2052 19.8798 68.1538L18.266 67.9468L18.2732 67.9676Z" fill="black"/>
<path d="M58.8987 27.1796L58.7934 26.3626L58.6348 25.4734L58.4199 24.5008C57.9728 22.4723 56.9229 19.9186 55.3784 18.4222C55.2342 18.2819 55.0467 18.2374 55.0539 17.979L57.1681 17.5274C57.458 17.4663 58.8871 17.2273 59.1568 17.2635C59.5563 17.9762 59.8217 18.6918 59.9875 19.4698C60.3437 21.151 60.2759 21.836 60.2529 23.5755C60.25 23.8158 60.0048 25.4942 59.9385 25.8082L59.7914 26.5001L59.5909 27.3435L59.4438 27.9159C59.3688 28.2077 59.2607 28.4925 59.0905 28.7565L58.903 27.1796H58.8987Z" fill="black"/>
</g>
<defs>
<clipPath id="clip0_704_2586">
<rect width="61" height="69" fill="white"/>
</clipPath>
</defs>
</svg>
