<?xml version="1.0" encoding="UTF-8"?><svg id="Layer_2" xmlns="http://www.w3.org/2000/svg" viewBox="0 0 105.22 112.86"><g id="Layer_1-2"><path d="M52.49,0c-7.68.08-14.52.54-20.55,1.36-6.68.91-11.97,2.27-15.85,4.09l-1.73.99c-1.32.83-2.64,1.86-3.96,3.09-1.82,1.73-3.38,3.67-4.7,5.82-1.73,2.72-3.05,5.74-3.96,9.04-1.16,3.88-1.73,8.13-1.73,12.75v4.58c0,6.35.04,11.26.12,14.73.25,9.33.99,17.08,2.23,23.27,1.57,7.84,4.13,14.19,7.68,19.06,4.13,5.53,9.66,9.2,16.59,11.02,9,2.39,17.66,3.38,26,2.97,3.8-.25,7.43-.74,10.89-1.49,2.48-.58,4.75-1.28,6.81-2.1l2.35-.99-.5-9.28-2.72.74c-2.31.5-4.66.91-7.06,1.24-3.38.5-6.6.66-9.66.5-4.37-.08-7.68-.37-9.9-.87-3.55-.66-6.31-1.9-8.29-3.71-2.39-2.06-3.84-5.03-4.33-8.91-.17-1.16-.25-2.35-.25-3.59l3.09.74c2.56.5,5.24.91,8.05,1.24,3.96.58,7.8.95,11.51,1.11,3.47.17,7.26.08,11.39-.25,2.64-.17,6.27-.54,10.89-1.11s9.04-1.82,13.25-3.71c4.04-1.9,7.41-4.15,10.09-6.75s4.27-5.22,4.77-7.86c.74-3.71,1.28-8.21,1.61-13.49.33-3.8.54-7.8.62-12.01v-5.08c0-4.62-.58-8.87-1.73-12.75-.91-3.3-2.23-6.31-3.96-9.04-1.32-2.15-2.89-4.09-4.7-5.82-1.24-1.24-2.56-2.27-3.96-3.09-.99-.66-1.57-.99-1.73-.99-3.8-1.82-9.04-3.18-15.72-4.09-6.11-.83-12.96-1.28-20.55-1.36h-.37ZM36.15,19.19c6.02,0,10.52,2.31,13.49,6.93l2.97,4.83,2.97-4.83c2.97-4.62,7.47-6.93,13.49-6.93,5.2,0,9.37,1.77,12.5,5.32s4.7,8.38,4.7,14.48v29.59h-11.76v-28.72c0-6.11-2.52-9.16-7.55-9.16-5.69,0-8.54,3.63-8.54,10.89v15.72h-11.64v-15.72c0-7.26-2.85-10.89-8.54-10.89-5.03,0-7.55,3.05-7.55,9.16v28.72h-11.76v-29.59c0-6.11,1.57-10.93,4.7-14.48,3.14-3.55,7.3-5.32,12.5-5.32Z"/></g></svg>